<?xml version="1.0" encoding="UTF-8"?>
<!-- Generator: Adobe Illustrator 15.1.0, SVG Export Plug-In . SVG Version: 6.00 Build 0)  -->
<!DOCTYPE svg PUBLIC "-//W3C//DTD SVG 1.1//EN" "http://www.w3.org/Graphics/SVG/1.1/DTD/svg11.dtd">
<svg version="1.1" id="Layer_1" xmlns="http://www.w3.org/2000/svg" xmlns:xlink="http://www.w3.org/1999/xlink" x="0px"
	y="0px" width="732px" height="716px" viewBox="0 0 732 716" enable-background="new 0 0 732 716" xml:space="preserve">
	<link xmlns="" type="text/css" rel="stylesheet" id="dark-mode-general-link" />
	<link xmlns="" type="text/css" rel="stylesheet" id="dark-mode-custom-link" />
	<style xmlns="" type="text/css" id="dark-mode-custom-style" />
	<g xmlns="http://www.w3.org/2000/svg">
	<g>
		<g>
			<path fill="#2590CF" d="M99.916,334.88c0.106,32.201,4.619,64.563,14.508,95.249c4.704,14.596,10.288,28.813,17.185,42.516     c3.456,6.865,7.281,13.558,11.208,20.161c1.465,2.464,3.026,4.866,4.534,7.303c-3.614-5.842-2.435-4.446-1.742-2.924     c1.425,3.13-2.014-6.29-1.176-3.583c0.713,2.304,1.25,7.032-0.507-3.354c0.171,1.013,0.271,2.036,0.357,3.059     c0.295,3.505-0.441-8.516-0.301-4.942c0.023,0.591,0.028,1.183,0.034,1.774c0.015,1.484-0.037,2.97-0.106,4.453     c0.58-12.495-0.028-1.058-0.419,2.149c-0.429,3.52-0.989,7.023-1.597,10.516c-0.344,1.973-1.097,5.901,0.57-3.009     c-0.165,0.88-0.337,1.759-0.509,2.637c-0.354,1.806-0.73,3.607-1.113,5.407c-0.869,4.091-1.817,8.165-2.8,12.23     c-2.01,8.316-4.234,16.579-6.557,24.812c-3.404,12.063-7.081,24.05-10.899,35.988c-1.797,5.62-3.636,11.227-5.501,16.824     c-0.874,2.623-1.757,5.244-2.646,7.862c2.885-8.508-0.447,1.285-1.216,3.51c-3.729,10.794-7.529,21.569-11.544,32.261     c-3.897,10.376-4.637,21.938-1.857,32.72c1.161,4.505,6.215,17.59,13.416,12.407c15.677-11.283,31.6-22.238,47.623-33.022     c26.65-17.937,53.683-36.009,82.412-50.486c5.014-2.526,10.125-4.904,15.411-6.811c0.513-0.185,1.03-0.357,1.547-0.53     c2.102-0.7-3.271,0.966-1.209,0.364c0.879-0.257,1.771-0.473,2.667-0.664c1.519-0.324,3.083-0.512,4.636-0.39     c2.711,0.214-1.709-0.675-1.364-0.537c3.284,1.314,6.525,2.726,9.826,4.002c7.662,2.963,15.507,5.43,23.393,7.719     c14.473,4.202,29.356,6.908,44.343,8.408c47.475,4.752,96.087-4.942,138.685-26.228c85.42-42.681,139.172-131.614,148.36-225.313     c5.186-52.877-2.288-106.93-23.276-155.837c-18.15-42.293-46.987-79.559-83.149-107.968     c-35.221-27.67-77.996-45.344-122.287-51.606c-45.564-6.443-92.337,0.503-134.63,18.38     c-41.013,17.336-76.914,46.218-104.163,81.296c-30.274,38.972-48.543,85.66-56.413,134.133     C101.023,301.989,99.959,318.507,99.916,334.88c-0.018,6.663,1.432,27,11.88,27c10.472,0,11.862-20.336,11.88-27     c0.008-2.842,0.053-5.683,0.135-8.524c0.041-1.413,0.104-2.825,0.168-4.236c0.245-5.439-0.456,6.979-0.097,1.557     c0.399-6.032,1.052-12.044,1.863-18.034c0.371-2.739,0.807-5.468,1.264-8.194c0.282-1.68,1.262-6.765-0.216,1.036     c0.255-1.348,0.531-2.691,0.808-4.035c1.19-5.785,2.621-11.519,4.201-17.208c0.724-2.608,1.509-5.2,2.314-7.784     c0.401-1.289,0.823-2.57,1.244-3.853c-2.073,6.308-0.568,1.674-0.109,0.37c1.927-5.478,4.081-10.875,6.37-16.21     c2.101-4.896,4.39-9.708,6.788-14.464c1.194-2.369,2.443-4.71,3.709-7.042c0.458-0.843,2.718-4.847,0.183-0.399     c0.873-1.532,1.773-3.047,2.677-4.561c11.225-18.792,24.963-36.043,40.542-51.403c3.103-3.059-2.232,2.093,0.932-0.901     c0.949-0.898,1.912-1.782,2.875-2.666c1.925-1.767,3.89-3.49,5.868-5.197c4.286-3.699,8.721-7.221,13.243-10.625     c8.709-6.557,17.886-12.481,27.367-17.857c9.532-5.405,19.455-10.105,29.612-14.209c10.916-4.41,19.02-6.952,29.697-9.612     c22.126-5.513,45.011-7.735,67.786-7.043c11.394,0.346,22.753,1.563,33.988,3.468c5.307,0.899,10.574,2.015,15.81,3.259     c5.361,1.274,11.243,2.945,14.813,4.084c20.9,6.672,40.811,16.3,59.232,28.188c9.15,5.905,17.867,12.47,26.182,19.499     c1.995,1.687,3.951,3.419,5.895,5.166c0.972,0.874,1.93,1.763,2.888,2.651c0.326,0.302,3.47,3.316,0.949,0.882     c4.077,3.938,7.992,8.042,11.8,12.24c7.347,8.102,14.111,16.722,20.372,25.686c3.02,4.323,5.873,8.76,8.622,13.259     c0.689,1.127,1.361,2.265,2.033,3.403c0.489,0.828,2.738,4.827,0.228,0.369c1.519,2.695,2.967,5.429,4.388,8.177     c5.112,9.886,9.508,20.134,13.309,30.592c0.46,1.264,0.899,2.536,1.34,3.807c-2.174-6.282-0.585-1.659-0.16-0.346     c0.831,2.574,1.603,5.168,2.353,7.767c1.639,5.67,3.038,11.407,4.288,17.174c0.29,1.339,0.56,2.683,0.828,4.026     c1.017,5.073-1.099-6.146-0.188-1.045c0.485,2.719,0.906,5.448,1.306,8.18c0.874,5.975,1.494,11.985,1.956,18.005     c0.149,1.938,0.428,7.352-0.067-1.565c0.078,1.41,0.134,2.82,0.19,4.23c0.112,2.836,0.157,5.675,0.18,8.513     c0.022,2.845-0.022,5.689-0.09,8.533c-0.034,1.415-0.09,2.829-0.146,4.242c-0.291,7.339,0.353-4.96,0.034-0.147     c-0.369,5.57-0.957,11.125-1.677,16.659c-0.357,2.744-0.779,5.478-1.223,8.208c-0.221,1.359-0.463,2.716-0.704,4.072     c1.47-8.236,0.249-1.484-0.115,0.287c-1.1,5.342-2.407,10.639-3.839,15.901c-0.711,2.614-1.482,5.21-2.275,7.801     c-0.395,1.291-0.81,2.576-1.225,3.861c-0.747,2.254-0.555,1.711,0.575-1.63c-0.291,0.849-0.587,1.695-0.887,2.541     c-3.696,10.504-8.146,20.735-13.157,30.676c-1.194,2.368-2.443,4.71-3.71,7.041c-0.458,0.843-2.718,4.847-0.183,0.398     c-0.655,1.149-1.327,2.288-1.999,3.427c-2.906,4.921-6.012,9.723-9.235,14.44c-6.172,9.031-12.981,17.619-20.245,25.794     c-3.477,3.913-7.101,7.691-10.808,11.385c-0.314,0.313-3.447,3.343-0.914,0.92c-0.944,0.903-1.902,1.792-2.86,2.681     c-2.235,2.073-4.523,4.089-6.831,6.08c-16.518,14.255-34.952,26.235-54.562,35.776c-9.895,4.814-20.141,8.891-30.583,12.349     c-4.147,1.373-7.975,2.452-13.476,3.854c-5.644,1.438-11.348,2.631-17.078,3.666c-25.305,4.573-51.3,4.953-76.778,1.643     c-14.335-1.862-28.587-5.035-42.315-9.564c-6.73-2.221-13.337-4.803-19.85-7.591c-2.088-0.895-4.278-1.505-6.542-1.419     c-10.159,0.385-21.05,6.536-29.891,11.058c-28.227,14.438-54.833,32.274-81.099,49.952     c-15.757,10.604-31.408,21.389-46.824,32.485c3.853,15.042,7.706,30.085,11.559,45.127     c19.671-52.375,38.206-106.353,48.174-161.498c2.02-11.174,3.418-22.739,3.089-34.101c-0.213-7.339-0.764-14.918-2.793-22.017     c-2.453-8.584-7.352-15.393-11.819-23.014c2.12,3.616-1.298-2.363-1.642-2.995c-1.321-2.429-2.581-4.891-3.824-7.36     c-2.497-4.96-4.785-10.022-6.958-15.132c-1.968-4.627-3.756-9.328-5.452-14.061c-0.817-2.345-0.746-2.115,0.215,0.689     c-0.538-1.599-1.045-3.208-1.552-4.816c-0.848-2.691-1.625-5.403-2.386-8.12c-1.377-4.922-2.56-9.896-3.646-14.889     c-0.239-1.117-0.471-2.235-0.695-3.354c-1.202-5.899,0.985,5.636-0.063-0.306c-0.5-2.834-0.926-5.681-1.333-8.53     c-0.822-5.751-1.396-11.535-1.836-17.327c-0.2-2.973-0.169-2.334,0.093,1.915c-0.099-1.763-0.163-3.527-0.228-5.291     c-0.107-2.958-0.137-5.918-0.146-8.877c-0.022-6.664-1.405-27-11.88-27C101.351,307.88,99.894,328.218,99.916,334.88z"/>
		</g>
	</g>
</g>
<g xmlns="http://www.w3.org/2000/svg">
	<path fill="#2590CF" d="M431.246,479.69H321.989c-4.98,0-9.212-1.771-12.697-5.317c-3.487-3.544-5.228-7.847-5.228-12.912   c0-4.917,1.74-9.187,5.228-12.805c3.485-3.614,7.717-5.425,12.697-5.425h36.704v-136.07h-36.276c-4.981,0-9.213-1.808-12.697-5.426   c-3.487-3.614-5.229-7.884-5.229-12.804c0-5.063,1.741-9.44,5.229-13.13c3.484-3.689,7.716-5.534,12.697-5.534h54.628   c4.979,0,9.209,1.845,12.697,5.534c3.483,3.689,5.228,8.067,5.228,13.13v154.3h35.85c4.978,0,9.283,1.773,12.911,5.316   c3.626,3.547,5.441,7.85,5.441,12.913c0,5.065-1.78,9.368-5.335,12.912C440.279,477.92,436.082,479.69,431.246,479.69z    M358.267,175.648h18.778c4.979,0,9.209,1.773,12.697,5.316c3.483,3.547,5.228,7.851,5.228,12.913v15.625   c0,5.066-1.744,9.44-5.228,13.13c-3.488,3.689-7.719,5.533-12.697,5.533H357.84c-5.121,0-9.427-1.878-12.911-5.642   c-3.487-3.761-5.158-7.955-5.014-12.588l0.426-16.059c0-5.063,1.741-9.366,5.229-12.913   C349.055,177.422,353.285,175.648,358.267,175.648z"/>
</g>
</svg>
