<svg width="104" height="61" viewBox="0 0 104 61" fill="none" xmlns="http://www.w3.org/2000/svg">
<path fill-rule="evenodd" clip-rule="evenodd" d="M8.7746 33.0089C7.81753 32.0219 7.03278 31.168 6.43681 30.5C7.03278 29.832 7.81753 28.9781 8.7746 27.9911C11.1841 25.5062 14.6711 22.193 18.974 18.8841C27.6399 12.2203 39.3151 5.80469 52 5.80469C64.6849 5.80469 76.3601 12.2203 85.026 18.8841C89.3289 22.193 92.8159 25.5062 95.2254 27.9911C96.1825 28.9781 96.9672 29.832 97.5632 30.5C96.9672 31.168 96.1825 32.0219 95.2254 33.0089C92.8159 35.4938 89.3289 38.807 85.026 42.1158C76.3601 48.7797 64.6849 55.1953 52 55.1953C39.3151 55.1953 27.6399 48.7797 18.974 42.1158C14.6711 38.807 11.1841 35.4938 8.7746 33.0089ZM102.806 28.9318C102.807 28.9325 102.808 28.9332 100.859 30.5C102.808 32.0668 102.807 32.0675 102.806 32.0682L102.805 32.0703L102.8 32.0764L102.784 32.0958L102.729 32.1635C102.681 32.2213 102.613 32.3042 102.524 32.4104C102.346 32.6228 102.086 32.9288 101.748 33.315C101.072 34.0871 100.084 35.1811 98.815 36.4896C96.2801 39.1038 92.6124 42.5895 88.0739 46.0795C79.0569 53.0133 66.3025 60.1953 52 60.1953C37.6975 60.1953 24.9431 53.0133 15.9261 46.0795C11.3876 42.5895 7.7199 39.1038 5.18501 36.4896C3.9162 35.1811 2.92756 34.0871 2.25184 33.315C1.91388 32.9288 1.65393 32.6228 1.47607 32.4104C1.38713 32.3042 1.3187 32.2213 1.27127 32.1635L1.21595 32.0958L1.20022 32.0764L1.19536 32.0703L1.19368 32.0682C1.19305 32.0675 1.1925 32.0668 3.14062 30.5C1.1925 28.9332 1.19305 28.9325 1.19368 28.9318L1.19536 28.9297L1.20022 28.9236L1.21595 28.9042L1.27127 28.8365C1.3187 28.7787 1.38713 28.6958 1.47607 28.5896C1.65393 28.3772 1.91388 28.0712 2.25184 27.685C2.92756 26.9129 3.9162 25.8189 5.18501 24.5104C7.7199 21.8962 11.3876 18.4105 15.9261 14.9205C24.9431 7.98671 37.6975 0.804688 52 0.804688C66.3025 0.804688 79.0569 7.98671 88.0739 14.9205C92.6124 18.4105 96.2801 21.8962 98.815 24.5104C100.084 25.8189 101.072 26.9129 101.748 27.685C102.086 28.0712 102.346 28.3772 102.524 28.5896C102.613 28.6958 102.681 28.7787 102.729 28.8365L102.784 28.9042L102.8 28.9236L102.805 28.9297L102.806 28.9318ZM100.859 30.5L102.808 28.9332C103.543 29.8481 103.543 31.1519 102.808 32.0668L100.859 30.5ZM1.1925 28.9332L3.14062 30.5L1.1925 32.0668C0.456665 31.1519 0.456665 29.8481 1.1925 28.9332ZM37.9062 30.5C37.9062 22.3934 44.2805 15.9453 52 15.9453C59.7195 15.9453 66.0938 22.3934 66.0938 30.5C66.0938 38.6066 59.7195 45.0547 52 45.0547C44.2805 45.0547 37.9062 38.6066 37.9062 30.5ZM52 10.9453C41.3917 10.9453 32.9062 19.7612 32.9062 30.5C32.9062 41.2388 41.3917 50.0547 52 50.0547C62.6083 50.0547 71.0938 41.2388 71.0938 30.5C71.0938 19.7612 62.6083 10.9453 52 10.9453Z" fill="black"/>
<path d="M52 21.7422C56.5799 21.7422 60.2969 25.6657 60.2969 30.5C60.2969 35.3343 56.5799 39.2578 52 39.2578C47.4201 39.2578 43.7031 35.3343 43.7031 30.5" stroke="#D43900" stroke-width="5" stroke-linecap="round" stroke-linejoin="round"/>
</svg>
