<svg width="73" height="220" viewBox="0 0 73 220" fill="none" xmlns="http://www.w3.org/2000/svg">
<path fill-rule="evenodd" clip-rule="evenodd" d="M10.5056 2.07464L11.1772 6.52423C11.2185 6.79728 11.4732 6.98522 11.7463 6.94401C12.0193 6.90279 12.2073 6.64803 12.166 6.37498L11.6746 3.11897L70.48 46.5L2.20711 46.5L4.53554 44.1716C4.7308 43.9763 4.7308 43.6597 4.53554 43.4645C4.34027 43.2692 4.02369 43.2692 3.82843 43.4645L0.646446 46.6465C0.451187 46.8417 0.451187 47.1583 0.646446 47.3536L3.82843 50.5355C4.02369 50.7308 4.34027 50.7308 4.53554 50.5355C4.7308 50.3403 4.7308 50.0237 4.53554 49.8284L2.20711 47.5L71.178 47.5L14.1111 157.698L13.1142 154.56C13.0306 154.297 12.7495 154.151 12.4863 154.235C12.2231 154.318 12.0775 154.599 12.1611 154.863L13.5235 159.151C13.6071 159.415 13.8882 159.56 14.1514 159.477L18.4402 158.114C18.7034 158.031 18.849 157.749 18.7654 157.486C18.6818 157.223 18.4006 157.078 18.1375 157.161L14.9991 158.158L70.6056 50.78L31.6984 217.708L29.9593 214.912C29.8134 214.678 29.5051 214.606 29.2706 214.752C29.0361 214.897 28.9643 215.206 29.1101 215.44L31.4867 219.261C31.6326 219.496 31.9409 219.568 32.1754 219.422L35.9966 217.045C36.2311 216.9 36.3029 216.591 36.1571 216.357C36.0113 216.122 35.7029 216.05 35.4685 216.196L32.6723 217.935L72.4869 47.1135L72 47L72.2968 46.5976L12.2682 2.31425L15.5242 1.82277C15.7973 1.78156 15.9852 1.5268 15.944 1.25375C15.9028 0.980697 15.648 0.792758 15.375 0.833975L10.9254 1.50561C10.6523 1.54683 10.4644 1.80159 10.5056 2.07464Z" fill="#2D9CDB"/>
</svg>
