<svg width="472" height="472" viewBox="0 0 472 472" fill="none" xmlns="http://www.w3.org/2000/svg">
<circle cx="236" cy="236" r="236" fill="#E2E7E9"/>
<path d="M205.876 238.461C206.889 156.194 223.885 90.7324 244.692 90.7324C257.863 90.7324 269.514 116.96 276.542 157.08" stroke="#020E12" stroke-width="4" stroke-linecap="round" stroke-linejoin="round"/>
<path d="M218.17 303.834C163.207 329.416 118.528 338.585 110.068 323.92C103.368 312.307 120.984 288.472 153.303 261.738" stroke="#020E12" stroke-width="4" stroke-linecap="round" stroke-linejoin="round"/>
<path d="M126.328 205.321C111.954 189.44 105.584 176.219 110.067 168.468C117.007 156.437 148.326 160.452 189.725 176.409" stroke="#020E12" stroke-width="4" stroke-linecap="round" stroke-linejoin="round"/>
<path d="M338.404 263.682C369.254 289.619 385.87 312.592 379.322 323.926C368.596 342.517 299.614 322.786 225.262 279.855C198.034 264.126 173.858 247.485 154.671 231.769" stroke="#020E12" stroke-width="4" stroke-linecap="round" stroke-linejoin="round"/>
<path fill-rule="evenodd" clip-rule="evenodd" d="M355.683 164.267C355.683 173.803 347.958 181.541 338.421 181.541C328.873 181.541 321.135 173.803 321.135 164.267C321.135 154.731 328.873 146.993 338.421 146.993C347.958 146.993 355.683 154.731 355.683 164.267Z" stroke="#020E12" stroke-width="4" stroke-linecap="round" stroke-linejoin="round"/>
<path fill-rule="evenodd" clip-rule="evenodd" d="M159.535 219.019C159.535 229.758 150.835 238.459 140.108 238.459C129.369 238.459 120.681 229.758 120.681 219.019C120.681 208.28 129.369 199.58 140.108 199.58C150.835 199.58 159.535 208.28 159.535 219.019Z" stroke="#020E12" stroke-width="4" stroke-linecap="round" stroke-linejoin="round"/>
<path fill-rule="evenodd" clip-rule="evenodd" d="M290.358 359.915C290.358 370.641 281.657 379.342 270.931 379.342C260.192 379.342 251.504 370.641 251.504 359.915C251.504 349.175 260.192 340.475 270.931 340.475C281.657 340.475 290.358 349.175 290.358 359.915Z" stroke="#020E12" stroke-width="4" stroke-linecap="round" stroke-linejoin="round"/>
<path fill-rule="evenodd" clip-rule="evenodd" d="M159.535 383.128C159.535 389.321 154.52 394.348 148.302 394.348C142.109 394.348 137.081 389.321 137.081 383.128C137.081 376.922 142.109 371.895 148.302 371.895C154.52 371.895 159.535 376.922 159.535 383.128Z" stroke="#020E12" stroke-width="4" stroke-linecap="round" stroke-linejoin="round"/>
<path fill-rule="evenodd" clip-rule="evenodd" d="M79.1846 246.196C79.1846 252.401 74.1569 257.416 67.9515 257.416C61.746 257.416 56.731 252.401 56.731 246.196C56.731 239.99 61.746 234.962 67.9515 234.962C74.1569 234.962 79.1846 239.99 79.1846 246.196Z" fill="#D43900" stroke="#020E12" stroke-width="4" stroke-linecap="round" stroke-linejoin="round"/>
<path fill-rule="evenodd" clip-rule="evenodd" d="M415.031 246.196C415.031 252.401 410.003 257.416 403.798 257.416C397.592 257.416 392.577 252.401 392.577 246.196C392.577 239.99 397.592 234.962 403.798 234.962C410.003 234.962 415.031 239.99 415.031 246.196Z" stroke="#020E12" stroke-width="4" stroke-linecap="round" stroke-linejoin="round"/>
<path fill-rule="evenodd" clip-rule="evenodd" d="M370.375 375.108C370.375 381.313 365.36 386.341 359.141 386.341C352.949 386.341 347.934 381.313 347.934 375.108C347.934 368.902 352.949 363.875 359.141 363.875C365.36 363.875 370.375 368.902 370.375 375.108Z" fill="#D43900" stroke="#020E12" stroke-width="4" stroke-linecap="round" stroke-linejoin="round"/>
<path fill-rule="evenodd" clip-rule="evenodd" d="M312.817 81.5794C312.817 87.7722 307.802 92.7999 301.584 92.7999C295.391 92.7999 290.363 87.7722 290.363 81.5794C290.363 75.3739 295.391 70.3462 301.584 70.3462C307.802 70.3462 312.817 75.3739 312.817 81.5794Z" fill="#D43900" stroke="#020E12" stroke-width="4" stroke-linecap="round" stroke-linejoin="round"/>
<path fill-rule="evenodd" clip-rule="evenodd" d="M170.765 92.8025C170.765 99.008 165.75 104.036 159.532 104.036C153.339 104.036 148.311 99.008 148.311 92.8025C148.311 86.6097 153.339 81.582 159.532 81.582C165.75 81.582 170.765 86.6097 170.765 92.8025Z" stroke="#020E12" stroke-width="4" stroke-linecap="round" stroke-linejoin="round"/>
<path d="M355.485 161.664C367.909 160.701 376.09 162.842 379.332 168.465C389.729 186.473 341.605 233.875 270.938 275.87" stroke="#020E12" stroke-width="4" stroke-linecap="round" stroke-linejoin="round"/>
<path d="M232.539 208.401C265.175 190.127 296.43 176.475 321.746 168.737" stroke="#020E12" stroke-width="4" stroke-linecap="round" stroke-linejoin="round"/>
<path d="M265.128 378.466C259.188 393.169 252.197 401.654 244.7 401.654C231.048 401.654 219.03 373.501 212.103 330.924" stroke="#020E12" stroke-width="4" stroke-linecap="round" stroke-linejoin="round"/>
<path d="M277.854 327.332C277.12 332.068 276.347 336.64 275.486 341.022" stroke="#020E12" stroke-width="4" stroke-linecap="round" stroke-linejoin="round"/>
</svg>
