<svg width="162" height="150" viewBox="0 0 162 150" fill="none" xmlns="http://www.w3.org/2000/svg">
<path d="M67.7249 76.0845C68.1713 39.8313 75.6608 10.9839 84.8302 10.9839C90.6342 10.9839 95.7686 22.5418 98.866 40.222" stroke="#020E12" stroke-width="4" stroke-linecap="round" stroke-linejoin="round"/>
<path d="M73.1425 104.893C48.9217 116.166 29.2324 120.207 25.5044 113.744C22.5522 108.627 30.3151 98.1235 44.5574 86.3423" stroke="#020E12" stroke-width="4" stroke-linecap="round" stroke-linejoin="round"/>
<path d="M32.67 61.4804C26.3358 54.482 23.5286 48.6556 25.5042 45.2401C28.5625 39.9383 42.3639 41.7074 60.6077 48.7393" stroke="#020E12" stroke-width="4" stroke-linecap="round" stroke-linejoin="round"/>
<path d="M126.127 87.199C139.722 98.6286 147.044 108.752 144.159 113.747C139.432 121.94 109.033 113.245 76.2681 94.3257C64.2692 87.3943 53.6154 80.0611 45.1604 73.1353" stroke="#020E12" stroke-width="4" stroke-linecap="round" stroke-linejoin="round"/>
<path fill-rule="evenodd" clip-rule="evenodd" d="M133.741 43.3891C133.741 47.5915 130.337 51.0014 126.135 51.0014C121.927 51.0014 118.517 47.5915 118.517 43.3891C118.517 39.1868 121.927 35.7769 126.135 35.7769C130.337 35.7769 133.741 39.1868 133.741 43.3891Z" stroke="#020E12" stroke-width="4" stroke-linecap="round" stroke-linejoin="round"/>
<path fill-rule="evenodd" clip-rule="evenodd" d="M47.3034 67.5168C47.3034 72.2494 43.4694 76.0834 38.7424 76.0834C34.0099 76.0834 30.1814 72.2494 30.1814 67.5168C30.1814 62.7842 34.0099 58.9502 38.7424 58.9502C43.4694 58.9502 47.3034 62.7842 47.3034 67.5168Z" stroke="#020E12" stroke-width="4" stroke-linecap="round" stroke-linejoin="round"/>
<path fill-rule="evenodd" clip-rule="evenodd" d="M104.954 129.607C104.954 134.334 101.12 138.168 96.3931 138.168C91.6605 138.168 87.832 134.334 87.832 129.607C87.832 124.874 91.6605 121.04 96.3931 121.04C101.12 121.04 104.954 124.874 104.954 129.607Z" stroke="#020E12" stroke-width="4" stroke-linecap="round" stroke-linejoin="round"/>
<path fill-rule="evenodd" clip-rule="evenodd" d="M47.3035 139.836C47.3035 142.565 45.0935 144.781 42.3533 144.781C39.6243 144.781 37.4087 142.565 37.4087 139.836C37.4087 137.101 39.6243 134.886 42.3533 134.886C45.0935 134.886 47.3035 137.101 47.3035 139.836Z" stroke="#020E12" stroke-width="4" stroke-linecap="round" stroke-linejoin="round"/>
<path fill-rule="evenodd" clip-rule="evenodd" d="M11.8948 79.4932C11.8948 82.2278 9.67925 84.4378 6.94463 84.4378C4.21002 84.4378 2 82.2278 2 79.4932C2 76.7586 4.21002 74.543 6.94463 74.543C9.67925 74.543 11.8948 76.7586 11.8948 79.4932Z" fill="#D43900" stroke="#020E12" stroke-width="4" stroke-linecap="round" stroke-linejoin="round"/>
<path fill-rule="evenodd" clip-rule="evenodd" d="M159.895 79.4932C159.895 82.2278 157.679 84.4378 154.945 84.4378C152.21 84.4378 150 82.2278 150 79.4932C150 76.7586 152.21 74.543 154.945 74.543C157.679 74.543 159.895 76.7586 159.895 79.4932Z" stroke="#020E12" stroke-width="4" stroke-linecap="round" stroke-linejoin="round"/>
<path fill-rule="evenodd" clip-rule="evenodd" d="M140.216 136.302C140.216 139.036 138.006 141.252 135.265 141.252C132.536 141.252 130.326 139.036 130.326 136.302C130.326 133.567 132.536 131.352 135.265 131.352C138.006 131.352 140.216 133.567 140.216 136.302Z" fill="#D43900" stroke="#020E12" stroke-width="4" stroke-linecap="round" stroke-linejoin="round"/>
<path fill-rule="evenodd" clip-rule="evenodd" d="M114.851 6.95021C114.851 9.67925 112.641 11.8948 109.901 11.8948C107.172 11.8948 104.957 9.67925 104.957 6.95021C104.957 4.2156 107.172 2 109.901 2C112.641 2 114.851 4.2156 114.851 6.95021Z" fill="#D43900" stroke="#020E12" stroke-width="4" stroke-linecap="round" stroke-linejoin="round"/>
<path fill-rule="evenodd" clip-rule="evenodd" d="M52.252 11.8958C52.252 14.6304 50.042 16.846 47.3018 16.846C44.5728 16.846 42.3572 14.6304 42.3572 11.8958C42.3572 9.16677 44.5728 6.95117 47.3018 6.95117C50.042 6.95117 52.252 9.16677 52.252 11.8958Z" stroke="#020E12" stroke-width="4" stroke-linecap="round" stroke-linejoin="round"/>
<path d="M133.654 42.2416C139.129 41.8175 142.734 42.7606 144.163 45.2385C148.745 53.1745 127.538 74.0636 96.3965 92.5697" stroke="#020E12" stroke-width="4" stroke-linecap="round" stroke-linejoin="round"/>
<path d="M79.4749 62.8376C93.8567 54.7845 107.63 48.7683 118.786 45.3584" stroke="#020E12" stroke-width="4" stroke-linecap="round" stroke-linejoin="round"/>
<path d="M93.836 137.782C91.2186 144.261 88.138 148 84.8341 148C78.8179 148 73.5217 135.594 70.469 116.831" stroke="#020E12" stroke-width="4" stroke-linecap="round" stroke-linejoin="round"/>
<path d="M99.4441 115.248C99.1204 117.335 98.7799 119.35 98.4005 121.281" stroke="#020E12" stroke-width="4" stroke-linecap="round" stroke-linejoin="round"/>
</svg>
