<svg width="364" height="336" viewBox="0 0 364 336" fill="none" xmlns="http://www.w3.org/2000/svg">
<path d="M151.876 170.46C152.889 88.1936 169.884 22.7322 190.691 22.7322C203.862 22.7322 215.513 48.9598 222.542 89.0801" stroke="#020E12" stroke-width="4" stroke-linecap="round" stroke-linejoin="round"/>
<path d="M164.169 235.834C109.207 261.416 64.5272 270.585 56.0675 255.919C49.3681 244.306 66.9841 220.472 99.3032 193.738" stroke="#020E12" stroke-width="4" stroke-linecap="round" stroke-linejoin="round"/>
<path d="M72.3282 137.321C57.9543 121.44 51.5842 108.219 56.0674 100.468C63.0074 88.4373 94.326 92.4519 135.725 108.409" stroke="#020E12" stroke-width="4" stroke-linecap="round" stroke-linejoin="round"/>
<path d="M284.404 195.683C315.254 221.619 331.87 244.592 325.322 255.926C314.596 274.518 245.614 254.787 171.262 211.855C144.034 196.126 119.858 179.485 100.671 163.769" stroke="#020E12" stroke-width="4" stroke-linecap="round" stroke-linejoin="round"/>
<path fill-rule="evenodd" clip-rule="evenodd" d="M301.683 96.2674C301.683 105.804 293.957 113.541 284.421 113.541C274.872 113.541 267.135 105.804 267.135 96.2674C267.135 86.7313 274.872 78.9934 284.421 78.9934C293.957 78.9934 301.683 86.7313 301.683 96.2674Z" stroke="#020E12" stroke-width="4" stroke-linecap="round" stroke-linejoin="round"/>
<path fill-rule="evenodd" clip-rule="evenodd" d="M105.535 151.019C105.535 161.758 96.8347 170.459 86.1081 170.459C75.3688 170.459 66.6812 161.758 66.6812 151.019C66.6812 140.28 75.3688 131.58 86.1081 131.58C96.8347 131.58 105.535 140.28 105.535 151.019Z" stroke="#020E12" stroke-width="4" stroke-linecap="round" stroke-linejoin="round"/>
<path fill-rule="evenodd" clip-rule="evenodd" d="M236.358 291.915C236.358 302.641 227.657 311.342 216.931 311.342C206.191 311.342 197.504 302.641 197.504 291.915C197.504 281.175 206.191 272.475 216.931 272.475C227.657 272.475 236.358 281.175 236.358 291.915Z" stroke="#020E12" stroke-width="4" stroke-linecap="round" stroke-linejoin="round"/>
<path fill-rule="evenodd" clip-rule="evenodd" d="M105.535 315.128C105.535 321.321 100.52 326.348 94.3016 326.348C88.1088 326.348 83.0811 321.321 83.0811 315.128C83.0811 308.922 88.1088 303.895 94.3016 303.895C100.52 303.895 105.535 308.922 105.535 315.128Z" stroke="#020E12" stroke-width="4" stroke-linecap="round" stroke-linejoin="round"/>
<path fill-rule="evenodd" clip-rule="evenodd" d="M25.1845 178.196C25.1845 184.401 20.1568 189.416 13.9513 189.416C7.74581 189.416 2.73077 184.401 2.73077 178.196C2.73077 171.99 7.74581 166.963 13.9513 166.963C20.1568 166.963 25.1845 171.99 25.1845 178.196Z" fill="#D43900" stroke="#020E12" stroke-width="4" stroke-linecap="round" stroke-linejoin="round"/>
<path fill-rule="evenodd" clip-rule="evenodd" d="M361.031 178.196C361.031 184.401 356.003 189.416 349.797 189.416C343.592 189.416 338.577 184.401 338.577 178.196C338.577 171.99 343.592 166.963 349.797 166.963C356.003 166.963 361.031 171.99 361.031 178.196Z" stroke="#020E12" stroke-width="4" stroke-linecap="round" stroke-linejoin="round"/>
<path fill-rule="evenodd" clip-rule="evenodd" d="M316.374 307.108C316.374 313.313 311.359 318.341 305.141 318.341C298.948 318.341 293.933 313.313 293.933 307.108C293.933 300.902 298.948 295.875 305.141 295.875C311.359 295.875 316.374 300.902 316.374 307.108Z" fill="#D43900" stroke="#020E12" stroke-width="4" stroke-linecap="round" stroke-linejoin="round"/>
<path fill-rule="evenodd" clip-rule="evenodd" d="M258.817 13.5794C258.817 19.7722 253.802 24.7999 247.583 24.7999C241.391 24.7999 236.363 19.7722 236.363 13.5794C236.363 7.37389 241.391 2.34619 247.583 2.34619C253.802 2.34619 258.817 7.37389 258.817 13.5794Z" fill="#D43900" stroke="#020E12" stroke-width="4" stroke-linecap="round" stroke-linejoin="round"/>
<path fill-rule="evenodd" clip-rule="evenodd" d="M116.764 24.8025C116.764 31.008 111.749 36.0357 105.531 36.0357C99.3384 36.0357 94.3107 31.008 94.3107 24.8025C94.3107 18.6097 99.3384 13.582 105.531 13.582C111.749 13.582 116.764 18.6097 116.764 24.8025Z" stroke="#020E12" stroke-width="4" stroke-linecap="round" stroke-linejoin="round"/>
<path d="M301.485 93.6639C313.908 92.7015 322.089 94.8417 325.331 100.465C335.729 118.473 287.605 165.875 216.938 207.87" stroke="#020E12" stroke-width="4" stroke-linecap="round" stroke-linejoin="round"/>
<path d="M178.539 140.401C211.175 122.126 242.43 108.474 267.746 100.737" stroke="#020E12" stroke-width="4" stroke-linecap="round" stroke-linejoin="round"/>
<path d="M211.128 310.466C205.188 325.169 198.198 333.654 190.7 333.654C177.048 333.654 165.03 305.502 158.103 262.925" stroke="#020E12" stroke-width="4" stroke-linecap="round" stroke-linejoin="round"/>
<path d="M223.854 259.332C223.119 264.068 222.347 268.64 221.486 273.022" stroke="#020E12" stroke-width="4" stroke-linecap="round" stroke-linejoin="round"/>
</svg>
