<svg width="356" height="356" viewBox="0 0 356 356" fill="none" xmlns="http://www.w3.org/2000/svg">
<circle cx="178" cy="178" r="178" fill="white"/>
<path fill-rule="evenodd" clip-rule="evenodd" d="M26.6299 156.977C26.6299 142.269 38.5525 130.347 53.2598 130.347H302.74C317.447 130.347 329.37 142.269 329.37 156.977V199.024C329.37 213.731 317.447 225.654 302.74 225.654H53.2598C38.5525 225.654 26.6299 213.731 26.6299 199.024V156.977ZM53.2598 138.756C43.1969 138.756 35.0393 146.914 35.0393 156.977V199.024C35.0393 209.087 43.1969 217.244 53.2598 217.244H302.74C312.803 217.244 320.961 209.087 320.961 199.024V156.977C320.961 146.914 312.803 138.756 302.74 138.756H53.2598Z" fill="black"/>
<path fill-rule="evenodd" clip-rule="evenodd" d="M131.748 178C131.748 175.678 133.631 173.795 135.953 173.795L290.126 173.795C292.448 173.795 294.331 175.678 294.331 178C294.331 180.322 292.448 182.205 290.126 182.205L135.953 182.205C133.631 182.205 131.748 180.322 131.748 178Z" fill="black"/>
<path d="M92.5037 178C92.5037 184.967 86.8562 190.614 79.8896 190.614C72.9229 190.614 67.2754 184.967 67.2754 178C67.2754 171.033 72.9229 165.386 79.8896 165.386C86.8562 165.386 92.5037 171.033 92.5037 178Z" fill="#D43900"/>
<path fill-rule="evenodd" clip-rule="evenodd" d="M100.913 178C100.913 189.611 91.5009 199.024 79.8898 199.024C68.2788 199.024 58.8662 189.611 58.8662 178C58.8662 166.389 68.2788 156.977 79.8898 156.977C91.5009 156.977 100.913 166.389 100.913 178ZM79.8898 190.614C86.8564 190.614 92.504 184.967 92.504 178C92.504 171.034 86.8564 165.386 79.8898 165.386C72.9232 165.386 67.2757 171.034 67.2757 178C67.2757 184.967 72.9232 190.614 79.8898 190.614Z" fill="#020E12"/>
</svg>
