<svg width="141" height="60" viewBox="0 0 141 60" fill="none" xmlns="http://www.w3.org/2000/svg">
<path d="M4 24.5C3.17157 24.5 2.5 23.8284 2.5 23V4C2.5 3.17157 3.17157 2.5 4 2.5H23C23.8284 2.5 24.5 3.17157 24.5 4V23C24.5 23.8284 23.8284 24.5 23 24.5H4Z" fill="#D43900" stroke="black" stroke-width="5" stroke-linecap="round" stroke-linejoin="round"/>
<path d="M4 57.5C3.17157 57.5 2.5 56.8284 2.5 56V37C2.5 36.1716 3.17157 35.5 4 35.5H23C23.8284 35.5 24.5 36.1716 24.5 37V56C24.5 56.8284 23.8284 57.5 23 57.5H4Z" fill="#D43900" stroke="black" stroke-width="5" stroke-linecap="round" stroke-linejoin="round"/>
<path d="M18.0499 8.69142C18.2893 8.44281 18.685 8.43539 18.9336 8.67486C19.1631 8.8959 19.187 9.25003 19.001 9.49874L18.9501 9.55858L11.1241 17.6836C10.8971 17.9192 10.5315 17.9373 10.2832 17.738L10.2238 17.6836L6.79986 14.1289C6.56039 13.8803 6.56781 13.4846 6.81642 13.2452C7.0459 13.0241 7.40068 13.0134 7.64225 13.2086L7.70015 13.2617L10.6738 16.3488L18.0499 8.69142Z" fill="#979797" stroke="white"/>
<mask id="mask0" mask-type="alpha" maskUnits="userSpaceOnUse" x="6" y="8" width="14" height="10">
<path d="M18.0499 8.69142C18.2893 8.44281 18.685 8.43539 18.9336 8.67486C19.1631 8.8959 19.187 9.25003 19.001 9.49874L18.9501 9.55858L11.1241 17.6836C10.8971 17.9192 10.5315 17.9373 10.2832 17.738L10.2238 17.6836L6.79986 14.1289C6.56039 13.8803 6.56781 13.4846 6.81642 13.2452C7.0459 13.0241 7.40068 13.0134 7.64225 13.2086L7.70015 13.2617L10.6738 16.3488L18.0499 8.69142Z" fill="white"/>
</mask>
<g mask="url(#mask0)">
<rect x="6" y="6" width="15" height="15" fill="white"/>
</g>
<rect x="37.5" y="2.5" width="101" height="22" rx="3.5" stroke="black" stroke-width="5"/>
<rect x="37.5" y="35.5" width="101" height="22" rx="3.5" stroke="black" stroke-width="5"/>
</svg>
