<svg width="18" height="18" viewBox="0 0 18 18" fill="none" xmlns="http://www.w3.org/2000/svg">
<g opacity="0.8">
<path d="M17.0303 5.46967C17.3007 5.74003 17.3215 6.16546 17.0927 6.45967L17.0303 6.53033L9.53033 14.0303C9.25997 14.3007 8.83454 14.3215 8.54033 14.0927L8.46967 14.0303L0.969669 6.53033C0.676777 6.23744 0.676777 5.76256 0.969669 5.46967C1.24003 5.19931 1.66546 5.17851 1.95967 5.40728L2.03033 5.46967L9 12.4388L15.9697 5.46967C16.24 5.19931 16.6655 5.17851 16.9597 5.40728L17.0303 5.46967Z" fill="#979797" />
<mask id="mask0" mask-type="alpha" maskUnits="userSpaceOnUse" x="0" y="5" width="18" height="10">
<path d="M17.0303 5.46967C17.3007 5.74003 17.3215 6.16546 17.0927 6.45967L17.0303 6.53033L9.53033 14.0303C9.25997 14.3007 8.83454 14.3215 8.54033 14.0927L8.46967 14.0303L0.969669 6.53033C0.676777 6.23744 0.676777 5.76256 0.969669 5.46967C1.24003 5.19931 1.66546 5.17851 1.95967 5.40728L2.03033 5.46967L9 12.4388L15.9697 5.46967C16.24 5.19931 16.6655 5.17851 16.9597 5.40728L17.0303 5.46967Z" fill="white" />
</mask>
<g mask="url(#mask0)">
<rect width="18" height="18" fill="#020E12" />
</g>
</g>
</svg>