<svg width="349" height="370" viewBox="0 0 349 370" fill="none" xmlns="http://www.w3.org/2000/svg">
<g filter="url(#filter0_ddd)">
<rect x="20.0002" y="10" width="309" height="330" rx="4" fill="white"/>
<rect x="20.5002" y="10.5" width="308" height="329" rx="3.5" stroke="#E2E7E9"/>
</g>
<path d="M156.836 47.2969C156.722 48.5104 156.274 49.4583 155.492 50.1406C154.711 50.8177 153.672 51.1562 152.375 51.1562C151.469 51.1562 150.67 50.9427 149.977 50.5156C149.289 50.0833 148.758 49.4714 148.383 48.6797C148.008 47.888 147.813 46.9688 147.797 45.9219V44.8594C147.797 43.7865 147.987 42.8411 148.367 42.0234C148.748 41.2057 149.292 40.5755 150 40.1328C150.714 39.6901 151.537 39.4688 152.469 39.4688C153.724 39.4688 154.735 39.8099 155.5 40.4922C156.266 41.1745 156.711 42.138 156.836 43.3828H154.867C154.774 42.5651 154.534 41.9766 154.149 41.6172C153.768 41.2526 153.209 41.0703 152.469 41.0703C151.61 41.0703 150.948 41.3854 150.485 42.0156C150.026 42.6406 149.792 43.5599 149.781 44.7734V45.7812C149.781 47.0104 150 47.9479 150.438 48.5938C150.88 49.2396 151.526 49.5625 152.375 49.5625C153.151 49.5625 153.735 49.388 154.125 49.0391C154.516 48.6901 154.763 48.1094 154.867 47.2969H156.836ZM160.446 51H158.547V39H160.446V51ZM162.164 46.6953C162.164 45.8672 162.328 45.1224 162.656 44.4609C162.985 43.7943 163.446 43.2839 164.039 42.9297C164.633 42.5703 165.315 42.3906 166.086 42.3906C167.227 42.3906 168.151 42.7578 168.86 43.4922C169.573 44.2266 169.959 45.2005 170.016 46.4141L170.024 46.8594C170.024 47.6927 169.862 48.4375 169.539 49.0938C169.222 49.75 168.763 50.2578 168.164 50.6172C167.571 50.9766 166.883 51.1562 166.102 51.1562C164.909 51.1562 163.953 50.7604 163.235 49.9688C162.521 49.1719 162.164 48.112 162.164 46.7891V46.6953ZM164.063 46.8594C164.063 47.7292 164.242 48.4115 164.602 48.9062C164.961 49.3958 165.461 49.6406 166.102 49.6406C166.742 49.6406 167.24 49.3906 167.594 48.8906C167.953 48.3906 168.133 47.6589 168.133 46.6953C168.133 45.8411 167.948 45.1641 167.578 44.6641C167.214 44.1641 166.716 43.9141 166.086 43.9141C165.466 43.9141 164.974 44.1615 164.61 44.6562C164.245 45.1458 164.063 45.8802 164.063 46.8594ZM176.367 48.7031C176.367 48.3646 176.227 48.1068 175.946 47.9297C175.67 47.7526 175.209 47.5964 174.563 47.4609C173.917 47.3255 173.378 47.1536 172.946 46.9453C171.998 46.487 171.524 45.8229 171.524 44.9531C171.524 44.224 171.831 43.6146 172.446 43.125C173.06 42.6354 173.841 42.3906 174.789 42.3906C175.8 42.3906 176.615 42.6406 177.235 43.1406C177.86 43.6406 178.172 44.2891 178.172 45.0859H176.274C176.274 44.7214 176.138 44.4193 175.867 44.1797C175.597 43.9349 175.237 43.8125 174.789 43.8125C174.373 43.8125 174.031 43.9089 173.766 44.1016C173.505 44.2943 173.375 44.5521 173.375 44.875C173.375 45.1667 173.498 45.3932 173.742 45.5547C173.987 45.7161 174.482 45.8802 175.227 46.0469C175.972 46.2083 176.555 46.4036 176.977 46.6328C177.404 46.8568 177.719 47.1276 177.922 47.4453C178.13 47.763 178.235 48.1484 178.235 48.6016C178.235 49.362 177.92 49.9792 177.289 50.4531C176.659 50.9219 175.834 51.1562 174.813 51.1562C174.12 51.1562 173.503 51.0312 172.961 50.7812C172.42 50.5312 171.998 50.1875 171.696 49.75C171.393 49.3125 171.242 48.8411 171.242 48.3359H173.086C173.112 48.7839 173.281 49.1302 173.594 49.375C173.906 49.6146 174.321 49.7344 174.836 49.7344C175.336 49.7344 175.716 49.6406 175.977 49.4531C176.237 49.2604 176.367 49.0104 176.367 48.7031ZM185.016 50.1719C184.459 50.8281 183.667 51.1562 182.641 51.1562C181.724 51.1562 181.029 50.888 180.555 50.3516C180.086 49.8151 179.852 49.0391 179.852 48.0234V42.5469H181.75V48C181.75 49.0729 182.196 49.6094 183.086 49.6094C184.008 49.6094 184.63 49.2786 184.953 48.6172V42.5469H186.852V51H185.063L185.016 50.1719ZM193.211 44.2812C192.961 44.2396 192.703 44.2188 192.438 44.2188C191.568 44.2188 190.982 44.5521 190.68 45.2188V51H188.781V42.5469H190.594L190.641 43.4922C191.099 42.7578 191.735 42.3906 192.547 42.3906C192.818 42.3906 193.042 42.4271 193.219 42.5L193.211 44.2812ZM197.977 51.1562C196.774 51.1562 195.797 50.7786 195.047 50.0234C194.302 49.263 193.93 48.2526 193.93 46.9922V46.7578C193.93 45.9141 194.091 45.1615 194.414 44.5C194.742 43.8333 195.201 43.3151 195.789 42.9453C196.378 42.5755 197.034 42.3906 197.758 42.3906C198.909 42.3906 199.797 42.7578 200.422 43.4922C201.052 44.2266 201.367 45.2656 201.367 46.6094V47.375H195.844C195.901 48.0729 196.133 48.625 196.539 49.0312C196.951 49.4375 197.466 49.6406 198.086 49.6406C198.956 49.6406 199.664 49.2891 200.211 48.5859L201.235 49.5625C200.896 50.0677 200.443 50.4609 199.875 50.7422C199.313 51.0182 198.68 51.1562 197.977 51.1562ZM197.75 43.9141C197.229 43.9141 196.808 44.0964 196.485 44.4609C196.167 44.8255 195.964 45.3333 195.875 45.9844H199.492V45.8438C199.451 45.2083 199.281 44.7292 198.985 44.4062C198.688 44.0781 198.276 43.9141 197.75 43.9141Z" fill="#020E12"/>
<path fill-rule="evenodd" clip-rule="evenodd" d="M174.638 123C172.671 123 170.785 123.789 169.394 125.193L120.088 174.97C119.391 175.673 119 176.627 119 177.621C119 178.616 119.391 179.57 120.088 180.273C120.784 180.976 121.729 181.371 122.714 181.371C123.699 181.371 124.643 180.976 125.34 180.273L130.132 175.433V215.07C130.132 218.05 131.305 220.907 133.391 223.014C135.478 225.121 138.308 226.305 141.259 226.305H208.019C210.97 226.305 213.8 225.121 215.887 223.014C217.973 220.907 219.146 218.05 219.146 215.07V175.435L223.937 180.273C224.633 180.976 225.578 181.371 226.562 181.371C227.547 181.371 228.492 180.976 229.188 180.273C229.885 179.57 230.276 178.616 230.276 177.621C230.276 176.627 229.885 175.673 229.188 174.97L211.728 157.343V132.682C211.728 131.689 211.337 130.737 210.642 130.034C209.946 129.332 209.003 128.938 208.019 128.938H200.601C199.618 128.938 198.674 129.332 197.979 130.034C197.283 130.737 196.892 131.689 196.892 132.682V142.365L179.882 125.193C178.491 123.789 176.605 123 174.638 123ZM211.728 167.944L174.638 130.488L137.55 167.942V215.07C137.55 216.063 137.941 217.016 138.637 217.718C139.332 218.42 140.275 218.815 141.259 218.815H208.019C209.003 218.815 209.946 218.42 210.642 217.718C211.337 217.016 211.728 216.063 211.728 215.07V167.944Z" fill="#020E12"/>
<defs>
<filter id="filter0_ddd" x="0.000244141" y="0" width="349" height="370" filterUnits="userSpaceOnUse" color-interpolation-filters="sRGB">
<feFlood flood-opacity="0" result="BackgroundImageFix"/>
<feColorMatrix in="SourceAlpha" type="matrix" values="0 0 0 0 0 0 0 0 0 0 0 0 0 0 0 0 0 0 127 0"/>
<feOffset/>
<feGaussianBlur stdDeviation="0.5"/>
<feColorMatrix type="matrix" values="0 0 0 0 0 0 0 0 0 0 0 0 0 0 0 0 0 0 0.04 0"/>
<feBlend mode="normal" in2="BackgroundImageFix" result="effect1_dropShadow"/>
<feColorMatrix in="SourceAlpha" type="matrix" values="0 0 0 0 0 0 0 0 0 0 0 0 0 0 0 0 0 0 127 0"/>
<feOffset dy="2"/>
<feGaussianBlur stdDeviation="3"/>
<feColorMatrix type="matrix" values="0 0 0 0 0 0 0 0 0 0 0 0 0 0 0 0 0 0 0.04 0"/>
<feBlend mode="normal" in2="effect1_dropShadow" result="effect2_dropShadow"/>
<feColorMatrix in="SourceAlpha" type="matrix" values="0 0 0 0 0 0 0 0 0 0 0 0 0 0 0 0 0 0 127 0"/>
<feOffset dy="10"/>
<feGaussianBlur stdDeviation="10"/>
<feColorMatrix type="matrix" values="0 0 0 0 0 0 0 0 0 0 0 0 0 0 0 0 0 0 0.04 0"/>
<feBlend mode="normal" in2="effect2_dropShadow" result="effect3_dropShadow"/>
<feBlend mode="normal" in="SourceGraphic" in2="effect3_dropShadow" result="shape"/>
</filter>
</defs>
</svg>
