<svg width="329" height="330" viewBox="0 0 329 330" fill="none" xmlns="http://www.w3.org/2000/svg">
<g filter="url(#filter0_ddd)">
<rect width="309" height="330" rx="4" fill="white"/>
<rect x="0.5" y="0.5" width="308" height="329" rx="3.5" stroke="#E2E7E9"/>
</g>
<path d="M61.8125 261.057H58.1152V264.08H62.4102V265H56.9902V256.469H62.3516V257.395H58.1152V260.137H61.8125V261.057ZM66.7051 259.633C66.541 259.605 66.3633 259.592 66.1719 259.592C65.4609 259.592 64.9785 259.895 64.7246 260.5V265H63.6406V258.66H64.6953L64.7129 259.393C65.0684 258.826 65.5723 258.543 66.2246 258.543C66.4355 258.543 66.5957 258.57 66.7051 258.625V259.633ZM70.7715 259.633C70.6074 259.605 70.4297 259.592 70.2383 259.592C69.5273 259.592 69.0449 259.895 68.791 260.5V265H67.707V258.66H68.7617L68.7793 259.393C69.1348 258.826 69.6387 258.543 70.291 258.543C70.502 258.543 70.6621 258.57 70.7715 258.625V259.633ZM71.3691 261.771C71.3691 261.15 71.4902 260.592 71.7324 260.096C71.9785 259.6 72.3184 259.217 72.752 258.947C73.1895 258.678 73.6875 258.543 74.2461 258.543C75.1094 258.543 75.8066 258.842 76.3379 259.439C76.873 260.037 77.1406 260.832 77.1406 261.824V261.9C77.1406 262.518 77.0215 263.072 76.7832 263.564C76.5488 264.053 76.2109 264.434 75.7695 264.707C75.332 264.98 74.8281 265.117 74.2578 265.117C73.3984 265.117 72.7012 264.818 72.166 264.221C71.6348 263.623 71.3691 262.832 71.3691 261.848V261.771ZM72.459 261.9C72.459 262.604 72.6211 263.168 72.9453 263.594C73.2734 264.02 73.7109 264.232 74.2578 264.232C74.8086 264.232 75.2461 264.018 75.5703 263.588C75.8945 263.154 76.0566 262.549 76.0566 261.771C76.0566 261.076 75.8906 260.514 75.5586 260.084C75.2305 259.65 74.793 259.434 74.2461 259.434C73.7109 259.434 73.2793 259.646 72.9512 260.072C72.623 260.498 72.459 261.107 72.459 261.9ZM81.5645 259.633C81.4004 259.605 81.2227 259.592 81.0312 259.592C80.3203 259.592 79.8379 259.895 79.584 260.5V265H78.5V258.66H79.5547L79.5723 259.393C79.9277 258.826 80.4316 258.543 81.084 258.543C81.2949 258.543 81.4551 258.57 81.5645 258.625V259.633ZM89.2344 263.318C89.2344 263.025 89.123 262.799 88.9004 262.639C88.6816 262.475 88.2969 262.334 87.7461 262.217C87.1992 262.1 86.7637 261.959 86.4395 261.795C86.1191 261.631 85.8809 261.436 85.7246 261.209C85.5723 260.982 85.4961 260.713 85.4961 260.4C85.4961 259.881 85.7148 259.441 86.1523 259.082C86.5938 258.723 87.1562 258.543 87.8398 258.543C88.5586 258.543 89.1406 258.729 89.5859 259.1C90.0352 259.471 90.2598 259.945 90.2598 260.523H89.1699C89.1699 260.227 89.043 259.971 88.7891 259.756C88.5391 259.541 88.2227 259.434 87.8398 259.434C87.4453 259.434 87.1367 259.52 86.9141 259.691C86.6914 259.863 86.5801 260.088 86.5801 260.365C86.5801 260.627 86.6836 260.824 86.8906 260.957C87.0977 261.09 87.4707 261.217 88.0098 261.338C88.5527 261.459 88.9922 261.604 89.3281 261.771C89.6641 261.939 89.9121 262.143 90.0723 262.381C90.2363 262.615 90.3184 262.902 90.3184 263.242C90.3184 263.809 90.0918 264.264 89.6387 264.607C89.1855 264.947 88.5977 265.117 87.875 265.117C87.3672 265.117 86.918 265.027 86.5273 264.848C86.1367 264.668 85.8301 264.418 85.6074 264.098C85.3887 263.773 85.2793 263.424 85.2793 263.049H86.3633C86.3828 263.412 86.5273 263.701 86.7969 263.916C87.0703 264.127 87.4297 264.232 87.875 264.232C88.2852 264.232 88.6133 264.15 88.8594 263.986C89.1094 263.818 89.2344 263.596 89.2344 263.318ZM93.2012 257.125V258.66H94.3848V259.498H93.2012V263.43C93.2012 263.684 93.2539 263.875 93.3594 264.004C93.4648 264.129 93.6445 264.191 93.8984 264.191C94.0234 264.191 94.1953 264.168 94.4141 264.121V265C94.1289 265.078 93.8516 265.117 93.582 265.117C93.0977 265.117 92.7324 264.971 92.4863 264.678C92.2402 264.385 92.1172 263.969 92.1172 263.43V259.498H90.9629V258.66H92.1172V257.125H93.2012ZM99.5703 265C99.5078 264.875 99.457 264.652 99.418 264.332C98.9141 264.855 98.3125 265.117 97.6133 265.117C96.9883 265.117 96.4746 264.941 96.0723 264.59C95.6738 264.234 95.4746 263.785 95.4746 263.242C95.4746 262.582 95.7246 262.07 96.2246 261.707C96.7285 261.34 97.4355 261.156 98.3457 261.156H99.4004V260.658C99.4004 260.279 99.2871 259.979 99.0605 259.756C98.834 259.529 98.5 259.416 98.0586 259.416C97.6719 259.416 97.3477 259.514 97.0859 259.709C96.8242 259.904 96.6934 260.141 96.6934 260.418H95.6035C95.6035 260.102 95.7148 259.797 95.9375 259.504C96.1641 259.207 96.4688 258.973 96.8516 258.801C97.2383 258.629 97.6621 258.543 98.123 258.543C98.8535 258.543 99.4258 258.727 99.8398 259.094C100.254 259.457 100.469 259.959 100.484 260.6V263.518C100.484 264.1 100.559 264.562 100.707 264.906V265H99.5703ZM97.7715 264.174C98.1113 264.174 98.4336 264.086 98.7383 263.91C99.043 263.734 99.2637 263.506 99.4004 263.225V261.924H98.5508C97.2227 261.924 96.5586 262.312 96.5586 263.09C96.5586 263.43 96.6719 263.695 96.8984 263.887C97.125 264.078 97.416 264.174 97.7715 264.174ZM103.654 257.125V258.66H104.838V259.498H103.654V263.43C103.654 263.684 103.707 263.875 103.812 264.004C103.918 264.129 104.098 264.191 104.352 264.191C104.477 264.191 104.648 264.168 104.867 264.121V265C104.582 265.078 104.305 265.117 104.035 265.117C103.551 265.117 103.186 264.971 102.939 264.678C102.693 264.385 102.57 263.969 102.57 263.43V259.498H101.416V258.66H102.57V257.125H103.654ZM108.74 265.117C107.881 265.117 107.182 264.836 106.643 264.273C106.104 263.707 105.834 262.951 105.834 262.006V261.807C105.834 261.178 105.953 260.617 106.191 260.125C106.434 259.629 106.77 259.242 107.199 258.965C107.633 258.684 108.102 258.543 108.605 258.543C109.43 258.543 110.07 258.814 110.527 259.357C110.984 259.9 111.213 260.678 111.213 261.689V262.141H106.918C106.934 262.766 107.115 263.271 107.463 263.658C107.814 264.041 108.26 264.232 108.799 264.232C109.182 264.232 109.506 264.154 109.771 263.998C110.037 263.842 110.27 263.635 110.469 263.377L111.131 263.893C110.6 264.709 109.803 265.117 108.74 265.117ZM108.605 259.434C108.168 259.434 107.801 259.594 107.504 259.914C107.207 260.23 107.023 260.676 106.953 261.25H110.129V261.168C110.098 260.617 109.949 260.191 109.684 259.891C109.418 259.586 109.059 259.434 108.605 259.434ZM116.627 265H115.543V258.66H116.627V265ZM115.455 256.979C115.455 256.803 115.508 256.654 115.613 256.533C115.723 256.412 115.883 256.352 116.094 256.352C116.305 256.352 116.465 256.412 116.574 256.533C116.684 256.654 116.738 256.803 116.738 256.979C116.738 257.154 116.684 257.301 116.574 257.418C116.465 257.535 116.305 257.594 116.094 257.594C115.883 257.594 115.723 257.535 115.613 257.418C115.508 257.301 115.455 257.154 115.455 256.979ZM122.059 263.318C122.059 263.025 121.947 262.799 121.725 262.639C121.506 262.475 121.121 262.334 120.57 262.217C120.023 262.1 119.588 261.959 119.264 261.795C118.943 261.631 118.705 261.436 118.549 261.209C118.396 260.982 118.32 260.713 118.32 260.4C118.32 259.881 118.539 259.441 118.977 259.082C119.418 258.723 119.98 258.543 120.664 258.543C121.383 258.543 121.965 258.729 122.41 259.1C122.859 259.471 123.084 259.945 123.084 260.523H121.994C121.994 260.227 121.867 259.971 121.613 259.756C121.363 259.541 121.047 259.434 120.664 259.434C120.27 259.434 119.961 259.52 119.738 259.691C119.516 259.863 119.404 260.088 119.404 260.365C119.404 260.627 119.508 260.824 119.715 260.957C119.922 261.09 120.295 261.217 120.834 261.338C121.377 261.459 121.816 261.604 122.152 261.771C122.488 261.939 122.736 262.143 122.896 262.381C123.061 262.615 123.143 262.902 123.143 263.242C123.143 263.809 122.916 264.264 122.463 264.607C122.01 264.947 121.422 265.117 120.699 265.117C120.191 265.117 119.742 265.027 119.352 264.848C118.961 264.668 118.654 264.418 118.432 264.098C118.213 263.773 118.104 263.424 118.104 263.049H119.188C119.207 263.412 119.352 263.701 119.621 263.916C119.895 264.127 120.254 264.232 120.699 264.232C121.109 264.232 121.438 264.15 121.684 263.986C121.934 263.818 122.059 263.596 122.059 263.318ZM130.074 264.232C130.461 264.232 130.799 264.115 131.088 263.881C131.377 263.646 131.537 263.354 131.568 263.002H132.594C132.574 263.365 132.449 263.711 132.219 264.039C131.988 264.367 131.68 264.629 131.293 264.824C130.91 265.02 130.504 265.117 130.074 265.117C129.211 265.117 128.523 264.83 128.012 264.256C127.504 263.678 127.25 262.889 127.25 261.889V261.707C127.25 261.09 127.363 260.541 127.59 260.061C127.816 259.58 128.141 259.207 128.562 258.941C128.988 258.676 129.49 258.543 130.068 258.543C130.779 258.543 131.369 258.756 131.838 259.182C132.311 259.607 132.562 260.16 132.594 260.84H131.568C131.537 260.43 131.381 260.094 131.1 259.832C130.822 259.566 130.479 259.434 130.068 259.434C129.518 259.434 129.09 259.633 128.785 260.031C128.484 260.426 128.334 260.998 128.334 261.748V261.953C128.334 262.684 128.484 263.246 128.785 263.641C129.086 264.035 129.516 264.232 130.074 264.232ZM133.525 261.771C133.525 261.15 133.646 260.592 133.889 260.096C134.135 259.6 134.475 259.217 134.908 258.947C135.346 258.678 135.844 258.543 136.402 258.543C137.266 258.543 137.963 258.842 138.494 259.439C139.029 260.037 139.297 260.832 139.297 261.824V261.9C139.297 262.518 139.178 263.072 138.939 263.564C138.705 264.053 138.367 264.434 137.926 264.707C137.488 264.98 136.984 265.117 136.414 265.117C135.555 265.117 134.857 264.818 134.322 264.221C133.791 263.623 133.525 262.832 133.525 261.848V261.771ZM134.615 261.9C134.615 262.604 134.777 263.168 135.102 263.594C135.43 264.02 135.867 264.232 136.414 264.232C136.965 264.232 137.402 264.018 137.727 263.588C138.051 263.154 138.213 262.549 138.213 261.771C138.213 261.076 138.047 260.514 137.715 260.084C137.387 259.65 136.949 259.434 136.402 259.434C135.867 259.434 135.436 259.646 135.107 260.072C134.779 260.498 134.615 261.107 134.615 261.9ZM141.676 258.66L141.705 259.363C142.17 258.816 142.797 258.543 143.586 258.543C144.473 258.543 145.076 258.883 145.396 259.562C145.607 259.258 145.881 259.012 146.217 258.824C146.557 258.637 146.957 258.543 147.418 258.543C148.809 258.543 149.516 259.279 149.539 260.752V265H148.455V260.816C148.455 260.363 148.352 260.025 148.145 259.803C147.938 259.576 147.59 259.463 147.102 259.463C146.699 259.463 146.365 259.584 146.1 259.826C145.834 260.064 145.68 260.387 145.637 260.793V265H144.547V260.846C144.547 259.924 144.096 259.463 143.193 259.463C142.482 259.463 141.996 259.766 141.734 260.371V265H140.65V258.66H141.676ZM152.199 258.66L152.229 259.363C152.693 258.816 153.32 258.543 154.109 258.543C154.996 258.543 155.6 258.883 155.92 259.562C156.131 259.258 156.404 259.012 156.74 258.824C157.08 258.637 157.48 258.543 157.941 258.543C159.332 258.543 160.039 259.279 160.062 260.752V265H158.979V260.816C158.979 260.363 158.875 260.025 158.668 259.803C158.461 259.576 158.113 259.463 157.625 259.463C157.223 259.463 156.889 259.584 156.623 259.826C156.357 260.064 156.203 260.387 156.16 260.793V265H155.07V260.846C155.07 259.924 154.619 259.463 153.717 259.463C153.006 259.463 152.52 259.766 152.258 260.371V265H151.174V258.66H152.199ZM165.617 264.373C165.195 264.869 164.576 265.117 163.76 265.117C163.084 265.117 162.568 264.922 162.213 264.531C161.861 264.137 161.684 263.555 161.68 262.785V258.66H162.764V262.756C162.764 263.717 163.154 264.197 163.936 264.197C164.764 264.197 165.314 263.889 165.588 263.271V258.66H166.672V265H165.641L165.617 264.373ZM169.35 258.66L169.385 259.457C169.869 258.848 170.502 258.543 171.283 258.543C172.623 258.543 173.299 259.299 173.311 260.811V265H172.227V260.805C172.223 260.348 172.117 260.01 171.91 259.791C171.707 259.572 171.389 259.463 170.955 259.463C170.604 259.463 170.295 259.557 170.029 259.744C169.764 259.932 169.557 260.178 169.408 260.482V265H168.324V258.66H169.35ZM176.123 265H175.039V258.66H176.123V265ZM174.951 256.979C174.951 256.803 175.004 256.654 175.109 256.533C175.219 256.412 175.379 256.352 175.59 256.352C175.801 256.352 175.961 256.412 176.07 256.533C176.18 256.654 176.234 256.803 176.234 256.979C176.234 257.154 176.18 257.301 176.07 257.418C175.961 257.535 175.801 257.594 175.59 257.594C175.379 257.594 175.219 257.535 175.109 257.418C175.004 257.301 174.951 257.154 174.951 256.979ZM180.406 264.232C180.793 264.232 181.131 264.115 181.42 263.881C181.709 263.646 181.869 263.354 181.9 263.002H182.926C182.906 263.365 182.781 263.711 182.551 264.039C182.32 264.367 182.012 264.629 181.625 264.824C181.242 265.02 180.836 265.117 180.406 265.117C179.543 265.117 178.855 264.83 178.344 264.256C177.836 263.678 177.582 262.889 177.582 261.889V261.707C177.582 261.09 177.695 260.541 177.922 260.061C178.148 259.58 178.473 259.207 178.895 258.941C179.32 258.676 179.822 258.543 180.4 258.543C181.111 258.543 181.701 258.756 182.17 259.182C182.643 259.607 182.895 260.16 182.926 260.84H181.9C181.869 260.43 181.713 260.094 181.432 259.832C181.154 259.566 180.811 259.434 180.4 259.434C179.85 259.434 179.422 259.633 179.117 260.031C178.816 260.426 178.666 260.998 178.666 261.748V261.953C178.666 262.684 178.816 263.246 179.117 263.641C179.418 264.035 179.848 264.232 180.406 264.232ZM188.059 265C187.996 264.875 187.945 264.652 187.906 264.332C187.402 264.855 186.801 265.117 186.102 265.117C185.477 265.117 184.963 264.941 184.561 264.59C184.162 264.234 183.963 263.785 183.963 263.242C183.963 262.582 184.213 262.07 184.713 261.707C185.217 261.34 185.924 261.156 186.834 261.156H187.889V260.658C187.889 260.279 187.775 259.979 187.549 259.756C187.322 259.529 186.988 259.416 186.547 259.416C186.16 259.416 185.836 259.514 185.574 259.709C185.312 259.904 185.182 260.141 185.182 260.418H184.092C184.092 260.102 184.203 259.797 184.426 259.504C184.652 259.207 184.957 258.973 185.34 258.801C185.727 258.629 186.15 258.543 186.611 258.543C187.342 258.543 187.914 258.727 188.328 259.094C188.742 259.457 188.957 259.959 188.973 260.6V263.518C188.973 264.1 189.047 264.562 189.195 264.906V265H188.059ZM186.26 264.174C186.6 264.174 186.922 264.086 187.227 263.91C187.531 263.734 187.752 263.506 187.889 263.225V261.924H187.039C185.711 261.924 185.047 262.312 185.047 263.09C185.047 263.43 185.16 263.695 185.387 263.887C185.613 264.078 185.904 264.174 186.26 264.174ZM192.143 257.125V258.66H193.326V259.498H192.143V263.43C192.143 263.684 192.195 263.875 192.301 264.004C192.406 264.129 192.586 264.191 192.84 264.191C192.965 264.191 193.137 264.168 193.355 264.121V265C193.07 265.078 192.793 265.117 192.523 265.117C192.039 265.117 191.674 264.971 191.428 264.678C191.182 264.385 191.059 263.969 191.059 263.43V259.498H189.904V258.66H191.059V257.125H192.143ZM197.229 265.117C196.369 265.117 195.67 264.836 195.131 264.273C194.592 263.707 194.322 262.951 194.322 262.006V261.807C194.322 261.178 194.441 260.617 194.68 260.125C194.922 259.629 195.258 259.242 195.688 258.965C196.121 258.684 196.59 258.543 197.094 258.543C197.918 258.543 198.559 258.814 199.016 259.357C199.473 259.9 199.701 260.678 199.701 261.689V262.141H195.406C195.422 262.766 195.604 263.271 195.951 263.658C196.303 264.041 196.748 264.232 197.287 264.232C197.67 264.232 197.994 264.154 198.26 263.998C198.525 263.842 198.758 263.635 198.957 263.377L199.619 263.893C199.088 264.709 198.291 265.117 197.229 265.117ZM197.094 259.434C196.656 259.434 196.289 259.594 195.992 259.914C195.695 260.23 195.512 260.676 195.441 261.25H198.617V261.168C198.586 260.617 198.438 260.191 198.172 259.891C197.906 259.586 197.547 259.434 197.094 259.434ZM200.697 261.777C200.697 260.805 200.928 260.023 201.389 259.434C201.85 258.84 202.453 258.543 203.199 258.543C203.941 258.543 204.529 258.797 204.963 259.305V256H206.047V265H205.051L204.998 264.32C204.564 264.852 203.961 265.117 203.188 265.117C202.453 265.117 201.854 264.816 201.389 264.215C200.928 263.613 200.697 262.828 200.697 261.859V261.777ZM201.781 261.9C201.781 262.619 201.93 263.182 202.227 263.588C202.523 263.994 202.934 264.197 203.457 264.197C204.145 264.197 204.646 263.889 204.963 263.271V260.359C204.639 259.762 204.141 259.463 203.469 259.463C202.938 259.463 202.523 259.668 202.227 260.078C201.93 260.488 201.781 261.096 201.781 261.9ZM212.182 257.125V258.66H213.365V259.498H212.182V263.43C212.182 263.684 212.234 263.875 212.34 264.004C212.445 264.129 212.625 264.191 212.879 264.191C213.004 264.191 213.176 264.168 213.395 264.121V265C213.109 265.078 212.832 265.117 212.562 265.117C212.078 265.117 211.713 264.971 211.467 264.678C211.221 264.385 211.098 263.969 211.098 263.43V259.498H209.943V258.66H211.098V257.125H212.182ZM215.721 259.428C216.201 258.838 216.826 258.543 217.596 258.543C218.936 258.543 219.611 259.299 219.623 260.811V265H218.539V260.805C218.535 260.348 218.43 260.01 218.223 259.791C218.02 259.572 217.701 259.463 217.268 259.463C216.916 259.463 216.607 259.557 216.342 259.744C216.076 259.932 215.869 260.178 215.721 260.482V265H214.637V256H215.721V259.428ZM224.311 259.633C224.146 259.605 223.969 259.592 223.777 259.592C223.066 259.592 222.584 259.895 222.33 260.5V265H221.246V258.66H222.301L222.318 259.393C222.674 258.826 223.178 258.543 223.83 258.543C224.041 258.543 224.201 258.57 224.311 258.625V259.633ZM224.908 261.771C224.908 261.15 225.029 260.592 225.271 260.096C225.518 259.6 225.857 259.217 226.291 258.947C226.729 258.678 227.227 258.543 227.785 258.543C228.648 258.543 229.346 258.842 229.877 259.439C230.412 260.037 230.68 260.832 230.68 261.824V261.9C230.68 262.518 230.561 263.072 230.322 263.564C230.088 264.053 229.75 264.434 229.309 264.707C228.871 264.98 228.367 265.117 227.797 265.117C226.938 265.117 226.24 264.818 225.705 264.221C225.174 263.623 224.908 262.832 224.908 261.848V261.771ZM225.998 261.9C225.998 262.604 226.16 263.168 226.484 263.594C226.812 264.02 227.25 264.232 227.797 264.232C228.348 264.232 228.785 264.018 229.109 263.588C229.434 263.154 229.596 262.549 229.596 261.771C229.596 261.076 229.43 260.514 229.098 260.084C228.77 259.65 228.332 259.434 227.785 259.434C227.25 259.434 226.818 259.646 226.49 260.072C226.162 260.498 225.998 261.107 225.998 261.9ZM235.953 264.373C235.531 264.869 234.912 265.117 234.096 265.117C233.42 265.117 232.904 264.922 232.549 264.531C232.197 264.137 232.02 263.555 232.016 262.785V258.66H233.1V262.756C233.1 263.717 233.49 264.197 234.271 264.197C235.1 264.197 235.65 263.889 235.924 263.271V258.66H237.008V265H235.977L235.953 264.373ZM238.402 261.777C238.402 260.789 238.631 260.004 239.088 259.422C239.545 258.836 240.15 258.543 240.904 258.543C241.678 258.543 242.281 258.816 242.715 259.363L242.768 258.66H243.758V264.848C243.758 265.668 243.514 266.314 243.025 266.787C242.541 267.26 241.889 267.496 241.068 267.496C240.611 267.496 240.164 267.398 239.727 267.203C239.289 267.008 238.955 266.74 238.725 266.4L239.287 265.75C239.752 266.324 240.32 266.611 240.992 266.611C241.52 266.611 241.93 266.463 242.223 266.166C242.52 265.869 242.668 265.451 242.668 264.912V264.367C242.234 264.867 241.643 265.117 240.893 265.117C240.15 265.117 239.549 264.818 239.088 264.221C238.631 263.623 238.402 262.809 238.402 261.777ZM239.492 261.9C239.492 262.615 239.639 263.178 239.932 263.588C240.225 263.994 240.635 264.197 241.162 264.197C241.846 264.197 242.348 263.887 242.668 263.266V260.371C242.336 259.766 241.838 259.463 241.174 259.463C240.646 259.463 240.234 259.668 239.938 260.078C239.641 260.488 239.492 261.096 239.492 261.9ZM246.482 259.428C246.963 258.838 247.588 258.543 248.357 258.543C249.697 258.543 250.373 259.299 250.385 260.811V265H249.301V260.805C249.297 260.348 249.191 260.01 248.984 259.791C248.781 259.572 248.463 259.463 248.029 259.463C247.678 259.463 247.369 259.557 247.104 259.744C246.838 259.932 246.631 260.178 246.482 260.482V265H245.398V256H246.482V259.428ZM57.8398 276.66L57.8691 277.363C58.334 276.816 58.9609 276.543 59.75 276.543C60.6367 276.543 61.2402 276.883 61.5605 277.562C61.7715 277.258 62.0449 277.012 62.3809 276.824C62.7207 276.637 63.1211 276.543 63.582 276.543C64.9727 276.543 65.6797 277.279 65.7031 278.752V283H64.6191V278.816C64.6191 278.363 64.5156 278.025 64.3086 277.803C64.1016 277.576 63.7539 277.463 63.2656 277.463C62.8633 277.463 62.5293 277.584 62.2637 277.826C61.998 278.064 61.8438 278.387 61.8008 278.793V283H60.7109V278.846C60.7109 277.924 60.2598 277.463 59.3574 277.463C58.6465 277.463 58.1602 277.766 57.8984 278.371V283H56.8145V276.66H57.8398ZM71.2578 282.373C70.8359 282.869 70.2168 283.117 69.4004 283.117C68.7246 283.117 68.209 282.922 67.8535 282.531C67.502 282.137 67.3242 281.555 67.3203 280.785V276.66H68.4043V280.756C68.4043 281.717 68.7949 282.197 69.5762 282.197C70.4043 282.197 70.9551 281.889 71.2285 281.271V276.66H72.3125V283H71.2812L71.2578 282.373ZM75.1426 283H74.0586V274H75.1426V283ZM78.3535 275.125V276.66H79.5371V277.498H78.3535V281.43C78.3535 281.684 78.4062 281.875 78.5117 282.004C78.6172 282.129 78.7969 282.191 79.0508 282.191C79.1758 282.191 79.3477 282.168 79.5664 282.121V283C79.2812 283.078 79.0039 283.117 78.7344 283.117C78.25 283.117 77.8848 282.971 77.6387 282.678C77.3926 282.385 77.2695 281.969 77.2695 281.43V277.498H76.1152V276.66H77.2695V275.125H78.3535ZM81.9863 283H80.9023V276.66H81.9863V283ZM80.8145 274.979C80.8145 274.803 80.8672 274.654 80.9727 274.533C81.082 274.412 81.2422 274.352 81.4531 274.352C81.6641 274.352 81.8242 274.412 81.9336 274.533C82.043 274.654 82.0977 274.803 82.0977 274.979C82.0977 275.154 82.043 275.301 81.9336 275.418C81.8242 275.535 81.6641 275.594 81.4531 275.594C81.2422 275.594 81.082 275.535 80.9727 275.418C80.8672 275.301 80.8145 275.154 80.8145 274.979ZM89.082 279.9C89.082 280.865 88.8613 281.643 88.4199 282.232C87.9785 282.822 87.3809 283.117 86.627 283.117C85.8574 283.117 85.252 282.873 84.8105 282.385V285.438H83.7266V276.66H84.7168L84.7695 277.363C85.2109 276.816 85.8242 276.543 86.6094 276.543C87.3711 276.543 87.9727 276.83 88.4141 277.404C88.8594 277.979 89.082 278.777 89.082 279.801V279.9ZM87.998 279.777C87.998 279.062 87.8457 278.498 87.541 278.084C87.2363 277.67 86.8184 277.463 86.2871 277.463C85.6309 277.463 85.1387 277.754 84.8105 278.336V281.365C85.1348 281.943 85.6309 282.232 86.2988 282.232C86.8184 282.232 87.2305 282.027 87.5352 281.617C87.8438 281.203 87.998 280.59 87.998 279.777ZM91.6426 283H90.5586V274H91.6426V283ZM96.0137 283.117C95.1543 283.117 94.4551 282.836 93.916 282.273C93.377 281.707 93.1074 280.951 93.1074 280.006V279.807C93.1074 279.178 93.2266 278.617 93.4648 278.125C93.707 277.629 94.043 277.242 94.4727 276.965C94.9062 276.684 95.375 276.543 95.8789 276.543C96.7031 276.543 97.3438 276.814 97.8008 277.357C98.2578 277.9 98.4863 278.678 98.4863 279.689V280.141H94.1914C94.207 280.766 94.3887 281.271 94.7363 281.658C95.0879 282.041 95.5332 282.232 96.0723 282.232C96.4551 282.232 96.7793 282.154 97.0449 281.998C97.3105 281.842 97.543 281.635 97.7422 281.377L98.4043 281.893C97.873 282.709 97.0762 283.117 96.0137 283.117ZM95.8789 277.434C95.4414 277.434 95.0742 277.594 94.7773 277.914C94.4805 278.23 94.2969 278.676 94.2266 279.25H97.4023V279.168C97.3711 278.617 97.2227 278.191 96.957 277.891C96.6914 277.586 96.332 277.434 95.8789 277.434ZM105.266 282.232C105.652 282.232 105.99 282.115 106.279 281.881C106.568 281.646 106.729 281.354 106.76 281.002H107.785C107.766 281.365 107.641 281.711 107.41 282.039C107.18 282.367 106.871 282.629 106.484 282.824C106.102 283.02 105.695 283.117 105.266 283.117C104.402 283.117 103.715 282.83 103.203 282.256C102.695 281.678 102.441 280.889 102.441 279.889V279.707C102.441 279.09 102.555 278.541 102.781 278.061C103.008 277.58 103.332 277.207 103.754 276.941C104.18 276.676 104.682 276.543 105.26 276.543C105.971 276.543 106.561 276.756 107.029 277.182C107.502 277.607 107.754 278.16 107.785 278.84H106.76C106.729 278.43 106.572 278.094 106.291 277.832C106.014 277.566 105.67 277.434 105.26 277.434C104.709 277.434 104.281 277.633 103.977 278.031C103.676 278.426 103.525 278.998 103.525 279.748V279.953C103.525 280.684 103.676 281.246 103.977 281.641C104.277 282.035 104.707 282.232 105.266 282.232ZM112.918 282.373C112.496 282.869 111.877 283.117 111.061 283.117C110.385 283.117 109.869 282.922 109.514 282.531C109.162 282.137 108.984 281.555 108.98 280.785V276.66H110.064V280.756C110.064 281.717 110.455 282.197 111.236 282.197C112.064 282.197 112.615 281.889 112.889 281.271V276.66H113.973V283H112.941L112.918 282.373ZM118.256 283.117C117.396 283.117 116.697 282.836 116.158 282.273C115.619 281.707 115.35 280.951 115.35 280.006V279.807C115.35 279.178 115.469 278.617 115.707 278.125C115.949 277.629 116.285 277.242 116.715 276.965C117.148 276.684 117.617 276.543 118.121 276.543C118.945 276.543 119.586 276.814 120.043 277.357C120.5 277.9 120.729 278.678 120.729 279.689V280.141H116.434C116.449 280.766 116.631 281.271 116.979 281.658C117.33 282.041 117.775 282.232 118.314 282.232C118.697 282.232 119.021 282.154 119.287 281.998C119.553 281.842 119.785 281.635 119.984 281.377L120.646 281.893C120.115 282.709 119.318 283.117 118.256 283.117ZM118.121 277.434C117.684 277.434 117.316 277.594 117.02 277.914C116.723 278.23 116.539 278.676 116.469 279.25H119.645V279.168C119.613 278.617 119.465 278.191 119.199 277.891C118.934 277.586 118.574 277.434 118.121 277.434ZM125.68 281.318C125.68 281.025 125.568 280.799 125.346 280.639C125.127 280.475 124.742 280.334 124.191 280.217C123.645 280.1 123.209 279.959 122.885 279.795C122.564 279.631 122.326 279.436 122.17 279.209C122.018 278.982 121.941 278.713 121.941 278.4C121.941 277.881 122.16 277.441 122.598 277.082C123.039 276.723 123.602 276.543 124.285 276.543C125.004 276.543 125.586 276.729 126.031 277.1C126.48 277.471 126.705 277.945 126.705 278.523H125.615C125.615 278.227 125.488 277.971 125.234 277.756C124.984 277.541 124.668 277.434 124.285 277.434C123.891 277.434 123.582 277.52 123.359 277.691C123.137 277.863 123.025 278.088 123.025 278.365C123.025 278.627 123.129 278.824 123.336 278.957C123.543 279.09 123.916 279.217 124.455 279.338C124.998 279.459 125.438 279.604 125.773 279.771C126.109 279.939 126.357 280.143 126.518 280.381C126.682 280.615 126.764 280.902 126.764 281.242C126.764 281.809 126.537 282.264 126.084 282.607C125.631 282.947 125.043 283.117 124.32 283.117C123.812 283.117 123.363 283.027 122.973 282.848C122.582 282.668 122.275 282.418 122.053 282.098C121.834 281.773 121.725 281.424 121.725 281.049H122.809C122.828 281.412 122.973 281.701 123.242 281.916C123.516 282.127 123.875 282.232 124.32 282.232C124.73 282.232 125.059 282.15 125.305 281.986C125.555 281.818 125.68 281.596 125.68 281.318ZM128.141 282.432C128.141 282.244 128.195 282.088 128.305 281.963C128.418 281.838 128.586 281.775 128.809 281.775C129.031 281.775 129.199 281.838 129.312 281.963C129.43 282.088 129.488 282.244 129.488 282.432C129.488 282.611 129.43 282.762 129.312 282.883C129.199 283.004 129.031 283.064 128.809 283.064C128.586 283.064 128.418 283.004 128.305 282.883C128.195 282.762 128.141 282.611 128.141 282.432ZM128.146 277.258C128.146 277.07 128.201 276.914 128.311 276.789C128.424 276.664 128.592 276.602 128.814 276.602C129.037 276.602 129.205 276.664 129.318 276.789C129.436 276.914 129.494 277.07 129.494 277.258C129.494 277.438 129.436 277.588 129.318 277.709C129.205 277.83 129.037 277.891 128.814 277.891C128.592 277.891 128.424 277.83 128.311 277.709C128.201 277.588 128.146 277.438 128.146 277.258ZM135.529 275.125V276.66H136.713V277.498H135.529V281.43C135.529 281.684 135.582 281.875 135.688 282.004C135.793 282.129 135.973 282.191 136.227 282.191C136.352 282.191 136.523 282.168 136.742 282.121V283C136.457 283.078 136.18 283.117 135.91 283.117C135.426 283.117 135.061 282.971 134.814 282.678C134.568 282.385 134.445 281.969 134.445 281.43V277.498H133.291V276.66H134.445V275.125H135.529ZM139.162 283H138.078V276.66H139.162V283ZM137.99 274.979C137.99 274.803 138.043 274.654 138.148 274.533C138.258 274.412 138.418 274.352 138.629 274.352C138.84 274.352 139 274.412 139.109 274.533C139.219 274.654 139.273 274.803 139.273 274.979C139.273 275.154 139.219 275.301 139.109 275.418C139 275.535 138.84 275.594 138.629 275.594C138.418 275.594 138.258 275.535 138.148 275.418C138.043 275.301 137.99 275.154 137.99 274.979ZM142.373 275.125V276.66H143.557V277.498H142.373V281.43C142.373 281.684 142.426 281.875 142.531 282.004C142.637 282.129 142.816 282.191 143.07 282.191C143.195 282.191 143.367 282.168 143.586 282.121V283C143.301 283.078 143.023 283.117 142.754 283.117C142.27 283.117 141.904 282.971 141.658 282.678C141.412 282.385 141.289 281.969 141.289 281.43V277.498H140.135V276.66H141.289V275.125H142.373ZM146.006 283H144.922V274H146.006V283ZM150.377 283.117C149.518 283.117 148.818 282.836 148.279 282.273C147.74 281.707 147.471 280.951 147.471 280.006V279.807C147.471 279.178 147.59 278.617 147.828 278.125C148.07 277.629 148.406 277.242 148.836 276.965C149.27 276.684 149.738 276.543 150.242 276.543C151.066 276.543 151.707 276.814 152.164 277.357C152.621 277.9 152.85 278.678 152.85 279.689V280.141H148.555C148.57 280.766 148.752 281.271 149.1 281.658C149.451 282.041 149.896 282.232 150.436 282.232C150.818 282.232 151.143 282.154 151.408 281.998C151.674 281.842 151.906 281.635 152.105 281.377L152.768 281.893C152.236 282.709 151.439 283.117 150.377 283.117ZM150.242 277.434C149.805 277.434 149.438 277.594 149.141 277.914C148.844 278.23 148.66 278.676 148.59 279.25H151.766V279.168C151.734 278.617 151.586 278.191 151.32 277.891C151.055 277.586 150.695 277.434 150.242 277.434ZM159.629 282.232C160.016 282.232 160.354 282.115 160.643 281.881C160.932 281.646 161.092 281.354 161.123 281.002H162.148C162.129 281.365 162.004 281.711 161.773 282.039C161.543 282.367 161.234 282.629 160.848 282.824C160.465 283.02 160.059 283.117 159.629 283.117C158.766 283.117 158.078 282.83 157.566 282.256C157.059 281.678 156.805 280.889 156.805 279.889V279.707C156.805 279.09 156.918 278.541 157.145 278.061C157.371 277.58 157.695 277.207 158.117 276.941C158.543 276.676 159.045 276.543 159.623 276.543C160.334 276.543 160.924 276.756 161.393 277.182C161.865 277.607 162.117 278.16 162.148 278.84H161.123C161.092 278.43 160.936 278.094 160.654 277.832C160.377 277.566 160.033 277.434 159.623 277.434C159.072 277.434 158.645 277.633 158.34 278.031C158.039 278.426 157.889 278.998 157.889 279.748V279.953C157.889 280.684 158.039 281.246 158.34 281.641C158.641 282.035 159.07 282.232 159.629 282.232ZM163.08 279.771C163.08 279.15 163.201 278.592 163.443 278.096C163.689 277.6 164.029 277.217 164.463 276.947C164.9 276.678 165.398 276.543 165.957 276.543C166.82 276.543 167.518 276.842 168.049 277.439C168.584 278.037 168.852 278.832 168.852 279.824V279.9C168.852 280.518 168.732 281.072 168.494 281.564C168.26 282.053 167.922 282.434 167.48 282.707C167.043 282.98 166.539 283.117 165.969 283.117C165.109 283.117 164.412 282.818 163.877 282.221C163.346 281.623 163.08 280.832 163.08 279.848V279.771ZM164.17 279.9C164.17 280.604 164.332 281.168 164.656 281.594C164.984 282.02 165.422 282.232 165.969 282.232C166.52 282.232 166.957 282.018 167.281 281.588C167.605 281.154 167.768 280.549 167.768 279.771C167.768 279.076 167.602 278.514 167.27 278.084C166.941 277.65 166.504 277.434 165.957 277.434C165.422 277.434 164.99 277.646 164.662 278.072C164.334 278.498 164.17 279.107 164.17 279.9ZM171.389 283H170.305V274H171.389V283ZM172.842 279.771C172.842 279.15 172.963 278.592 173.205 278.096C173.451 277.6 173.791 277.217 174.225 276.947C174.662 276.678 175.16 276.543 175.719 276.543C176.582 276.543 177.279 276.842 177.811 277.439C178.346 278.037 178.613 278.832 178.613 279.824V279.9C178.613 280.518 178.494 281.072 178.256 281.564C178.021 282.053 177.684 282.434 177.242 282.707C176.805 282.98 176.301 283.117 175.73 283.117C174.871 283.117 174.174 282.818 173.639 282.221C173.107 281.623 172.842 280.832 172.842 279.848V279.771ZM173.932 279.9C173.932 280.604 174.094 281.168 174.418 281.594C174.746 282.02 175.184 282.232 175.73 282.232C176.281 282.232 176.719 282.018 177.043 281.588C177.367 281.154 177.529 280.549 177.529 279.771C177.529 279.076 177.363 278.514 177.031 278.084C176.703 277.65 176.266 277.434 175.719 277.434C175.184 277.434 174.752 277.646 174.424 278.072C174.096 278.498 173.932 279.107 173.932 279.9ZM183.037 277.633C182.873 277.605 182.695 277.592 182.504 277.592C181.793 277.592 181.311 277.895 181.057 278.5V283H179.973V276.66H181.027L181.045 277.393C181.4 276.826 181.904 276.543 182.557 276.543C182.768 276.543 182.928 276.57 183.037 276.625V277.633ZM183.277 284.699L182.662 284.277C183.029 283.766 183.221 283.238 183.236 282.695V281.717H184.297V282.566C184.297 282.961 184.199 283.355 184.004 283.75C183.812 284.145 183.57 284.461 183.277 284.699ZM190.115 275.125V276.66H191.299V277.498H190.115V281.43C190.115 281.684 190.168 281.875 190.273 282.004C190.379 282.129 190.559 282.191 190.812 282.191C190.938 282.191 191.109 282.168 191.328 282.121V283C191.043 283.078 190.766 283.117 190.496 283.117C190.012 283.117 189.646 282.971 189.4 282.678C189.154 282.385 189.031 281.969 189.031 281.43V277.498H187.877V276.66H189.031V275.125H190.115ZM195.201 283.117C194.342 283.117 193.643 282.836 193.104 282.273C192.564 281.707 192.295 280.951 192.295 280.006V279.807C192.295 279.178 192.414 278.617 192.652 278.125C192.895 277.629 193.23 277.242 193.66 276.965C194.094 276.684 194.562 276.543 195.066 276.543C195.891 276.543 196.531 276.814 196.988 277.357C197.445 277.9 197.674 278.678 197.674 279.689V280.141H193.379C193.395 280.766 193.576 281.271 193.924 281.658C194.275 282.041 194.721 282.232 195.26 282.232C195.643 282.232 195.967 282.154 196.232 281.998C196.498 281.842 196.73 281.635 196.93 281.377L197.592 281.893C197.061 282.709 196.264 283.117 195.201 283.117ZM195.066 277.434C194.629 277.434 194.262 277.594 193.965 277.914C193.668 278.23 193.484 278.676 193.414 279.25H196.59V279.168C196.559 278.617 196.41 278.191 196.145 277.891C195.879 277.586 195.52 277.434 195.066 277.434ZM201.061 278.975L202.467 276.66H203.732L201.658 279.795L203.797 283H202.543L201.078 280.627L199.613 283H198.354L200.492 279.795L198.418 276.66H199.672L201.061 278.975ZM206.357 275.125V276.66H207.541V277.498H206.357V281.43C206.357 281.684 206.41 281.875 206.516 282.004C206.621 282.129 206.801 282.191 207.055 282.191C207.18 282.191 207.352 282.168 207.57 282.121V283C207.285 283.078 207.008 283.117 206.738 283.117C206.254 283.117 205.889 282.971 205.643 282.678C205.396 282.385 205.273 281.969 205.273 281.43V277.498H204.119V276.66H205.273V275.125H206.357ZM212.322 283V277.498H211.32V276.66H212.322V276.01C212.322 275.33 212.504 274.805 212.867 274.434C213.23 274.062 213.744 273.877 214.408 273.877C214.658 273.877 214.906 273.91 215.152 273.977L215.094 274.855C214.91 274.82 214.715 274.803 214.508 274.803C214.156 274.803 213.885 274.906 213.693 275.113C213.502 275.316 213.406 275.609 213.406 275.992V276.66H214.76V277.498H213.406V283H212.322ZM217.139 283H216.055V276.66H217.139V283ZM215.967 274.979C215.967 274.803 216.02 274.654 216.125 274.533C216.234 274.412 216.395 274.352 216.605 274.352C216.816 274.352 216.977 274.412 217.086 274.533C217.195 274.654 217.25 274.803 217.25 274.979C217.25 275.154 217.195 275.301 217.086 275.418C216.977 275.535 216.816 275.594 216.605 275.594C216.395 275.594 216.234 275.535 216.125 275.418C216.02 275.301 215.967 275.154 215.967 274.979ZM221.51 283.117C220.65 283.117 219.951 282.836 219.412 282.273C218.873 281.707 218.604 280.951 218.604 280.006V279.807C218.604 279.178 218.723 278.617 218.961 278.125C219.203 277.629 219.539 277.242 219.969 276.965C220.402 276.684 220.871 276.543 221.375 276.543C222.199 276.543 222.84 276.814 223.297 277.357C223.754 277.9 223.982 278.678 223.982 279.689V280.141H219.688C219.703 280.766 219.885 281.271 220.232 281.658C220.584 282.041 221.029 282.232 221.568 282.232C221.951 282.232 222.275 282.154 222.541 281.998C222.807 281.842 223.039 281.635 223.238 281.377L223.9 281.893C223.369 282.709 222.572 283.117 221.51 283.117ZM221.375 277.434C220.938 277.434 220.57 277.594 220.273 277.914C219.977 278.23 219.793 278.676 219.723 279.25H222.898V279.168C222.867 278.617 222.719 278.191 222.453 277.891C222.188 277.586 221.828 277.434 221.375 277.434ZM226.42 283H225.336V274H226.42V283ZM227.896 279.777C227.896 278.805 228.127 278.023 228.588 277.434C229.049 276.84 229.652 276.543 230.398 276.543C231.141 276.543 231.729 276.797 232.162 277.305V274H233.246V283H232.25L232.197 282.32C231.764 282.852 231.16 283.117 230.387 283.117C229.652 283.117 229.053 282.816 228.588 282.215C228.127 281.613 227.896 280.828 227.896 279.859V279.777ZM228.98 279.9C228.98 280.619 229.129 281.182 229.426 281.588C229.723 281.994 230.133 282.197 230.656 282.197C231.344 282.197 231.846 281.889 232.162 281.271V278.359C231.838 277.762 231.34 277.463 230.668 277.463C230.137 277.463 229.723 277.668 229.426 278.078C229.129 278.488 228.98 279.096 228.98 279.9ZM241.602 281.318C241.602 281.025 241.49 280.799 241.268 280.639C241.049 280.475 240.664 280.334 240.113 280.217C239.566 280.1 239.131 279.959 238.807 279.795C238.486 279.631 238.248 279.436 238.092 279.209C237.939 278.982 237.863 278.713 237.863 278.4C237.863 277.881 238.082 277.441 238.52 277.082C238.961 276.723 239.523 276.543 240.207 276.543C240.926 276.543 241.508 276.729 241.953 277.1C242.402 277.471 242.627 277.945 242.627 278.523H241.537C241.537 278.227 241.41 277.971 241.156 277.756C240.906 277.541 240.59 277.434 240.207 277.434C239.812 277.434 239.504 277.52 239.281 277.691C239.059 277.863 238.947 278.088 238.947 278.365C238.947 278.627 239.051 278.824 239.258 278.957C239.465 279.09 239.838 279.217 240.377 279.338C240.92 279.459 241.359 279.604 241.695 279.771C242.031 279.939 242.279 280.143 242.439 280.381C242.604 280.615 242.686 280.902 242.686 281.242C242.686 281.809 242.459 282.264 242.006 282.607C241.553 282.947 240.965 283.117 240.242 283.117C239.734 283.117 239.285 283.027 238.895 282.848C238.504 282.668 238.197 282.418 237.975 282.098C237.756 281.773 237.646 281.424 237.646 281.049H238.73C238.75 281.412 238.895 281.701 239.164 281.916C239.438 282.127 239.797 282.232 240.242 282.232C240.652 282.232 240.98 282.15 241.227 281.986C241.477 281.818 241.602 281.596 241.602 281.318ZM245.568 275.125V276.66H246.752V277.498H245.568V281.43C245.568 281.684 245.621 281.875 245.727 282.004C245.832 282.129 246.012 282.191 246.266 282.191C246.391 282.191 246.562 282.168 246.781 282.121V283C246.496 283.078 246.219 283.117 245.949 283.117C245.465 283.117 245.1 282.971 244.854 282.678C244.607 282.385 244.484 281.969 244.484 281.43V277.498H243.33V276.66H244.484V275.125H245.568ZM251.088 277.633C250.924 277.605 250.746 277.592 250.555 277.592C249.844 277.592 249.361 277.895 249.107 278.5V283H248.023V276.66H249.078L249.096 277.393C249.451 276.826 249.955 276.543 250.607 276.543C250.818 276.543 250.979 276.57 251.088 276.625V277.633ZM251.686 279.771C251.686 279.15 251.807 278.592 252.049 278.096C252.295 277.6 252.635 277.217 253.068 276.947C253.506 276.678 254.004 276.543 254.562 276.543C255.426 276.543 256.123 276.842 256.654 277.439C257.189 278.037 257.457 278.832 257.457 279.824V279.9C257.457 280.518 257.338 281.072 257.1 281.564C256.865 282.053 256.527 282.434 256.086 282.707C255.648 282.98 255.145 283.117 254.574 283.117C253.715 283.117 253.018 282.818 252.482 282.221C251.951 281.623 251.686 280.832 251.686 279.848V279.771ZM252.775 279.9C252.775 280.604 252.938 281.168 253.262 281.594C253.59 282.02 254.027 282.232 254.574 282.232C255.125 282.232 255.562 282.018 255.887 281.588C256.211 281.154 256.373 280.549 256.373 279.771C256.373 279.076 256.207 278.514 255.875 278.084C255.547 277.65 255.109 277.434 254.562 277.434C254.027 277.434 253.596 277.646 253.268 278.072C252.939 278.498 252.775 279.107 252.775 279.9ZM260.586 280.064L259.906 280.773V283H258.822V274H259.906V279.443L260.486 278.746L262.461 276.66H263.779L261.312 279.309L264.066 283H262.795L260.586 280.064ZM267.412 283.117C266.553 283.117 265.854 282.836 265.314 282.273C264.775 281.707 264.506 280.951 264.506 280.006V279.807C264.506 279.178 264.625 278.617 264.863 278.125C265.105 277.629 265.441 277.242 265.871 276.965C266.305 276.684 266.773 276.543 267.277 276.543C268.102 276.543 268.742 276.814 269.199 277.357C269.656 277.9 269.885 278.678 269.885 279.689V280.141H265.59C265.605 280.766 265.787 281.271 266.135 281.658C266.486 282.041 266.932 282.232 267.471 282.232C267.854 282.232 268.178 282.154 268.443 281.998C268.709 281.842 268.941 281.635 269.141 281.377L269.803 281.893C269.271 282.709 268.475 283.117 267.412 283.117ZM267.277 277.434C266.84 277.434 266.473 277.594 266.176 277.914C265.879 278.23 265.695 278.676 265.625 279.25H268.801V279.168C268.77 278.617 268.621 278.191 268.355 277.891C268.09 277.586 267.73 277.434 267.277 277.434ZM271.109 284.699L270.494 284.277C270.861 283.766 271.053 283.238 271.068 282.695V281.717H272.129V282.566C272.129 282.961 272.031 283.355 271.836 283.75C271.645 284.145 271.402 284.461 271.109 284.699ZM60.7344 301C60.6719 300.875 60.6211 300.652 60.582 300.332C60.0781 300.855 59.4766 301.117 58.7773 301.117C58.1523 301.117 57.6387 300.941 57.2363 300.59C56.8379 300.234 56.6387 299.785 56.6387 299.242C56.6387 298.582 56.8887 298.07 57.3887 297.707C57.8926 297.34 58.5996 297.156 59.5098 297.156H60.5645V296.658C60.5645 296.279 60.4512 295.979 60.2246 295.756C59.998 295.529 59.6641 295.416 59.2227 295.416C58.8359 295.416 58.5117 295.514 58.25 295.709C57.9883 295.904 57.8574 296.141 57.8574 296.418H56.7676C56.7676 296.102 56.8789 295.797 57.1016 295.504C57.3281 295.207 57.6328 294.973 58.0156 294.801C58.4023 294.629 58.8262 294.543 59.2871 294.543C60.0176 294.543 60.5898 294.727 61.0039 295.094C61.418 295.457 61.6328 295.959 61.6484 296.6V299.518C61.6484 300.1 61.7227 300.562 61.8711 300.906V301H60.7344ZM58.9355 300.174C59.2754 300.174 59.5977 300.086 59.9023 299.91C60.207 299.734 60.4277 299.506 60.5645 299.225V297.924H59.7148C58.3867 297.924 57.7227 298.312 57.7227 299.09C57.7227 299.43 57.8359 299.695 58.0625 299.887C58.2891 300.078 58.5801 300.174 58.9355 300.174ZM64.373 294.66L64.4082 295.457C64.8926 294.848 65.5254 294.543 66.3066 294.543C67.6465 294.543 68.3223 295.299 68.334 296.811V301H67.25V296.805C67.2461 296.348 67.1406 296.01 66.9336 295.791C66.7305 295.572 66.4121 295.463 65.9785 295.463C65.627 295.463 65.3184 295.557 65.0527 295.744C64.7871 295.932 64.5801 296.178 64.4316 296.482V301H63.3477V294.66H64.373ZM69.7051 297.777C69.7051 296.805 69.9355 296.023 70.3965 295.434C70.8574 294.84 71.4609 294.543 72.207 294.543C72.9492 294.543 73.5371 294.797 73.9707 295.305V292H75.0547V301H74.0586L74.0059 300.32C73.5723 300.852 72.9688 301.117 72.1953 301.117C71.4609 301.117 70.8613 300.816 70.3965 300.215C69.9355 299.613 69.7051 298.828 69.7051 297.859V297.777ZM70.7891 297.9C70.7891 298.619 70.9375 299.182 71.2344 299.588C71.5312 299.994 71.9414 300.197 72.4648 300.197C73.1523 300.197 73.6543 299.889 73.9707 299.271V296.359C73.6465 295.762 73.1484 295.463 72.4766 295.463C71.9453 295.463 71.5312 295.668 71.2344 296.078C70.9375 296.488 70.7891 297.096 70.7891 297.9ZM83.6328 301C83.5703 300.875 83.5195 300.652 83.4805 300.332C82.9766 300.855 82.375 301.117 81.6758 301.117C81.0508 301.117 80.5371 300.941 80.1348 300.59C79.7363 300.234 79.5371 299.785 79.5371 299.242C79.5371 298.582 79.7871 298.07 80.2871 297.707C80.791 297.34 81.498 297.156 82.4082 297.156H83.4629V296.658C83.4629 296.279 83.3496 295.979 83.123 295.756C82.8965 295.529 82.5625 295.416 82.1211 295.416C81.7344 295.416 81.4102 295.514 81.1484 295.709C80.8867 295.904 80.7559 296.141 80.7559 296.418H79.666C79.666 296.102 79.7773 295.797 80 295.504C80.2266 295.207 80.5312 294.973 80.9141 294.801C81.3008 294.629 81.7246 294.543 82.1855 294.543C82.916 294.543 83.4883 294.727 83.9023 295.094C84.3164 295.457 84.5312 295.959 84.5469 296.6V299.518C84.5469 300.1 84.6211 300.562 84.7695 300.906V301H83.6328ZM81.834 300.174C82.1738 300.174 82.4961 300.086 82.8008 299.91C83.1055 299.734 83.3262 299.506 83.4629 299.225V297.924H82.6133C81.2852 297.924 80.6211 298.312 80.6211 299.09C80.6211 299.43 80.7344 299.695 80.9609 299.887C81.1875 300.078 81.4785 300.174 81.834 300.174ZM87.2715 294.66L87.3066 295.457C87.791 294.848 88.4238 294.543 89.2051 294.543C90.5449 294.543 91.2207 295.299 91.2324 296.811V301H90.1484V296.805C90.1445 296.348 90.0391 296.01 89.832 295.791C89.6289 295.572 89.3105 295.463 88.877 295.463C88.5254 295.463 88.2168 295.557 87.9512 295.744C87.6855 295.932 87.4785 296.178 87.3301 296.482V301H86.2461V294.66H87.2715ZM98.4746 301.117C97.6152 301.117 96.916 300.836 96.377 300.273C95.8379 299.707 95.5684 298.951 95.5684 298.006V297.807C95.5684 297.178 95.6875 296.617 95.9258 296.125C96.168 295.629 96.5039 295.242 96.9336 294.965C97.3672 294.684 97.8359 294.543 98.3398 294.543C99.1641 294.543 99.8047 294.814 100.262 295.357C100.719 295.9 100.947 296.678 100.947 297.689V298.141H96.6523C96.668 298.766 96.8496 299.271 97.1973 299.658C97.5488 300.041 97.9941 300.232 98.5332 300.232C98.916 300.232 99.2402 300.154 99.5059 299.998C99.7715 299.842 100.004 299.635 100.203 299.377L100.865 299.893C100.334 300.709 99.5371 301.117 98.4746 301.117ZM98.3398 295.434C97.9023 295.434 97.5352 295.594 97.2383 295.914C96.9414 296.23 96.7578 296.676 96.6875 297.25H99.8633V297.168C99.832 296.617 99.6836 296.191 99.418 295.891C99.1523 295.586 98.793 295.434 98.3398 295.434ZM105.271 295.633C105.107 295.605 104.93 295.592 104.738 295.592C104.027 295.592 103.545 295.895 103.291 296.5V301H102.207V294.66H103.262L103.279 295.393C103.635 294.826 104.139 294.543 104.791 294.543C105.002 294.543 105.162 294.57 105.271 294.625V295.633ZM109.338 295.633C109.174 295.605 108.996 295.592 108.805 295.592C108.094 295.592 107.611 295.895 107.357 296.5V301H106.273V294.66H107.328L107.346 295.393C107.701 294.826 108.205 294.543 108.857 294.543C109.068 294.543 109.229 294.57 109.338 294.625V295.633ZM109.936 297.771C109.936 297.15 110.057 296.592 110.299 296.096C110.545 295.6 110.885 295.217 111.318 294.947C111.756 294.678 112.254 294.543 112.812 294.543C113.676 294.543 114.373 294.842 114.904 295.439C115.439 296.037 115.707 296.832 115.707 297.824V297.9C115.707 298.518 115.588 299.072 115.35 299.564C115.115 300.053 114.777 300.434 114.336 300.707C113.898 300.98 113.395 301.117 112.824 301.117C111.965 301.117 111.268 300.818 110.732 300.221C110.201 299.623 109.936 298.832 109.936 297.848V297.771ZM111.025 297.9C111.025 298.604 111.188 299.168 111.512 299.594C111.84 300.02 112.277 300.232 112.824 300.232C113.375 300.232 113.812 300.018 114.137 299.588C114.461 299.154 114.623 298.549 114.623 297.771C114.623 297.076 114.457 296.514 114.125 296.084C113.797 295.65 113.359 295.434 112.812 295.434C112.277 295.434 111.846 295.646 111.518 296.072C111.189 296.498 111.025 297.107 111.025 297.9ZM120.131 295.633C119.967 295.605 119.789 295.592 119.598 295.592C118.887 295.592 118.404 295.895 118.15 296.5V301H117.066V294.66H118.121L118.139 295.393C118.494 294.826 118.998 294.543 119.65 294.543C119.861 294.543 120.021 294.57 120.131 294.625V295.633ZM125.129 294.66L125.158 295.363C125.623 294.816 126.25 294.543 127.039 294.543C127.926 294.543 128.529 294.883 128.85 295.562C129.061 295.258 129.334 295.012 129.67 294.824C130.01 294.637 130.41 294.543 130.871 294.543C132.262 294.543 132.969 295.279 132.992 296.752V301H131.908V296.816C131.908 296.363 131.805 296.025 131.598 295.803C131.391 295.576 131.043 295.463 130.555 295.463C130.152 295.463 129.818 295.584 129.553 295.826C129.287 296.064 129.133 296.387 129.09 296.793V301H128V296.846C128 295.924 127.549 295.463 126.646 295.463C125.936 295.463 125.449 295.766 125.188 296.371V301H124.104V294.66H125.129ZM137.264 301.117C136.404 301.117 135.705 300.836 135.166 300.273C134.627 299.707 134.357 298.951 134.357 298.006V297.807C134.357 297.178 134.477 296.617 134.715 296.125C134.957 295.629 135.293 295.242 135.723 294.965C136.156 294.684 136.625 294.543 137.129 294.543C137.953 294.543 138.594 294.814 139.051 295.357C139.508 295.9 139.736 296.678 139.736 297.689V298.141H135.441C135.457 298.766 135.639 299.271 135.986 299.658C136.338 300.041 136.783 300.232 137.322 300.232C137.705 300.232 138.029 300.154 138.295 299.998C138.561 299.842 138.793 299.635 138.992 299.377L139.654 299.893C139.123 300.709 138.326 301.117 137.264 301.117ZM137.129 295.434C136.691 295.434 136.324 295.594 136.027 295.914C135.73 296.23 135.547 296.676 135.477 297.25H138.652V297.168C138.621 296.617 138.473 296.191 138.207 295.891C137.941 295.586 137.582 295.434 137.129 295.434ZM144.688 299.318C144.688 299.025 144.576 298.799 144.354 298.639C144.135 298.475 143.75 298.334 143.199 298.217C142.652 298.1 142.217 297.959 141.893 297.795C141.572 297.631 141.334 297.436 141.178 297.209C141.025 296.982 140.949 296.713 140.949 296.4C140.949 295.881 141.168 295.441 141.605 295.082C142.047 294.723 142.609 294.543 143.293 294.543C144.012 294.543 144.594 294.729 145.039 295.1C145.488 295.471 145.713 295.945 145.713 296.523H144.623C144.623 296.227 144.496 295.971 144.242 295.756C143.992 295.541 143.676 295.434 143.293 295.434C142.898 295.434 142.59 295.52 142.367 295.691C142.145 295.863 142.033 296.088 142.033 296.365C142.033 296.627 142.137 296.824 142.344 296.957C142.551 297.09 142.924 297.217 143.463 297.338C144.006 297.459 144.445 297.604 144.781 297.771C145.117 297.939 145.365 298.143 145.525 298.381C145.689 298.615 145.771 298.902 145.771 299.242C145.771 299.809 145.545 300.264 145.092 300.607C144.639 300.947 144.051 301.117 143.328 301.117C142.82 301.117 142.371 301.027 141.98 300.848C141.59 300.668 141.283 300.418 141.061 300.098C140.842 299.773 140.732 299.424 140.732 299.049H141.816C141.836 299.412 141.98 299.701 142.25 299.916C142.523 300.127 142.883 300.232 143.328 300.232C143.738 300.232 144.066 300.15 144.312 299.986C144.562 299.818 144.688 299.596 144.688 299.318ZM150.875 299.318C150.875 299.025 150.764 298.799 150.541 298.639C150.322 298.475 149.938 298.334 149.387 298.217C148.84 298.1 148.404 297.959 148.08 297.795C147.76 297.631 147.521 297.436 147.365 297.209C147.213 296.982 147.137 296.713 147.137 296.4C147.137 295.881 147.355 295.441 147.793 295.082C148.234 294.723 148.797 294.543 149.48 294.543C150.199 294.543 150.781 294.729 151.227 295.1C151.676 295.471 151.9 295.945 151.9 296.523H150.811C150.811 296.227 150.684 295.971 150.43 295.756C150.18 295.541 149.863 295.434 149.48 295.434C149.086 295.434 148.777 295.52 148.555 295.691C148.332 295.863 148.221 296.088 148.221 296.365C148.221 296.627 148.324 296.824 148.531 296.957C148.738 297.09 149.111 297.217 149.65 297.338C150.193 297.459 150.633 297.604 150.969 297.771C151.305 297.939 151.553 298.143 151.713 298.381C151.877 298.615 151.959 298.902 151.959 299.242C151.959 299.809 151.732 300.264 151.279 300.607C150.826 300.947 150.238 301.117 149.516 301.117C149.008 301.117 148.559 301.027 148.168 300.848C147.777 300.668 147.471 300.418 147.248 300.098C147.029 299.773 146.92 299.424 146.92 299.049H148.004C148.023 299.412 148.168 299.701 148.438 299.916C148.711 300.127 149.07 300.232 149.516 300.232C149.926 300.232 150.254 300.15 150.5 299.986C150.75 299.818 150.875 299.596 150.875 299.318ZM157.285 301C157.223 300.875 157.172 300.652 157.133 300.332C156.629 300.855 156.027 301.117 155.328 301.117C154.703 301.117 154.189 300.941 153.787 300.59C153.389 300.234 153.189 299.785 153.189 299.242C153.189 298.582 153.439 298.07 153.939 297.707C154.443 297.34 155.15 297.156 156.061 297.156H157.115V296.658C157.115 296.279 157.002 295.979 156.775 295.756C156.549 295.529 156.215 295.416 155.773 295.416C155.387 295.416 155.062 295.514 154.801 295.709C154.539 295.904 154.408 296.141 154.408 296.418H153.318C153.318 296.102 153.43 295.797 153.652 295.504C153.879 295.207 154.184 294.973 154.566 294.801C154.953 294.629 155.377 294.543 155.838 294.543C156.568 294.543 157.141 294.727 157.555 295.094C157.969 295.457 158.184 295.959 158.199 296.6V299.518C158.199 300.1 158.273 300.562 158.422 300.906V301H157.285ZM155.486 300.174C155.826 300.174 156.148 300.086 156.453 299.91C156.758 299.734 156.979 299.506 157.115 299.225V297.924H156.266C154.938 297.924 154.273 298.312 154.273 299.09C154.273 299.43 154.387 299.695 154.613 299.887C154.84 300.078 155.131 300.174 155.486 300.174ZM159.641 297.777C159.641 296.789 159.869 296.004 160.326 295.422C160.783 294.836 161.389 294.543 162.143 294.543C162.916 294.543 163.52 294.816 163.953 295.363L164.006 294.66H164.996V300.848C164.996 301.668 164.752 302.314 164.264 302.787C163.779 303.26 163.127 303.496 162.307 303.496C161.85 303.496 161.402 303.398 160.965 303.203C160.527 303.008 160.193 302.74 159.963 302.4L160.525 301.75C160.99 302.324 161.559 302.611 162.23 302.611C162.758 302.611 163.168 302.463 163.461 302.166C163.758 301.869 163.906 301.451 163.906 300.912V300.367C163.473 300.867 162.881 301.117 162.131 301.117C161.389 301.117 160.787 300.818 160.326 300.221C159.869 299.623 159.641 298.809 159.641 297.777ZM160.73 297.9C160.73 298.615 160.877 299.178 161.17 299.588C161.463 299.994 161.873 300.197 162.4 300.197C163.084 300.197 163.586 299.887 163.906 299.266V296.371C163.574 295.766 163.076 295.463 162.412 295.463C161.885 295.463 161.473 295.668 161.176 296.078C160.879 296.488 160.73 297.096 160.73 297.9ZM169.268 301.117C168.408 301.117 167.709 300.836 167.17 300.273C166.631 299.707 166.361 298.951 166.361 298.006V297.807C166.361 297.178 166.48 296.617 166.719 296.125C166.961 295.629 167.297 295.242 167.727 294.965C168.16 294.684 168.629 294.543 169.133 294.543C169.957 294.543 170.598 294.814 171.055 295.357C171.512 295.9 171.74 296.678 171.74 297.689V298.141H167.445C167.461 298.766 167.643 299.271 167.99 299.658C168.342 300.041 168.787 300.232 169.326 300.232C169.709 300.232 170.033 300.154 170.299 299.998C170.564 299.842 170.797 299.635 170.996 299.377L171.658 299.893C171.127 300.709 170.33 301.117 169.268 301.117ZM169.133 295.434C168.695 295.434 168.328 295.594 168.031 295.914C167.734 296.23 167.551 296.676 167.48 297.25H170.656V297.168C170.625 296.617 170.477 296.191 170.211 295.891C169.945 295.586 169.586 295.434 169.133 295.434ZM175.689 297.771C175.689 297.15 175.811 296.592 176.053 296.096C176.299 295.6 176.639 295.217 177.072 294.947C177.51 294.678 178.008 294.543 178.566 294.543C179.43 294.543 180.127 294.842 180.658 295.439C181.193 296.037 181.461 296.832 181.461 297.824V297.9C181.461 298.518 181.342 299.072 181.104 299.564C180.869 300.053 180.531 300.434 180.09 300.707C179.652 300.98 179.148 301.117 178.578 301.117C177.719 301.117 177.021 300.818 176.486 300.221C175.955 299.623 175.689 298.832 175.689 297.848V297.771ZM176.779 297.9C176.779 298.604 176.941 299.168 177.266 299.594C177.594 300.02 178.031 300.232 178.578 300.232C179.129 300.232 179.566 300.018 179.891 299.588C180.215 299.154 180.377 298.549 180.377 297.771C180.377 297.076 180.211 296.514 179.879 296.084C179.551 295.65 179.113 295.434 178.566 295.434C178.031 295.434 177.6 295.646 177.271 296.072C176.943 296.498 176.779 297.107 176.779 297.9ZM183.846 294.66L183.881 295.457C184.365 294.848 184.998 294.543 185.779 294.543C187.119 294.543 187.795 295.299 187.807 296.811V301H186.723V296.805C186.719 296.348 186.613 296.01 186.406 295.791C186.203 295.572 185.885 295.463 185.451 295.463C185.1 295.463 184.791 295.557 184.525 295.744C184.26 295.932 184.053 296.178 183.904 296.482V301H182.82V294.66H183.846ZM193.889 293.125V294.66H195.072V295.498H193.889V299.43C193.889 299.684 193.941 299.875 194.047 300.004C194.152 300.129 194.332 300.191 194.586 300.191C194.711 300.191 194.883 300.168 195.102 300.121V301C194.816 301.078 194.539 301.117 194.27 301.117C193.785 301.117 193.42 300.971 193.174 300.678C192.928 300.385 192.805 299.969 192.805 299.43V295.498H191.65V294.66H192.805V293.125H193.889ZM195.939 297.771C195.939 297.15 196.061 296.592 196.303 296.096C196.549 295.6 196.889 295.217 197.322 294.947C197.76 294.678 198.258 294.543 198.816 294.543C199.68 294.543 200.377 294.842 200.908 295.439C201.443 296.037 201.711 296.832 201.711 297.824V297.9C201.711 298.518 201.592 299.072 201.354 299.564C201.119 300.053 200.781 300.434 200.34 300.707C199.902 300.98 199.398 301.117 198.828 301.117C197.969 301.117 197.271 300.818 196.736 300.221C196.205 299.623 195.939 298.832 195.939 297.848V297.771ZM197.029 297.9C197.029 298.604 197.191 299.168 197.516 299.594C197.844 300.02 198.281 300.232 198.828 300.232C199.379 300.232 199.816 300.018 200.141 299.588C200.465 299.154 200.627 298.549 200.627 297.771C200.627 297.076 200.461 296.514 200.129 296.084C199.801 295.65 199.363 295.434 198.816 295.434C198.281 295.434 197.85 295.646 197.521 296.072C197.193 296.498 197.029 297.107 197.029 297.9ZM208.426 297.9C208.426 298.865 208.205 299.643 207.764 300.232C207.322 300.822 206.725 301.117 205.971 301.117C205.201 301.117 204.596 300.873 204.154 300.385V303.438H203.07V294.66H204.061L204.113 295.363C204.555 294.816 205.168 294.543 205.953 294.543C206.715 294.543 207.316 294.83 207.758 295.404C208.203 295.979 208.426 296.777 208.426 297.801V297.9ZM207.342 297.777C207.342 297.062 207.189 296.498 206.885 296.084C206.58 295.67 206.162 295.463 205.631 295.463C204.975 295.463 204.482 295.754 204.154 296.336V299.365C204.479 299.943 204.975 300.232 205.643 300.232C206.162 300.232 206.574 300.027 206.879 299.617C207.188 299.203 207.342 298.59 207.342 297.777ZM212.498 297.771C212.498 297.15 212.619 296.592 212.861 296.096C213.107 295.6 213.447 295.217 213.881 294.947C214.318 294.678 214.816 294.543 215.375 294.543C216.238 294.543 216.936 294.842 217.467 295.439C218.002 296.037 218.27 296.832 218.27 297.824V297.9C218.27 298.518 218.15 299.072 217.912 299.564C217.678 300.053 217.34 300.434 216.898 300.707C216.461 300.98 215.957 301.117 215.387 301.117C214.527 301.117 213.83 300.818 213.295 300.221C212.764 299.623 212.498 298.832 212.498 297.848V297.771ZM213.588 297.9C213.588 298.604 213.75 299.168 214.074 299.594C214.402 300.02 214.84 300.232 215.387 300.232C215.938 300.232 216.375 300.018 216.699 299.588C217.023 299.154 217.186 298.549 217.186 297.771C217.186 297.076 217.02 296.514 216.688 296.084C216.359 295.65 215.922 295.434 215.375 295.434C214.84 295.434 214.408 295.646 214.08 296.072C213.752 296.498 213.588 297.107 213.588 297.9ZM220.162 301V295.498H219.16V294.66H220.162V294.01C220.162 293.33 220.344 292.805 220.707 292.434C221.07 292.062 221.584 291.877 222.248 291.877C222.498 291.877 222.746 291.91 222.992 291.977L222.934 292.855C222.75 292.82 222.555 292.803 222.348 292.803C221.996 292.803 221.725 292.906 221.533 293.113C221.342 293.316 221.246 293.609 221.246 293.992V294.66H222.6V295.498H221.246V301H220.162ZM228.248 293.125V294.66H229.432V295.498H228.248V299.43C228.248 299.684 228.301 299.875 228.406 300.004C228.512 300.129 228.691 300.191 228.945 300.191C229.07 300.191 229.242 300.168 229.461 300.121V301C229.176 301.078 228.898 301.117 228.629 301.117C228.145 301.117 227.779 300.971 227.533 300.678C227.287 300.385 227.164 299.969 227.164 299.43V295.498H226.01V294.66H227.164V293.125H228.248ZM231.787 295.428C232.268 294.838 232.893 294.543 233.662 294.543C235.002 294.543 235.678 295.299 235.689 296.811V301H234.605V296.805C234.602 296.348 234.496 296.01 234.289 295.791C234.086 295.572 233.768 295.463 233.334 295.463C232.982 295.463 232.674 295.557 232.408 295.744C232.143 295.932 231.936 296.178 231.787 296.482V301H230.703V292H231.787V295.428ZM239.943 301.117C239.084 301.117 238.385 300.836 237.846 300.273C237.307 299.707 237.037 298.951 237.037 298.006V297.807C237.037 297.178 237.156 296.617 237.395 296.125C237.637 295.629 237.973 295.242 238.402 294.965C238.836 294.684 239.305 294.543 239.809 294.543C240.633 294.543 241.273 294.814 241.73 295.357C242.188 295.9 242.416 296.678 242.416 297.689V298.141H238.121C238.137 298.766 238.318 299.271 238.666 299.658C239.018 300.041 239.463 300.232 240.002 300.232C240.385 300.232 240.709 300.154 240.975 299.998C241.24 299.842 241.473 299.635 241.672 299.377L242.334 299.893C241.803 300.709 241.006 301.117 239.943 301.117ZM239.809 295.434C239.371 295.434 239.004 295.594 238.707 295.914C238.41 296.23 238.227 296.676 238.156 297.25H241.332V297.168C241.301 296.617 241.152 296.191 240.887 295.891C240.621 295.586 240.262 295.434 239.809 295.434ZM247.186 301V295.498H246.184V294.66H247.186V294.01C247.186 293.33 247.367 292.805 247.73 292.434C248.094 292.062 248.607 291.877 249.271 291.877C249.521 291.877 249.77 291.91 250.016 291.977L249.957 292.855C249.773 292.82 249.578 292.803 249.371 292.803C249.02 292.803 248.748 292.906 248.557 293.113C248.365 293.316 248.27 293.609 248.27 293.992V294.66H249.623V295.498H248.27V301H247.186ZM252.002 301H250.918V294.66H252.002V301ZM250.83 292.979C250.83 292.803 250.883 292.654 250.988 292.533C251.098 292.412 251.258 292.352 251.469 292.352C251.68 292.352 251.84 292.412 251.949 292.533C252.059 292.654 252.113 292.803 252.113 292.979C252.113 293.154 252.059 293.301 251.949 293.418C251.84 293.535 251.68 293.594 251.469 293.594C251.258 293.594 251.098 293.535 250.988 293.418C250.883 293.301 250.83 293.154 250.83 292.979ZM256.373 301.117C255.514 301.117 254.814 300.836 254.275 300.273C253.736 299.707 253.467 298.951 253.467 298.006V297.807C253.467 297.178 253.586 296.617 253.824 296.125C254.066 295.629 254.402 295.242 254.832 294.965C255.266 294.684 255.734 294.543 256.238 294.543C257.062 294.543 257.703 294.814 258.16 295.357C258.617 295.9 258.846 296.678 258.846 297.689V298.141H254.551C254.566 298.766 254.748 299.271 255.096 299.658C255.447 300.041 255.893 300.232 256.432 300.232C256.814 300.232 257.139 300.154 257.404 299.998C257.67 299.842 257.902 299.635 258.102 299.377L258.764 299.893C258.232 300.709 257.436 301.117 256.373 301.117ZM256.238 295.434C255.801 295.434 255.434 295.594 255.137 295.914C254.84 296.23 254.656 296.676 254.586 297.25H257.762V297.168C257.73 296.617 257.582 296.191 257.316 295.891C257.051 295.586 256.691 295.434 256.238 295.434ZM261.283 301H260.199V292H261.283V301ZM262.76 297.777C262.76 296.805 262.99 296.023 263.451 295.434C263.912 294.84 264.516 294.543 265.262 294.543C266.004 294.543 266.592 294.797 267.025 295.305V292H268.109V301H267.113L267.061 300.32C266.627 300.852 266.023 301.117 265.25 301.117C264.516 301.117 263.916 300.816 263.451 300.215C262.99 299.613 262.76 298.828 262.76 297.859V297.777ZM263.844 297.9C263.844 298.619 263.992 299.182 264.289 299.588C264.586 299.994 264.996 300.197 265.52 300.197C266.207 300.197 266.709 299.889 267.025 299.271V296.359C266.701 295.762 266.203 295.463 265.531 295.463C265 295.463 264.586 295.668 264.289 296.078C263.992 296.488 263.844 297.096 263.844 297.9ZM269.82 300.432C269.82 300.244 269.875 300.088 269.984 299.963C270.098 299.838 270.266 299.775 270.488 299.775C270.711 299.775 270.879 299.838 270.992 299.963C271.109 300.088 271.168 300.244 271.168 300.432C271.168 300.611 271.109 300.762 270.992 300.883C270.879 301.004 270.711 301.064 270.488 301.064C270.266 301.064 270.098 301.004 269.984 300.883C269.875 300.762 269.82 300.611 269.82 300.432Z" fill="#020E12"/>
<path d="M36 252C29.3732 252 24 257.373 24 264C24 270.627 29.3732 276 36 276C42.6268 276 48 270.627 48 264C48 257.373 42.6268 252 36 252ZM41.183 260.081L35.542 267.903C35.4631 268.013 35.3592 268.102 35.2388 268.164C35.1184 268.226 34.9849 268.258 34.8496 268.258C34.7142 268.258 34.5808 268.226 34.4603 268.164C34.3399 268.102 34.236 268.013 34.1571 267.903L30.817 263.274C30.7152 263.132 30.817 262.934 30.9911 262.934H32.2473C32.5205 262.934 32.7804 263.065 32.9411 263.29L34.8482 265.937L39.0589 260.097C39.2196 259.875 39.4768 259.741 39.7527 259.741H41.0089C41.183 259.741 41.2848 259.939 41.183 260.081Z" fill="#1D781D"/>
<path d="M169.249 103.127H166.05V112H164.744V103.127H161.552V102.047H169.249V103.127ZM171.792 105.499C172.353 104.811 173.082 104.467 173.979 104.467C175.543 104.467 176.331 105.349 176.345 107.112V112H175.08V107.105C175.076 106.572 174.952 106.178 174.711 105.923C174.474 105.668 174.103 105.54 173.597 105.54C173.187 105.54 172.826 105.649 172.517 105.868C172.207 106.087 171.965 106.374 171.792 106.729V112H170.527V101.5H171.792V105.499ZM179.612 112H178.348V104.604H179.612V112ZM178.245 102.642C178.245 102.437 178.307 102.263 178.43 102.122C178.557 101.981 178.744 101.91 178.99 101.91C179.236 101.91 179.423 101.981 179.551 102.122C179.678 102.263 179.742 102.437 179.742 102.642C179.742 102.847 179.678 103.018 179.551 103.154C179.423 103.291 179.236 103.359 178.99 103.359C178.744 103.359 178.557 103.291 178.43 103.154C178.307 103.018 178.245 102.847 178.245 102.642ZM185.949 110.038C185.949 109.696 185.819 109.432 185.56 109.245C185.304 109.054 184.855 108.89 184.213 108.753C183.575 108.616 183.067 108.452 182.688 108.261C182.315 108.069 182.037 107.841 181.854 107.577C181.677 107.313 181.588 106.998 181.588 106.634C181.588 106.028 181.843 105.515 182.354 105.096C182.868 104.676 183.525 104.467 184.322 104.467C185.161 104.467 185.84 104.683 186.359 105.116C186.883 105.549 187.146 106.103 187.146 106.777H185.874C185.874 106.431 185.726 106.132 185.43 105.882C185.138 105.631 184.769 105.506 184.322 105.506C183.862 105.506 183.502 105.606 183.242 105.807C182.982 106.007 182.853 106.269 182.853 106.593C182.853 106.898 182.973 107.128 183.215 107.283C183.456 107.438 183.892 107.586 184.521 107.728C185.154 107.869 185.667 108.037 186.059 108.233C186.451 108.429 186.74 108.666 186.927 108.944C187.118 109.218 187.214 109.553 187.214 109.949C187.214 110.61 186.95 111.141 186.421 111.542C185.892 111.938 185.206 112.137 184.363 112.137C183.771 112.137 183.247 112.032 182.791 111.822C182.335 111.613 181.978 111.321 181.718 110.947C181.463 110.569 181.335 110.161 181.335 109.724H182.6C182.622 110.147 182.791 110.485 183.105 110.735C183.424 110.981 183.844 111.104 184.363 111.104C184.842 111.104 185.225 111.009 185.512 110.817C185.803 110.621 185.949 110.362 185.949 110.038ZM192.758 112V105.581H191.589V104.604H192.758V103.975C192.758 103.15 192.993 102.507 193.462 102.047C193.936 101.587 194.604 101.356 195.465 101.356C195.975 101.356 196.62 101.495 197.399 101.773L197.188 102.84C196.618 102.612 196.076 102.498 195.561 102.498C195.018 102.498 194.626 102.621 194.385 102.867C194.148 103.109 194.029 103.473 194.029 103.961V104.604H195.54V105.581H194.029V112H192.758ZM198.028 112H196.757V104.604H198.028V112ZM203.155 112.137C202.153 112.137 201.337 111.809 200.708 111.152C200.079 110.492 199.765 109.61 199.765 108.507V108.274C199.765 107.541 199.904 106.887 200.182 106.312C200.464 105.734 200.856 105.283 201.357 104.959C201.863 104.631 202.41 104.467 202.998 104.467C203.96 104.467 204.707 104.784 205.24 105.417C205.773 106.05 206.04 106.957 206.04 108.138V108.664H201.029C201.048 109.393 201.259 109.983 201.665 110.435C202.075 110.881 202.595 111.104 203.224 111.104C203.67 111.104 204.049 111.013 204.358 110.831C204.668 110.649 204.939 110.407 205.172 110.106L205.944 110.708C205.325 111.66 204.395 112.137 203.155 112.137ZM202.998 105.506C202.488 105.506 202.059 105.693 201.713 106.066C201.367 106.436 201.152 106.955 201.07 107.625H204.775V107.529C204.739 106.887 204.566 106.39 204.256 106.039C203.946 105.684 203.527 105.506 202.998 105.506ZM208.884 112H207.619V101.5H208.884V112ZM210.606 108.24C210.606 107.105 210.875 106.194 211.413 105.506C211.951 104.813 212.655 104.467 213.525 104.467C214.391 104.467 215.077 104.763 215.583 105.355V101.5H216.848V112H215.686L215.624 111.207C215.118 111.827 214.414 112.137 213.512 112.137C212.655 112.137 211.955 111.786 211.413 111.084C210.875 110.382 210.606 109.466 210.606 108.336V108.24ZM211.871 108.384C211.871 109.222 212.044 109.879 212.391 110.353C212.737 110.826 213.215 111.063 213.826 111.063C214.628 111.063 215.214 110.703 215.583 109.983V106.586C215.205 105.889 214.624 105.54 213.84 105.54C213.22 105.54 212.737 105.779 212.391 106.258C212.044 106.736 211.871 107.445 211.871 108.384ZM223.663 112H222.398V104.604H223.663V112ZM222.296 102.642C222.296 102.437 222.357 102.263 222.48 102.122C222.608 101.981 222.795 101.91 223.041 101.91C223.287 101.91 223.474 101.981 223.602 102.122C223.729 102.263 223.793 102.437 223.793 102.642C223.793 102.847 223.729 103.018 223.602 103.154C223.474 103.291 223.287 103.359 223.041 103.359C222.795 103.359 222.608 103.291 222.48 103.154C222.357 103.018 222.296 102.847 222.296 102.642ZM230 110.038C230 109.696 229.87 109.432 229.61 109.245C229.355 109.054 228.906 108.89 228.264 108.753C227.626 108.616 227.118 108.452 226.739 108.261C226.366 108.069 226.088 107.841 225.905 107.577C225.728 107.313 225.639 106.998 225.639 106.634C225.639 106.028 225.894 105.515 226.404 105.096C226.919 104.676 227.576 104.467 228.373 104.467C229.212 104.467 229.891 104.683 230.41 105.116C230.934 105.549 231.196 106.103 231.196 106.777H229.925C229.925 106.431 229.777 106.132 229.48 105.882C229.189 105.631 228.82 105.506 228.373 105.506C227.913 105.506 227.553 105.606 227.293 105.807C227.033 106.007 226.903 106.269 226.903 106.593C226.903 106.898 227.024 107.128 227.266 107.283C227.507 107.438 227.942 107.586 228.571 107.728C229.205 107.869 229.717 108.037 230.109 108.233C230.501 108.429 230.791 108.666 230.978 108.944C231.169 109.218 231.265 109.553 231.265 109.949C231.265 110.61 231 111.141 230.472 111.542C229.943 111.938 229.257 112.137 228.414 112.137C227.822 112.137 227.298 112.032 226.842 111.822C226.386 111.613 226.028 111.321 225.769 110.947C225.513 110.569 225.386 110.161 225.386 109.724H226.65C226.673 110.147 226.842 110.485 227.156 110.735C227.475 110.981 227.895 111.104 228.414 111.104C228.893 111.104 229.275 111.009 229.562 110.817C229.854 110.621 230 110.362 230 110.038ZM239.96 105.738C239.769 105.706 239.561 105.69 239.338 105.69C238.508 105.69 237.946 106.044 237.649 106.75V112H236.385V104.604H237.615L237.636 105.458C238.05 104.797 238.638 104.467 239.399 104.467C239.646 104.467 239.832 104.499 239.96 104.562V105.738ZM244.062 112.137C243.059 112.137 242.243 111.809 241.614 111.152C240.985 110.492 240.671 109.61 240.671 108.507V108.274C240.671 107.541 240.81 106.887 241.088 106.312C241.37 105.734 241.762 105.283 242.264 104.959C242.77 104.631 243.316 104.467 243.904 104.467C244.866 104.467 245.613 104.784 246.146 105.417C246.68 106.05 246.946 106.957 246.946 108.138V108.664H241.936C241.954 109.393 242.166 109.983 242.571 110.435C242.981 110.881 243.501 111.104 244.13 111.104C244.576 111.104 244.955 111.013 245.265 110.831C245.575 110.649 245.846 110.407 246.078 110.106L246.851 110.708C246.231 111.66 245.301 112.137 244.062 112.137ZM243.904 105.506C243.394 105.506 242.965 105.693 242.619 106.066C242.273 106.436 242.059 106.955 241.977 107.625H245.682V107.529C245.645 106.887 245.472 106.39 245.162 106.039C244.852 105.684 244.433 105.506 243.904 105.506ZM248.108 108.24C248.108 107.078 248.375 106.16 248.908 105.485C249.441 104.806 250.157 104.467 251.055 104.467C251.93 104.467 252.62 104.761 253.126 105.349L253.181 104.604H254.343V114.844H253.078V111.316C252.568 111.863 251.889 112.137 251.041 112.137C250.148 112.137 249.435 111.79 248.901 111.098C248.373 110.4 248.108 109.478 248.108 108.329V108.24ZM249.373 108.384C249.373 109.231 249.551 109.897 249.906 110.38C250.266 110.863 250.749 111.104 251.355 111.104C252.107 111.104 252.682 110.772 253.078 110.106V106.483C252.677 105.832 252.107 105.506 251.369 105.506C250.758 105.506 250.273 105.75 249.913 106.237C249.553 106.72 249.373 107.436 249.373 108.384ZM260.939 111.269C260.447 111.847 259.725 112.137 258.772 112.137C257.984 112.137 257.382 111.909 256.968 111.453C256.558 110.993 256.35 110.314 256.346 109.416V104.604H257.61V109.382C257.61 110.503 258.066 111.063 258.978 111.063C259.944 111.063 260.586 110.703 260.905 109.983V104.604H262.17V112H260.967L260.939 111.269ZM265.472 112H264.207V104.604H265.472V112ZM264.104 102.642C264.104 102.437 264.166 102.263 264.289 102.122C264.417 101.981 264.604 101.91 264.85 101.91C265.096 101.91 265.283 101.981 265.41 102.122C265.538 102.263 265.602 102.437 265.602 102.642C265.602 102.847 265.538 103.018 265.41 103.154C265.283 103.291 265.096 103.359 264.85 103.359C264.604 103.359 264.417 103.291 264.289 103.154C264.166 103.018 264.104 102.847 264.104 102.642ZM271.077 105.738C270.886 105.706 270.678 105.69 270.455 105.69C269.626 105.69 269.063 106.044 268.767 106.75V112H267.502V104.604H268.732L268.753 105.458C269.168 104.797 269.756 104.467 270.517 104.467C270.763 104.467 270.95 104.499 271.077 104.562V105.738ZM275.179 112.137C274.176 112.137 273.36 111.809 272.731 111.152C272.103 110.492 271.788 109.61 271.788 108.507V108.274C271.788 107.541 271.927 106.887 272.205 106.312C272.488 105.734 272.88 105.283 273.381 104.959C273.887 104.631 274.434 104.467 275.021 104.467C275.983 104.467 276.73 104.784 277.264 105.417C277.797 106.05 278.063 106.957 278.063 108.138V108.664H273.053C273.071 109.393 273.283 109.983 273.688 110.435C274.099 110.881 274.618 111.104 275.247 111.104C275.694 111.104 276.072 111.013 276.382 110.831C276.692 110.649 276.963 110.407 277.195 110.106L277.968 110.708C277.348 111.66 276.418 112.137 275.179 112.137ZM275.021 105.506C274.511 105.506 274.083 105.693 273.736 106.066C273.39 106.436 273.176 106.955 273.094 107.625H276.799V107.529C276.762 106.887 276.589 106.39 276.279 106.039C275.969 105.684 275.55 105.506 275.021 105.506ZM279.226 108.24C279.226 107.105 279.494 106.194 280.032 105.506C280.57 104.813 281.274 104.467 282.145 104.467C283.01 104.467 283.696 104.763 284.202 105.355V101.5H285.467V112H284.305L284.243 111.207C283.737 111.827 283.033 112.137 282.131 112.137C281.274 112.137 280.575 111.786 280.032 111.084C279.494 110.382 279.226 109.466 279.226 108.336V108.24ZM280.49 108.384C280.49 109.222 280.663 109.879 281.01 110.353C281.356 110.826 281.835 111.063 282.445 111.063C283.247 111.063 283.833 110.703 284.202 109.983V106.586C283.824 105.889 283.243 105.54 282.459 105.54C281.839 105.54 281.356 105.779 281.01 106.258C280.663 106.736 280.49 107.445 280.49 108.384Z" fill="#E00000"/>
<path opacity="0.684756" fill-rule="evenodd" clip-rule="evenodd" d="M149.702 99.6665C153.588 99.6665 156.739 102.95 156.739 107C156.739 111.05 153.588 114.333 149.702 114.333C145.816 114.333 142.665 111.05 142.665 107C142.665 102.95 145.816 99.6665 149.702 99.6665ZM150.337 103.589C150.3 103.257 150.03 103 149.702 103C149.349 103 149.062 103.298 149.062 103.667V108.333L149.067 108.411C149.104 108.742 149.374 109 149.702 109C150.055 109 150.342 108.701 150.342 108.333V103.667L150.337 103.589ZM150.342 110.333C150.342 109.965 150.055 109.667 149.702 109.667C149.349 109.667 149.062 109.965 149.062 110.333C149.062 110.701 149.349 111 149.702 111C150.055 111 150.342 110.701 150.342 110.333Z" fill="#979797"/>
<mask id="mask0" mask-type="alpha" maskUnits="userSpaceOnUse" x="142" y="99" width="15" height="16">
<path fill-rule="evenodd" clip-rule="evenodd" d="M149.702 99.6665C153.588 99.6665 156.739 102.95 156.739 107C156.739 111.05 153.588 114.333 149.702 114.333C145.816 114.333 142.665 111.05 142.665 107C142.665 102.95 145.816 99.6665 149.702 99.6665ZM150.337 103.589C150.3 103.257 150.03 103 149.702 103C149.349 103 149.062 103.298 149.062 103.667V108.333L149.067 108.411C149.104 108.742 149.374 109 149.702 109C150.055 109 150.342 108.701 150.342 108.333V103.667L150.337 103.589ZM150.342 110.333C150.342 109.965 150.055 109.667 149.702 109.667C149.349 109.667 149.062 109.965 149.062 110.333C149.062 110.701 149.349 111 149.702 111C150.055 111 150.342 110.701 150.342 110.333Z" fill="white"/>
</mask>
<g mask="url(#mask0)">
<rect x="142.026" y="99" width="15.3529" height="16" fill="#F22613"/>
</g>
<path d="M31.2725 108.927H35.9893V110H29.9531V100.047H31.2725V108.927ZM41.8545 110C41.7816 109.854 41.7223 109.594 41.6768 109.221C41.0889 109.831 40.387 110.137 39.5713 110.137C38.8421 110.137 38.2428 109.932 37.7734 109.521C37.3086 109.107 37.0762 108.583 37.0762 107.949C37.0762 107.179 37.3678 106.582 37.9512 106.158C38.5391 105.73 39.3639 105.516 40.4258 105.516H41.6562V104.935C41.6562 104.493 41.5241 104.142 41.2598 103.882C40.9954 103.618 40.6058 103.485 40.0908 103.485C39.6396 103.485 39.2614 103.599 38.9561 103.827C38.6507 104.055 38.498 104.331 38.498 104.654H37.2266C37.2266 104.285 37.3564 103.93 37.6162 103.588C37.8805 103.242 38.236 102.968 38.6826 102.768C39.1338 102.567 39.6283 102.467 40.166 102.467C41.0182 102.467 41.6859 102.681 42.1689 103.109C42.652 103.533 42.9027 104.119 42.9209 104.866V108.271C42.9209 108.95 43.0075 109.49 43.1807 109.891V110H41.8545ZM39.7559 109.036C40.1523 109.036 40.5283 108.934 40.8838 108.729C41.2393 108.523 41.4967 108.257 41.6562 107.929V106.411H40.665C39.1156 106.411 38.3408 106.865 38.3408 107.771C38.3408 108.168 38.473 108.478 38.7373 108.701C39.0016 108.924 39.3411 109.036 39.7559 109.036ZM51.165 106.384C51.165 107.514 50.9053 108.423 50.3857 109.111C49.8662 109.795 49.1689 110.137 48.2939 110.137C47.3597 110.137 46.6374 109.806 46.127 109.146L46.0654 110H44.9033V99.5H46.168V103.417C46.6784 102.784 47.3825 102.467 48.2803 102.467C49.1781 102.467 49.8822 102.806 50.3926 103.485C50.9076 104.164 51.165 105.094 51.165 106.274V106.384ZM49.9004 106.24C49.9004 105.379 49.734 104.714 49.4014 104.244C49.0687 103.775 48.5902 103.54 47.9658 103.54C47.1318 103.54 46.5326 103.927 46.168 104.702V107.901C46.5553 108.676 47.1592 109.063 47.9795 109.063C48.5856 109.063 49.0573 108.829 49.3945 108.359C49.7318 107.89 49.9004 107.184 49.9004 106.24ZM55.834 110.137C54.8314 110.137 54.0156 109.809 53.3867 109.152C52.7578 108.492 52.4434 107.61 52.4434 106.507V106.274C52.4434 105.541 52.5824 104.887 52.8604 104.312C53.1429 103.734 53.5348 103.283 54.0361 102.959C54.542 102.631 55.0889 102.467 55.6768 102.467C56.6383 102.467 57.3857 102.784 57.9189 103.417C58.4521 104.05 58.7188 104.957 58.7188 106.138V106.664H53.708C53.7262 107.393 53.9382 107.983 54.3438 108.435C54.7539 108.881 55.2734 109.104 55.9023 109.104C56.349 109.104 56.7272 109.013 57.0371 108.831C57.347 108.649 57.6182 108.407 57.8506 108.106L58.623 108.708C58.0033 109.66 57.0736 110.137 55.834 110.137ZM55.6768 103.506C55.1663 103.506 54.738 103.693 54.3916 104.066C54.0452 104.436 53.8311 104.955 53.749 105.625H57.4541V105.529C57.4176 104.887 57.2445 104.39 56.9346 104.039C56.6247 103.684 56.2054 103.506 55.6768 103.506ZM61.5625 110H60.2979V99.5H61.5625V110Z" fill="#120502"/>
<mask id="mask1" mask-type="alpha" maskUnits="userSpaceOnUse" x="24" y="120" width="261" height="30">
<path fill-rule="evenodd" clip-rule="evenodd" d="M39 120C30.7157 120 24 126.716 24 135C24 143.284 30.7157 150 39 150H270C278.284 150 285 143.284 285 135C285 126.716 278.284 120 270 120H39ZM39 121C31.268 121 25 127.268 25 135C25 142.732 31.268 149 39 149H270C277.732 149 284 142.732 284 135C284 127.268 277.732 121 270 121H39Z" fill="white"/>
</mask>
<g mask="url(#mask1)">
<rect x="24" y="120" width="261" height="30" fill="#E00000"/>
</g>
<path d="M36.8203 134.547V139H35.3203V127.625H39.5156C40.7604 127.625 41.7344 127.943 42.4375 128.578C43.1458 129.214 43.5 130.055 43.5 131.102C43.5 132.206 43.1536 133.057 42.4609 133.656C41.7734 134.25 40.7865 134.547 39.5 134.547H36.8203ZM36.8203 133.32H39.5156C40.3177 133.32 40.9323 133.133 41.3594 132.758C41.7865 132.378 42 131.831 42 131.117C42 130.44 41.7865 129.898 41.3594 129.492C40.9323 129.086 40.3464 128.875 39.6016 128.859H36.8203V133.32ZM46.7578 139H45.3125V127H46.7578V139ZM54.2969 139C54.2135 138.833 54.1458 138.536 54.0938 138.109C53.4219 138.807 52.6198 139.156 51.6875 139.156C50.8542 139.156 50.1693 138.922 49.6328 138.453C49.1016 137.979 48.8359 137.38 48.8359 136.656C48.8359 135.776 49.1693 135.094 49.8359 134.609C50.5078 134.12 51.4505 133.875 52.6641 133.875H54.0703V133.211C54.0703 132.706 53.9193 132.305 53.6172 132.008C53.3151 131.706 52.8698 131.555 52.2812 131.555C51.7656 131.555 51.3333 131.685 50.9844 131.945C50.6354 132.206 50.4609 132.521 50.4609 132.891H49.0078C49.0078 132.469 49.1562 132.062 49.4531 131.672C49.7552 131.276 50.1615 130.964 50.6719 130.734C51.1875 130.505 51.7526 130.391 52.3672 130.391C53.3411 130.391 54.1042 130.635 54.6562 131.125C55.2083 131.609 55.4948 132.279 55.5156 133.133V137.023C55.5156 137.799 55.6146 138.417 55.8125 138.875V139H54.2969ZM51.8984 137.898C52.3516 137.898 52.7812 137.781 53.1875 137.547C53.5938 137.312 53.888 137.008 54.0703 136.633V134.898H52.9375C51.1667 134.898 50.2812 135.417 50.2812 136.453C50.2812 136.906 50.4323 137.26 50.7344 137.516C51.0365 137.771 51.4245 137.898 51.8984 137.898ZM61.1719 137.977C61.6875 137.977 62.138 137.82 62.5234 137.508C62.9089 137.195 63.1224 136.805 63.1641 136.336H64.5312C64.5052 136.82 64.3385 137.281 64.0312 137.719C63.724 138.156 63.3125 138.505 62.7969 138.766C62.2865 139.026 61.7448 139.156 61.1719 139.156C60.0208 139.156 59.1042 138.773 58.4219 138.008C57.7448 137.237 57.4062 136.185 57.4062 134.852V134.609C57.4062 133.786 57.5573 133.055 57.8594 132.414C58.1615 131.773 58.5938 131.276 59.1562 130.922C59.724 130.568 60.3932 130.391 61.1641 130.391C62.112 130.391 62.8984 130.674 63.5234 131.242C64.1536 131.81 64.4896 132.547 64.5312 133.453H63.1641C63.1224 132.906 62.9141 132.458 62.5391 132.109C62.1693 131.755 61.7109 131.578 61.1641 131.578C60.4297 131.578 59.8594 131.844 59.4531 132.375C59.0521 132.901 58.8516 133.664 58.8516 134.664V134.938C58.8516 135.911 59.0521 136.661 59.4531 137.188C59.8542 137.714 60.4271 137.977 61.1719 137.977ZM69.6641 139.156C68.5182 139.156 67.5859 138.781 66.8672 138.031C66.1484 137.276 65.7891 136.268 65.7891 135.008V134.742C65.7891 133.904 65.9479 133.156 66.2656 132.5C66.5885 131.839 67.0365 131.323 67.6094 130.953C68.1875 130.578 68.8125 130.391 69.4844 130.391C70.5833 130.391 71.4375 130.753 72.0469 131.477C72.6562 132.201 72.9609 133.237 72.9609 134.586V135.188H67.2344C67.2552 136.021 67.4974 136.695 67.9609 137.211C68.4297 137.721 69.0234 137.977 69.7422 137.977C70.2526 137.977 70.6849 137.872 71.0391 137.664C71.3932 137.456 71.7031 137.18 71.9688 136.836L72.8516 137.523C72.1432 138.612 71.0807 139.156 69.6641 139.156ZM69.4844 131.578C68.901 131.578 68.4115 131.792 68.0156 132.219C67.6198 132.641 67.375 133.234 67.2812 134H71.5156V133.891C71.474 133.156 71.276 132.589 70.9219 132.188C70.5677 131.781 70.0885 131.578 69.4844 131.578ZM76.0859 131.57C76.7266 130.784 77.5599 130.391 78.5859 130.391C80.3724 130.391 81.2734 131.398 81.2891 133.414V139H79.8438V133.406C79.8385 132.797 79.6979 132.346 79.4219 132.055C79.151 131.763 78.7266 131.617 78.1484 131.617C77.6797 131.617 77.2682 131.742 76.9141 131.992C76.5599 132.242 76.2839 132.57 76.0859 132.977V139H74.6406V127H76.0859V131.57ZM83.0703 134.695C83.0703 133.867 83.2318 133.122 83.5547 132.461C83.8828 131.799 84.3359 131.289 84.9141 130.93C85.4974 130.57 86.1615 130.391 86.9062 130.391C88.0573 130.391 88.987 130.789 89.6953 131.586C90.4089 132.383 90.7656 133.443 90.7656 134.766V134.867C90.7656 135.69 90.6068 136.43 90.2891 137.086C89.9766 137.737 89.526 138.245 88.9375 138.609C88.3542 138.974 87.6823 139.156 86.9219 139.156C85.776 139.156 84.8464 138.758 84.1328 137.961C83.4245 137.164 83.0703 136.109 83.0703 134.797V134.695ZM84.5234 134.867C84.5234 135.805 84.7396 136.557 85.1719 137.125C85.6094 137.693 86.1927 137.977 86.9219 137.977C87.6562 137.977 88.2396 137.69 88.6719 137.117C89.1042 136.539 89.3203 135.732 89.3203 134.695C89.3203 133.768 89.099 133.018 88.6562 132.445C88.2188 131.867 87.6354 131.578 86.9062 131.578C86.1927 131.578 85.6172 131.862 85.1797 132.43C84.7422 132.997 84.5234 133.81 84.5234 134.867ZM94.1484 139H92.7031V127H94.1484V139ZM96.1172 134.703C96.1172 133.406 96.4245 132.365 97.0391 131.578C97.6536 130.786 98.4583 130.391 99.4531 130.391C100.443 130.391 101.227 130.729 101.805 131.406V127H103.25V139H101.922L101.852 138.094C101.273 138.802 100.469 139.156 99.4375 139.156C98.4583 139.156 97.6589 138.755 97.0391 137.953C96.4245 137.151 96.1172 136.104 96.1172 134.812V134.703ZM97.5625 134.867C97.5625 135.826 97.7604 136.576 98.1562 137.117C98.5521 137.659 99.099 137.93 99.7969 137.93C100.714 137.93 101.383 137.518 101.805 136.695V132.812C101.372 132.016 100.708 131.617 99.8125 131.617C99.1042 131.617 98.5521 131.891 98.1562 132.438C97.7604 132.984 97.5625 133.794 97.5625 134.867ZM109.008 139.156C107.862 139.156 106.93 138.781 106.211 138.031C105.492 137.276 105.133 136.268 105.133 135.008V134.742C105.133 133.904 105.292 133.156 105.609 132.5C105.932 131.839 106.38 131.323 106.953 130.953C107.531 130.578 108.156 130.391 108.828 130.391C109.927 130.391 110.781 130.753 111.391 131.477C112 132.201 112.305 133.237 112.305 134.586V135.188H106.578C106.599 136.021 106.841 136.695 107.305 137.211C107.773 137.721 108.367 137.977 109.086 137.977C109.596 137.977 110.029 137.872 110.383 137.664C110.737 137.456 111.047 137.18 111.312 136.836L112.195 137.523C111.487 138.612 110.424 139.156 109.008 139.156ZM108.828 131.578C108.245 131.578 107.755 131.792 107.359 132.219C106.964 132.641 106.719 133.234 106.625 134H110.859V133.891C110.818 133.156 110.62 132.589 110.266 132.188C109.911 131.781 109.432 131.578 108.828 131.578ZM118.07 131.844C117.852 131.807 117.615 131.789 117.359 131.789C116.411 131.789 115.768 132.193 115.43 133V139H113.984V130.547H115.391L115.414 131.523C115.888 130.768 116.56 130.391 117.43 130.391C117.711 130.391 117.924 130.427 118.07 130.5V131.844Z" fill="#1C272B"/>
<defs>
<filter id="filter0_ddd" x="-20" y="-10" width="349" height="370" filterUnits="userSpaceOnUse" color-interpolation-filters="sRGB">
<feFlood flood-opacity="0" result="BackgroundImageFix"/>
<feColorMatrix in="SourceAlpha" type="matrix" values="0 0 0 0 0 0 0 0 0 0 0 0 0 0 0 0 0 0 127 0"/>
<feOffset/>
<feGaussianBlur stdDeviation="0.5"/>
<feColorMatrix type="matrix" values="0 0 0 0 0 0 0 0 0 0 0 0 0 0 0 0 0 0 0.04 0"/>
<feBlend mode="normal" in2="BackgroundImageFix" result="effect1_dropShadow"/>
<feColorMatrix in="SourceAlpha" type="matrix" values="0 0 0 0 0 0 0 0 0 0 0 0 0 0 0 0 0 0 127 0"/>
<feOffset dy="2"/>
<feGaussianBlur stdDeviation="3"/>
<feColorMatrix type="matrix" values="0 0 0 0 0 0 0 0 0 0 0 0 0 0 0 0 0 0 0.04 0"/>
<feBlend mode="normal" in2="effect1_dropShadow" result="effect2_dropShadow"/>
<feColorMatrix in="SourceAlpha" type="matrix" values="0 0 0 0 0 0 0 0 0 0 0 0 0 0 0 0 0 0 127 0"/>
<feOffset dy="10"/>
<feGaussianBlur stdDeviation="10"/>
<feColorMatrix type="matrix" values="0 0 0 0 0 0 0 0 0 0 0 0 0 0 0 0 0 0 0.04 0"/>
<feBlend mode="normal" in2="effect2_dropShadow" result="effect3_dropShadow"/>
<feBlend mode="normal" in="SourceGraphic" in2="effect3_dropShadow" result="shape"/>
</filter>
</defs>
</svg>
