<svg width="96" height="88" viewBox="0 0 96 88" fill="none" xmlns="http://www.w3.org/2000/svg">
<path fill-rule="evenodd" clip-rule="evenodd" d="M16.1798 78.7813C-1.39328 61.4454 -1.39328 33.3359 16.1798 15.9961C33.7529 -1.33204 62.2432 -1.33204 79.8202 15.9961C97.3933 33.3359 97.3933 61.4454 79.8202 78.7813C71.4151 87.0729 57.7902 87.0729 49.3813 78.7813L32.7825 62.4027C31.2565 60.8934 28.7756 60.8934 27.2496 62.4027C25.7196 63.9121 25.7196 66.3555 27.2496 67.861C30.3017 70.8719 30.3017 75.7588 27.2496 78.7813C24.1936 81.7961 19.2358 81.7961 16.1798 78.7813Z" stroke="black" stroke-width="5" stroke-linecap="round" stroke-linejoin="round"/>
<path fill-rule="evenodd" clip-rule="evenodd" d="M68.3885 32.388C66.2435 34.5373 62.7602 34.5373 60.6115 32.388C58.4628 30.2459 58.4628 26.7541 60.6115 24.612C62.7602 22.4627 66.2435 22.4627 68.3885 24.612C70.5372 26.7541 70.5372 30.2459 68.3885 32.388Z" stroke="black" stroke-width="5" stroke-linecap="round" stroke-linejoin="round"/>
<path fill-rule="evenodd" clip-rule="evenodd" d="M72.1727 49.9735C70.6091 48.6048 70.6091 46.3925 72.1727 45.0239C73.7363 43.6587 76.2637 43.6587 77.8273 45.0239C79.3909 46.3925 79.3909 48.6048 77.8273 49.9735C76.2637 51.3422 73.7363 51.3422 72.1727 49.9735Z" stroke="black" stroke-width="5" stroke-linecap="round" stroke-linejoin="round"/>
<path fill-rule="evenodd" clip-rule="evenodd" d="M59.1944 71.8062C56.2685 68.8775 56.2685 64.1225 59.1944 61.1937C62.1204 58.2688 66.8768 58.2688 69.8028 61.1937C72.7324 64.1225 72.7324 68.8775 69.8028 71.8062C66.8768 74.7312 62.1204 74.7312 59.1944 71.8062Z" stroke="black" stroke-width="5" stroke-linecap="round" stroke-linejoin="round"/>
<path fill-rule="evenodd" clip-rule="evenodd" d="M45.2406 19.758C47.5845 22.102 47.5885 25.902 45.2406 28.242C42.9007 30.586 39.1008 30.586 36.7609 28.242C34.413 25.902 34.413 22.102 36.7609 19.758C39.1048 17.414 42.9007 17.414 45.2406 19.758Z" fill="#D43900" stroke="black" stroke-width="5" stroke-linecap="round" stroke-linejoin="round"/>
</svg>
