<svg width="329" height="330" viewBox="0 0 329 330" fill="none" xmlns="http://www.w3.org/2000/svg">
<g filter="url(#filter0_ddd)">
<rect x="20" width="309" height="330" rx="4" fill="white"/>
<rect x="20.5" y="0.5" width="308" height="329" rx="3.5" stroke="#E2E7E9"/>
</g>
<path d="M51.4365 108.927H56.1533V110H50.1172V100.047H51.4365V108.927ZM62.0186 110C61.9456 109.854 61.8864 109.594 61.8408 109.221C61.2529 109.831 60.5511 110.137 59.7354 110.137C59.0062 110.137 58.4069 109.932 57.9375 109.521C57.4727 109.107 57.2402 108.583 57.2402 107.949C57.2402 107.179 57.5319 106.582 58.1152 106.158C58.7031 105.73 59.528 105.516 60.5898 105.516H61.8203V104.935C61.8203 104.493 61.6882 104.142 61.4238 103.882C61.1595 103.618 60.7699 103.485 60.2549 103.485C59.8037 103.485 59.4255 103.599 59.1201 103.827C58.8148 104.055 58.6621 104.331 58.6621 104.654H57.3906C57.3906 104.285 57.5205 103.93 57.7803 103.588C58.0446 103.242 58.4001 102.968 58.8467 102.768C59.2979 102.567 59.7923 102.467 60.3301 102.467C61.1823 102.467 61.8499 102.681 62.333 103.109C62.8161 103.533 63.0667 104.119 63.085 104.866V108.271C63.085 108.95 63.1715 109.49 63.3447 109.891V110H62.0186ZM59.9199 109.036C60.3164 109.036 60.6924 108.934 61.0479 108.729C61.4033 108.523 61.6608 108.257 61.8203 107.929V106.411H60.8291C59.2796 106.411 58.5049 106.865 58.5049 107.771C58.5049 108.168 58.637 108.478 58.9014 108.701C59.1657 108.924 59.5052 109.036 59.9199 109.036ZM71.3291 106.384C71.3291 107.514 71.0693 108.423 70.5498 109.111C70.0303 109.795 69.333 110.137 68.458 110.137C67.5238 110.137 66.8014 109.806 66.291 109.146L66.2295 110H65.0674V99.5H66.332V103.417C66.8424 102.784 67.5465 102.467 68.4443 102.467C69.3421 102.467 70.0462 102.806 70.5566 103.485C71.0716 104.164 71.3291 105.094 71.3291 106.274V106.384ZM70.0645 106.24C70.0645 105.379 69.8981 104.714 69.5654 104.244C69.2327 103.775 68.7542 103.54 68.1299 103.54C67.2959 103.54 66.6966 103.927 66.332 104.702V107.901C66.7194 108.676 67.3232 109.063 68.1436 109.063C68.7497 109.063 69.2214 108.829 69.5586 108.359C69.8958 107.89 70.0645 107.184 70.0645 106.24ZM75.998 110.137C74.9954 110.137 74.1797 109.809 73.5508 109.152C72.9219 108.492 72.6074 107.61 72.6074 106.507V106.274C72.6074 105.541 72.7464 104.887 73.0244 104.312C73.307 103.734 73.6989 103.283 74.2002 102.959C74.7061 102.631 75.2529 102.467 75.8408 102.467C76.8024 102.467 77.5498 102.784 78.083 103.417C78.6162 104.05 78.8828 104.957 78.8828 106.138V106.664H73.8721C73.8903 107.393 74.1022 107.983 74.5078 108.435C74.918 108.881 75.4375 109.104 76.0664 109.104C76.513 109.104 76.8913 109.013 77.2012 108.831C77.5111 108.649 77.7822 108.407 78.0146 108.106L78.7871 108.708C78.1673 109.66 77.2376 110.137 75.998 110.137ZM75.8408 103.506C75.3304 103.506 74.902 103.693 74.5557 104.066C74.2093 104.436 73.9951 104.955 73.9131 105.625H77.6182V105.529C77.5817 104.887 77.4085 104.39 77.0986 104.039C76.7887 103.684 76.3695 103.506 75.8408 103.506ZM81.7266 110H80.4619V99.5H81.7266V110Z" fill="#120502"/>
<mask id="mask0" mask-type="alpha" maskUnits="userSpaceOnUse" x="44" y="120" width="259" height="30">
<path fill-rule="evenodd" clip-rule="evenodd" d="M59 120C50.7157 120 44 126.716 44 135C44 143.284 50.7157 150 59 150H288C296.284 150 303 143.284 303 135C303 126.716 296.284 120 288 120H59ZM58.9921 121C51.2601 121 44.9921 127.268 44.9921 135C44.9921 142.732 51.2601 149 58.9921 149H288.007C295.739 149 302.007 142.732 302.007 135C302.007 127.268 295.739 121 288.007 121H58.9921Z" fill="white"/>
</mask>
<g mask="url(#mask0)">
<rect x="44" y="120" width="268.726" height="30" fill="#E00000"/>
</g>
<path d="M56.8203 134.547V139H55.3203V127.625H59.5156C60.7604 127.625 61.7344 127.943 62.4375 128.578C63.1458 129.214 63.5 130.055 63.5 131.102C63.5 132.206 63.1536 133.057 62.4609 133.656C61.7734 134.25 60.7865 134.547 59.5 134.547H56.8203ZM56.8203 133.32H59.5156C60.3177 133.32 60.9323 133.133 61.3594 132.758C61.7865 132.378 62 131.831 62 131.117C62 130.44 61.7865 129.898 61.3594 129.492C60.9323 129.086 60.3464 128.875 59.6016 128.859H56.8203V133.32ZM66.7578 139H65.3125V127H66.7578V139ZM74.2969 139C74.2135 138.833 74.1458 138.536 74.0938 138.109C73.4219 138.807 72.6198 139.156 71.6875 139.156C70.8542 139.156 70.1693 138.922 69.6328 138.453C69.1016 137.979 68.8359 137.38 68.8359 136.656C68.8359 135.776 69.1693 135.094 69.8359 134.609C70.5078 134.12 71.4505 133.875 72.6641 133.875H74.0703V133.211C74.0703 132.706 73.9193 132.305 73.6172 132.008C73.3151 131.706 72.8698 131.555 72.2812 131.555C71.7656 131.555 71.3333 131.685 70.9844 131.945C70.6354 132.206 70.4609 132.521 70.4609 132.891H69.0078C69.0078 132.469 69.1562 132.062 69.4531 131.672C69.7552 131.276 70.1615 130.964 70.6719 130.734C71.1875 130.505 71.7526 130.391 72.3672 130.391C73.3411 130.391 74.1042 130.635 74.6562 131.125C75.2083 131.609 75.4948 132.279 75.5156 133.133V137.023C75.5156 137.799 75.6146 138.417 75.8125 138.875V139H74.2969ZM71.8984 137.898C72.3516 137.898 72.7812 137.781 73.1875 137.547C73.5938 137.312 73.888 137.008 74.0703 136.633V134.898H72.9375C71.1667 134.898 70.2812 135.417 70.2812 136.453C70.2812 136.906 70.4323 137.26 70.7344 137.516C71.0365 137.771 71.4245 137.898 71.8984 137.898ZM81.1719 137.977C81.6875 137.977 82.138 137.82 82.5234 137.508C82.9089 137.195 83.1224 136.805 83.1641 136.336H84.5312C84.5052 136.82 84.3385 137.281 84.0312 137.719C83.724 138.156 83.3125 138.505 82.7969 138.766C82.2865 139.026 81.7448 139.156 81.1719 139.156C80.0208 139.156 79.1042 138.773 78.4219 138.008C77.7448 137.237 77.4062 136.185 77.4062 134.852V134.609C77.4062 133.786 77.5573 133.055 77.8594 132.414C78.1615 131.773 78.5938 131.276 79.1562 130.922C79.724 130.568 80.3932 130.391 81.1641 130.391C82.112 130.391 82.8984 130.674 83.5234 131.242C84.1536 131.81 84.4896 132.547 84.5312 133.453H83.1641C83.1224 132.906 82.9141 132.458 82.5391 132.109C82.1693 131.755 81.7109 131.578 81.1641 131.578C80.4297 131.578 79.8594 131.844 79.4531 132.375C79.0521 132.901 78.8516 133.664 78.8516 134.664V134.938C78.8516 135.911 79.0521 136.661 79.4531 137.188C79.8542 137.714 80.4271 137.977 81.1719 137.977ZM89.6641 139.156C88.5182 139.156 87.5859 138.781 86.8672 138.031C86.1484 137.276 85.7891 136.268 85.7891 135.008V134.742C85.7891 133.904 85.9479 133.156 86.2656 132.5C86.5885 131.839 87.0365 131.323 87.6094 130.953C88.1875 130.578 88.8125 130.391 89.4844 130.391C90.5833 130.391 91.4375 130.753 92.0469 131.477C92.6562 132.201 92.9609 133.237 92.9609 134.586V135.188H87.2344C87.2552 136.021 87.4974 136.695 87.9609 137.211C88.4297 137.721 89.0234 137.977 89.7422 137.977C90.2526 137.977 90.6849 137.872 91.0391 137.664C91.3932 137.456 91.7031 137.18 91.9688 136.836L92.8516 137.523C92.1432 138.612 91.0807 139.156 89.6641 139.156ZM89.4844 131.578C88.901 131.578 88.4115 131.792 88.0156 132.219C87.6198 132.641 87.375 133.234 87.2812 134H91.5156V133.891C91.474 133.156 91.276 132.589 90.9219 132.188C90.5677 131.781 90.0885 131.578 89.4844 131.578ZM96.0859 131.57C96.7266 130.784 97.5599 130.391 98.5859 130.391C100.372 130.391 101.273 131.398 101.289 133.414V139H99.8438V133.406C99.8385 132.797 99.6979 132.346 99.4219 132.055C99.151 131.763 98.7266 131.617 98.1484 131.617C97.6797 131.617 97.2682 131.742 96.9141 131.992C96.5599 132.242 96.2839 132.57 96.0859 132.977V139H94.6406V127H96.0859V131.57ZM103.07 134.695C103.07 133.867 103.232 133.122 103.555 132.461C103.883 131.799 104.336 131.289 104.914 130.93C105.497 130.57 106.161 130.391 106.906 130.391C108.057 130.391 108.987 130.789 109.695 131.586C110.409 132.383 110.766 133.443 110.766 134.766V134.867C110.766 135.69 110.607 136.43 110.289 137.086C109.977 137.737 109.526 138.245 108.938 138.609C108.354 138.974 107.682 139.156 106.922 139.156C105.776 139.156 104.846 138.758 104.133 137.961C103.424 137.164 103.07 136.109 103.07 134.797V134.695ZM104.523 134.867C104.523 135.805 104.74 136.557 105.172 137.125C105.609 137.693 106.193 137.977 106.922 137.977C107.656 137.977 108.24 137.69 108.672 137.117C109.104 136.539 109.32 135.732 109.32 134.695C109.32 133.768 109.099 133.018 108.656 132.445C108.219 131.867 107.635 131.578 106.906 131.578C106.193 131.578 105.617 131.862 105.18 132.43C104.742 132.997 104.523 133.81 104.523 134.867ZM114.148 139H112.703V127H114.148V139ZM116.117 134.703C116.117 133.406 116.424 132.365 117.039 131.578C117.654 130.786 118.458 130.391 119.453 130.391C120.443 130.391 121.227 130.729 121.805 131.406V127H123.25V139H121.922L121.852 138.094C121.273 138.802 120.469 139.156 119.438 139.156C118.458 139.156 117.659 138.755 117.039 137.953C116.424 137.151 116.117 136.104 116.117 134.812V134.703ZM117.562 134.867C117.562 135.826 117.76 136.576 118.156 137.117C118.552 137.659 119.099 137.93 119.797 137.93C120.714 137.93 121.383 137.518 121.805 136.695V132.812C121.372 132.016 120.708 131.617 119.812 131.617C119.104 131.617 118.552 131.891 118.156 132.438C117.76 132.984 117.562 133.794 117.562 134.867ZM129.008 139.156C127.862 139.156 126.93 138.781 126.211 138.031C125.492 137.276 125.133 136.268 125.133 135.008V134.742C125.133 133.904 125.292 133.156 125.609 132.5C125.932 131.839 126.38 131.323 126.953 130.953C127.531 130.578 128.156 130.391 128.828 130.391C129.927 130.391 130.781 130.753 131.391 131.477C132 132.201 132.305 133.237 132.305 134.586V135.188H126.578C126.599 136.021 126.841 136.695 127.305 137.211C127.773 137.721 128.367 137.977 129.086 137.977C129.596 137.977 130.029 137.872 130.383 137.664C130.737 137.456 131.047 137.18 131.312 136.836L132.195 137.523C131.487 138.612 130.424 139.156 129.008 139.156ZM128.828 131.578C128.245 131.578 127.755 131.792 127.359 132.219C126.964 132.641 126.719 133.234 126.625 134H130.859V133.891C130.818 133.156 130.62 132.589 130.266 132.188C129.911 131.781 129.432 131.578 128.828 131.578ZM138.07 131.844C137.852 131.807 137.615 131.789 137.359 131.789C136.411 131.789 135.768 132.193 135.43 133V139H133.984V130.547H135.391L135.414 131.523C135.888 130.768 136.56 130.391 137.43 130.391C137.711 130.391 137.924 130.427 138.07 130.5V131.844Z" fill="#1C272B"/>
<path fill-rule="evenodd" clip-rule="evenodd" d="M63.4782 255.523C58.7885 250.832 51.1899 250.825 46.5093 255.506C41.8257 260.192 41.8302 267.788 46.5229 272.478C51.2126 277.168 58.8127 277.174 63.4918 272.493C68.1739 267.812 68.1694 260.213 63.4782 255.523ZM57.4322 269.048L54.8828 266.498L52.3333 269.048C51.2926 270.089 50.5103 270.995 49.2688 269.755C48.0303 268.515 48.9319 267.732 49.9771 266.69L52.5266 264.142L49.9771 261.592C48.935 260.551 48.0303 259.769 49.2688 258.527C50.5103 257.288 51.2926 258.193 52.3333 259.235L54.8828 261.782L57.4322 259.235C58.4744 258.195 59.2522 257.287 60.4937 258.527C61.7353 259.769 60.8306 260.551 59.7884 261.592L57.2389 264.14L59.7884 266.688C60.829 267.732 61.7353 268.515 60.4937 269.755C59.2553 270.995 58.4744 270.089 57.4322 269.048Z" fill="#E00000"/>
<path d="M82.6414 257.395H79.8992V265H78.78V257.395H76.0437V256.469H82.6414V257.395ZM84.821 259.428C85.3015 258.838 85.9265 258.543 86.696 258.543C88.0359 258.543 88.7117 259.299 88.7234 260.811V265H87.6394V260.805C87.6355 260.348 87.53 260.01 87.323 259.791C87.1199 259.572 86.8015 259.463 86.3679 259.463C86.0164 259.463 85.7078 259.557 85.4421 259.744C85.1765 259.932 84.9695 260.178 84.821 260.482V265H83.7371V256H84.821V259.428ZM92.9773 265.117C92.1179 265.117 91.4187 264.836 90.8796 264.273C90.3406 263.707 90.071 262.951 90.071 262.006V261.807C90.071 261.178 90.1902 260.617 90.4285 260.125C90.6707 259.629 91.0066 259.242 91.4363 258.965C91.8699 258.684 92.3386 258.543 92.8425 258.543C93.6667 258.543 94.3074 258.814 94.7644 259.357C95.2214 259.9 95.45 260.678 95.45 261.689V262.141H91.155C91.1707 262.766 91.3523 263.271 91.7 263.658C92.0515 264.041 92.4968 264.232 93.0359 264.232C93.4187 264.232 93.7429 264.154 94.0085 263.998C94.2742 263.842 94.5066 263.635 94.7058 263.377L95.3679 263.893C94.8367 264.709 94.0398 265.117 92.9773 265.117ZM92.8425 259.434C92.405 259.434 92.0378 259.594 91.741 259.914C91.4441 260.23 91.2605 260.676 91.1902 261.25H94.366V261.168C94.3347 260.617 94.1863 260.191 93.9207 259.891C93.655 259.586 93.2957 259.434 92.8425 259.434ZM102.317 265.117C101.458 265.117 100.759 264.836 100.219 264.273C99.6804 263.707 99.4109 262.951 99.4109 262.006V261.807C99.4109 261.178 99.53 260.617 99.7683 260.125C100.01 259.629 100.346 259.242 100.776 258.965C101.21 258.684 101.678 258.543 102.182 258.543C103.007 258.543 103.647 258.814 104.104 259.357C104.561 259.9 104.79 260.678 104.79 261.689V262.141H100.495C100.51 262.766 100.692 263.271 101.04 263.658C101.391 264.041 101.837 264.232 102.376 264.232C102.759 264.232 103.083 264.154 103.348 263.998C103.614 263.842 103.846 263.635 104.046 263.377L104.708 263.893C104.177 264.709 103.38 265.117 102.317 265.117ZM102.182 259.434C101.745 259.434 101.378 259.594 101.081 259.914C100.784 260.23 100.6 260.676 100.53 261.25H103.706V261.168C103.675 260.617 103.526 260.191 103.26 259.891C102.995 259.586 102.635 259.434 102.182 259.434ZM109.114 259.633C108.95 259.605 108.772 259.592 108.581 259.592C107.87 259.592 107.387 259.895 107.134 260.5V265H106.05V258.66H107.104L107.122 259.393C107.477 258.826 107.981 258.543 108.634 258.543C108.844 258.543 109.005 258.57 109.114 258.625V259.633ZM113.18 259.633C113.016 259.605 112.839 259.592 112.647 259.592C111.936 259.592 111.454 259.895 111.2 260.5V265H110.116V258.66H111.171L111.188 259.393C111.544 258.826 112.048 258.543 112.7 258.543C112.911 258.543 113.071 258.57 113.18 258.625V259.633ZM113.778 261.771C113.778 261.15 113.899 260.592 114.141 260.096C114.387 259.6 114.727 259.217 115.161 258.947C115.598 258.678 116.096 258.543 116.655 258.543C117.518 258.543 118.216 258.842 118.747 259.439C119.282 260.037 119.55 260.832 119.55 261.824V261.9C119.55 262.518 119.43 263.072 119.192 263.564C118.958 264.053 118.62 264.434 118.178 264.707C117.741 264.98 117.237 265.117 116.667 265.117C115.807 265.117 115.11 264.818 114.575 264.221C114.044 263.623 113.778 262.832 113.778 261.848V261.771ZM114.868 261.9C114.868 262.604 115.03 263.168 115.354 263.594C115.682 264.02 116.12 264.232 116.667 264.232C117.218 264.232 117.655 264.018 117.979 263.588C118.303 263.154 118.466 262.549 118.466 261.771C118.466 261.076 118.3 260.514 117.968 260.084C117.639 259.65 117.202 259.434 116.655 259.434C116.12 259.434 115.688 259.646 115.36 260.072C115.032 260.498 114.868 261.107 114.868 261.9ZM123.973 259.633C123.809 259.605 123.632 259.592 123.44 259.592C122.729 259.592 122.247 259.895 121.993 260.5V265H120.909V258.66H121.964L121.981 259.393C122.337 258.826 122.841 258.543 123.493 258.543C123.704 258.543 123.864 258.57 123.973 258.625V259.633ZM131.643 263.318C131.643 263.025 131.532 262.799 131.309 262.639C131.091 262.475 130.706 262.334 130.155 262.217C129.608 262.1 129.173 261.959 128.848 261.795C128.528 261.631 128.29 261.436 128.134 261.209C127.981 260.982 127.905 260.713 127.905 260.4C127.905 259.881 128.124 259.441 128.561 259.082C129.003 258.723 129.565 258.543 130.249 258.543C130.968 258.543 131.55 258.729 131.995 259.1C132.444 259.471 132.669 259.945 132.669 260.523H131.579C131.579 260.227 131.452 259.971 131.198 259.756C130.948 259.541 130.632 259.434 130.249 259.434C129.854 259.434 129.546 259.52 129.323 259.691C129.1 259.863 128.989 260.088 128.989 260.365C128.989 260.627 129.093 260.824 129.3 260.957C129.507 261.09 129.88 261.217 130.419 261.338C130.962 261.459 131.401 261.604 131.737 261.771C132.073 261.939 132.321 262.143 132.481 262.381C132.645 262.615 132.727 262.902 132.727 263.242C132.727 263.809 132.501 264.264 132.048 264.607C131.594 264.947 131.007 265.117 130.284 265.117C129.776 265.117 129.327 265.027 128.936 264.848C128.546 264.668 128.239 264.418 128.016 264.098C127.798 263.773 127.688 263.424 127.688 263.049H128.772C128.792 263.412 128.936 263.701 129.206 263.916C129.479 264.127 129.839 264.232 130.284 264.232C130.694 264.232 131.022 264.15 131.268 263.986C131.518 263.818 131.643 263.596 131.643 263.318ZM135.61 257.125V258.66H136.794V259.498H135.61V263.43C135.61 263.684 135.663 263.875 135.768 264.004C135.874 264.129 136.053 264.191 136.307 264.191C136.432 264.191 136.604 264.168 136.823 264.121V265C136.538 265.078 136.26 265.117 135.991 265.117C135.507 265.117 135.141 264.971 134.895 264.678C134.649 264.385 134.526 263.969 134.526 263.43V259.498H133.372V258.66H134.526V257.125H135.61ZM141.979 265C141.917 264.875 141.866 264.652 141.827 264.332C141.323 264.855 140.721 265.117 140.022 265.117C139.397 265.117 138.884 264.941 138.481 264.59C138.083 264.234 137.884 263.785 137.884 263.242C137.884 262.582 138.134 262.07 138.634 261.707C139.137 261.34 139.844 261.156 140.755 261.156H141.809V260.658C141.809 260.279 141.696 259.979 141.469 259.756C141.243 259.529 140.909 259.416 140.468 259.416C140.081 259.416 139.757 259.514 139.495 259.709C139.233 259.904 139.102 260.141 139.102 260.418H138.012C138.012 260.102 138.124 259.797 138.346 259.504C138.573 259.207 138.878 258.973 139.26 258.801C139.647 258.629 140.071 258.543 140.532 258.543C141.262 258.543 141.835 258.727 142.249 259.094C142.663 259.457 142.878 259.959 142.893 260.6V263.518C142.893 264.1 142.968 264.562 143.116 264.906V265H141.979ZM140.18 264.174C140.52 264.174 140.843 264.086 141.147 263.91C141.452 263.734 141.673 263.506 141.809 263.225V261.924H140.96C139.632 261.924 138.968 262.312 138.968 263.09C138.968 263.43 139.081 263.695 139.307 263.887C139.534 264.078 139.825 264.174 140.18 264.174ZM146.063 257.125V258.66H147.247V259.498H146.063V263.43C146.063 263.684 146.116 263.875 146.221 264.004C146.327 264.129 146.507 264.191 146.76 264.191C146.885 264.191 147.057 264.168 147.276 264.121V265C146.991 265.078 146.714 265.117 146.444 265.117C145.96 265.117 145.594 264.971 145.348 264.678C145.102 264.385 144.979 263.969 144.979 263.43V259.498H143.825V258.66H144.979V257.125H146.063ZM151.149 265.117C150.29 265.117 149.591 264.836 149.052 264.273C148.512 263.707 148.243 262.951 148.243 262.006V261.807C148.243 261.178 148.362 260.617 148.6 260.125C148.843 259.629 149.178 259.242 149.608 258.965C150.042 258.684 150.51 258.543 151.014 258.543C151.839 258.543 152.479 258.814 152.936 259.357C153.393 259.9 153.622 260.678 153.622 261.689V262.141H149.327C149.343 262.766 149.524 263.271 149.872 263.658C150.223 264.041 150.669 264.232 151.208 264.232C151.591 264.232 151.915 264.154 152.18 263.998C152.446 263.842 152.678 263.635 152.878 263.377L153.54 263.893C153.009 264.709 152.212 265.117 151.149 265.117ZM151.014 259.434C150.577 259.434 150.21 259.594 149.913 259.914C149.616 260.23 149.432 260.676 149.362 261.25H152.538V261.168C152.507 260.617 152.358 260.191 152.093 259.891C151.827 259.586 151.468 259.434 151.014 259.434ZM159.036 265H157.952V258.66H159.036V265ZM157.864 256.979C157.864 256.803 157.917 256.654 158.022 256.533C158.132 256.412 158.292 256.352 158.503 256.352C158.714 256.352 158.874 256.412 158.983 256.533C159.093 256.654 159.147 256.803 159.147 256.979C159.147 257.154 159.093 257.301 158.983 257.418C158.874 257.535 158.714 257.594 158.503 257.594C158.292 257.594 158.132 257.535 158.022 257.418C157.917 257.301 157.864 257.154 157.864 256.979ZM164.468 263.318C164.468 263.025 164.356 262.799 164.134 262.639C163.915 262.475 163.53 262.334 162.979 262.217C162.432 262.1 161.997 261.959 161.673 261.795C161.352 261.631 161.114 261.436 160.958 261.209C160.805 260.982 160.729 260.713 160.729 260.4C160.729 259.881 160.948 259.441 161.385 259.082C161.827 258.723 162.389 258.543 163.073 258.543C163.792 258.543 164.374 258.729 164.819 259.1C165.268 259.471 165.493 259.945 165.493 260.523H164.403C164.403 260.227 164.276 259.971 164.022 259.756C163.772 259.541 163.456 259.434 163.073 259.434C162.678 259.434 162.37 259.52 162.147 259.691C161.925 259.863 161.813 260.088 161.813 260.365C161.813 260.627 161.917 260.824 162.124 260.957C162.331 261.09 162.704 261.217 163.243 261.338C163.786 261.459 164.225 261.604 164.561 261.771C164.897 261.939 165.145 262.143 165.305 262.381C165.469 262.615 165.552 262.902 165.552 263.242C165.552 263.809 165.325 264.264 164.872 264.607C164.419 264.947 163.831 265.117 163.108 265.117C162.6 265.117 162.151 265.027 161.76 264.848C161.37 264.668 161.063 264.418 160.841 264.098C160.622 263.773 160.512 263.424 160.512 263.049H161.596C161.616 263.412 161.76 263.701 162.03 263.916C162.303 264.127 162.663 264.232 163.108 264.232C163.518 264.232 163.846 264.15 164.093 263.986C164.343 263.818 164.468 263.596 164.468 263.318ZM169.653 261.771C169.653 261.15 169.774 260.592 170.016 260.096C170.262 259.6 170.602 259.217 171.036 258.947C171.473 258.678 171.971 258.543 172.53 258.543C173.393 258.543 174.091 258.842 174.622 259.439C175.157 260.037 175.425 260.832 175.425 261.824V261.9C175.425 262.518 175.305 263.072 175.067 263.564C174.833 264.053 174.495 264.434 174.053 264.707C173.616 264.98 173.112 265.117 172.542 265.117C171.682 265.117 170.985 264.818 170.45 264.221C169.919 263.623 169.653 262.832 169.653 261.848V261.771ZM170.743 261.9C170.743 262.604 170.905 263.168 171.229 263.594C171.557 264.02 171.995 264.232 172.542 264.232C173.093 264.232 173.53 264.018 173.854 263.588C174.178 263.154 174.341 262.549 174.341 261.771C174.341 261.076 174.175 260.514 173.843 260.084C173.514 259.65 173.077 259.434 172.53 259.434C171.995 259.434 171.563 259.646 171.235 260.072C170.907 260.498 170.743 261.107 170.743 261.9ZM177.809 258.66L177.844 259.457C178.329 258.848 178.962 258.543 179.743 258.543C181.083 258.543 181.759 259.299 181.77 260.811V265H180.686V260.805C180.682 260.348 180.577 260.01 180.37 259.791C180.167 259.572 179.848 259.463 179.415 259.463C179.063 259.463 178.755 259.557 178.489 259.744C178.223 259.932 178.016 260.178 177.868 260.482V265H176.784V258.66H177.809ZM184.583 265H183.499V256H184.583V265ZM188.397 263.412L189.874 258.66H191.034L188.485 265.979C188.091 267.033 187.464 267.561 186.604 267.561L186.399 267.543L185.995 267.467V266.588L186.288 266.611C186.655 266.611 186.94 266.537 187.143 266.389C187.35 266.24 187.52 265.969 187.653 265.574L187.893 264.93L185.632 258.66H186.815L188.397 263.412ZM197.526 264.232C197.913 264.232 198.251 264.115 198.54 263.881C198.829 263.646 198.989 263.354 199.02 263.002H200.046C200.026 263.365 199.901 263.711 199.671 264.039C199.44 264.367 199.132 264.629 198.745 264.824C198.362 265.02 197.956 265.117 197.526 265.117C196.663 265.117 195.975 264.83 195.464 264.256C194.956 263.678 194.702 262.889 194.702 261.889V261.707C194.702 261.09 194.815 260.541 195.042 260.061C195.268 259.58 195.593 259.207 196.014 258.941C196.44 258.676 196.942 258.543 197.52 258.543C198.231 258.543 198.821 258.756 199.29 259.182C199.762 259.607 200.014 260.16 200.046 260.84H199.02C198.989 260.43 198.833 260.094 198.552 259.832C198.274 259.566 197.93 259.434 197.52 259.434C196.969 259.434 196.542 259.633 196.237 260.031C195.936 260.426 195.786 260.998 195.786 261.748V261.953C195.786 262.684 195.936 263.246 196.237 263.641C196.538 264.035 196.968 264.232 197.526 264.232ZM200.977 261.771C200.977 261.15 201.098 260.592 201.341 260.096C201.587 259.6 201.927 259.217 202.36 258.947C202.798 258.678 203.296 258.543 203.854 258.543C204.718 258.543 205.415 258.842 205.946 259.439C206.481 260.037 206.749 260.832 206.749 261.824V261.9C206.749 262.518 206.63 263.072 206.391 263.564C206.157 264.053 205.819 264.434 205.378 264.707C204.94 264.98 204.436 265.117 203.866 265.117C203.007 265.117 202.309 264.818 201.774 264.221C201.243 263.623 200.977 262.832 200.977 261.848V261.771ZM202.067 261.9C202.067 262.604 202.229 263.168 202.553 263.594C202.882 264.02 203.319 264.232 203.866 264.232C204.417 264.232 204.854 264.018 205.178 263.588C205.503 263.154 205.665 262.549 205.665 261.771C205.665 261.076 205.499 260.514 205.167 260.084C204.839 259.65 204.401 259.434 203.854 259.434C203.319 259.434 202.887 259.646 202.559 260.072C202.231 260.498 202.067 261.107 202.067 261.9ZM209.128 258.66L209.157 259.363C209.622 258.816 210.249 258.543 211.038 258.543C211.925 258.543 212.528 258.883 212.848 259.562C213.059 259.258 213.333 259.012 213.669 258.824C214.009 258.637 214.409 258.543 214.87 258.543C216.26 258.543 216.968 259.279 216.991 260.752V265H215.907V260.816C215.907 260.363 215.803 260.025 215.596 259.803C215.389 259.576 215.042 259.463 214.553 259.463C214.151 259.463 213.817 259.584 213.552 259.826C213.286 260.064 213.132 260.387 213.089 260.793V265H211.999V260.846C211.999 259.924 211.548 259.463 210.645 259.463C209.934 259.463 209.448 259.766 209.186 260.371V265H208.102V258.66H209.128ZM219.651 258.66L219.68 259.363C220.145 258.816 220.772 258.543 221.561 258.543C222.448 258.543 223.052 258.883 223.372 259.562C223.583 259.258 223.856 259.012 224.192 258.824C224.532 258.637 224.932 258.543 225.393 258.543C226.784 258.543 227.491 259.279 227.514 260.752V265H226.43V260.816C226.43 260.363 226.327 260.025 226.12 259.803C225.913 259.576 225.565 259.463 225.077 259.463C224.675 259.463 224.341 259.584 224.075 259.826C223.809 260.064 223.655 260.387 223.612 260.793V265H222.522V260.846C222.522 259.924 222.071 259.463 221.169 259.463C220.458 259.463 219.971 259.766 219.71 260.371V265H218.626V258.66H219.651ZM233.069 264.373C232.647 264.869 232.028 265.117 231.212 265.117C230.536 265.117 230.02 264.922 229.665 264.531C229.313 264.137 229.135 263.555 229.132 262.785V258.66H230.216V262.756C230.216 263.717 230.606 264.197 231.387 264.197C232.216 264.197 232.766 263.889 233.04 263.271V258.66H234.124V265H233.093L233.069 264.373ZM236.802 258.66L236.837 259.457C237.321 258.848 237.954 258.543 238.735 258.543C240.075 258.543 240.751 259.299 240.762 260.811V265H239.678V260.805C239.675 260.348 239.569 260.01 239.362 259.791C239.159 259.572 238.841 259.463 238.407 259.463C238.055 259.463 237.747 259.557 237.481 259.744C237.216 259.932 237.009 260.178 236.86 260.482V265H235.776V258.66H236.802ZM243.575 265H242.491V258.66H243.575V265ZM242.403 256.979C242.403 256.803 242.456 256.654 242.561 256.533C242.671 256.412 242.831 256.352 243.042 256.352C243.253 256.352 243.413 256.412 243.522 256.533C243.632 256.654 243.686 256.803 243.686 256.979C243.686 257.154 243.632 257.301 243.522 257.418C243.413 257.535 243.253 257.594 243.042 257.594C242.831 257.594 242.671 257.535 242.561 257.418C242.456 257.301 242.403 257.154 242.403 256.979ZM247.858 264.232C248.245 264.232 248.583 264.115 248.872 263.881C249.161 263.646 249.321 263.354 249.352 263.002H250.378C250.358 263.365 250.233 263.711 250.003 264.039C249.772 264.367 249.464 264.629 249.077 264.824C248.694 265.02 248.288 265.117 247.858 265.117C246.995 265.117 246.307 264.83 245.796 264.256C245.288 263.678 245.034 262.889 245.034 261.889V261.707C245.034 261.09 245.147 260.541 245.374 260.061C245.6 259.58 245.925 259.207 246.346 258.941C246.772 258.676 247.274 258.543 247.852 258.543C248.563 258.543 249.153 258.756 249.622 259.182C250.094 259.607 250.346 260.16 250.378 260.84H249.352C249.321 260.43 249.165 260.094 248.884 259.832C248.606 259.566 248.262 259.434 247.852 259.434C247.302 259.434 246.874 259.633 246.569 260.031C246.268 260.426 246.118 260.998 246.118 261.748V261.953C246.118 262.684 246.268 263.246 246.569 263.641C246.87 264.035 247.3 264.232 247.858 264.232ZM255.51 265C255.448 264.875 255.397 264.652 255.358 264.332C254.854 264.855 254.253 265.117 253.553 265.117C252.928 265.117 252.415 264.941 252.012 264.59C251.614 264.234 251.415 263.785 251.415 263.242C251.415 262.582 251.665 262.07 252.165 261.707C252.669 261.34 253.376 261.156 254.286 261.156H255.341V260.658C255.341 260.279 255.227 259.979 255.001 259.756C254.774 259.529 254.44 259.416 253.999 259.416C253.612 259.416 253.288 259.514 253.026 259.709C252.764 259.904 252.634 260.141 252.634 260.418H251.544C251.544 260.102 251.655 259.797 251.878 259.504C252.104 259.207 252.409 258.973 252.792 258.801C253.178 258.629 253.602 258.543 254.063 258.543C254.794 258.543 255.366 258.727 255.78 259.094C256.194 259.457 256.409 259.959 256.425 260.6V263.518C256.425 264.1 256.499 264.562 256.647 264.906V265H255.51ZM253.712 264.174C254.052 264.174 254.374 264.086 254.678 263.91C254.983 263.734 255.204 263.506 255.341 263.225V261.924H254.491C253.163 261.924 252.499 262.312 252.499 263.09C252.499 263.43 252.612 263.695 252.839 263.887C253.065 264.078 253.356 264.174 253.712 264.174ZM259.594 257.125V258.66H260.778V259.498H259.594V263.43C259.594 263.684 259.647 263.875 259.753 264.004C259.858 264.129 260.038 264.191 260.292 264.191C260.417 264.191 260.589 264.168 260.807 264.121V265C260.522 265.078 260.245 265.117 259.975 265.117C259.491 265.117 259.126 264.971 258.88 264.678C258.634 264.385 258.51 263.969 258.51 263.43V259.498H257.356V258.66H258.51V257.125H259.594ZM264.68 265.117C263.821 265.117 263.122 264.836 262.583 264.273C262.044 263.707 261.774 262.951 261.774 262.006V261.807C261.774 261.178 261.893 260.617 262.132 260.125C262.374 259.629 262.71 259.242 263.139 258.965C263.573 258.684 264.042 258.543 264.546 258.543C265.37 258.543 266.01 258.814 266.468 259.357C266.925 259.9 267.153 260.678 267.153 261.689V262.141H262.858C262.874 262.766 263.055 263.271 263.403 263.658C263.755 264.041 264.2 264.232 264.739 264.232C265.122 264.232 265.446 264.154 265.712 263.998C265.977 263.842 266.21 263.635 266.409 263.377L267.071 263.893C266.54 264.709 265.743 265.117 264.68 265.117ZM264.546 259.434C264.108 259.434 263.741 259.594 263.444 259.914C263.147 260.23 262.964 260.676 262.893 261.25H266.069V261.168C266.038 260.617 265.889 260.191 265.624 259.891C265.358 259.586 264.999 259.434 264.546 259.434ZM268.149 261.777C268.149 260.805 268.38 260.023 268.841 259.434C269.302 258.84 269.905 258.543 270.651 258.543C271.393 258.543 271.981 258.797 272.415 259.305V256H273.499V265H272.503L272.45 264.32C272.016 264.852 271.413 265.117 270.639 265.117C269.905 265.117 269.305 264.816 268.841 264.215C268.38 263.613 268.149 262.828 268.149 261.859V261.777ZM269.233 261.9C269.233 262.619 269.382 263.182 269.678 263.588C269.975 263.994 270.385 264.197 270.909 264.197C271.596 264.197 272.098 263.889 272.415 263.271V260.359C272.091 259.762 271.593 259.463 270.921 259.463C270.389 259.463 269.975 259.668 269.678 260.078C269.382 260.488 269.233 261.096 269.233 261.9ZM283.776 263.506L284.995 258.66H286.079L284.233 265H283.354L281.813 260.195L280.313 265H279.434L277.594 258.66H278.673L279.921 263.406L281.397 258.66H282.27L283.776 263.506ZM288.364 265H287.28V258.66H288.364V265ZM287.192 256.979C287.192 256.803 287.245 256.654 287.35 256.533C287.46 256.412 287.62 256.352 287.831 256.352C288.042 256.352 288.202 256.412 288.311 256.533C288.421 256.654 288.475 256.803 288.475 256.979C288.475 257.154 288.421 257.301 288.311 257.418C288.202 257.535 288.042 257.594 287.831 257.594C287.62 257.594 287.46 257.535 287.35 257.418C287.245 257.301 287.192 257.154 287.192 256.979ZM291.575 257.125V258.66H292.759V259.498H291.575V263.43C291.575 263.684 291.628 263.875 291.733 264.004C291.839 264.129 292.018 264.191 292.272 264.191C292.397 264.191 292.569 264.168 292.788 264.121V265C292.503 265.078 292.225 265.117 291.956 265.117C291.471 265.117 291.106 264.971 290.86 264.678C290.614 264.385 290.491 263.969 290.491 263.43V259.498H289.337V258.66H290.491V257.125H291.575ZM295.114 259.428C295.594 258.838 296.219 258.543 296.989 258.543C298.329 258.543 299.005 259.299 299.016 260.811V265H297.932V260.805C297.928 260.348 297.823 260.01 297.616 259.791C297.413 259.572 297.094 259.463 296.661 259.463C296.309 259.463 296.001 259.557 295.735 259.744C295.469 259.932 295.262 260.178 295.114 260.482V265H294.03V256H295.114V259.428ZM80.491 283C80.4285 282.875 80.3777 282.652 80.3386 282.332C79.8347 282.855 79.2332 283.117 78.5339 283.117C77.9089 283.117 77.3953 282.941 76.9929 282.59C76.5945 282.234 76.3953 281.785 76.3953 281.242C76.3953 280.582 76.6453 280.07 77.1453 279.707C77.6492 279.34 78.3562 279.156 79.2664 279.156H80.321V278.658C80.321 278.279 80.2078 277.979 79.9812 277.756C79.7546 277.529 79.4207 277.416 78.9792 277.416C78.5925 277.416 78.2683 277.514 78.0066 277.709C77.7449 277.904 77.614 278.141 77.614 278.418H76.5242C76.5242 278.102 76.6355 277.797 76.8582 277.504C77.0847 277.207 77.3894 276.973 77.7722 276.801C78.1589 276.629 78.5828 276.543 79.0437 276.543C79.7742 276.543 80.3464 276.727 80.7605 277.094C81.1746 277.457 81.3894 277.959 81.405 278.6V281.518C81.405 282.1 81.4792 282.562 81.6277 282.906V283H80.491ZM78.6921 282.174C79.032 282.174 79.3542 282.086 79.6589 281.91C79.9636 281.734 80.1843 281.506 80.321 281.225V279.924H79.4714C78.1433 279.924 77.4792 280.312 77.4792 281.09C77.4792 281.43 77.5925 281.695 77.8191 281.887C78.0457 282.078 78.3367 282.174 78.6921 282.174ZM88.6238 282.232C89.0105 282.232 89.3484 282.115 89.6375 281.881C89.9265 281.646 90.0867 281.354 90.1179 281.002H91.1433C91.1238 281.365 90.9988 281.711 90.7683 282.039C90.5378 282.367 90.2292 282.629 89.8425 282.824C89.4597 283.02 89.0535 283.117 88.6238 283.117C87.7605 283.117 87.073 282.83 86.5613 282.256C86.0535 281.678 85.7996 280.889 85.7996 279.889V279.707C85.7996 279.09 85.9128 278.541 86.1394 278.061C86.366 277.58 86.6902 277.207 87.1121 276.941C87.5378 276.676 88.0398 276.543 88.6179 276.543C89.3289 276.543 89.9187 276.756 90.3875 277.182C90.8601 277.607 91.1121 278.16 91.1433 278.84H90.1179C90.0867 278.43 89.9304 278.094 89.6492 277.832C89.3718 277.566 89.0281 277.434 88.6179 277.434C88.0671 277.434 87.6394 277.633 87.3347 278.031C87.0339 278.426 86.8835 278.998 86.8835 279.748V279.953C86.8835 280.684 87.0339 281.246 87.3347 281.641C87.6355 282.035 88.0652 282.232 88.6238 282.232ZM92.075 279.771C92.075 279.15 92.196 278.592 92.4382 278.096C92.6843 277.6 93.0242 277.217 93.4578 276.947C93.8953 276.678 94.3933 276.543 94.9519 276.543C95.8152 276.543 96.5125 276.842 97.0437 277.439C97.5789 278.037 97.8464 278.832 97.8464 279.824V279.9C97.8464 280.518 97.7273 281.072 97.489 281.564C97.2546 282.053 96.9167 282.434 96.4753 282.707C96.0378 282.98 95.5339 283.117 94.9636 283.117C94.1042 283.117 93.407 282.818 92.8718 282.221C92.3406 281.623 92.075 280.832 92.075 279.848V279.771ZM93.1648 279.9C93.1648 280.604 93.3269 281.168 93.6511 281.594C93.9792 282.02 94.4167 282.232 94.9636 282.232C95.5144 282.232 95.9519 282.018 96.2761 281.588C96.6003 281.154 96.7625 280.549 96.7625 279.771C96.7625 279.076 96.5964 278.514 96.2644 278.084C95.9363 277.65 95.4988 277.434 94.9519 277.434C94.4167 277.434 93.9851 277.646 93.657 278.072C93.3289 278.498 93.1648 279.107 93.1648 279.9ZM100.384 283H99.2996V274H100.384V283ZM101.837 279.771C101.837 279.15 101.958 278.592 102.2 278.096C102.446 277.6 102.786 277.217 103.219 276.947C103.657 276.678 104.155 276.543 104.714 276.543C105.577 276.543 106.274 276.842 106.805 277.439C107.341 278.037 107.608 278.832 107.608 279.824V279.9C107.608 280.518 107.489 281.072 107.251 281.564C107.016 282.053 106.678 282.434 106.237 282.707C105.8 282.98 105.296 283.117 104.725 283.117C103.866 283.117 103.169 282.818 102.634 282.221C102.102 281.623 101.837 280.832 101.837 279.848V279.771ZM102.927 279.9C102.927 280.604 103.089 281.168 103.413 281.594C103.741 282.02 104.178 282.232 104.725 282.232C105.276 282.232 105.714 282.018 106.038 281.588C106.362 281.154 106.524 280.549 106.524 279.771C106.524 279.076 106.358 278.514 106.026 278.084C105.698 277.65 105.26 277.434 104.714 277.434C104.178 277.434 103.747 277.646 103.419 278.072C103.091 278.498 102.927 279.107 102.927 279.9ZM112.032 277.633C111.868 277.605 111.69 277.592 111.499 277.592C110.788 277.592 110.305 277.895 110.052 278.5V283H108.968V276.66H110.022L110.04 277.393C110.395 276.826 110.899 276.543 111.552 276.543C111.762 276.543 111.923 276.57 112.032 276.625V277.633ZM115.548 283.117C114.688 283.117 113.989 282.836 113.45 282.273C112.911 281.707 112.641 280.951 112.641 280.006V279.807C112.641 279.178 112.76 278.617 112.999 278.125C113.241 277.629 113.577 277.242 114.007 276.965C114.44 276.684 114.909 276.543 115.413 276.543C116.237 276.543 116.878 276.814 117.335 277.357C117.792 277.9 118.02 278.678 118.02 279.689V280.141H113.725C113.741 280.766 113.923 281.271 114.27 281.658C114.622 282.041 115.067 282.232 115.606 282.232C115.989 282.232 116.313 282.154 116.579 281.998C116.844 281.842 117.077 281.635 117.276 281.377L117.938 281.893C117.407 282.709 116.61 283.117 115.548 283.117ZM115.413 277.434C114.975 277.434 114.608 277.594 114.311 277.914C114.014 278.23 113.831 278.676 113.76 279.25H116.936V279.168C116.905 278.617 116.757 278.191 116.491 277.891C116.225 277.586 115.866 277.434 115.413 277.434ZM119.016 279.777C119.016 278.805 119.247 278.023 119.708 277.434C120.169 276.84 120.772 276.543 121.518 276.543C122.26 276.543 122.848 276.797 123.282 277.305V274H124.366V283H123.37L123.317 282.32C122.884 282.852 122.28 283.117 121.507 283.117C120.772 283.117 120.173 282.816 119.708 282.215C119.247 281.613 119.016 280.828 119.016 279.859V279.777ZM120.1 279.9C120.1 280.619 120.249 281.182 120.546 281.588C120.843 281.994 121.253 282.197 121.776 282.197C122.464 282.197 122.966 281.889 123.282 281.271V278.359C122.958 277.762 122.46 277.463 121.788 277.463C121.257 277.463 120.843 277.668 120.546 278.078C120.249 278.488 120.1 279.096 120.1 279.9ZM132.721 281.318C132.721 281.025 132.61 280.799 132.387 280.639C132.169 280.475 131.784 280.334 131.233 280.217C130.686 280.1 130.251 279.959 129.927 279.795C129.606 279.631 129.368 279.436 129.212 279.209C129.059 278.982 128.983 278.713 128.983 278.4C128.983 277.881 129.202 277.441 129.639 277.082C130.081 276.723 130.643 276.543 131.327 276.543C132.046 276.543 132.628 276.729 133.073 277.1C133.522 277.471 133.747 277.945 133.747 278.523H132.657C132.657 278.227 132.53 277.971 132.276 277.756C132.026 277.541 131.71 277.434 131.327 277.434C130.932 277.434 130.624 277.52 130.401 277.691C130.178 277.863 130.067 278.088 130.067 278.365C130.067 278.627 130.171 278.824 130.378 278.957C130.585 279.09 130.958 279.217 131.497 279.338C132.04 279.459 132.479 279.604 132.815 279.771C133.151 279.939 133.399 280.143 133.559 280.381C133.723 280.615 133.805 280.902 133.805 281.242C133.805 281.809 133.579 282.264 133.126 282.607C132.673 282.947 132.085 283.117 131.362 283.117C130.854 283.117 130.405 283.027 130.014 282.848C129.624 282.668 129.317 282.418 129.094 282.098C128.876 281.773 128.766 281.424 128.766 281.049H129.85C129.87 281.412 130.014 281.701 130.284 281.916C130.557 282.127 130.917 282.232 131.362 282.232C131.772 282.232 132.1 282.15 132.346 281.986C132.596 281.818 132.721 281.596 132.721 281.318ZM136.688 275.125V276.66H137.872V277.498H136.688V281.43C136.688 281.684 136.741 281.875 136.846 282.004C136.952 282.129 137.132 282.191 137.385 282.191C137.51 282.191 137.682 282.168 137.901 282.121V283C137.616 283.078 137.339 283.117 137.069 283.117C136.585 283.117 136.219 282.971 135.973 282.678C135.727 282.385 135.604 281.969 135.604 281.43V277.498H134.45V276.66H135.604V275.125H136.688ZM142.208 277.633C142.044 277.605 141.866 277.592 141.675 277.592C140.964 277.592 140.481 277.895 140.227 278.5V283H139.143V276.66H140.198L140.216 277.393C140.571 276.826 141.075 276.543 141.727 276.543C141.938 276.543 142.098 276.57 142.208 276.625V277.633ZM142.805 279.771C142.805 279.15 142.927 278.592 143.169 278.096C143.415 277.6 143.755 277.217 144.188 276.947C144.626 276.678 145.124 276.543 145.682 276.543C146.546 276.543 147.243 276.842 147.774 277.439C148.309 278.037 148.577 278.832 148.577 279.824V279.9C148.577 280.518 148.458 281.072 148.219 281.564C147.985 282.053 147.647 282.434 147.206 282.707C146.768 282.98 146.264 283.117 145.694 283.117C144.835 283.117 144.137 282.818 143.602 282.221C143.071 281.623 142.805 280.832 142.805 279.848V279.771ZM143.895 279.9C143.895 280.604 144.057 281.168 144.382 281.594C144.71 282.02 145.147 282.232 145.694 282.232C146.245 282.232 146.682 282.018 147.007 281.588C147.331 281.154 147.493 280.549 147.493 279.771C147.493 279.076 147.327 278.514 146.995 278.084C146.667 277.65 146.229 277.434 145.682 277.434C145.147 277.434 144.716 277.646 144.387 278.072C144.059 278.498 143.895 279.107 143.895 279.9ZM151.706 280.064L151.026 280.773V283H149.942V274H151.026V279.443L151.606 278.746L153.581 276.66H154.899L152.432 279.309L155.186 283H153.915L151.706 280.064ZM158.532 283.117C157.673 283.117 156.973 282.836 156.434 282.273C155.895 281.707 155.626 280.951 155.626 280.006V279.807C155.626 279.178 155.745 278.617 155.983 278.125C156.225 277.629 156.561 277.242 156.991 276.965C157.425 276.684 157.893 276.543 158.397 276.543C159.221 276.543 159.862 276.814 160.319 277.357C160.776 277.9 161.005 278.678 161.005 279.689V280.141H156.71C156.725 280.766 156.907 281.271 157.255 281.658C157.606 282.041 158.052 282.232 158.591 282.232C158.973 282.232 159.298 282.154 159.563 281.998C159.829 281.842 160.061 281.635 160.26 281.377L160.923 281.893C160.391 282.709 159.594 283.117 158.532 283.117ZM158.397 277.434C157.96 277.434 157.593 277.594 157.296 277.914C156.999 278.23 156.815 278.676 156.745 279.25H159.921V279.168C159.889 278.617 159.741 278.191 159.475 277.891C159.21 277.586 158.85 277.434 158.397 277.434ZM162.229 284.699L161.614 284.277C161.981 283.766 162.173 283.238 162.188 282.695V281.717H163.249V282.566C163.249 282.961 163.151 283.355 162.956 283.75C162.764 284.145 162.522 284.461 162.229 284.699ZM173.21 281.506L174.428 276.66H175.512L173.667 283H172.788L171.247 278.195L169.747 283H168.868L167.028 276.66H168.106L169.354 281.406L170.831 276.66H171.704L173.21 281.506ZM177.704 277.428C178.184 276.838 178.809 276.543 179.579 276.543C180.919 276.543 181.594 277.299 181.606 278.811V283H180.522V278.805C180.518 278.348 180.413 278.01 180.206 277.791C180.003 277.572 179.684 277.463 179.251 277.463C178.899 277.463 178.591 277.557 178.325 277.744C178.059 277.932 177.852 278.178 177.704 278.482V283H176.62V274H177.704V277.428ZM184.407 283H183.323V276.66H184.407V283ZM183.235 274.979C183.235 274.803 183.288 274.654 183.393 274.533C183.503 274.412 183.663 274.352 183.874 274.352C184.085 274.352 184.245 274.412 184.354 274.533C184.464 274.654 184.518 274.803 184.518 274.979C184.518 275.154 184.464 275.301 184.354 275.418C184.245 275.535 184.085 275.594 183.874 275.594C183.663 275.594 183.503 275.535 183.393 275.418C183.288 275.301 183.235 275.154 183.235 274.979ZM188.69 282.232C189.077 282.232 189.415 282.115 189.704 281.881C189.993 281.646 190.153 281.354 190.184 281.002H191.21C191.19 281.365 191.065 281.711 190.835 282.039C190.604 282.367 190.296 282.629 189.909 282.824C189.526 283.02 189.12 283.117 188.69 283.117C187.827 283.117 187.139 282.83 186.628 282.256C186.12 281.678 185.866 280.889 185.866 279.889V279.707C185.866 279.09 185.979 278.541 186.206 278.061C186.432 277.58 186.757 277.207 187.178 276.941C187.604 276.676 188.106 276.543 188.684 276.543C189.395 276.543 189.985 276.756 190.454 277.182C190.927 277.607 191.178 278.16 191.21 278.84H190.184C190.153 278.43 189.997 278.094 189.716 277.832C189.438 277.566 189.094 277.434 188.684 277.434C188.134 277.434 187.706 277.633 187.401 278.031C187.1 278.426 186.95 278.998 186.95 279.748V279.953C186.95 280.684 187.1 281.246 187.401 281.641C187.702 282.035 188.132 282.232 188.69 282.232ZM193.512 277.428C193.993 276.838 194.618 276.543 195.387 276.543C196.727 276.543 197.403 277.299 197.415 278.811V283H196.331V278.805C196.327 278.348 196.221 278.01 196.014 277.791C195.811 277.572 195.493 277.463 195.059 277.463C194.708 277.463 194.399 277.557 194.134 277.744C193.868 277.932 193.661 278.178 193.512 278.482V283H192.428V274H193.512V277.428ZM204.557 282.232C204.944 282.232 205.282 282.115 205.571 281.881C205.86 281.646 206.02 281.354 206.052 281.002H207.077C207.057 281.365 206.932 281.711 206.702 282.039C206.471 282.367 206.163 282.629 205.776 282.824C205.393 283.02 204.987 283.117 204.557 283.117C203.694 283.117 203.007 282.83 202.495 282.256C201.987 281.678 201.733 280.889 201.733 279.889V279.707C201.733 279.09 201.846 278.541 202.073 278.061C202.3 277.58 202.624 277.207 203.046 276.941C203.471 276.676 203.973 276.543 204.552 276.543C205.262 276.543 205.852 276.756 206.321 277.182C206.794 277.607 207.046 278.16 207.077 278.84H206.052C206.02 278.43 205.864 278.094 205.583 277.832C205.305 277.566 204.962 277.434 204.552 277.434C204.001 277.434 203.573 277.633 203.268 278.031C202.968 278.426 202.817 278.998 202.817 279.748V279.953C202.817 280.684 202.968 281.246 203.268 281.641C203.569 282.035 203.999 282.232 204.557 282.232ZM208.009 279.771C208.009 279.15 208.13 278.592 208.372 278.096C208.618 277.6 208.958 277.217 209.391 276.947C209.829 276.678 210.327 276.543 210.885 276.543C211.749 276.543 212.446 276.842 212.977 277.439C213.512 278.037 213.78 278.832 213.78 279.824V279.9C213.78 280.518 213.661 281.072 213.423 281.564C213.188 282.053 212.85 282.434 212.409 282.707C211.971 282.98 211.468 283.117 210.897 283.117C210.038 283.117 209.341 282.818 208.805 282.221C208.274 281.623 208.009 280.832 208.009 279.848V279.771ZM209.098 279.9C209.098 280.604 209.26 281.168 209.585 281.594C209.913 282.02 210.35 282.232 210.897 282.232C211.448 282.232 211.885 282.018 212.21 281.588C212.534 281.154 212.696 280.549 212.696 279.771C212.696 279.076 212.53 278.514 212.198 278.084C211.87 277.65 211.432 277.434 210.885 277.434C210.35 277.434 209.919 277.646 209.591 278.072C209.262 278.498 209.098 279.107 209.098 279.9ZM219.053 282.373C218.632 282.869 218.012 283.117 217.196 283.117C216.52 283.117 216.005 282.922 215.649 282.531C215.298 282.137 215.12 281.555 215.116 280.785V276.66H216.2V280.756C216.2 281.717 216.591 282.197 217.372 282.197C218.2 282.197 218.751 281.889 219.024 281.271V276.66H220.108V283H219.077L219.053 282.373ZM222.938 283H221.854V274H222.938V283ZM224.415 279.777C224.415 278.805 224.645 278.023 225.106 277.434C225.567 276.84 226.171 276.543 226.917 276.543C227.659 276.543 228.247 276.797 228.68 277.305V274H229.764V283H228.768L228.716 282.32C228.282 282.852 227.678 283.117 226.905 283.117C226.171 283.117 225.571 282.816 225.106 282.215C224.645 281.613 224.415 280.828 224.415 279.859V279.777ZM225.499 279.9C225.499 280.619 225.647 281.182 225.944 281.588C226.241 281.994 226.651 282.197 227.175 282.197C227.862 282.197 228.364 281.889 228.68 281.271V278.359C228.356 277.762 227.858 277.463 227.186 277.463C226.655 277.463 226.241 277.668 225.944 278.078C225.647 278.488 225.499 279.096 225.499 279.9ZM239.796 279.9C239.796 280.869 239.573 281.648 239.128 282.238C238.682 282.824 238.085 283.117 237.335 283.117C236.534 283.117 235.915 282.834 235.477 282.268L235.425 283H234.428V274H235.512V277.357C235.95 276.814 236.553 276.543 237.323 276.543C238.093 276.543 238.696 276.834 239.134 277.416C239.575 277.998 239.796 278.795 239.796 279.807V279.9ZM238.712 279.777C238.712 279.039 238.569 278.469 238.284 278.066C237.999 277.664 237.589 277.463 237.053 277.463C236.339 277.463 235.825 277.795 235.512 278.459V281.201C235.844 281.865 236.362 282.197 237.065 282.197C237.585 282.197 237.989 281.996 238.278 281.594C238.567 281.191 238.712 280.586 238.712 279.777ZM243.798 283.117C242.938 283.117 242.239 282.836 241.7 282.273C241.161 281.707 240.891 280.951 240.891 280.006V279.807C240.891 279.178 241.01 278.617 241.249 278.125C241.491 277.629 241.827 277.242 242.257 276.965C242.69 276.684 243.159 276.543 243.663 276.543C244.487 276.543 245.128 276.814 245.585 277.357C246.042 277.9 246.27 278.678 246.27 279.689V280.141H241.975C241.991 280.766 242.173 281.271 242.52 281.658C242.872 282.041 243.317 282.232 243.856 282.232C244.239 282.232 244.563 282.154 244.829 281.998C245.094 281.842 245.327 281.635 245.526 281.377L246.188 281.893C245.657 282.709 244.86 283.117 243.798 283.117ZM243.663 277.434C243.225 277.434 242.858 277.594 242.561 277.914C242.264 278.23 242.081 278.676 242.01 279.25H245.186V279.168C245.155 278.617 245.007 278.191 244.741 277.891C244.475 277.586 244.116 277.434 243.663 277.434ZM251.526 276.66L251.555 277.363C252.02 276.816 252.647 276.543 253.436 276.543C254.323 276.543 254.927 276.883 255.247 277.562C255.458 277.258 255.731 277.012 256.067 276.824C256.407 276.637 256.807 276.543 257.268 276.543C258.659 276.543 259.366 277.279 259.389 278.752V283H258.305V278.816C258.305 278.363 258.202 278.025 257.995 277.803C257.788 277.576 257.44 277.463 256.952 277.463C256.55 277.463 256.216 277.584 255.95 277.826C255.684 278.064 255.53 278.387 255.487 278.793V283H254.397V278.846C254.397 277.924 253.946 277.463 253.044 277.463C252.333 277.463 251.846 277.766 251.585 278.371V283H250.501V276.66H251.526ZM262.208 283H261.124V276.66H262.208V283ZM261.036 274.979C261.036 274.803 261.089 274.654 261.194 274.533C261.303 274.412 261.464 274.352 261.675 274.352C261.885 274.352 262.046 274.412 262.155 274.533C262.264 274.654 262.319 274.803 262.319 274.979C262.319 275.154 262.264 275.301 262.155 275.418C262.046 275.535 261.885 275.594 261.675 275.594C261.464 275.594 261.303 275.535 261.194 275.418C261.089 275.301 261.036 275.154 261.036 274.979ZM267.639 281.318C267.639 281.025 267.528 280.799 267.305 280.639C267.087 280.475 266.702 280.334 266.151 280.217C265.604 280.1 265.169 279.959 264.844 279.795C264.524 279.631 264.286 279.436 264.13 279.209C263.977 278.982 263.901 278.713 263.901 278.4C263.901 277.881 264.12 277.441 264.557 277.082C264.999 276.723 265.561 276.543 266.245 276.543C266.964 276.543 267.546 276.729 267.991 277.1C268.44 277.471 268.665 277.945 268.665 278.523H267.575C267.575 278.227 267.448 277.971 267.194 277.756C266.944 277.541 266.628 277.434 266.245 277.434C265.85 277.434 265.542 277.52 265.319 277.691C265.096 277.863 264.985 278.088 264.985 278.365C264.985 278.627 265.089 278.824 265.296 278.957C265.503 279.09 265.876 279.217 266.415 279.338C266.958 279.459 267.397 279.604 267.733 279.771C268.069 279.939 268.317 280.143 268.477 280.381C268.641 280.615 268.723 280.902 268.723 281.242C268.723 281.809 268.497 282.264 268.044 282.607C267.591 282.947 267.003 283.117 266.28 283.117C265.772 283.117 265.323 283.027 264.932 282.848C264.542 282.668 264.235 282.418 264.012 282.098C263.794 281.773 263.684 281.424 263.684 281.049H264.768C264.788 281.412 264.932 281.701 265.202 281.916C265.475 282.127 265.835 282.232 266.28 282.232C266.69 282.232 267.018 282.15 267.264 281.986C267.514 281.818 267.639 281.596 267.639 281.318ZM273.827 281.318C273.827 281.025 273.716 280.799 273.493 280.639C273.274 280.475 272.889 280.334 272.339 280.217C271.792 280.1 271.356 279.959 271.032 279.795C270.712 279.631 270.473 279.436 270.317 279.209C270.165 278.982 270.089 278.713 270.089 278.4C270.089 277.881 270.307 277.441 270.745 277.082C271.186 276.723 271.749 276.543 272.432 276.543C273.151 276.543 273.733 276.729 274.178 277.1C274.628 277.471 274.852 277.945 274.852 278.523H273.762C273.762 278.227 273.635 277.971 273.382 277.756C273.132 277.541 272.815 277.434 272.432 277.434C272.038 277.434 271.729 277.52 271.507 277.691C271.284 277.863 271.173 278.088 271.173 278.365C271.173 278.627 271.276 278.824 271.483 278.957C271.69 279.09 272.063 279.217 272.602 279.338C273.145 279.459 273.585 279.604 273.921 279.771C274.257 279.939 274.505 280.143 274.665 280.381C274.829 280.615 274.911 280.902 274.911 281.242C274.911 281.809 274.684 282.264 274.231 282.607C273.778 282.947 273.19 283.117 272.468 283.117C271.96 283.117 271.51 283.027 271.12 282.848C270.729 282.668 270.423 282.418 270.2 282.098C269.981 281.773 269.872 281.424 269.872 281.049H270.956C270.975 281.412 271.12 281.701 271.389 281.916C271.663 282.127 272.022 282.232 272.468 282.232C272.878 282.232 273.206 282.15 273.452 281.986C273.702 281.818 273.827 281.596 273.827 281.318ZM278.954 283.117C278.094 283.117 277.395 282.836 276.856 282.273C276.317 281.707 276.048 280.951 276.048 280.006V279.807C276.048 279.178 276.167 278.617 276.405 278.125C276.647 277.629 276.983 277.242 277.413 276.965C277.846 276.684 278.315 276.543 278.819 276.543C279.643 276.543 280.284 276.814 280.741 277.357C281.198 277.9 281.427 278.678 281.427 279.689V280.141H277.132C277.147 280.766 277.329 281.271 277.677 281.658C278.028 282.041 278.473 282.232 279.012 282.232C279.395 282.232 279.719 282.154 279.985 281.998C280.251 281.842 280.483 281.635 280.682 281.377L281.344 281.893C280.813 282.709 280.016 283.117 278.954 283.117ZM278.819 277.434C278.382 277.434 278.014 277.594 277.718 277.914C277.421 278.23 277.237 278.676 277.167 279.25H280.343V279.168C280.311 278.617 280.163 278.191 279.897 277.891C279.632 277.586 279.272 277.434 278.819 277.434ZM282.423 279.777C282.423 278.805 282.653 278.023 283.114 277.434C283.575 276.84 284.178 276.543 284.925 276.543C285.667 276.543 286.255 276.797 286.688 277.305V274H287.772V283H286.776L286.723 282.32C286.29 282.852 285.686 283.117 284.913 283.117C284.178 283.117 283.579 282.816 283.114 282.215C282.653 281.613 282.423 280.828 282.423 279.859V279.777ZM283.507 279.9C283.507 280.619 283.655 281.182 283.952 281.588C284.249 281.994 284.659 282.197 285.182 282.197C285.87 282.197 286.372 281.889 286.688 281.271V278.359C286.364 277.762 285.866 277.463 285.194 277.463C284.663 277.463 284.249 277.668 283.952 278.078C283.655 278.488 283.507 279.096 283.507 279.9ZM81.9441 297.9C81.9441 298.869 81.7214 299.648 81.2761 300.238C80.8308 300.824 80.2332 301.117 79.4832 301.117C78.6824 301.117 78.0632 300.834 77.6257 300.268L77.573 301H76.5769V292H77.6609V295.357C78.0984 294.814 78.7019 294.543 79.4714 294.543C80.241 294.543 80.8445 294.834 81.282 295.416C81.7234 295.998 81.9441 296.795 81.9441 297.807V297.9ZM80.8601 297.777C80.8601 297.039 80.7175 296.469 80.4324 296.066C80.1472 295.664 79.7371 295.463 79.2019 295.463C78.4871 295.463 77.9734 295.795 77.6609 296.459V299.201C77.9929 299.865 78.5105 300.197 79.2136 300.197C79.7332 300.197 80.1375 299.996 80.4265 299.594C80.7156 299.191 80.8601 298.586 80.8601 297.777ZM85.3191 299.412L86.7957 294.66H87.9558L85.407 301.979C85.0125 303.033 84.3855 303.561 83.5261 303.561L83.321 303.543L82.9167 303.467V302.588L83.2097 302.611C83.5769 302.611 83.8621 302.537 84.0652 302.389C84.2722 302.24 84.4421 301.969 84.575 301.574L84.8152 300.93L82.5535 294.66H83.7371L85.3191 299.412ZM95.8191 301C95.7566 300.875 95.7058 300.652 95.6667 300.332C95.1628 300.855 94.5613 301.117 93.8621 301.117C93.2371 301.117 92.7234 300.941 92.321 300.59C91.9226 300.234 91.7234 299.785 91.7234 299.242C91.7234 298.582 91.9734 298.07 92.4734 297.707C92.9773 297.34 93.6843 297.156 94.5945 297.156H95.6492V296.658C95.6492 296.279 95.5359 295.979 95.3093 295.756C95.0828 295.529 94.7488 295.416 94.3074 295.416C93.9207 295.416 93.5964 295.514 93.3347 295.709C93.073 295.904 92.9421 296.141 92.9421 296.418H91.8523C91.8523 296.102 91.9636 295.797 92.1863 295.504C92.4128 295.207 92.7175 294.973 93.1003 294.801C93.4871 294.629 93.9109 294.543 94.3718 294.543C95.1023 294.543 95.6746 294.727 96.0886 295.094C96.5027 295.457 96.7175 295.959 96.7332 296.6V299.518C96.7332 300.1 96.8074 300.562 96.9558 300.906V301H95.8191ZM94.0203 300.174C94.3601 300.174 94.6824 300.086 94.9871 299.91C95.2917 299.734 95.5125 299.506 95.6492 299.225V297.924H94.7996C93.4714 297.924 92.8074 298.312 92.8074 299.09C92.8074 299.43 92.9207 299.695 93.1472 299.887C93.3738 300.078 93.6648 300.174 94.0203 300.174ZM105.323 300.373C104.901 300.869 104.282 301.117 103.466 301.117C102.79 301.117 102.274 300.922 101.919 300.531C101.567 300.137 101.389 299.555 101.385 298.785V294.66H102.469V298.756C102.469 299.717 102.86 300.197 103.641 300.197C104.469 300.197 105.02 299.889 105.294 299.271V294.66H106.378V301H105.346L105.323 300.373ZM111.721 299.318C111.721 299.025 111.61 298.799 111.387 298.639C111.169 298.475 110.784 298.334 110.233 298.217C109.686 298.1 109.251 297.959 108.927 297.795C108.606 297.631 108.368 297.436 108.212 297.209C108.059 296.982 107.983 296.713 107.983 296.4C107.983 295.881 108.202 295.441 108.639 295.082C109.081 294.723 109.643 294.543 110.327 294.543C111.046 294.543 111.628 294.729 112.073 295.1C112.522 295.471 112.747 295.945 112.747 296.523H111.657C111.657 296.227 111.53 295.971 111.276 295.756C111.026 295.541 110.71 295.434 110.327 295.434C109.932 295.434 109.624 295.52 109.401 295.691C109.178 295.863 109.067 296.088 109.067 296.365C109.067 296.627 109.171 296.824 109.378 296.957C109.585 297.09 109.958 297.217 110.497 297.338C111.04 297.459 111.479 297.604 111.815 297.771C112.151 297.939 112.399 298.143 112.559 298.381C112.723 298.615 112.805 298.902 112.805 299.242C112.805 299.809 112.579 300.264 112.126 300.607C111.673 300.947 111.085 301.117 110.362 301.117C109.854 301.117 109.405 301.027 109.014 300.848C108.624 300.668 108.317 300.418 108.094 300.098C107.876 299.773 107.766 299.424 107.766 299.049H108.85C108.87 299.412 109.014 299.701 109.284 299.916C109.557 300.127 109.917 300.232 110.362 300.232C110.772 300.232 111.1 300.15 111.346 299.986C111.596 299.818 111.721 299.596 111.721 299.318ZM116.848 301.117C115.989 301.117 115.29 300.836 114.751 300.273C114.212 299.707 113.942 298.951 113.942 298.006V297.807C113.942 297.178 114.061 296.617 114.3 296.125C114.542 295.629 114.878 295.242 115.307 294.965C115.741 294.684 116.21 294.543 116.714 294.543C117.538 294.543 118.178 294.814 118.635 295.357C119.093 295.9 119.321 296.678 119.321 297.689V298.141H115.026C115.042 298.766 115.223 299.271 115.571 299.658C115.923 300.041 116.368 300.232 116.907 300.232C117.29 300.232 117.614 300.154 117.88 299.998C118.145 299.842 118.378 299.635 118.577 299.377L119.239 299.893C118.708 300.709 117.911 301.117 116.848 301.117ZM116.714 295.434C116.276 295.434 115.909 295.594 115.612 295.914C115.315 296.23 115.132 296.676 115.061 297.25H118.237V297.168C118.206 296.617 118.057 296.191 117.792 295.891C117.526 295.586 117.167 295.434 116.714 295.434ZM123.645 295.633C123.481 295.605 123.303 295.592 123.112 295.592C122.401 295.592 121.919 295.895 121.665 296.5V301H120.581V294.66H121.635L121.653 295.393C122.009 294.826 122.512 294.543 123.165 294.543C123.376 294.543 123.536 294.57 123.645 294.625V295.633ZM133.237 299.506L134.456 294.66H135.54L133.694 301H132.815L131.274 296.195L129.774 301H128.895L127.055 294.66H128.134L129.382 299.406L130.858 294.66H131.731L133.237 299.506ZM137.825 301H136.741V294.66H137.825V301ZM136.653 292.979C136.653 292.803 136.706 292.654 136.811 292.533C136.921 292.412 137.081 292.352 137.292 292.352C137.503 292.352 137.663 292.412 137.772 292.533C137.882 292.654 137.936 292.803 137.936 292.979C137.936 293.154 137.882 293.301 137.772 293.418C137.663 293.535 137.503 293.594 137.292 293.594C137.081 293.594 136.921 293.535 136.811 293.418C136.706 293.301 136.653 293.154 136.653 292.979ZM141.036 293.125V294.66H142.219V295.498H141.036V299.43C141.036 299.684 141.089 299.875 141.194 300.004C141.3 300.129 141.479 300.191 141.733 300.191C141.858 300.191 142.03 300.168 142.249 300.121V301C141.964 301.078 141.686 301.117 141.417 301.117C140.932 301.117 140.567 300.971 140.321 300.678C140.075 300.385 139.952 299.969 139.952 299.43V295.498H138.798V294.66H139.952V293.125H141.036ZM144.575 295.428C145.055 294.838 145.68 294.543 146.45 294.543C147.79 294.543 148.466 295.299 148.477 296.811V301H147.393V296.805C147.389 296.348 147.284 296.01 147.077 295.791C146.874 295.572 146.555 295.463 146.122 295.463C145.77 295.463 145.462 295.557 145.196 295.744C144.93 295.932 144.723 296.178 144.575 296.482V301H143.491V292H144.575V295.428ZM156.991 301C156.928 300.875 156.878 300.652 156.839 300.332C156.335 300.855 155.733 301.117 155.034 301.117C154.409 301.117 153.895 300.941 153.493 300.59C153.094 300.234 152.895 299.785 152.895 299.242C152.895 298.582 153.145 298.07 153.645 297.707C154.149 297.34 154.856 297.156 155.766 297.156H156.821V296.658C156.821 296.279 156.708 295.979 156.481 295.756C156.255 295.529 155.921 295.416 155.479 295.416C155.093 295.416 154.768 295.514 154.507 295.709C154.245 295.904 154.114 296.141 154.114 296.418H153.024C153.024 296.102 153.135 295.797 153.358 295.504C153.585 295.207 153.889 294.973 154.272 294.801C154.659 294.629 155.083 294.543 155.544 294.543C156.274 294.543 156.846 294.727 157.26 295.094C157.675 295.457 157.889 295.959 157.905 296.6V299.518C157.905 300.1 157.979 300.562 158.128 300.906V301H156.991ZM155.192 300.174C155.532 300.174 155.854 300.086 156.159 299.91C156.464 299.734 156.684 299.506 156.821 299.225V297.924H155.971C154.643 297.924 153.979 298.312 153.979 299.09C153.979 299.43 154.093 299.695 154.319 299.887C154.546 300.078 154.837 300.174 155.192 300.174ZM165.124 300.232C165.51 300.232 165.848 300.115 166.137 299.881C166.427 299.646 166.587 299.354 166.618 299.002H167.643C167.624 299.365 167.499 299.711 167.268 300.039C167.038 300.367 166.729 300.629 166.343 300.824C165.96 301.02 165.553 301.117 165.124 301.117C164.26 301.117 163.573 300.83 163.061 300.256C162.553 299.678 162.3 298.889 162.3 297.889V297.707C162.3 297.09 162.413 296.541 162.639 296.061C162.866 295.58 163.19 295.207 163.612 294.941C164.038 294.676 164.54 294.543 165.118 294.543C165.829 294.543 166.419 294.756 166.887 295.182C167.36 295.607 167.612 296.16 167.643 296.84H166.618C166.587 296.43 166.43 296.094 166.149 295.832C165.872 295.566 165.528 295.434 165.118 295.434C164.567 295.434 164.139 295.633 163.835 296.031C163.534 296.426 163.384 296.998 163.384 297.748V297.953C163.384 298.684 163.534 299.246 163.835 299.641C164.135 300.035 164.565 300.232 165.124 300.232ZM168.575 297.771C168.575 297.15 168.696 296.592 168.938 296.096C169.184 295.6 169.524 295.217 169.958 294.947C170.395 294.678 170.893 294.543 171.452 294.543C172.315 294.543 173.012 294.842 173.544 295.439C174.079 296.037 174.346 296.832 174.346 297.824V297.9C174.346 298.518 174.227 299.072 173.989 299.564C173.755 300.053 173.417 300.434 172.975 300.707C172.538 300.98 172.034 301.117 171.464 301.117C170.604 301.117 169.907 300.818 169.372 300.221C168.841 299.623 168.575 298.832 168.575 297.848V297.771ZM169.665 297.9C169.665 298.604 169.827 299.168 170.151 299.594C170.479 300.02 170.917 300.232 171.464 300.232C172.014 300.232 172.452 300.018 172.776 299.588C173.1 299.154 173.262 298.549 173.262 297.771C173.262 297.076 173.096 296.514 172.764 296.084C172.436 295.65 171.999 295.434 171.452 295.434C170.917 295.434 170.485 295.646 170.157 296.072C169.829 296.498 169.665 297.107 169.665 297.9ZM176.884 301H175.8V292H176.884V301ZM178.337 297.771C178.337 297.15 178.458 296.592 178.7 296.096C178.946 295.6 179.286 295.217 179.719 294.947C180.157 294.678 180.655 294.543 181.214 294.543C182.077 294.543 182.774 294.842 183.305 295.439C183.841 296.037 184.108 296.832 184.108 297.824V297.9C184.108 298.518 183.989 299.072 183.751 299.564C183.516 300.053 183.178 300.434 182.737 300.707C182.3 300.98 181.796 301.117 181.225 301.117C180.366 301.117 179.669 300.818 179.134 300.221C178.602 299.623 178.337 298.832 178.337 297.848V297.771ZM179.427 297.9C179.427 298.604 179.589 299.168 179.913 299.594C180.241 300.02 180.678 300.232 181.225 300.232C181.776 300.232 182.214 300.018 182.538 299.588C182.862 299.154 183.024 298.549 183.024 297.771C183.024 297.076 182.858 296.514 182.526 296.084C182.198 295.65 181.76 295.434 181.214 295.434C180.678 295.434 180.247 295.646 179.919 296.072C179.591 296.498 179.427 297.107 179.427 297.9ZM188.532 295.633C188.368 295.605 188.19 295.592 187.999 295.592C187.288 295.592 186.805 295.895 186.552 296.5V301H185.468V294.66H186.522L186.54 295.393C186.895 294.826 187.399 294.543 188.052 294.543C188.262 294.543 188.423 294.57 188.532 294.625V295.633ZM197.866 297.9C197.866 298.865 197.645 299.643 197.204 300.232C196.762 300.822 196.165 301.117 195.411 301.117C194.641 301.117 194.036 300.873 193.594 300.385V303.438H192.51V294.66H193.501L193.553 295.363C193.995 294.816 194.608 294.543 195.393 294.543C196.155 294.543 196.757 294.83 197.198 295.404C197.643 295.979 197.866 296.777 197.866 297.801V297.9ZM196.782 297.777C196.782 297.062 196.63 296.498 196.325 296.084C196.02 295.67 195.602 295.463 195.071 295.463C194.415 295.463 193.923 295.754 193.594 296.336V299.365C193.919 299.943 194.415 300.232 195.083 300.232C195.602 300.232 196.014 300.027 196.319 299.617C196.628 299.203 196.782 298.59 196.782 297.777ZM201.88 301.117C201.02 301.117 200.321 300.836 199.782 300.273C199.243 299.707 198.973 298.951 198.973 298.006V297.807C198.973 297.178 199.093 296.617 199.331 296.125C199.573 295.629 199.909 295.242 200.339 294.965C200.772 294.684 201.241 294.543 201.745 294.543C202.569 294.543 203.21 294.814 203.667 295.357C204.124 295.9 204.352 296.678 204.352 297.689V298.141H200.057C200.073 298.766 200.255 299.271 200.602 299.658C200.954 300.041 201.399 300.232 201.938 300.232C202.321 300.232 202.645 300.154 202.911 299.998C203.177 299.842 203.409 299.635 203.608 299.377L204.27 299.893C203.739 300.709 202.942 301.117 201.88 301.117ZM201.745 295.434C201.307 295.434 200.94 295.594 200.643 295.914C200.346 296.23 200.163 296.676 200.093 297.25H203.268V297.168C203.237 296.617 203.089 296.191 202.823 295.891C202.557 295.586 202.198 295.434 201.745 295.434ZM208.677 295.633C208.512 295.605 208.335 295.592 208.143 295.592C207.432 295.592 206.95 295.895 206.696 296.5V301H205.612V294.66H206.667L206.684 295.393C207.04 294.826 207.544 294.543 208.196 294.543C208.407 294.543 208.567 294.57 208.677 294.625V295.633ZM212.104 300.232C212.491 300.232 212.829 300.115 213.118 299.881C213.407 299.646 213.567 299.354 213.598 299.002H214.624C214.604 299.365 214.479 299.711 214.249 300.039C214.018 300.367 213.71 300.629 213.323 300.824C212.94 301.02 212.534 301.117 212.104 301.117C211.241 301.117 210.553 300.83 210.042 300.256C209.534 299.678 209.28 298.889 209.28 297.889V297.707C209.28 297.09 209.393 296.541 209.62 296.061C209.846 295.58 210.171 295.207 210.593 294.941C211.018 294.676 211.52 294.543 212.098 294.543C212.809 294.543 213.399 294.756 213.868 295.182C214.341 295.607 214.593 296.16 214.624 296.84H213.598C213.567 296.43 213.411 296.094 213.13 295.832C212.852 295.566 212.509 295.434 212.098 295.434C211.548 295.434 211.12 295.633 210.815 296.031C210.514 296.426 210.364 296.998 210.364 297.748V297.953C210.364 298.684 210.514 299.246 210.815 299.641C211.116 300.035 211.546 300.232 212.104 300.232ZM218.473 301.117C217.614 301.117 216.915 300.836 216.376 300.273C215.837 299.707 215.567 298.951 215.567 298.006V297.807C215.567 297.178 215.686 296.617 215.925 296.125C216.167 295.629 216.503 295.242 216.932 294.965C217.366 294.684 217.835 294.543 218.339 294.543C219.163 294.543 219.803 294.814 220.26 295.357C220.718 295.9 220.946 296.678 220.946 297.689V298.141H216.651C216.667 298.766 216.848 299.271 217.196 299.658C217.548 300.041 217.993 300.232 218.532 300.232C218.915 300.232 219.239 300.154 219.505 299.998C219.77 299.842 220.003 299.635 220.202 299.377L220.864 299.893C220.333 300.709 219.536 301.117 218.473 301.117ZM218.339 295.434C217.901 295.434 217.534 295.594 217.237 295.914C216.94 296.23 216.757 296.676 216.686 297.25H219.862V297.168C219.831 296.617 219.682 296.191 219.417 295.891C219.151 295.586 218.792 295.434 218.339 295.434ZM227.561 297.9C227.561 298.865 227.341 299.643 226.899 300.232C226.458 300.822 225.86 301.117 225.106 301.117C224.337 301.117 223.731 300.873 223.29 300.385V303.438H222.206V294.66H223.196L223.249 295.363C223.69 294.816 224.303 294.543 225.089 294.543C225.85 294.543 226.452 294.83 226.893 295.404C227.339 295.979 227.561 296.777 227.561 297.801V297.9ZM226.477 297.777C226.477 297.062 226.325 296.498 226.02 296.084C225.716 295.67 225.298 295.463 224.766 295.463C224.11 295.463 223.618 295.754 223.29 296.336V299.365C223.614 299.943 224.11 300.232 224.778 300.232C225.298 300.232 225.71 300.027 226.014 299.617C226.323 299.203 226.477 298.59 226.477 297.777ZM230.415 293.125V294.66H231.598V295.498H230.415V299.43C230.415 299.684 230.468 299.875 230.573 300.004C230.678 300.129 230.858 300.191 231.112 300.191C231.237 300.191 231.409 300.168 231.628 300.121V301C231.343 301.078 231.065 301.117 230.796 301.117C230.311 301.117 229.946 300.971 229.7 300.678C229.454 300.385 229.331 299.969 229.331 299.43V295.498H228.177V294.66H229.331V293.125H230.415ZM234.048 301H232.964V294.66H234.048V301ZM232.876 292.979C232.876 292.803 232.928 292.654 233.034 292.533C233.143 292.412 233.303 292.352 233.514 292.352C233.725 292.352 233.885 292.412 233.995 292.533C234.104 292.654 234.159 292.803 234.159 292.979C234.159 293.154 234.104 293.301 233.995 293.418C233.885 293.535 233.725 293.594 233.514 293.594C233.303 293.594 233.143 293.535 233.034 293.418C232.928 293.301 232.876 293.154 232.876 292.979ZM235.501 297.771C235.501 297.15 235.622 296.592 235.864 296.096C236.11 295.6 236.45 295.217 236.884 294.947C237.321 294.678 237.819 294.543 238.378 294.543C239.241 294.543 239.938 294.842 240.469 295.439C241.005 296.037 241.272 296.832 241.272 297.824V297.9C241.272 298.518 241.153 299.072 240.915 299.564C240.68 300.053 240.343 300.434 239.901 300.707C239.464 300.98 238.96 301.117 238.389 301.117C237.53 301.117 236.833 300.818 236.298 300.221C235.766 299.623 235.501 298.832 235.501 297.848V297.771ZM236.591 297.9C236.591 298.604 236.753 299.168 237.077 299.594C237.405 300.02 237.843 300.232 238.389 300.232C238.94 300.232 239.378 300.018 239.702 299.588C240.026 299.154 240.188 298.549 240.188 297.771C240.188 297.076 240.022 296.514 239.69 296.084C239.362 295.65 238.925 295.434 238.378 295.434C237.843 295.434 237.411 295.646 237.083 296.072C236.755 296.498 236.591 297.107 236.591 297.9ZM243.657 294.66L243.692 295.457C244.177 294.848 244.809 294.543 245.591 294.543C246.93 294.543 247.606 295.299 247.618 296.811V301H246.534V296.805C246.53 296.348 246.425 296.01 246.218 295.791C246.014 295.572 245.696 295.463 245.262 295.463C244.911 295.463 244.602 295.557 244.337 295.744C244.071 295.932 243.864 296.178 243.716 296.482V301H242.632V294.66H243.657ZM251.966 297.777C251.966 296.805 252.196 296.023 252.657 295.434C253.118 294.84 253.721 294.543 254.468 294.543C255.21 294.543 255.798 294.797 256.231 295.305V292H257.315V301H256.319L256.266 300.32C255.833 300.852 255.229 301.117 254.456 301.117C253.721 301.117 253.122 300.816 252.657 300.215C252.196 299.613 251.966 298.828 251.966 297.859V297.777ZM253.05 297.9C253.05 298.619 253.198 299.182 253.495 299.588C253.792 299.994 254.202 300.197 254.725 300.197C255.413 300.197 255.915 299.889 256.231 299.271V296.359C255.907 295.762 255.409 295.463 254.737 295.463C254.206 295.463 253.792 295.668 253.495 296.078C253.198 296.488 253.05 297.096 253.05 297.9ZM260.18 301H259.096V294.66H260.18V301ZM259.009 292.979C259.009 292.803 259.061 292.654 259.167 292.533C259.276 292.412 259.436 292.352 259.647 292.352C259.858 292.352 260.018 292.412 260.128 292.533C260.237 292.654 260.292 292.803 260.292 292.979C260.292 293.154 260.237 293.301 260.128 293.418C260.018 293.535 259.858 293.594 259.647 293.594C259.436 293.594 259.276 293.535 259.167 293.418C259.061 293.301 259.009 293.154 259.009 292.979ZM265.612 299.318C265.612 299.025 265.501 298.799 265.278 298.639C265.059 298.475 264.675 298.334 264.124 298.217C263.577 298.1 263.141 297.959 262.817 297.795C262.497 297.631 262.259 297.436 262.102 297.209C261.95 296.982 261.874 296.713 261.874 296.4C261.874 295.881 262.093 295.441 262.53 295.082C262.971 294.723 263.534 294.543 264.218 294.543C264.936 294.543 265.518 294.729 265.964 295.1C266.413 295.471 266.637 295.945 266.637 296.523H265.548C265.548 296.227 265.421 295.971 265.167 295.756C264.917 295.541 264.6 295.434 264.218 295.434C263.823 295.434 263.514 295.52 263.292 295.691C263.069 295.863 262.958 296.088 262.958 296.365C262.958 296.627 263.061 296.824 263.268 296.957C263.475 297.09 263.848 297.217 264.387 297.338C264.93 297.459 265.37 297.604 265.706 297.771C266.042 297.939 266.29 298.143 266.45 298.381C266.614 298.615 266.696 298.902 266.696 299.242C266.696 299.809 266.469 300.264 266.016 300.607C265.563 300.947 264.975 301.117 264.253 301.117C263.745 301.117 263.296 301.027 262.905 300.848C262.514 300.668 262.208 300.418 261.985 300.098C261.766 299.773 261.657 299.424 261.657 299.049H262.741C262.76 299.412 262.905 299.701 263.175 299.916C263.448 300.127 263.807 300.232 264.253 300.232C264.663 300.232 264.991 300.15 265.237 299.986C265.487 299.818 265.612 299.596 265.612 299.318ZM272.022 301C271.96 300.875 271.909 300.652 271.87 300.332C271.366 300.855 270.764 301.117 270.065 301.117C269.44 301.117 268.927 300.941 268.524 300.59C268.126 300.234 267.927 299.785 267.927 299.242C267.927 298.582 268.177 298.07 268.677 297.707C269.18 297.34 269.887 297.156 270.798 297.156H271.852V296.658C271.852 296.279 271.739 295.979 271.512 295.756C271.286 295.529 270.952 295.416 270.51 295.416C270.124 295.416 269.8 295.514 269.538 295.709C269.276 295.904 269.145 296.141 269.145 296.418H268.055C268.055 296.102 268.167 295.797 268.389 295.504C268.616 295.207 268.921 294.973 269.303 294.801C269.69 294.629 270.114 294.543 270.575 294.543C271.305 294.543 271.878 294.727 272.292 295.094C272.706 295.457 272.921 295.959 272.936 296.6V299.518C272.936 300.1 273.01 300.562 273.159 300.906V301H272.022ZM270.223 300.174C270.563 300.174 270.885 300.086 271.19 299.91C271.495 299.734 271.716 299.506 271.852 299.225V297.924H271.003C269.675 297.924 269.01 298.312 269.01 299.09C269.01 299.43 269.124 299.695 269.35 299.887C269.577 300.078 269.868 300.174 270.223 300.174ZM280.003 297.9C280.003 298.869 279.78 299.648 279.335 300.238C278.889 300.824 278.292 301.117 277.542 301.117C276.741 301.117 276.122 300.834 275.684 300.268L275.632 301H274.635V292H275.719V295.357C276.157 294.814 276.76 294.543 277.53 294.543C278.3 294.543 278.903 294.834 279.341 295.416C279.782 295.998 280.003 296.795 280.003 297.807V297.9ZM278.919 297.777C278.919 297.039 278.776 296.469 278.491 296.066C278.206 295.664 277.796 295.463 277.26 295.463C276.546 295.463 276.032 295.795 275.719 296.459V299.201C276.052 299.865 276.569 300.197 277.272 300.197C277.792 300.197 278.196 299.996 278.485 299.594C278.774 299.191 278.919 298.586 278.919 297.777ZM282.552 301H281.468V294.66H282.552V301ZM281.38 292.979C281.38 292.803 281.432 292.654 281.538 292.533C281.647 292.412 281.807 292.352 282.018 292.352C282.229 292.352 282.389 292.412 282.499 292.533C282.608 292.654 282.663 292.803 282.663 292.979C282.663 293.154 282.608 293.301 282.499 293.418C282.389 293.535 282.229 293.594 282.018 293.594C281.807 293.594 281.647 293.535 281.538 293.418C281.432 293.301 281.38 293.154 281.38 292.979ZM285.469 301H284.385V292H285.469V301ZM288.387 301H287.303V294.66H288.387V301ZM287.216 292.979C287.216 292.803 287.268 292.654 287.374 292.533C287.483 292.412 287.643 292.352 287.854 292.352C288.065 292.352 288.225 292.412 288.335 292.533C288.444 292.654 288.499 292.803 288.499 292.979C288.499 293.154 288.444 293.301 288.335 293.418C288.225 293.535 288.065 293.594 287.854 293.594C287.643 293.594 287.483 293.535 287.374 293.418C287.268 293.301 287.216 293.154 287.216 292.979ZM291.598 293.125V294.66H292.782V295.498H291.598V299.43C291.598 299.684 291.651 299.875 291.757 300.004C291.862 300.129 292.042 300.191 292.296 300.191C292.421 300.191 292.593 300.168 292.811 300.121V301C292.526 301.078 292.249 301.117 291.979 301.117C291.495 301.117 291.13 300.971 290.884 300.678C290.637 300.385 290.514 299.969 290.514 299.43V295.498H289.36V294.66H290.514V293.125H291.598ZM296.128 299.412L297.604 294.66H298.764L296.216 301.979C295.821 303.033 295.194 303.561 294.335 303.561L294.13 303.543L293.725 303.467V302.588L294.018 302.611C294.385 302.611 294.671 302.537 294.874 302.389C295.081 302.24 295.251 301.969 295.384 301.574L295.624 300.93L293.362 294.66H294.546L296.128 299.412ZM299.128 300.432C299.128 300.244 299.182 300.088 299.292 299.963C299.405 299.838 299.573 299.775 299.796 299.775C300.018 299.775 300.186 299.838 300.3 299.963C300.417 300.088 300.475 300.244 300.475 300.432C300.475 300.611 300.417 300.762 300.3 300.883C300.186 301.004 300.018 301.064 299.796 301.064C299.573 301.064 299.405 301.004 299.292 300.883C299.182 300.762 299.128 300.611 299.128 300.432Z" fill="#020E12"/>
<defs>
<filter id="filter0_ddd" x="0" y="-10" width="349" height="370" filterUnits="userSpaceOnUse" color-interpolation-filters="sRGB">
<feFlood flood-opacity="0" result="BackgroundImageFix"/>
<feColorMatrix in="SourceAlpha" type="matrix" values="0 0 0 0 0 0 0 0 0 0 0 0 0 0 0 0 0 0 127 0"/>
<feOffset/>
<feGaussianBlur stdDeviation="0.5"/>
<feColorMatrix type="matrix" values="0 0 0 0 0 0 0 0 0 0 0 0 0 0 0 0 0 0 0.04 0"/>
<feBlend mode="normal" in2="BackgroundImageFix" result="effect1_dropShadow"/>
<feColorMatrix in="SourceAlpha" type="matrix" values="0 0 0 0 0 0 0 0 0 0 0 0 0 0 0 0 0 0 127 0"/>
<feOffset dy="2"/>
<feGaussianBlur stdDeviation="3"/>
<feColorMatrix type="matrix" values="0 0 0 0 0 0 0 0 0 0 0 0 0 0 0 0 0 0 0.04 0"/>
<feBlend mode="normal" in2="effect1_dropShadow" result="effect2_dropShadow"/>
<feColorMatrix in="SourceAlpha" type="matrix" values="0 0 0 0 0 0 0 0 0 0 0 0 0 0 0 0 0 0 127 0"/>
<feOffset dy="10"/>
<feGaussianBlur stdDeviation="10"/>
<feColorMatrix type="matrix" values="0 0 0 0 0 0 0 0 0 0 0 0 0 0 0 0 0 0 0.04 0"/>
<feBlend mode="normal" in2="effect2_dropShadow" result="effect3_dropShadow"/>
<feBlend mode="normal" in="SourceGraphic" in2="effect3_dropShadow" result="shape"/>
</filter>
</defs>
</svg>
