<svg width="348" height="370" viewBox="0 0 348 370" fill="none" xmlns="http://www.w3.org/2000/svg">
<g filter="url(#filter0_ddd)">
<rect x="20" y="10" width="307.013" height="330" rx="4" fill="white"/>
<rect x="20.5" y="10.5" width="306.013" height="329" rx="3.5" stroke="#E2E7E9"/>
</g>
<path d="M133.836 47.2969C133.721 48.5104 133.273 49.4583 132.492 50.1406C131.711 50.8177 130.672 51.1562 129.375 51.1562C128.469 51.1562 127.669 50.9427 126.977 50.5156C126.289 50.0833 125.758 49.4714 125.383 48.6797C125.008 47.888 124.812 46.9688 124.797 45.9219V44.8594C124.797 43.7865 124.987 42.8411 125.367 42.0234C125.747 41.2057 126.292 40.5755 127 40.1328C127.714 39.6901 128.536 39.4688 129.469 39.4688C130.724 39.4688 131.734 39.8099 132.5 40.4922C133.266 41.1745 133.711 42.138 133.836 43.3828H131.867C131.773 42.5651 131.534 41.9766 131.148 41.6172C130.768 41.2526 130.208 41.0703 129.469 41.0703C128.609 41.0703 127.948 41.3854 127.484 42.0156C127.026 42.6406 126.792 43.5599 126.781 44.7734V45.7812C126.781 47.0104 127 47.9479 127.438 48.5938C127.88 49.2396 128.526 49.5625 129.375 49.5625C130.151 49.5625 130.734 49.388 131.125 49.0391C131.516 48.6901 131.763 48.1094 131.867 47.2969H133.836ZM135.07 46.6953C135.07 45.8672 135.234 45.1224 135.562 44.4609C135.891 43.7943 136.352 43.2839 136.945 42.9297C137.539 42.5703 138.221 42.3906 138.992 42.3906C140.133 42.3906 141.057 42.7578 141.766 43.4922C142.479 44.2266 142.865 45.2005 142.922 46.4141L142.93 46.8594C142.93 47.6927 142.768 48.4375 142.445 49.0938C142.128 49.75 141.669 50.2578 141.07 50.6172C140.477 50.9766 139.789 51.1562 139.008 51.1562C137.815 51.1562 136.859 50.7604 136.141 49.9688C135.427 49.1719 135.07 48.112 135.07 46.7891V46.6953ZM136.969 46.8594C136.969 47.7292 137.148 48.4115 137.508 48.9062C137.867 49.3958 138.367 49.6406 139.008 49.6406C139.648 49.6406 140.146 49.3906 140.5 48.8906C140.859 48.3906 141.039 47.6589 141.039 46.6953C141.039 45.8411 140.854 45.1641 140.484 44.6641C140.12 44.1641 139.622 43.9141 138.992 43.9141C138.372 43.9141 137.88 44.1615 137.516 44.6562C137.151 45.1458 136.969 45.8802 136.969 46.8594ZM146.297 42.5469L146.352 43.5234C146.977 42.7682 147.797 42.3906 148.812 42.3906C150.573 42.3906 151.469 43.3984 151.5 45.4141V51H149.602V45.5234C149.602 44.987 149.484 44.5911 149.25 44.3359C149.021 44.0755 148.643 43.9453 148.117 43.9453C147.352 43.9453 146.781 44.2917 146.406 44.9844V51H144.508V42.5469H146.297ZM155.82 40.4922V42.5469H157.312V43.9531H155.82V48.6719C155.82 48.9948 155.883 49.2292 156.008 49.375C156.138 49.5156 156.367 49.5859 156.695 49.5859C156.914 49.5859 157.135 49.5599 157.359 49.5078V50.9766C156.927 51.0964 156.51 51.1562 156.109 51.1562C154.651 51.1562 153.922 50.3516 153.922 48.7422V43.9531H152.531V42.5469H153.922V40.4922H155.82ZM160.789 51H158.891V42.5469H160.789V51ZM158.773 40.3516C158.773 40.0599 158.865 39.8177 159.047 39.625C159.234 39.4323 159.5 39.3359 159.844 39.3359C160.188 39.3359 160.453 39.4323 160.641 39.625C160.828 39.8177 160.922 40.0599 160.922 40.3516C160.922 40.638 160.828 40.8776 160.641 41.0703C160.453 41.2578 160.188 41.3516 159.844 41.3516C159.5 41.3516 159.234 41.2578 159.047 41.0703C158.865 40.8776 158.773 40.638 158.773 40.3516ZM164.625 42.5469L164.68 43.5234C165.305 42.7682 166.125 42.3906 167.141 42.3906C168.901 42.3906 169.797 43.3984 169.828 45.4141V51H167.93V45.5234C167.93 44.987 167.812 44.5911 167.578 44.3359C167.349 44.0755 166.971 43.9453 166.445 43.9453C165.68 43.9453 165.109 44.2917 164.734 44.9844V51H162.836V42.5469H164.625ZM176.891 50.1719C176.333 50.8281 175.542 51.1562 174.516 51.1562C173.599 51.1562 172.904 50.888 172.43 50.3516C171.961 49.8151 171.727 49.0391 171.727 48.0234V42.5469H173.625V48C173.625 49.0729 174.07 49.6094 174.961 49.6094C175.883 49.6094 176.505 49.2786 176.828 48.6172V42.5469H178.727V51H176.938L176.891 50.1719ZM185.711 51C185.628 50.8385 185.555 50.5755 185.492 50.2109C184.888 50.8411 184.148 51.1562 183.273 51.1562C182.424 51.1562 181.732 50.9141 181.195 50.4297C180.659 49.9453 180.391 49.3464 180.391 48.6328C180.391 47.7318 180.724 47.0417 181.391 46.5625C182.062 46.0781 183.021 45.8359 184.266 45.8359H185.43V45.2812C185.43 44.8438 185.307 44.4948 185.062 44.2344C184.818 43.9688 184.445 43.8359 183.945 43.8359C183.513 43.8359 183.159 43.9453 182.883 44.1641C182.607 44.3776 182.469 44.651 182.469 44.9844H180.57C180.57 44.5208 180.724 44.0885 181.031 43.6875C181.339 43.2812 181.755 42.9635 182.281 42.7344C182.812 42.5052 183.404 42.3906 184.055 42.3906C185.044 42.3906 185.833 42.6406 186.422 43.1406C187.01 43.6354 187.312 44.3333 187.328 45.2344V49.0469C187.328 49.8073 187.435 50.4141 187.648 50.8672V51H185.711ZM183.625 49.6328C184 49.6328 184.352 49.5417 184.68 49.3594C185.013 49.1771 185.263 48.9323 185.43 48.625V47.0312H184.406C183.703 47.0312 183.174 47.1536 182.82 47.3984C182.466 47.6432 182.289 47.9896 182.289 48.4375C182.289 48.8021 182.409 49.0938 182.648 49.3125C182.893 49.526 183.219 49.6328 183.625 49.6328ZM191.695 40.4922V42.5469H193.188V43.9531H191.695V48.6719C191.695 48.9948 191.758 49.2292 191.883 49.375C192.013 49.5156 192.242 49.5859 192.57 49.5859C192.789 49.5859 193.01 49.5599 193.234 49.5078V50.9766C192.802 51.0964 192.385 51.1562 191.984 51.1562C190.526 51.1562 189.797 50.3516 189.797 48.7422V43.9531H188.406V42.5469H189.797V40.4922H191.695ZM196.664 51H194.766V42.5469H196.664V51ZM194.648 40.3516C194.648 40.0599 194.74 39.8177 194.922 39.625C195.109 39.4323 195.375 39.3359 195.719 39.3359C196.062 39.3359 196.328 39.4323 196.516 39.625C196.703 39.8177 196.797 40.0599 196.797 40.3516C196.797 40.638 196.703 40.8776 196.516 41.0703C196.328 41.2578 196.062 41.3516 195.719 41.3516C195.375 41.3516 195.109 41.2578 194.922 41.0703C194.74 40.8776 194.648 40.638 194.648 40.3516ZM198.383 46.6953C198.383 45.8672 198.547 45.1224 198.875 44.4609C199.203 43.7943 199.664 43.2839 200.258 42.9297C200.852 42.5703 201.534 42.3906 202.305 42.3906C203.445 42.3906 204.37 42.7578 205.078 43.4922C205.792 44.2266 206.177 45.2005 206.234 46.4141L206.242 46.8594C206.242 47.6927 206.081 48.4375 205.758 49.0938C205.44 49.75 204.982 50.2578 204.383 50.6172C203.789 50.9766 203.102 51.1562 202.32 51.1562C201.128 51.1562 200.172 50.7604 199.453 49.9688C198.74 49.1719 198.383 48.112 198.383 46.7891V46.6953ZM200.281 46.8594C200.281 47.7292 200.461 48.4115 200.82 48.9062C201.18 49.3958 201.68 49.6406 202.32 49.6406C202.961 49.6406 203.458 49.3906 203.812 48.8906C204.172 48.3906 204.352 47.6589 204.352 46.6953C204.352 45.8411 204.167 45.1641 203.797 44.6641C203.432 44.1641 202.935 43.9141 202.305 43.9141C201.685 43.9141 201.193 44.1615 200.828 44.6562C200.464 45.1458 200.281 45.8802 200.281 46.8594ZM209.609 42.5469L209.664 43.5234C210.289 42.7682 211.109 42.3906 212.125 42.3906C213.885 42.3906 214.781 43.3984 214.812 45.4141V51H212.914V45.5234C212.914 44.987 212.797 44.5911 212.562 44.3359C212.333 44.0755 211.956 43.9453 211.43 43.9453C210.664 43.9453 210.094 44.2917 209.719 44.9844V51H207.82V42.5469H209.609Z" fill="#020E12"/>
<path d="M296.161 137H49.8584C45.4401 137 41.8584 140.582 41.8584 145V180C41.8584 184.418 45.4401 188 49.8584 188H296.161C300.579 188 304.161 184.418 304.161 180V145C304.161 140.582 300.579 137 296.161 137Z" fill="#E2E7E9"/>
<path d="M289.258 146H57.6243C53.206 146 49.6243 149.582 49.6243 154V171C49.6243 175.418 53.206 179 57.6243 179H289.258C293.677 179 297.258 175.418 297.258 171V154C297.258 149.582 293.677 146 289.258 146Z" fill="white"/>
<path d="M279.227 161H272.147C270.767 161 269.647 162.119 269.647 163.5C269.647 164.881 270.767 166 272.147 166H279.227C280.608 166 281.727 164.881 281.727 163.5C281.727 162.119 280.608 161 279.227 161Z" fill="#020E12"/>
<path d="M256.793 161H249.713C248.332 161 247.213 162.119 247.213 163.5C247.213 164.881 248.332 166 249.713 166H256.793C258.174 166 259.293 164.881 259.293 163.5C259.293 162.119 258.174 161 256.793 161Z" fill="#020E12"/>
<path d="M234.359 161H227.28C225.899 161 224.78 162.119 224.78 163.5C224.78 164.881 225.899 166 227.28 166H234.359C235.74 166 236.859 164.881 236.859 163.5C236.859 162.119 235.74 161 234.359 161Z" fill="#020E12"/>
<path d="M211.926 161H204.846C203.465 161 202.346 162.119 202.346 163.5C202.346 164.881 203.465 166 204.846 166H211.926C213.306 166 214.426 164.881 214.426 163.5C214.426 162.119 213.306 161 211.926 161Z" fill="#020E12"/>
<path d="M189.492 161H182.412C181.031 161 179.912 162.119 179.912 163.5C179.912 164.881 181.031 166 182.412 166H189.492C190.873 166 191.992 164.881 191.992 163.5C191.992 162.119 190.873 161 189.492 161Z" fill="#020E12"/>
<path d="M167.058 161H159.979C158.598 161 157.479 162.119 157.479 163.5C157.479 164.881 158.598 166 159.979 166H167.058C168.439 166 169.558 164.881 169.558 163.5C169.558 162.119 168.439 161 167.058 161Z" fill="#020E12"/>
<path fill-rule="evenodd" clip-rule="evenodd" d="M63.8438 155.744C63.8438 155.144 64.2668 154.5 64.9663 154.5H81.7831C82.4826 154.5 82.9057 155.144 82.9057 155.744V156.244H82.9056V170.184C82.9056 170.784 82.4825 171.427 81.7831 171.427H64.9663C64.2668 171.427 63.8438 170.784 63.8438 170.184V155.744ZM81.9056 155.735C81.9038 155.645 81.8726 155.578 81.84 155.539C81.8075 155.5 81.7854 155.5 81.7832 155.5L81.7831 155.5H64.9663L64.9662 155.5C64.964 155.5 64.9419 155.5 64.9094 155.539C64.8758 155.579 64.8438 155.65 64.8438 155.744V170.184C64.8438 170.278 64.8758 170.349 64.9094 170.389C64.9419 170.428 64.964 170.427 64.9662 170.427H64.9663H67.9761L73.256 161.554L73.6765 160.847L74.1105 161.545L75.8959 164.42L78.3727 159.773L78.7969 158.977L79.2472 159.758L81.9056 164.371V155.744V155.735ZM81.9056 166.373L78.8311 161.039L76.3703 165.656L75.9621 166.422L75.5043 165.685L73.6949 162.772L69.1397 170.427H81.7831H81.7831C81.7854 170.427 81.8075 170.428 81.8399 170.389C81.8735 170.349 81.9056 170.278 81.9056 170.184V166.373ZM66.889 160.64C66.889 159.371 67.7671 158.186 69.0269 158.186C70.2867 158.186 71.1648 159.371 71.1648 160.64C71.1648 161.909 70.2867 163.094 69.0269 163.094C67.7671 163.094 66.889 161.909 66.889 160.64ZM69.0269 159.186C68.4775 159.186 67.889 159.75 67.889 160.64C67.889 161.529 68.4775 162.094 69.0269 162.094C69.5763 162.094 70.1648 161.529 70.1648 160.64C70.1648 159.75 69.5763 159.186 69.0269 159.186Z" fill="#E2E7E9"/>
<defs>
<filter id="filter0_ddd" x="0" y="0" width="347.013" height="370" filterUnits="userSpaceOnUse" color-interpolation-filters="sRGB">
<feFlood flood-opacity="0" result="BackgroundImageFix"/>
<feColorMatrix in="SourceAlpha" type="matrix" values="0 0 0 0 0 0 0 0 0 0 0 0 0 0 0 0 0 0 127 0"/>
<feOffset/>
<feGaussianBlur stdDeviation="0.5"/>
<feColorMatrix type="matrix" values="0 0 0 0 0 0 0 0 0 0 0 0 0 0 0 0 0 0 0.04 0"/>
<feBlend mode="normal" in2="BackgroundImageFix" result="effect1_dropShadow"/>
<feColorMatrix in="SourceAlpha" type="matrix" values="0 0 0 0 0 0 0 0 0 0 0 0 0 0 0 0 0 0 127 0"/>
<feOffset dy="2"/>
<feGaussianBlur stdDeviation="3"/>
<feColorMatrix type="matrix" values="0 0 0 0 0 0 0 0 0 0 0 0 0 0 0 0 0 0 0.04 0"/>
<feBlend mode="normal" in2="effect1_dropShadow" result="effect2_dropShadow"/>
<feColorMatrix in="SourceAlpha" type="matrix" values="0 0 0 0 0 0 0 0 0 0 0 0 0 0 0 0 0 0 127 0"/>
<feOffset dy="10"/>
<feGaussianBlur stdDeviation="10"/>
<feColorMatrix type="matrix" values="0 0 0 0 0 0 0 0 0 0 0 0 0 0 0 0 0 0 0.04 0"/>
<feBlend mode="normal" in2="effect2_dropShadow" result="effect3_dropShadow"/>
<feBlend mode="normal" in="SourceGraphic" in2="effect3_dropShadow" result="shape"/>
</filter>
</defs>
</svg>
