<svg width="349" height="399" viewBox="0 0 349 399" fill="none" xmlns="http://www.w3.org/2000/svg">
<g filter="url(#filter0_ddd)">
<rect x="20.0005" y="10" width="309" height="359" rx="4" fill="white"/>
<rect x="20.5005" y="10.5" width="308" height="358" rx="3.5" stroke="#E2E7E9"/>
</g>
<rect x="277.001" y="36" width="28" height="13" rx="6.5" fill="#E00000"/>
<path d="M286.575 42.6899H283.89V45.5156H283.047V39.1172H287.01V39.8115H283.89V42H286.575V42.6899ZM290.807 43.8457H288.127L287.525 45.5156H286.655L289.098 39.1172H289.836L292.284 45.5156H291.418L290.807 43.8457ZM288.382 43.1514H290.557L289.467 40.1587L288.382 43.1514ZM294.051 45.5156H293.207V39.1172H294.051V45.5156ZM296.446 44.8257H299.478V45.5156H295.597V39.1172H296.446V44.8257Z" fill="white"/>
<rect x="277.001" y="53" width="28" height="13" rx="6.5" fill="#E00000"/>
<path d="M286.272 59.6899H283.587V62.5156H282.743V56.1172H286.707V56.8115H283.587V59H286.272V59.6899ZM290.504 60.8457H287.823L287.221 62.5156H286.351L288.795 56.1172H289.533L291.981 62.5156H291.115L290.504 60.8457ZM288.078 60.1514H290.254L289.164 57.1587L288.078 60.1514ZM293.747 62.5156H292.904V56.1172H293.747V62.5156ZM296.142 61.8257H299.175V62.5156H295.294V56.1172H296.142V61.8257Z" fill="white"/>
<path d="M213.83 44.3105L213.994 45.4355L214.235 44.4219L215.922 38.4688H216.871L218.518 44.4219L218.752 45.4531L218.934 44.3047L220.258 38.4688H221.389L219.321 47H218.295L216.537 40.7832L216.403 40.1328L216.268 40.7832L214.446 47H213.42L211.358 38.4688H212.483L213.83 44.3105ZM228.918 44.293C228.813 45.1953 228.479 45.8926 227.916 46.3848C227.358 46.873 226.614 47.1172 225.684 47.1172C224.676 47.1172 223.867 46.7559 223.258 46.0332C222.653 45.3105 222.35 44.3438 222.35 43.1328V42.3125C222.35 41.5195 222.49 40.8223 222.772 40.2207C223.057 39.6191 223.459 39.1582 223.979 38.8379C224.498 38.5137 225.1 38.3516 225.783 38.3516C226.69 38.3516 227.416 38.6055 227.963 39.1133C228.51 39.6172 228.828 40.3164 228.918 41.2109H227.787C227.69 40.5312 227.477 40.0391 227.149 39.7344C226.824 39.4297 226.369 39.2773 225.783 39.2773C225.065 39.2773 224.5 39.543 224.09 40.0742C223.684 40.6055 223.481 41.3613 223.481 42.3418V43.168C223.481 44.0938 223.674 44.8301 224.061 45.377C224.448 45.9238 224.989 46.1973 225.684 46.1973C226.309 46.1973 226.787 46.0566 227.119 45.7754C227.455 45.4902 227.678 44.9961 227.787 44.293H228.918ZM235.17 44.7734H231.596L230.793 47H229.633L232.891 38.4688H233.875L237.139 47H235.985L235.17 44.7734ZM231.936 43.8477H234.836L233.383 39.8574L231.936 43.8477ZM244.516 45.8809C244.227 46.2949 243.823 46.6055 243.303 46.8125C242.787 47.0156 242.186 47.1172 241.498 47.1172C240.803 47.1172 240.186 46.9551 239.647 46.6309C239.108 46.3027 238.69 45.8379 238.393 45.2363C238.1 44.6348 237.949 43.9375 237.942 43.1445V42.4004C237.942 41.1152 238.24 40.1191 238.838 39.4121C239.44 38.7051 240.283 38.3516 241.369 38.3516C242.26 38.3516 242.977 38.5801 243.52 39.0371C244.063 39.4902 244.395 40.1348 244.516 40.9707H243.391C243.18 39.8418 242.508 39.2773 241.375 39.2773C240.621 39.2773 240.049 39.543 239.658 40.0742C239.272 40.6016 239.076 41.3672 239.073 42.3711V43.0684C239.073 44.0254 239.291 44.7871 239.729 45.3535C240.166 45.916 240.758 46.1973 241.504 46.1973C241.926 46.1973 242.295 46.1504 242.612 46.0566C242.928 45.9629 243.19 45.8047 243.397 45.582V43.666H241.422V42.752H244.516V45.8809ZM254.084 44.7734H250.51L249.707 47H248.547L251.805 38.4688H252.789L256.053 47H254.899L254.084 44.7734ZM250.85 43.8477H253.75L252.297 39.8574L250.85 43.8477ZM261.912 44.7734H258.338L257.535 47H256.375L259.633 38.4688H260.617L263.881 47H262.727L261.912 44.7734ZM258.678 43.8477H261.578L260.125 39.8574L258.678 43.8477ZM213.83 62.3105L213.994 63.4355L214.235 62.4219L215.922 56.4688H216.871L218.518 62.4219L218.752 63.4531L218.934 62.3047L220.258 56.4688H221.389L219.321 65H218.295L216.537 58.7832L216.403 58.1328L216.268 58.7832L214.446 65H213.42L211.358 56.4688H212.483L213.83 62.3105ZM228.918 62.293C228.813 63.1953 228.479 63.8926 227.916 64.3848C227.358 64.873 226.614 65.1172 225.684 65.1172C224.676 65.1172 223.867 64.7559 223.258 64.0332C222.653 63.3105 222.35 62.3438 222.35 61.1328V60.3125C222.35 59.5195 222.49 58.8223 222.772 58.2207C223.057 57.6191 223.459 57.1582 223.979 56.8379C224.498 56.5137 225.1 56.3516 225.783 56.3516C226.69 56.3516 227.416 56.6055 227.963 57.1133C228.51 57.6172 228.828 58.3164 228.918 59.2109H227.787C227.69 58.5312 227.477 58.0391 227.149 57.7344C226.824 57.4297 226.369 57.2773 225.783 57.2773C225.065 57.2773 224.5 57.543 224.09 58.0742C223.684 58.6055 223.481 59.3613 223.481 60.3418V61.168C223.481 62.0938 223.674 62.8301 224.061 63.377C224.448 63.9238 224.989 64.1973 225.684 64.1973C226.309 64.1973 226.787 64.0566 227.119 63.7754C227.455 63.4902 227.678 62.9961 227.787 62.293H228.918ZM235.17 62.7734H231.596L230.793 65H229.633L232.891 56.4688H233.875L237.139 65H235.985L235.17 62.7734ZM231.936 61.8477H234.836L233.383 57.8574L231.936 61.8477ZM244.516 63.8809C244.227 64.2949 243.823 64.6055 243.303 64.8125C242.787 65.0156 242.186 65.1172 241.498 65.1172C240.803 65.1172 240.186 64.9551 239.647 64.6309C239.108 64.3027 238.69 63.8379 238.393 63.2363C238.1 62.6348 237.949 61.9375 237.942 61.1445V60.4004C237.942 59.1152 238.24 58.1191 238.838 57.4121C239.44 56.7051 240.283 56.3516 241.369 56.3516C242.26 56.3516 242.977 56.5801 243.52 57.0371C244.063 57.4902 244.395 58.1348 244.516 58.9707H243.391C243.18 57.8418 242.508 57.2773 241.375 57.2773C240.621 57.2773 240.049 57.543 239.658 58.0742C239.272 58.6016 239.076 59.3672 239.073 60.3711V61.0684C239.073 62.0254 239.291 62.7871 239.729 63.3535C240.166 63.916 240.758 64.1973 241.504 64.1973C241.926 64.1973 242.295 64.1504 242.612 64.0566C242.928 63.9629 243.19 63.8047 243.397 63.582V61.666H241.422V60.752H244.516V63.8809ZM254.084 62.7734H250.51L249.707 65H248.547L251.805 56.4688H252.789L256.053 65H254.899L254.084 62.7734ZM250.85 61.8477H253.75L252.297 57.8574L250.85 61.8477ZM261.912 62.7734H258.338L257.535 65H256.375L259.633 56.4688H260.617L263.881 65H262.727L261.912 62.7734ZM258.678 61.8477H261.578L260.125 57.8574L258.678 61.8477ZM269.74 62.7734H266.166L265.364 65H264.203L267.461 56.4688H268.446L271.709 65H270.555L269.74 62.7734ZM266.506 61.8477H269.406L267.953 57.8574L266.506 61.8477Z" fill="#020E12"/>
<path fill-rule="evenodd" clip-rule="evenodd" d="M174.178 117.23C172.192 117.23 170.288 118.015 168.883 119.412L119.098 168.922C118.395 169.621 118 170.57 118 171.559C118 172.548 118.395 173.496 119.098 174.196C119.802 174.895 120.755 175.288 121.75 175.288C122.744 175.288 123.698 174.895 124.401 174.196L129.24 169.382V208.807C129.24 211.771 130.424 214.613 132.531 216.708C134.638 218.804 137.495 219.981 140.475 219.981H207.883C210.863 219.981 213.72 218.804 215.827 216.708C217.934 214.613 219.118 211.771 219.118 208.807V169.384L223.955 174.196C224.659 174.895 225.612 175.288 226.607 175.288C227.601 175.288 228.555 174.895 229.258 174.196C229.961 173.496 230.356 172.548 230.356 171.559C230.356 170.57 229.961 169.621 229.258 168.922L211.628 151.389V126.862C211.628 125.874 211.233 124.926 210.531 124.228C209.829 123.529 208.876 123.137 207.883 123.137H200.393C199.4 123.137 198.448 123.529 197.745 124.228C197.043 124.926 196.648 125.874 196.648 126.862V136.492L179.474 119.412C178.069 118.015 176.164 117.23 174.178 117.23ZM211.628 161.933L174.178 124.678L136.73 161.931V208.807C136.73 209.795 137.125 210.742 137.827 211.441C138.529 212.139 139.482 212.532 140.475 212.532H207.883C208.876 212.532 209.829 212.139 210.531 211.441C211.233 210.742 211.628 209.795 211.628 208.807V161.933Z" fill="#E2E7E9"/>
<path d="M161.063 250H159.555V244.742H153.821V250H152.321V238.625H153.821V243.516H159.555V238.625H161.063V250ZM172.477 244.68C172.477 245.794 172.29 246.768 171.915 247.602C171.54 248.43 171.008 249.062 170.321 249.5C169.633 249.938 168.831 250.156 167.915 250.156C167.019 250.156 166.224 249.938 165.532 249.5C164.839 249.057 164.3 248.43 163.915 247.617C163.534 246.799 163.339 245.854 163.329 244.781V243.961C163.329 242.867 163.519 241.901 163.899 241.062C164.279 240.224 164.816 239.583 165.508 239.141C166.206 238.693 167.003 238.469 167.899 238.469C168.81 238.469 169.612 238.69 170.305 239.133C171.003 239.57 171.54 240.208 171.915 241.047C172.29 241.88 172.477 242.852 172.477 243.961V244.68ZM170.985 243.945C170.985 242.596 170.714 241.562 170.172 240.844C169.631 240.12 168.873 239.758 167.899 239.758C166.951 239.758 166.204 240.12 165.657 240.844C165.115 241.562 164.836 242.562 164.821 243.844V244.68C164.821 245.987 165.094 247.016 165.641 247.766C166.193 248.51 166.951 248.883 167.915 248.883C168.883 248.883 169.633 248.531 170.165 247.828C170.696 247.12 170.969 246.107 170.985 244.789V243.945ZM176.665 238.625L180.383 247.906L184.102 238.625H186.047V250H184.547V245.57L184.688 240.789L180.954 250H179.805L176.079 240.812L176.227 245.57V250H174.727V238.625H176.665ZM195.125 244.742H190.196V248.773H195.922V250H188.696V238.625H195.844V239.859H190.196V243.516H195.125V244.742Z" fill="#E2E7E9"/>
<path d="M70.8857 278.395H68.1436V286H67.0244V278.395H64.2881V277.469H70.8857V278.395ZM73.0654 280.428C73.5459 279.838 74.1709 279.543 74.9404 279.543C76.2803 279.543 76.9561 280.299 76.9678 281.811V286H75.8838V281.805C75.8799 281.348 75.7744 281.01 75.5674 280.791C75.3643 280.572 75.0459 280.463 74.6123 280.463C74.2607 280.463 73.9521 280.557 73.6865 280.744C73.4209 280.932 73.2139 281.178 73.0654 281.482V286H71.9814V277H73.0654V280.428ZM81.2217 286.117C80.3623 286.117 79.6631 285.836 79.124 285.273C78.585 284.707 78.3154 283.951 78.3154 283.006V282.807C78.3154 282.178 78.4346 281.617 78.6729 281.125C78.915 280.629 79.251 280.242 79.6807 279.965C80.1143 279.684 80.583 279.543 81.0869 279.543C81.9111 279.543 82.5518 279.814 83.0088 280.357C83.4658 280.9 83.6943 281.678 83.6943 282.689V283.141H79.3994C79.415 283.766 79.5967 284.271 79.9443 284.658C80.2959 285.041 80.7412 285.232 81.2803 285.232C81.6631 285.232 81.9873 285.154 82.2529 284.998C82.5186 284.842 82.751 284.635 82.9502 284.377L83.6123 284.893C83.0811 285.709 82.2842 286.117 81.2217 286.117ZM81.0869 280.434C80.6494 280.434 80.2822 280.594 79.9854 280.914C79.6885 281.23 79.5049 281.676 79.4346 282.25H82.6104V282.168C82.5791 281.617 82.4307 281.191 82.165 280.891C81.8994 280.586 81.54 280.434 81.0869 280.434ZM88.6455 284.318C88.6455 284.025 88.5342 283.799 88.3115 283.639C88.0928 283.475 87.708 283.334 87.1572 283.217C86.6104 283.1 86.1748 282.959 85.8506 282.795C85.5303 282.631 85.292 282.436 85.1357 282.209C84.9834 281.982 84.9072 281.713 84.9072 281.4C84.9072 280.881 85.126 280.441 85.5635 280.082C86.0049 279.723 86.5674 279.543 87.251 279.543C87.9697 279.543 88.5518 279.729 88.9971 280.1C89.4463 280.471 89.6709 280.945 89.6709 281.523H88.5811C88.5811 281.227 88.4541 280.971 88.2002 280.756C87.9502 280.541 87.6338 280.434 87.251 280.434C86.8564 280.434 86.5479 280.52 86.3252 280.691C86.1025 280.863 85.9912 281.088 85.9912 281.365C85.9912 281.627 86.0947 281.824 86.3018 281.957C86.5088 282.09 86.8818 282.217 87.4209 282.338C87.9639 282.459 88.4033 282.604 88.7393 282.771C89.0752 282.939 89.3232 283.143 89.4834 283.381C89.6475 283.615 89.7295 283.902 89.7295 284.242C89.7295 284.809 89.5029 285.264 89.0498 285.607C88.5967 285.947 88.0088 286.117 87.2861 286.117C86.7783 286.117 86.3291 286.027 85.9385 285.848C85.5479 285.668 85.2412 285.418 85.0186 285.098C84.7998 284.773 84.6904 284.424 84.6904 284.049H85.7744C85.7939 284.412 85.9385 284.701 86.208 284.916C86.4814 285.127 86.8408 285.232 87.2861 285.232C87.6963 285.232 88.0244 285.15 88.2705 284.986C88.5205 284.818 88.6455 284.596 88.6455 284.318ZM93.7725 286.117C92.9131 286.117 92.2139 285.836 91.6748 285.273C91.1357 284.707 90.8662 283.951 90.8662 283.006V282.807C90.8662 282.178 90.9854 281.617 91.2236 281.125C91.4658 280.629 91.8018 280.242 92.2314 279.965C92.665 279.684 93.1338 279.543 93.6377 279.543C94.4619 279.543 95.1025 279.814 95.5596 280.357C96.0166 280.9 96.2451 281.678 96.2451 282.689V283.141H91.9502C91.9658 283.766 92.1475 284.271 92.4951 284.658C92.8467 285.041 93.292 285.232 93.8311 285.232C94.2139 285.232 94.5381 285.154 94.8037 284.998C95.0693 284.842 95.3018 284.635 95.501 284.377L96.1631 284.893C95.6318 285.709 94.835 286.117 93.7725 286.117ZM93.6377 280.434C93.2002 280.434 92.833 280.594 92.5361 280.914C92.2393 281.23 92.0557 281.676 91.9854 282.25H95.1611V282.168C95.1299 281.617 94.9814 281.191 94.7158 280.891C94.4502 280.586 94.0908 280.434 93.6377 280.434ZM101.952 278.125V279.66H103.136V280.498H101.952V284.43C101.952 284.684 102.005 284.875 102.11 285.004C102.216 285.129 102.396 285.191 102.649 285.191C102.774 285.191 102.946 285.168 103.165 285.121V286C102.88 286.078 102.603 286.117 102.333 286.117C101.849 286.117 101.483 285.971 101.237 285.678C100.991 285.385 100.868 284.969 100.868 284.43V280.498H99.7139V279.66H100.868V278.125H101.952ZM107.038 286.117C106.179 286.117 105.479 285.836 104.94 285.273C104.401 284.707 104.132 283.951 104.132 283.006V282.807C104.132 282.178 104.251 281.617 104.489 281.125C104.731 280.629 105.067 280.242 105.497 279.965C105.931 279.684 106.399 279.543 106.903 279.543C107.728 279.543 108.368 279.814 108.825 280.357C109.282 280.9 109.511 281.678 109.511 282.689V283.141H105.216C105.231 283.766 105.413 284.271 105.761 284.658C106.112 285.041 106.558 285.232 107.097 285.232C107.479 285.232 107.804 285.154 108.069 284.998C108.335 284.842 108.567 284.635 108.767 284.377L109.429 284.893C108.897 285.709 108.101 286.117 107.038 286.117ZM106.903 280.434C106.466 280.434 106.099 280.594 105.802 280.914C105.505 281.23 105.321 281.676 105.251 282.25H108.427V282.168C108.396 281.617 108.247 281.191 107.981 280.891C107.716 280.586 107.356 280.434 106.903 280.434ZM112.897 281.975L114.304 279.66H115.569L113.495 282.795L115.634 286H114.38L112.915 283.627L111.45 286H110.19L112.329 282.795L110.255 279.66H111.509L112.897 281.975ZM118.194 278.125V279.66H119.378V280.498H118.194V284.43C118.194 284.684 118.247 284.875 118.353 285.004C118.458 285.129 118.638 285.191 118.892 285.191C119.017 285.191 119.188 285.168 119.407 285.121V286C119.122 286.078 118.845 286.117 118.575 286.117C118.091 286.117 117.726 285.971 117.479 285.678C117.233 285.385 117.11 284.969 117.11 284.43V280.498H115.956V279.66H117.11V278.125H118.194ZM127.54 286C127.478 285.875 127.427 285.652 127.388 285.332C126.884 285.855 126.282 286.117 125.583 286.117C124.958 286.117 124.444 285.941 124.042 285.59C123.644 285.234 123.444 284.785 123.444 284.242C123.444 283.582 123.694 283.07 124.194 282.707C124.698 282.34 125.405 282.156 126.315 282.156H127.37V281.658C127.37 281.279 127.257 280.979 127.03 280.756C126.804 280.529 126.47 280.416 126.028 280.416C125.642 280.416 125.317 280.514 125.056 280.709C124.794 280.904 124.663 281.141 124.663 281.418H123.573C123.573 281.102 123.685 280.797 123.907 280.504C124.134 280.207 124.438 279.973 124.821 279.801C125.208 279.629 125.632 279.543 126.093 279.543C126.823 279.543 127.396 279.727 127.81 280.094C128.224 280.457 128.438 280.959 128.454 281.6V284.518C128.454 285.1 128.528 285.562 128.677 285.906V286H127.54ZM125.741 285.174C126.081 285.174 126.403 285.086 126.708 284.91C127.013 284.734 127.233 284.506 127.37 284.225V282.924H126.521C125.192 282.924 124.528 283.312 124.528 284.09C124.528 284.43 124.642 284.695 124.868 284.887C125.095 285.078 125.386 285.174 125.741 285.174ZM131.179 279.66L131.214 280.457C131.698 279.848 132.331 279.543 133.112 279.543C134.452 279.543 135.128 280.299 135.14 281.811V286H134.056V281.805C134.052 281.348 133.946 281.01 133.739 280.791C133.536 280.572 133.218 280.463 132.784 280.463C132.433 280.463 132.124 280.557 131.858 280.744C131.593 280.932 131.386 281.178 131.237 281.482V286H130.153V279.66H131.179ZM136.511 282.777C136.511 281.805 136.741 281.023 137.202 280.434C137.663 279.84 138.267 279.543 139.013 279.543C139.755 279.543 140.343 279.797 140.776 280.305V277H141.86V286H140.864L140.812 285.32C140.378 285.852 139.774 286.117 139.001 286.117C138.267 286.117 137.667 285.816 137.202 285.215C136.741 284.613 136.511 283.828 136.511 282.859V282.777ZM137.595 282.9C137.595 283.619 137.743 284.182 138.04 284.588C138.337 284.994 138.747 285.197 139.271 285.197C139.958 285.197 140.46 284.889 140.776 284.271V281.359C140.452 280.762 139.954 280.463 139.282 280.463C138.751 280.463 138.337 280.668 138.04 281.078C137.743 281.488 137.595 282.096 137.595 282.9ZM147.702 286H146.618V279.66H147.702V286ZM146.53 277.979C146.53 277.803 146.583 277.654 146.688 277.533C146.798 277.412 146.958 277.352 147.169 277.352C147.38 277.352 147.54 277.412 147.649 277.533C147.759 277.654 147.813 277.803 147.813 277.979C147.813 278.154 147.759 278.301 147.649 278.418C147.54 278.535 147.38 278.594 147.169 278.594C146.958 278.594 146.798 278.535 146.688 278.418C146.583 278.301 146.53 278.154 146.53 277.979ZM151.985 285.232C152.372 285.232 152.71 285.115 152.999 284.881C153.288 284.646 153.448 284.354 153.479 284.002H154.505C154.485 284.365 154.36 284.711 154.13 285.039C153.899 285.367 153.591 285.629 153.204 285.824C152.821 286.02 152.415 286.117 151.985 286.117C151.122 286.117 150.435 285.83 149.923 285.256C149.415 284.678 149.161 283.889 149.161 282.889V282.707C149.161 282.09 149.274 281.541 149.501 281.061C149.728 280.58 150.052 280.207 150.474 279.941C150.899 279.676 151.401 279.543 151.979 279.543C152.69 279.543 153.28 279.756 153.749 280.182C154.222 280.607 154.474 281.16 154.505 281.84H153.479C153.448 281.43 153.292 281.094 153.011 280.832C152.733 280.566 152.39 280.434 151.979 280.434C151.429 280.434 151.001 280.633 150.696 281.031C150.396 281.426 150.245 281.998 150.245 282.748V282.953C150.245 283.684 150.396 284.246 150.696 284.641C150.997 285.035 151.427 285.232 151.985 285.232ZM155.437 282.771C155.437 282.15 155.558 281.592 155.8 281.096C156.046 280.6 156.386 280.217 156.819 279.947C157.257 279.678 157.755 279.543 158.313 279.543C159.177 279.543 159.874 279.842 160.405 280.439C160.94 281.037 161.208 281.832 161.208 282.824V282.9C161.208 283.518 161.089 284.072 160.851 284.564C160.616 285.053 160.278 285.434 159.837 285.707C159.399 285.98 158.896 286.117 158.325 286.117C157.466 286.117 156.769 285.818 156.233 285.221C155.702 284.623 155.437 283.832 155.437 282.848V282.771ZM156.526 282.9C156.526 283.604 156.688 284.168 157.013 284.594C157.341 285.02 157.778 285.232 158.325 285.232C158.876 285.232 159.313 285.018 159.638 284.588C159.962 284.154 160.124 283.549 160.124 282.771C160.124 282.076 159.958 281.514 159.626 281.084C159.298 280.65 158.86 280.434 158.313 280.434C157.778 280.434 157.347 280.646 157.019 281.072C156.69 281.498 156.526 282.107 156.526 282.9ZM163.593 279.66L163.628 280.457C164.112 279.848 164.745 279.543 165.526 279.543C166.866 279.543 167.542 280.299 167.554 281.811V286H166.47V281.805C166.466 281.348 166.36 281.01 166.153 280.791C165.95 280.572 165.632 280.463 165.198 280.463C164.847 280.463 164.538 280.557 164.272 280.744C164.007 280.932 163.8 281.178 163.651 281.482V286H162.567V279.66H163.593ZM174.708 285.232C175.095 285.232 175.433 285.115 175.722 284.881C176.011 284.646 176.171 284.354 176.202 284.002H177.228C177.208 284.365 177.083 284.711 176.853 285.039C176.622 285.367 176.313 285.629 175.927 285.824C175.544 286.02 175.138 286.117 174.708 286.117C173.845 286.117 173.157 285.83 172.646 285.256C172.138 284.678 171.884 283.889 171.884 282.889V282.707C171.884 282.09 171.997 281.541 172.224 281.061C172.45 280.58 172.774 280.207 173.196 279.941C173.622 279.676 174.124 279.543 174.702 279.543C175.413 279.543 176.003 279.756 176.472 280.182C176.944 280.607 177.196 281.16 177.228 281.84H176.202C176.171 281.43 176.015 281.094 175.733 280.832C175.456 280.566 175.112 280.434 174.702 280.434C174.151 280.434 173.724 280.633 173.419 281.031C173.118 281.426 172.968 281.998 172.968 282.748V282.953C172.968 283.684 173.118 284.246 173.419 284.641C173.72 285.035 174.149 285.232 174.708 285.232ZM178.159 282.771C178.159 282.15 178.28 281.592 178.522 281.096C178.769 280.6 179.108 280.217 179.542 279.947C179.979 279.678 180.478 279.543 181.036 279.543C181.899 279.543 182.597 279.842 183.128 280.439C183.663 281.037 183.931 281.832 183.931 282.824V282.9C183.931 283.518 183.812 284.072 183.573 284.564C183.339 285.053 183.001 285.434 182.56 285.707C182.122 285.98 181.618 286.117 181.048 286.117C180.188 286.117 179.491 285.818 178.956 285.221C178.425 284.623 178.159 283.832 178.159 282.848V282.771ZM179.249 282.9C179.249 283.604 179.411 284.168 179.735 284.594C180.063 285.02 180.501 285.232 181.048 285.232C181.599 285.232 182.036 285.018 182.36 284.588C182.685 284.154 182.847 283.549 182.847 282.771C182.847 282.076 182.681 281.514 182.349 281.084C182.021 280.65 181.583 280.434 181.036 280.434C180.501 280.434 180.069 280.646 179.741 281.072C179.413 281.498 179.249 282.107 179.249 282.9ZM186.468 286H185.384V277H186.468V286ZM187.921 282.771C187.921 282.15 188.042 281.592 188.284 281.096C188.53 280.6 188.87 280.217 189.304 279.947C189.741 279.678 190.239 279.543 190.798 279.543C191.661 279.543 192.358 279.842 192.89 280.439C193.425 281.037 193.692 281.832 193.692 282.824V282.9C193.692 283.518 193.573 284.072 193.335 284.564C193.101 285.053 192.763 285.434 192.321 285.707C191.884 285.98 191.38 286.117 190.81 286.117C189.95 286.117 189.253 285.818 188.718 285.221C188.187 284.623 187.921 283.832 187.921 282.848V282.771ZM189.011 282.9C189.011 283.604 189.173 284.168 189.497 284.594C189.825 285.02 190.263 285.232 190.81 285.232C191.36 285.232 191.798 285.018 192.122 284.588C192.446 284.154 192.608 283.549 192.608 282.771C192.608 282.076 192.442 281.514 192.11 281.084C191.782 280.65 191.345 280.434 190.798 280.434C190.263 280.434 189.831 280.646 189.503 281.072C189.175 281.498 189.011 282.107 189.011 282.9ZM198.116 280.633C197.952 280.605 197.774 280.592 197.583 280.592C196.872 280.592 196.39 280.895 196.136 281.5V286H195.052V279.66H196.106L196.124 280.393C196.479 279.826 196.983 279.543 197.636 279.543C197.847 279.543 198.007 279.57 198.116 279.625V280.633ZM201.831 282.777C201.831 281.805 202.062 281.023 202.522 280.434C202.983 279.84 203.587 279.543 204.333 279.543C205.075 279.543 205.663 279.797 206.097 280.305V277H207.181V286H206.185L206.132 285.32C205.698 285.852 205.095 286.117 204.321 286.117C203.587 286.117 202.987 285.816 202.522 285.215C202.062 284.613 201.831 283.828 201.831 282.859V282.777ZM202.915 282.9C202.915 283.619 203.063 284.182 203.36 284.588C203.657 284.994 204.067 285.197 204.591 285.197C205.278 285.197 205.78 284.889 206.097 284.271V281.359C205.772 280.762 205.274 280.463 204.603 280.463C204.071 280.463 203.657 280.668 203.36 281.078C203.063 281.488 202.915 282.096 202.915 282.9ZM208.581 282.771C208.581 282.15 208.702 281.592 208.944 281.096C209.19 280.6 209.53 280.217 209.964 279.947C210.401 279.678 210.899 279.543 211.458 279.543C212.321 279.543 213.019 279.842 213.55 280.439C214.085 281.037 214.353 281.832 214.353 282.824V282.9C214.353 283.518 214.233 284.072 213.995 284.564C213.761 285.053 213.423 285.434 212.981 285.707C212.544 285.98 212.04 286.117 211.47 286.117C210.61 286.117 209.913 285.818 209.378 285.221C208.847 284.623 208.581 283.832 208.581 282.848V282.771ZM209.671 282.9C209.671 283.604 209.833 284.168 210.157 284.594C210.485 285.02 210.923 285.232 211.47 285.232C212.021 285.232 212.458 285.018 212.782 284.588C213.106 284.154 213.269 283.549 213.269 282.771C213.269 282.076 213.103 281.514 212.771 281.084C212.442 280.65 212.005 280.434 211.458 280.434C210.923 280.434 210.491 280.646 210.163 281.072C209.835 281.498 209.671 282.107 209.671 282.9ZM216.737 279.66L216.772 280.457C217.257 279.848 217.89 279.543 218.671 279.543C220.011 279.543 220.687 280.299 220.698 281.811V286H219.614V281.805C219.61 281.348 219.505 281.01 219.298 280.791C219.095 280.572 218.776 280.463 218.343 280.463C217.991 280.463 217.683 280.557 217.417 280.744C217.151 280.932 216.944 281.178 216.796 281.482V286H215.712V279.66H216.737ZM221.94 279.871L221.325 279.449C221.688 278.941 221.876 278.406 221.888 277.844V277H222.96V277.762C222.956 278.152 222.858 278.543 222.667 278.934C222.479 279.32 222.237 279.633 221.94 279.871ZM225.737 278.125V279.66H226.921V280.498H225.737V284.43C225.737 284.684 225.79 284.875 225.896 285.004C226.001 285.129 226.181 285.191 226.435 285.191C226.56 285.191 226.731 285.168 226.95 285.121V286C226.665 286.078 226.388 286.117 226.118 286.117C225.634 286.117 225.269 285.971 225.022 285.678C224.776 285.385 224.653 284.969 224.653 284.43V280.498H223.499V279.66H224.653V278.125H225.737ZM232.188 279.66L232.218 280.363C232.683 279.816 233.31 279.543 234.099 279.543C234.985 279.543 235.589 279.883 235.909 280.562C236.12 280.258 236.394 280.012 236.729 279.824C237.069 279.637 237.47 279.543 237.931 279.543C239.321 279.543 240.028 280.279 240.052 281.752V286H238.968V281.816C238.968 281.363 238.864 281.025 238.657 280.803C238.45 280.576 238.103 280.463 237.614 280.463C237.212 280.463 236.878 280.584 236.612 280.826C236.347 281.064 236.192 281.387 236.149 281.793V286H235.06V281.846C235.06 280.924 234.608 280.463 233.706 280.463C232.995 280.463 232.509 280.766 232.247 281.371V286H231.163V279.66H232.188ZM244.323 286.117C243.464 286.117 242.765 285.836 242.226 285.273C241.687 284.707 241.417 283.951 241.417 283.006V282.807C241.417 282.178 241.536 281.617 241.774 281.125C242.017 280.629 242.353 280.242 242.782 279.965C243.216 279.684 243.685 279.543 244.188 279.543C245.013 279.543 245.653 279.814 246.11 280.357C246.567 280.9 246.796 281.678 246.796 282.689V283.141H242.501C242.517 283.766 242.698 284.271 243.046 284.658C243.397 285.041 243.843 285.232 244.382 285.232C244.765 285.232 245.089 285.154 245.354 284.998C245.62 284.842 245.853 284.635 246.052 284.377L246.714 284.893C246.183 285.709 245.386 286.117 244.323 286.117ZM244.188 280.434C243.751 280.434 243.384 280.594 243.087 280.914C242.79 281.23 242.606 281.676 242.536 282.25H245.712V282.168C245.681 281.617 245.532 281.191 245.267 280.891C245.001 280.586 244.642 280.434 244.188 280.434ZM250.687 286.117C249.827 286.117 249.128 285.836 248.589 285.273C248.05 284.707 247.78 283.951 247.78 283.006V282.807C247.78 282.178 247.899 281.617 248.138 281.125C248.38 280.629 248.716 280.242 249.146 279.965C249.579 279.684 250.048 279.543 250.552 279.543C251.376 279.543 252.017 279.814 252.474 280.357C252.931 280.9 253.159 281.678 253.159 282.689V283.141H248.864C248.88 283.766 249.062 284.271 249.409 284.658C249.761 285.041 250.206 285.232 250.745 285.232C251.128 285.232 251.452 285.154 251.718 284.998C251.983 284.842 252.216 284.635 252.415 284.377L253.077 284.893C252.546 285.709 251.749 286.117 250.687 286.117ZM250.552 280.434C250.114 280.434 249.747 280.594 249.45 280.914C249.153 281.23 248.97 281.676 248.899 282.25H252.075V282.168C252.044 281.617 251.896 281.191 251.63 280.891C251.364 280.586 251.005 280.434 250.552 280.434ZM255.89 278.125V279.66H257.073V280.498H255.89V284.43C255.89 284.684 255.942 284.875 256.048 285.004C256.153 285.129 256.333 285.191 256.587 285.191C256.712 285.191 256.884 285.168 257.103 285.121V286C256.817 286.078 256.54 286.117 256.271 286.117C255.786 286.117 255.421 285.971 255.175 285.678C254.929 285.385 254.806 284.969 254.806 284.43V280.498H253.651V279.66H254.806V278.125H255.89ZM262.792 278.125V279.66H263.976V280.498H262.792V284.43C262.792 284.684 262.845 284.875 262.95 285.004C263.056 285.129 263.235 285.191 263.489 285.191C263.614 285.191 263.786 285.168 264.005 285.121V286C263.72 286.078 263.442 286.117 263.173 286.117C262.688 286.117 262.323 285.971 262.077 285.678C261.831 285.385 261.708 284.969 261.708 284.43V280.498H260.554V279.66H261.708V278.125H262.792ZM266.331 280.428C266.812 279.838 267.437 279.543 268.206 279.543C269.546 279.543 270.222 280.299 270.233 281.811V286H269.149V281.805C269.146 281.348 269.04 281.01 268.833 280.791C268.63 280.572 268.312 280.463 267.878 280.463C267.526 280.463 267.218 280.557 266.952 280.744C266.687 280.932 266.479 281.178 266.331 281.482V286H265.247V277H266.331V280.428ZM274.487 286.117C273.628 286.117 272.929 285.836 272.39 285.273C271.851 284.707 271.581 283.951 271.581 283.006V282.807C271.581 282.178 271.7 281.617 271.938 281.125C272.181 280.629 272.517 280.242 272.946 279.965C273.38 279.684 273.849 279.543 274.353 279.543C275.177 279.543 275.817 279.814 276.274 280.357C276.731 280.9 276.96 281.678 276.96 282.689V283.141H272.665C272.681 283.766 272.862 284.271 273.21 284.658C273.562 285.041 274.007 285.232 274.546 285.232C274.929 285.232 275.253 285.154 275.519 284.998C275.784 284.842 276.017 284.635 276.216 284.377L276.878 284.893C276.347 285.709 275.55 286.117 274.487 286.117ZM274.353 280.434C273.915 280.434 273.548 280.594 273.251 280.914C272.954 281.23 272.771 281.676 272.7 282.25H275.876V282.168C275.845 281.617 275.696 281.191 275.431 280.891C275.165 280.586 274.806 280.434 274.353 280.434ZM67.3643 303.232C67.751 303.232 68.0889 303.115 68.3779 302.881C68.667 302.646 68.8271 302.354 68.8584 302.002H69.8838C69.8643 302.365 69.7393 302.711 69.5088 303.039C69.2783 303.367 68.9697 303.629 68.583 303.824C68.2002 304.02 67.7939 304.117 67.3643 304.117C66.501 304.117 65.8135 303.83 65.3018 303.256C64.7939 302.678 64.54 301.889 64.54 300.889V300.707C64.54 300.09 64.6533 299.541 64.8799 299.061C65.1064 298.58 65.4307 298.207 65.8525 297.941C66.2783 297.676 66.7803 297.543 67.3584 297.543C68.0693 297.543 68.6592 297.756 69.1279 298.182C69.6006 298.607 69.8525 299.16 69.8838 299.84H68.8584C68.8271 299.43 68.6709 299.094 68.3896 298.832C68.1123 298.566 67.7686 298.434 67.3584 298.434C66.8076 298.434 66.3799 298.633 66.0752 299.031C65.7744 299.426 65.624 299.998 65.624 300.748V300.953C65.624 301.684 65.7744 302.246 66.0752 302.641C66.376 303.035 66.8057 303.232 67.3643 303.232ZM70.8154 300.771C70.8154 300.15 70.9365 299.592 71.1787 299.096C71.4248 298.6 71.7646 298.217 72.1982 297.947C72.6357 297.678 73.1338 297.543 73.6924 297.543C74.5557 297.543 75.2529 297.842 75.7842 298.439C76.3193 299.037 76.5869 299.832 76.5869 300.824V300.9C76.5869 301.518 76.4678 302.072 76.2295 302.564C75.9951 303.053 75.6572 303.434 75.2158 303.707C74.7783 303.98 74.2744 304.117 73.7041 304.117C72.8447 304.117 72.1475 303.818 71.6123 303.221C71.0811 302.623 70.8154 301.832 70.8154 300.848V300.771ZM71.9053 300.9C71.9053 301.604 72.0674 302.168 72.3916 302.594C72.7197 303.02 73.1572 303.232 73.7041 303.232C74.2549 303.232 74.6924 303.018 75.0166 302.588C75.3408 302.154 75.5029 301.549 75.5029 300.771C75.5029 300.076 75.3369 299.514 75.0049 299.084C74.6768 298.65 74.2393 298.434 73.6924 298.434C73.1572 298.434 72.7256 298.646 72.3975 299.072C72.0693 299.498 71.9053 300.107 71.9053 300.9ZM79.124 304H78.04V295H79.124V304ZM80.5771 300.771C80.5771 300.15 80.6982 299.592 80.9404 299.096C81.1865 298.6 81.5264 298.217 81.96 297.947C82.3975 297.678 82.8955 297.543 83.4541 297.543C84.3174 297.543 85.0146 297.842 85.5459 298.439C86.0811 299.037 86.3486 299.832 86.3486 300.824V300.9C86.3486 301.518 86.2295 302.072 85.9912 302.564C85.7568 303.053 85.4189 303.434 84.9775 303.707C84.54 303.98 84.0361 304.117 83.4658 304.117C82.6064 304.117 81.9092 303.818 81.374 303.221C80.8428 302.623 80.5771 301.832 80.5771 300.848V300.771ZM81.667 300.9C81.667 301.604 81.8291 302.168 82.1533 302.594C82.4814 303.02 82.9189 303.232 83.4658 303.232C84.0166 303.232 84.4541 303.018 84.7783 302.588C85.1025 302.154 85.2646 301.549 85.2646 300.771C85.2646 300.076 85.0986 299.514 84.7666 299.084C84.4385 298.65 84.001 298.434 83.4541 298.434C82.9189 298.434 82.4873 298.646 82.1592 299.072C81.8311 299.498 81.667 300.107 81.667 300.9ZM90.7725 298.633C90.6084 298.605 90.4307 298.592 90.2393 298.592C89.5283 298.592 89.0459 298.895 88.792 299.5V304H87.708V297.66H88.7627L88.7803 298.393C89.1357 297.826 89.6396 297.543 90.292 297.543C90.5029 297.543 90.6631 297.57 90.7725 297.625V298.633ZM97.2939 303.232C97.6807 303.232 98.0186 303.115 98.3076 302.881C98.5967 302.646 98.7568 302.354 98.7881 302.002H99.8135C99.7939 302.365 99.6689 302.711 99.4385 303.039C99.208 303.367 98.8994 303.629 98.5127 303.824C98.1299 304.02 97.7236 304.117 97.2939 304.117C96.4307 304.117 95.7432 303.83 95.2314 303.256C94.7236 302.678 94.4697 301.889 94.4697 300.889V300.707C94.4697 300.09 94.583 299.541 94.8096 299.061C95.0361 298.58 95.3604 298.207 95.7822 297.941C96.208 297.676 96.71 297.543 97.2881 297.543C97.999 297.543 98.5889 297.756 99.0576 298.182C99.5303 298.607 99.7822 299.16 99.8135 299.84H98.7881C98.7568 299.43 98.6006 299.094 98.3193 298.832C98.042 298.566 97.6982 298.434 97.2881 298.434C96.7373 298.434 96.3096 298.633 96.0049 299.031C95.7041 299.426 95.5537 299.998 95.5537 300.748V300.953C95.5537 301.684 95.7041 302.246 96.0049 302.641C96.3057 303.035 96.7354 303.232 97.2939 303.232ZM100.745 300.771C100.745 300.15 100.866 299.592 101.108 299.096C101.354 298.6 101.694 298.217 102.128 297.947C102.565 297.678 103.063 297.543 103.622 297.543C104.485 297.543 105.183 297.842 105.714 298.439C106.249 299.037 106.517 299.832 106.517 300.824V300.9C106.517 301.518 106.397 302.072 106.159 302.564C105.925 303.053 105.587 303.434 105.146 303.707C104.708 303.98 104.204 304.117 103.634 304.117C102.774 304.117 102.077 303.818 101.542 303.221C101.011 302.623 100.745 301.832 100.745 300.848V300.771ZM101.835 300.9C101.835 301.604 101.997 302.168 102.321 302.594C102.649 303.02 103.087 303.232 103.634 303.232C104.185 303.232 104.622 303.018 104.946 302.588C105.271 302.154 105.433 301.549 105.433 300.771C105.433 300.076 105.267 299.514 104.935 299.084C104.606 298.65 104.169 298.434 103.622 298.434C103.087 298.434 102.655 298.646 102.327 299.072C101.999 299.498 101.835 300.107 101.835 300.9ZM108.901 297.66L108.937 298.457C109.421 297.848 110.054 297.543 110.835 297.543C112.175 297.543 112.851 298.299 112.862 299.811V304H111.778V299.805C111.774 299.348 111.669 299.01 111.462 298.791C111.259 298.572 110.94 298.463 110.507 298.463C110.155 298.463 109.847 298.557 109.581 298.744C109.315 298.932 109.108 299.178 108.96 299.482V304H107.876V297.66H108.901ZM115.968 296.125V297.66H117.151V298.498H115.968V302.43C115.968 302.684 116.021 302.875 116.126 303.004C116.231 303.129 116.411 303.191 116.665 303.191C116.79 303.191 116.962 303.168 117.181 303.121V304C116.896 304.078 116.618 304.117 116.349 304.117C115.864 304.117 115.499 303.971 115.253 303.678C115.007 303.385 114.884 302.969 114.884 302.43V298.498H113.729V297.66H114.884V296.125H115.968ZM121.487 298.633C121.323 298.605 121.146 298.592 120.954 298.592C120.243 298.592 119.761 298.895 119.507 299.5V304H118.423V297.66H119.478L119.495 298.393C119.851 297.826 120.354 297.543 121.007 297.543C121.218 297.543 121.378 297.57 121.487 297.625V298.633ZM126.169 304C126.106 303.875 126.056 303.652 126.017 303.332C125.513 303.855 124.911 304.117 124.212 304.117C123.587 304.117 123.073 303.941 122.671 303.59C122.272 303.234 122.073 302.785 122.073 302.242C122.073 301.582 122.323 301.07 122.823 300.707C123.327 300.34 124.034 300.156 124.944 300.156H125.999V299.658C125.999 299.279 125.886 298.979 125.659 298.756C125.433 298.529 125.099 298.416 124.657 298.416C124.271 298.416 123.946 298.514 123.685 298.709C123.423 298.904 123.292 299.141 123.292 299.418H122.202C122.202 299.102 122.313 298.797 122.536 298.504C122.763 298.207 123.067 297.973 123.45 297.801C123.837 297.629 124.261 297.543 124.722 297.543C125.452 297.543 126.024 297.727 126.438 298.094C126.853 298.457 127.067 298.959 127.083 299.6V302.518C127.083 303.1 127.157 303.562 127.306 303.906V304H126.169ZM124.37 303.174C124.71 303.174 125.032 303.086 125.337 302.91C125.642 302.734 125.862 302.506 125.999 302.225V300.924H125.149C123.821 300.924 123.157 301.312 123.157 302.09C123.157 302.43 123.271 302.695 123.497 302.887C123.724 303.078 124.015 303.174 124.37 303.174ZM132.474 302.318C132.474 302.025 132.362 301.799 132.14 301.639C131.921 301.475 131.536 301.334 130.985 301.217C130.438 301.1 130.003 300.959 129.679 300.795C129.358 300.631 129.12 300.436 128.964 300.209C128.812 299.982 128.735 299.713 128.735 299.4C128.735 298.881 128.954 298.441 129.392 298.082C129.833 297.723 130.396 297.543 131.079 297.543C131.798 297.543 132.38 297.729 132.825 298.1C133.274 298.471 133.499 298.945 133.499 299.523H132.409C132.409 299.227 132.282 298.971 132.028 298.756C131.778 298.541 131.462 298.434 131.079 298.434C130.685 298.434 130.376 298.52 130.153 298.691C129.931 298.863 129.819 299.088 129.819 299.365C129.819 299.627 129.923 299.824 130.13 299.957C130.337 300.09 130.71 300.217 131.249 300.338C131.792 300.459 132.231 300.604 132.567 300.771C132.903 300.939 133.151 301.143 133.312 301.381C133.476 301.615 133.558 301.902 133.558 302.242C133.558 302.809 133.331 303.264 132.878 303.607C132.425 303.947 131.837 304.117 131.114 304.117C130.606 304.117 130.157 304.027 129.767 303.848C129.376 303.668 129.069 303.418 128.847 303.098C128.628 302.773 128.519 302.424 128.519 302.049H129.603C129.622 302.412 129.767 302.701 130.036 302.916C130.31 303.127 130.669 303.232 131.114 303.232C131.524 303.232 131.853 303.15 132.099 302.986C132.349 302.818 132.474 302.596 132.474 302.318ZM136.44 296.125V297.66H137.624V298.498H136.44V302.43C136.44 302.684 136.493 302.875 136.599 303.004C136.704 303.129 136.884 303.191 137.138 303.191C137.263 303.191 137.435 303.168 137.653 303.121V304C137.368 304.078 137.091 304.117 136.821 304.117C136.337 304.117 135.972 303.971 135.726 303.678C135.479 303.385 135.356 302.969 135.356 302.43V298.498H134.202V297.66H135.356V296.125H136.44ZM144.937 298.633C144.772 298.605 144.595 298.592 144.403 298.592C143.692 298.592 143.21 298.895 142.956 299.5V304H141.872V297.66H142.927L142.944 298.393C143.3 297.826 143.804 297.543 144.456 297.543C144.667 297.543 144.827 297.57 144.937 297.625V298.633ZM149.618 304C149.556 303.875 149.505 303.652 149.466 303.332C148.962 303.855 148.36 304.117 147.661 304.117C147.036 304.117 146.522 303.941 146.12 303.59C145.722 303.234 145.522 302.785 145.522 302.242C145.522 301.582 145.772 301.07 146.272 300.707C146.776 300.34 147.483 300.156 148.394 300.156H149.448V299.658C149.448 299.279 149.335 298.979 149.108 298.756C148.882 298.529 148.548 298.416 148.106 298.416C147.72 298.416 147.396 298.514 147.134 298.709C146.872 298.904 146.741 299.141 146.741 299.418H145.651C145.651 299.102 145.763 298.797 145.985 298.504C146.212 298.207 146.517 297.973 146.899 297.801C147.286 297.629 147.71 297.543 148.171 297.543C148.901 297.543 149.474 297.727 149.888 298.094C150.302 298.457 150.517 298.959 150.532 299.6V302.518C150.532 303.1 150.606 303.562 150.755 303.906V304H149.618ZM147.819 303.174C148.159 303.174 148.481 303.086 148.786 302.91C149.091 302.734 149.312 302.506 149.448 302.225V300.924H148.599C147.271 300.924 146.606 301.312 146.606 302.09C146.606 302.43 146.72 302.695 146.946 302.887C147.173 303.078 147.464 303.174 147.819 303.174ZM153.702 296.125V297.66H154.886V298.498H153.702V302.43C153.702 302.684 153.755 302.875 153.86 303.004C153.966 303.129 154.146 303.191 154.399 303.191C154.524 303.191 154.696 303.168 154.915 303.121V304C154.63 304.078 154.353 304.117 154.083 304.117C153.599 304.117 153.233 303.971 152.987 303.678C152.741 303.385 152.618 302.969 152.618 302.43V298.498H151.464V297.66H152.618V296.125H153.702ZM157.335 304H156.251V297.66H157.335V304ZM156.163 295.979C156.163 295.803 156.216 295.654 156.321 295.533C156.431 295.412 156.591 295.352 156.802 295.352C157.013 295.352 157.173 295.412 157.282 295.533C157.392 295.654 157.446 295.803 157.446 295.979C157.446 296.154 157.392 296.301 157.282 296.418C157.173 296.535 157.013 296.594 156.802 296.594C156.591 296.594 156.431 296.535 156.321 296.418C156.216 296.301 156.163 296.154 156.163 295.979ZM158.788 300.771C158.788 300.15 158.909 299.592 159.151 299.096C159.397 298.6 159.737 298.217 160.171 297.947C160.608 297.678 161.106 297.543 161.665 297.543C162.528 297.543 163.226 297.842 163.757 298.439C164.292 299.037 164.56 299.832 164.56 300.824V300.9C164.56 301.518 164.44 302.072 164.202 302.564C163.968 303.053 163.63 303.434 163.188 303.707C162.751 303.98 162.247 304.117 161.677 304.117C160.817 304.117 160.12 303.818 159.585 303.221C159.054 302.623 158.788 301.832 158.788 300.848V300.771ZM159.878 300.9C159.878 301.604 160.04 302.168 160.364 302.594C160.692 303.02 161.13 303.232 161.677 303.232C162.228 303.232 162.665 303.018 162.989 302.588C163.313 302.154 163.476 301.549 163.476 300.771C163.476 300.076 163.31 299.514 162.978 299.084C162.649 298.65 162.212 298.434 161.665 298.434C161.13 298.434 160.698 298.646 160.37 299.072C160.042 299.498 159.878 300.107 159.878 300.9ZM171.96 298.633C171.796 298.605 171.618 298.592 171.427 298.592C170.716 298.592 170.233 298.895 169.979 299.5V304H168.896V297.66H169.95L169.968 298.393C170.323 297.826 170.827 297.543 171.479 297.543C171.69 297.543 171.851 297.57 171.96 297.625V298.633ZM175.476 304.117C174.616 304.117 173.917 303.836 173.378 303.273C172.839 302.707 172.569 301.951 172.569 301.006V300.807C172.569 300.178 172.688 299.617 172.927 299.125C173.169 298.629 173.505 298.242 173.935 297.965C174.368 297.684 174.837 297.543 175.341 297.543C176.165 297.543 176.806 297.814 177.263 298.357C177.72 298.9 177.948 299.678 177.948 300.689V301.141H173.653C173.669 301.766 173.851 302.271 174.198 302.658C174.55 303.041 174.995 303.232 175.534 303.232C175.917 303.232 176.241 303.154 176.507 302.998C176.772 302.842 177.005 302.635 177.204 302.377L177.866 302.893C177.335 303.709 176.538 304.117 175.476 304.117ZM175.341 298.434C174.903 298.434 174.536 298.594 174.239 298.914C173.942 299.23 173.759 299.676 173.688 300.25H176.864V300.168C176.833 299.617 176.685 299.191 176.419 298.891C176.153 298.586 175.794 298.434 175.341 298.434ZM181.751 303.232C182.138 303.232 182.476 303.115 182.765 302.881C183.054 302.646 183.214 302.354 183.245 302.002H184.271C184.251 302.365 184.126 302.711 183.896 303.039C183.665 303.367 183.356 303.629 182.97 303.824C182.587 304.02 182.181 304.117 181.751 304.117C180.888 304.117 180.2 303.83 179.688 303.256C179.181 302.678 178.927 301.889 178.927 300.889V300.707C178.927 300.09 179.04 299.541 179.267 299.061C179.493 298.58 179.817 298.207 180.239 297.941C180.665 297.676 181.167 297.543 181.745 297.543C182.456 297.543 183.046 297.756 183.515 298.182C183.987 298.607 184.239 299.16 184.271 299.84H183.245C183.214 299.43 183.058 299.094 182.776 298.832C182.499 298.566 182.155 298.434 181.745 298.434C181.194 298.434 180.767 298.633 180.462 299.031C180.161 299.426 180.011 299.998 180.011 300.748V300.953C180.011 301.684 180.161 302.246 180.462 302.641C180.763 303.035 181.192 303.232 181.751 303.232ZM185.202 300.771C185.202 300.15 185.323 299.592 185.565 299.096C185.812 298.6 186.151 298.217 186.585 297.947C187.022 297.678 187.521 297.543 188.079 297.543C188.942 297.543 189.64 297.842 190.171 298.439C190.706 299.037 190.974 299.832 190.974 300.824V300.9C190.974 301.518 190.854 302.072 190.616 302.564C190.382 303.053 190.044 303.434 189.603 303.707C189.165 303.98 188.661 304.117 188.091 304.117C187.231 304.117 186.534 303.818 185.999 303.221C185.468 302.623 185.202 301.832 185.202 300.848V300.771ZM186.292 300.9C186.292 301.604 186.454 302.168 186.778 302.594C187.106 303.02 187.544 303.232 188.091 303.232C188.642 303.232 189.079 303.018 189.403 302.588C189.728 302.154 189.89 301.549 189.89 300.771C189.89 300.076 189.724 299.514 189.392 299.084C189.063 298.65 188.626 298.434 188.079 298.434C187.544 298.434 187.112 298.646 186.784 299.072C186.456 299.498 186.292 300.107 186.292 300.9ZM193.353 297.66L193.382 298.363C193.847 297.816 194.474 297.543 195.263 297.543C196.149 297.543 196.753 297.883 197.073 298.562C197.284 298.258 197.558 298.012 197.894 297.824C198.233 297.637 198.634 297.543 199.095 297.543C200.485 297.543 201.192 298.279 201.216 299.752V304H200.132V299.816C200.132 299.363 200.028 299.025 199.821 298.803C199.614 298.576 199.267 298.463 198.778 298.463C198.376 298.463 198.042 298.584 197.776 298.826C197.511 299.064 197.356 299.387 197.313 299.793V304H196.224V299.846C196.224 298.924 195.772 298.463 194.87 298.463C194.159 298.463 193.673 298.766 193.411 299.371V304H192.327V297.66H193.353ZM203.876 297.66L203.905 298.363C204.37 297.816 204.997 297.543 205.786 297.543C206.673 297.543 207.276 297.883 207.597 298.562C207.808 298.258 208.081 298.012 208.417 297.824C208.757 297.637 209.157 297.543 209.618 297.543C211.009 297.543 211.716 298.279 211.739 299.752V304H210.655V299.816C210.655 299.363 210.552 299.025 210.345 298.803C210.138 298.576 209.79 298.463 209.302 298.463C208.899 298.463 208.565 298.584 208.3 298.826C208.034 299.064 207.88 299.387 207.837 299.793V304H206.747V299.846C206.747 298.924 206.296 298.463 205.394 298.463C204.683 298.463 204.196 298.766 203.935 299.371V304H202.851V297.66H203.876ZM216.011 304.117C215.151 304.117 214.452 303.836 213.913 303.273C213.374 302.707 213.104 301.951 213.104 301.006V300.807C213.104 300.178 213.224 299.617 213.462 299.125C213.704 298.629 214.04 298.242 214.47 297.965C214.903 297.684 215.372 297.543 215.876 297.543C216.7 297.543 217.341 297.814 217.798 298.357C218.255 298.9 218.483 299.678 218.483 300.689V301.141H214.188C214.204 301.766 214.386 302.271 214.733 302.658C215.085 303.041 215.53 303.232 216.069 303.232C216.452 303.232 216.776 303.154 217.042 302.998C217.308 302.842 217.54 302.635 217.739 302.377L218.401 302.893C217.87 303.709 217.073 304.117 216.011 304.117ZM215.876 298.434C215.438 298.434 215.071 298.594 214.774 298.914C214.478 299.23 214.294 299.676 214.224 300.25H217.399V300.168C217.368 299.617 217.22 299.191 216.954 298.891C216.688 298.586 216.329 298.434 215.876 298.434ZM220.769 297.66L220.804 298.457C221.288 297.848 221.921 297.543 222.702 297.543C224.042 297.543 224.718 298.299 224.729 299.811V304H223.646V299.805C223.642 299.348 223.536 299.01 223.329 298.791C223.126 298.572 222.808 298.463 222.374 298.463C222.022 298.463 221.714 298.557 221.448 298.744C221.183 298.932 220.976 299.178 220.827 299.482V304H219.743V297.66H220.769ZM226.101 300.777C226.101 299.805 226.331 299.023 226.792 298.434C227.253 297.84 227.856 297.543 228.603 297.543C229.345 297.543 229.933 297.797 230.366 298.305V295H231.45V304H230.454L230.401 303.32C229.968 303.852 229.364 304.117 228.591 304.117C227.856 304.117 227.257 303.816 226.792 303.215C226.331 302.613 226.101 301.828 226.101 300.859V300.777ZM227.185 300.9C227.185 301.619 227.333 302.182 227.63 302.588C227.927 302.994 228.337 303.197 228.86 303.197C229.548 303.197 230.05 302.889 230.366 302.271V299.359C230.042 298.762 229.544 298.463 228.872 298.463C228.341 298.463 227.927 298.668 227.63 299.078C227.333 299.488 227.185 300.096 227.185 300.9ZM237.052 304C236.989 303.875 236.938 303.652 236.899 303.332C236.396 303.855 235.794 304.117 235.095 304.117C234.47 304.117 233.956 303.941 233.554 303.59C233.155 303.234 232.956 302.785 232.956 302.242C232.956 301.582 233.206 301.07 233.706 300.707C234.21 300.34 234.917 300.156 235.827 300.156H236.882V299.658C236.882 299.279 236.769 298.979 236.542 298.756C236.315 298.529 235.981 298.416 235.54 298.416C235.153 298.416 234.829 298.514 234.567 298.709C234.306 298.904 234.175 299.141 234.175 299.418H233.085C233.085 299.102 233.196 298.797 233.419 298.504C233.646 298.207 233.95 297.973 234.333 297.801C234.72 297.629 235.144 297.543 235.604 297.543C236.335 297.543 236.907 297.727 237.321 298.094C237.735 298.457 237.95 298.959 237.966 299.6V302.518C237.966 303.1 238.04 303.562 238.188 303.906V304H237.052ZM235.253 303.174C235.593 303.174 235.915 303.086 236.22 302.91C236.524 302.734 236.745 302.506 236.882 302.225V300.924H236.032C234.704 300.924 234.04 301.312 234.04 302.09C234.04 302.43 234.153 302.695 234.38 302.887C234.606 303.078 234.897 303.174 235.253 303.174ZM241.136 296.125V297.66H242.319V298.498H241.136V302.43C241.136 302.684 241.188 302.875 241.294 303.004C241.399 303.129 241.579 303.191 241.833 303.191C241.958 303.191 242.13 303.168 242.349 303.121V304C242.063 304.078 241.786 304.117 241.517 304.117C241.032 304.117 240.667 303.971 240.421 303.678C240.175 303.385 240.052 302.969 240.052 302.43V298.498H238.897V297.66H240.052V296.125H241.136ZM244.769 304H243.685V297.66H244.769V304ZM243.597 295.979C243.597 295.803 243.649 295.654 243.755 295.533C243.864 295.412 244.024 295.352 244.235 295.352C244.446 295.352 244.606 295.412 244.716 295.533C244.825 295.654 244.88 295.803 244.88 295.979C244.88 296.154 244.825 296.301 244.716 296.418C244.606 296.535 244.446 296.594 244.235 296.594C244.024 296.594 243.864 296.535 243.755 296.418C243.649 296.301 243.597 296.154 243.597 295.979ZM246.222 300.771C246.222 300.15 246.343 299.592 246.585 299.096C246.831 298.6 247.171 298.217 247.604 297.947C248.042 297.678 248.54 297.543 249.099 297.543C249.962 297.543 250.659 297.842 251.19 298.439C251.726 299.037 251.993 299.832 251.993 300.824V300.9C251.993 301.518 251.874 302.072 251.636 302.564C251.401 303.053 251.063 303.434 250.622 303.707C250.185 303.98 249.681 304.117 249.11 304.117C248.251 304.117 247.554 303.818 247.019 303.221C246.487 302.623 246.222 301.832 246.222 300.848V300.771ZM247.312 300.9C247.312 301.604 247.474 302.168 247.798 302.594C248.126 303.02 248.563 303.232 249.11 303.232C249.661 303.232 250.099 303.018 250.423 302.588C250.747 302.154 250.909 301.549 250.909 300.771C250.909 300.076 250.743 299.514 250.411 299.084C250.083 298.65 249.646 298.434 249.099 298.434C248.563 298.434 248.132 298.646 247.804 299.072C247.476 299.498 247.312 300.107 247.312 300.9ZM254.378 297.66L254.413 298.457C254.897 297.848 255.53 297.543 256.312 297.543C257.651 297.543 258.327 298.299 258.339 299.811V304H257.255V299.805C257.251 299.348 257.146 299.01 256.938 298.791C256.735 298.572 256.417 298.463 255.983 298.463C255.632 298.463 255.323 298.557 255.058 298.744C254.792 298.932 254.585 299.178 254.437 299.482V304H253.353V297.66H254.378ZM263.665 302.318C263.665 302.025 263.554 301.799 263.331 301.639C263.112 301.475 262.728 301.334 262.177 301.217C261.63 301.1 261.194 300.959 260.87 300.795C260.55 300.631 260.312 300.436 260.155 300.209C260.003 299.982 259.927 299.713 259.927 299.4C259.927 298.881 260.146 298.441 260.583 298.082C261.024 297.723 261.587 297.543 262.271 297.543C262.989 297.543 263.571 297.729 264.017 298.1C264.466 298.471 264.69 298.945 264.69 299.523H263.601C263.601 299.227 263.474 298.971 263.22 298.756C262.97 298.541 262.653 298.434 262.271 298.434C261.876 298.434 261.567 298.52 261.345 298.691C261.122 298.863 261.011 299.088 261.011 299.365C261.011 299.627 261.114 299.824 261.321 299.957C261.528 300.09 261.901 300.217 262.44 300.338C262.983 300.459 263.423 300.604 263.759 300.771C264.095 300.939 264.343 301.143 264.503 301.381C264.667 301.615 264.749 301.902 264.749 302.242C264.749 302.809 264.522 303.264 264.069 303.607C263.616 303.947 263.028 304.117 262.306 304.117C261.798 304.117 261.349 304.027 260.958 303.848C260.567 303.668 260.261 303.418 260.038 303.098C259.819 302.773 259.71 302.424 259.71 302.049H260.794C260.813 302.412 260.958 302.701 261.228 302.916C261.501 303.127 261.86 303.232 262.306 303.232C262.716 303.232 263.044 303.15 263.29 302.986C263.54 302.818 263.665 302.596 263.665 302.318ZM68.7354 322C68.6729 321.875 68.6221 321.652 68.583 321.332C68.0791 321.855 67.4775 322.117 66.7783 322.117C66.1533 322.117 65.6396 321.941 65.2373 321.59C64.8389 321.234 64.6396 320.785 64.6396 320.242C64.6396 319.582 64.8896 319.07 65.3896 318.707C65.8936 318.34 66.6006 318.156 67.5107 318.156H68.5654V317.658C68.5654 317.279 68.4521 316.979 68.2256 316.756C67.999 316.529 67.665 316.416 67.2236 316.416C66.8369 316.416 66.5127 316.514 66.251 316.709C65.9893 316.904 65.8584 317.141 65.8584 317.418H64.7686C64.7686 317.102 64.8799 316.797 65.1025 316.504C65.3291 316.207 65.6338 315.973 66.0166 315.801C66.4033 315.629 66.8271 315.543 67.2881 315.543C68.0186 315.543 68.5908 315.727 69.0049 316.094C69.4189 316.457 69.6338 316.959 69.6494 317.6V320.518C69.6494 321.1 69.7236 321.562 69.8721 321.906V322H68.7354ZM66.9365 321.174C67.2764 321.174 67.5986 321.086 67.9033 320.91C68.208 320.734 68.4287 320.506 68.5654 320.225V318.924H67.7158C66.3877 318.924 65.7236 319.312 65.7236 320.09C65.7236 320.43 65.8369 320.695 66.0635 320.887C66.29 321.078 66.5811 321.174 66.9365 321.174ZM72.374 315.66L72.4092 316.457C72.8936 315.848 73.5264 315.543 74.3076 315.543C75.6475 315.543 76.3232 316.299 76.335 317.811V322H75.251V317.805C75.2471 317.348 75.1416 317.01 74.9346 316.791C74.7314 316.572 74.4131 316.463 73.9795 316.463C73.6279 316.463 73.3193 316.557 73.0537 316.744C72.7881 316.932 72.5811 317.178 72.4326 317.482V322H71.3486V315.66H72.374ZM77.7061 318.777C77.7061 317.805 77.9365 317.023 78.3975 316.434C78.8584 315.84 79.4619 315.543 80.208 315.543C80.9502 315.543 81.5381 315.797 81.9717 316.305V313H83.0557V322H82.0596L82.0068 321.32C81.5732 321.852 80.9697 322.117 80.1963 322.117C79.4619 322.117 78.8623 321.816 78.3975 321.215C77.9365 320.613 77.7061 319.828 77.7061 318.859V318.777ZM78.79 318.9C78.79 319.619 78.9385 320.182 79.2354 320.588C79.5322 320.994 79.9424 321.197 80.4658 321.197C81.1533 321.197 81.6553 320.889 81.9717 320.271V317.359C81.6475 316.762 81.1494 316.463 80.4775 316.463C79.9463 316.463 79.5322 316.668 79.2354 317.078C78.9385 317.488 78.79 318.096 78.79 318.9ZM90.2627 321.232C90.6494 321.232 90.9873 321.115 91.2764 320.881C91.5654 320.646 91.7256 320.354 91.7568 320.002H92.7822C92.7627 320.365 92.6377 320.711 92.4072 321.039C92.1768 321.367 91.8682 321.629 91.4814 321.824C91.0986 322.02 90.6924 322.117 90.2627 322.117C89.3994 322.117 88.7119 321.83 88.2002 321.256C87.6924 320.678 87.4385 319.889 87.4385 318.889V318.707C87.4385 318.09 87.5518 317.541 87.7783 317.061C88.0049 316.58 88.3291 316.207 88.751 315.941C89.1768 315.676 89.6787 315.543 90.2568 315.543C90.9678 315.543 91.5576 315.756 92.0264 316.182C92.499 316.607 92.751 317.16 92.7822 317.84H91.7568C91.7256 317.43 91.5693 317.094 91.2881 316.832C91.0107 316.566 90.667 316.434 90.2568 316.434C89.7061 316.434 89.2783 316.633 88.9736 317.031C88.6729 317.426 88.5225 317.998 88.5225 318.748V318.953C88.5225 319.684 88.6729 320.246 88.9736 320.641C89.2744 321.035 89.7041 321.232 90.2627 321.232ZM97.915 322C97.8525 321.875 97.8018 321.652 97.7627 321.332C97.2588 321.855 96.6572 322.117 95.958 322.117C95.333 322.117 94.8193 321.941 94.417 321.59C94.0186 321.234 93.8193 320.785 93.8193 320.242C93.8193 319.582 94.0693 319.07 94.5693 318.707C95.0732 318.34 95.7803 318.156 96.6904 318.156H97.7451V317.658C97.7451 317.279 97.6318 316.979 97.4053 316.756C97.1787 316.529 96.8447 316.416 96.4033 316.416C96.0166 316.416 95.6924 316.514 95.4307 316.709C95.1689 316.904 95.0381 317.141 95.0381 317.418H93.9482C93.9482 317.102 94.0596 316.797 94.2822 316.504C94.5088 316.207 94.8135 315.973 95.1963 315.801C95.583 315.629 96.0068 315.543 96.4678 315.543C97.1982 315.543 97.7705 315.727 98.1846 316.094C98.5986 316.457 98.8135 316.959 98.8291 317.6V320.518C98.8291 321.1 98.9033 321.562 99.0518 321.906V322H97.915ZM96.1162 321.174C96.4561 321.174 96.7783 321.086 97.083 320.91C97.3877 320.734 97.6084 320.506 97.7451 320.225V318.924H96.8955C95.5674 318.924 94.9033 319.312 94.9033 320.09C94.9033 320.43 95.0166 320.695 95.2432 320.887C95.4697 321.078 95.7607 321.174 96.1162 321.174ZM101.554 315.66L101.589 316.457C102.073 315.848 102.706 315.543 103.487 315.543C104.827 315.543 105.503 316.299 105.515 317.811V322H104.431V317.805C104.427 317.348 104.321 317.01 104.114 316.791C103.911 316.572 103.593 316.463 103.159 316.463C102.808 316.463 102.499 316.557 102.233 316.744C101.968 316.932 101.761 317.178 101.612 317.482V322H100.528V315.66H101.554ZM115.493 318.9C115.493 319.869 115.271 320.648 114.825 321.238C114.38 321.824 113.782 322.117 113.032 322.117C112.231 322.117 111.612 321.834 111.175 321.268L111.122 322H110.126V313H111.21V316.357C111.647 315.814 112.251 315.543 113.021 315.543C113.79 315.543 114.394 315.834 114.831 316.416C115.272 316.998 115.493 317.795 115.493 318.807V318.9ZM114.409 318.777C114.409 318.039 114.267 317.469 113.981 317.066C113.696 316.664 113.286 316.463 112.751 316.463C112.036 316.463 111.522 316.795 111.21 317.459V320.201C111.542 320.865 112.06 321.197 112.763 321.197C113.282 321.197 113.687 320.996 113.976 320.594C114.265 320.191 114.409 319.586 114.409 318.777ZM119.495 322.117C118.636 322.117 117.937 321.836 117.397 321.273C116.858 320.707 116.589 319.951 116.589 319.006V318.807C116.589 318.178 116.708 317.617 116.946 317.125C117.188 316.629 117.524 316.242 117.954 315.965C118.388 315.684 118.856 315.543 119.36 315.543C120.185 315.543 120.825 315.814 121.282 316.357C121.739 316.9 121.968 317.678 121.968 318.689V319.141H117.673C117.688 319.766 117.87 320.271 118.218 320.658C118.569 321.041 119.015 321.232 119.554 321.232C119.937 321.232 120.261 321.154 120.526 320.998C120.792 320.842 121.024 320.635 121.224 320.377L121.886 320.893C121.354 321.709 120.558 322.117 119.495 322.117ZM119.36 316.434C118.923 316.434 118.556 316.594 118.259 316.914C117.962 317.23 117.778 317.676 117.708 318.25H120.884V318.168C120.853 317.617 120.704 317.191 120.438 316.891C120.173 316.586 119.813 316.434 119.36 316.434ZM125.94 318.777C125.94 317.805 126.171 317.023 126.632 316.434C127.093 315.84 127.696 315.543 128.442 315.543C129.185 315.543 129.772 315.797 130.206 316.305V313H131.29V322H130.294L130.241 321.32C129.808 321.852 129.204 322.117 128.431 322.117C127.696 322.117 127.097 321.816 126.632 321.215C126.171 320.613 125.94 319.828 125.94 318.859V318.777ZM127.024 318.9C127.024 319.619 127.173 320.182 127.47 320.588C127.767 320.994 128.177 321.197 128.7 321.197C129.388 321.197 129.89 320.889 130.206 320.271V317.359C129.882 316.762 129.384 316.463 128.712 316.463C128.181 316.463 127.767 316.668 127.47 317.078C127.173 317.488 127.024 318.096 127.024 318.9ZM134.155 322H133.071V315.66H134.155V322ZM132.983 313.979C132.983 313.803 133.036 313.654 133.142 313.533C133.251 313.412 133.411 313.352 133.622 313.352C133.833 313.352 133.993 313.412 134.103 313.533C134.212 313.654 134.267 313.803 134.267 313.979C134.267 314.154 134.212 314.301 134.103 314.418C133.993 314.535 133.833 314.594 133.622 314.594C133.411 314.594 133.251 314.535 133.142 314.418C133.036 314.301 132.983 314.154 132.983 313.979ZM136.429 322V316.498H135.427V315.66H136.429V315.01C136.429 314.33 136.61 313.805 136.974 313.434C137.337 313.062 137.851 312.877 138.515 312.877C138.765 312.877 139.013 312.91 139.259 312.977L139.2 313.855C139.017 313.82 138.821 313.803 138.614 313.803C138.263 313.803 137.991 313.906 137.8 314.113C137.608 314.316 137.513 314.609 137.513 314.992V315.66H138.866V316.498H137.513V322H136.429ZM140.601 322V316.498H139.599V315.66H140.601V315.01C140.601 314.33 140.782 313.805 141.146 313.434C141.509 313.062 142.022 312.877 142.687 312.877C142.937 312.877 143.185 312.91 143.431 312.977L143.372 313.855C143.188 313.82 142.993 313.803 142.786 313.803C142.435 313.803 142.163 313.906 141.972 314.113C141.78 314.316 141.685 314.609 141.685 314.992V315.66H143.038V316.498H141.685V322H140.601ZM145.417 322H144.333V315.66H145.417V322ZM144.245 313.979C144.245 313.803 144.298 313.654 144.403 313.533C144.513 313.412 144.673 313.352 144.884 313.352C145.095 313.352 145.255 313.412 145.364 313.533C145.474 313.654 145.528 313.803 145.528 313.979C145.528 314.154 145.474 314.301 145.364 314.418C145.255 314.535 145.095 314.594 144.884 314.594C144.673 314.594 144.513 314.535 144.403 314.418C144.298 314.301 144.245 314.154 144.245 313.979ZM149.7 321.232C150.087 321.232 150.425 321.115 150.714 320.881C151.003 320.646 151.163 320.354 151.194 320.002H152.22C152.2 320.365 152.075 320.711 151.845 321.039C151.614 321.367 151.306 321.629 150.919 321.824C150.536 322.02 150.13 322.117 149.7 322.117C148.837 322.117 148.149 321.83 147.638 321.256C147.13 320.678 146.876 319.889 146.876 318.889V318.707C146.876 318.09 146.989 317.541 147.216 317.061C147.442 316.58 147.767 316.207 148.188 315.941C148.614 315.676 149.116 315.543 149.694 315.543C150.405 315.543 150.995 315.756 151.464 316.182C151.937 316.607 152.188 317.16 152.22 317.84H151.194C151.163 317.43 151.007 317.094 150.726 316.832C150.448 316.566 150.104 316.434 149.694 316.434C149.144 316.434 148.716 316.633 148.411 317.031C148.11 317.426 147.96 317.998 147.96 318.748V318.953C147.96 319.684 148.11 320.246 148.411 320.641C148.712 321.035 149.142 321.232 149.7 321.232ZM157.353 321.373C156.931 321.869 156.312 322.117 155.495 322.117C154.819 322.117 154.304 321.922 153.948 321.531C153.597 321.137 153.419 320.555 153.415 319.785V315.66H154.499V319.756C154.499 320.717 154.89 321.197 155.671 321.197C156.499 321.197 157.05 320.889 157.323 320.271V315.66H158.407V322H157.376L157.353 321.373ZM161.237 322H160.153V313H161.237V322ZM164.448 314.125V315.66H165.632V316.498H164.448V320.43C164.448 320.684 164.501 320.875 164.606 321.004C164.712 321.129 164.892 321.191 165.146 321.191C165.271 321.191 165.442 321.168 165.661 321.121V322C165.376 322.078 165.099 322.117 164.829 322.117C164.345 322.117 163.979 321.971 163.733 321.678C163.487 321.385 163.364 320.969 163.364 320.43V316.498H162.21V315.66H163.364V314.125H164.448ZM171.351 314.125V315.66H172.534V316.498H171.351V320.43C171.351 320.684 171.403 320.875 171.509 321.004C171.614 321.129 171.794 321.191 172.048 321.191C172.173 321.191 172.345 321.168 172.563 321.121V322C172.278 322.078 172.001 322.117 171.731 322.117C171.247 322.117 170.882 321.971 170.636 321.678C170.39 321.385 170.267 320.969 170.267 320.43V316.498H169.112V315.66H170.267V314.125H171.351ZM173.401 318.771C173.401 318.15 173.522 317.592 173.765 317.096C174.011 316.6 174.351 316.217 174.784 315.947C175.222 315.678 175.72 315.543 176.278 315.543C177.142 315.543 177.839 315.842 178.37 316.439C178.905 317.037 179.173 317.832 179.173 318.824V318.9C179.173 319.518 179.054 320.072 178.815 320.564C178.581 321.053 178.243 321.434 177.802 321.707C177.364 321.98 176.86 322.117 176.29 322.117C175.431 322.117 174.733 321.818 174.198 321.221C173.667 320.623 173.401 319.832 173.401 318.848V318.771ZM174.491 318.9C174.491 319.604 174.653 320.168 174.978 320.594C175.306 321.02 175.743 321.232 176.29 321.232C176.841 321.232 177.278 321.018 177.603 320.588C177.927 320.154 178.089 319.549 178.089 318.771C178.089 318.076 177.923 317.514 177.591 317.084C177.263 316.65 176.825 316.434 176.278 316.434C175.743 316.434 175.312 316.646 174.983 317.072C174.655 317.498 174.491 318.107 174.491 318.9ZM186.573 316.633C186.409 316.605 186.231 316.592 186.04 316.592C185.329 316.592 184.847 316.895 184.593 317.5V322H183.509V315.66H184.563L184.581 316.393C184.937 315.826 185.44 315.543 186.093 315.543C186.304 315.543 186.464 315.57 186.573 315.625V316.633ZM190.089 322.117C189.229 322.117 188.53 321.836 187.991 321.273C187.452 320.707 187.183 319.951 187.183 319.006V318.807C187.183 318.178 187.302 317.617 187.54 317.125C187.782 316.629 188.118 316.242 188.548 315.965C188.981 315.684 189.45 315.543 189.954 315.543C190.778 315.543 191.419 315.814 191.876 316.357C192.333 316.9 192.562 317.678 192.562 318.689V319.141H188.267C188.282 319.766 188.464 320.271 188.812 320.658C189.163 321.041 189.608 321.232 190.147 321.232C190.53 321.232 190.854 321.154 191.12 320.998C191.386 320.842 191.618 320.635 191.817 320.377L192.479 320.893C191.948 321.709 191.151 322.117 190.089 322.117ZM189.954 316.434C189.517 316.434 189.149 316.594 188.853 316.914C188.556 317.23 188.372 317.676 188.302 318.25H191.478V318.168C191.446 317.617 191.298 317.191 191.032 316.891C190.767 316.586 190.407 316.434 189.954 316.434ZM197.735 322C197.673 321.875 197.622 321.652 197.583 321.332C197.079 321.855 196.478 322.117 195.778 322.117C195.153 322.117 194.64 321.941 194.237 321.59C193.839 321.234 193.64 320.785 193.64 320.242C193.64 319.582 193.89 319.07 194.39 318.707C194.894 318.34 195.601 318.156 196.511 318.156H197.565V317.658C197.565 317.279 197.452 316.979 197.226 316.756C196.999 316.529 196.665 316.416 196.224 316.416C195.837 316.416 195.513 316.514 195.251 316.709C194.989 316.904 194.858 317.141 194.858 317.418H193.769C193.769 317.102 193.88 316.797 194.103 316.504C194.329 316.207 194.634 315.973 195.017 315.801C195.403 315.629 195.827 315.543 196.288 315.543C197.019 315.543 197.591 315.727 198.005 316.094C198.419 316.457 198.634 316.959 198.649 317.6V320.518C198.649 321.1 198.724 321.562 198.872 321.906V322H197.735ZM195.937 321.174C196.276 321.174 196.599 321.086 196.903 320.91C197.208 320.734 197.429 320.506 197.565 320.225V318.924H196.716C195.388 318.924 194.724 319.312 194.724 320.09C194.724 320.43 194.837 320.695 195.063 320.887C195.29 321.078 195.581 321.174 195.937 321.174ZM200.085 318.777C200.085 317.805 200.315 317.023 200.776 316.434C201.237 315.84 201.841 315.543 202.587 315.543C203.329 315.543 203.917 315.797 204.351 316.305V313H205.435V322H204.438L204.386 321.32C203.952 321.852 203.349 322.117 202.575 322.117C201.841 322.117 201.241 321.816 200.776 321.215C200.315 320.613 200.085 319.828 200.085 318.859V318.777ZM201.169 318.9C201.169 319.619 201.317 320.182 201.614 320.588C201.911 320.994 202.321 321.197 202.845 321.197C203.532 321.197 204.034 320.889 204.351 320.271V317.359C204.026 316.762 203.528 316.463 202.856 316.463C202.325 316.463 201.911 316.668 201.614 317.078C201.317 317.488 201.169 318.096 201.169 318.9ZM214.013 322C213.95 321.875 213.899 321.652 213.86 321.332C213.356 321.855 212.755 322.117 212.056 322.117C211.431 322.117 210.917 321.941 210.515 321.59C210.116 321.234 209.917 320.785 209.917 320.242C209.917 319.582 210.167 319.07 210.667 318.707C211.171 318.34 211.878 318.156 212.788 318.156H213.843V317.658C213.843 317.279 213.729 316.979 213.503 316.756C213.276 316.529 212.942 316.416 212.501 316.416C212.114 316.416 211.79 316.514 211.528 316.709C211.267 316.904 211.136 317.141 211.136 317.418H210.046C210.046 317.102 210.157 316.797 210.38 316.504C210.606 316.207 210.911 315.973 211.294 315.801C211.681 315.629 212.104 315.543 212.565 315.543C213.296 315.543 213.868 315.727 214.282 316.094C214.696 316.457 214.911 316.959 214.927 317.6V320.518C214.927 321.1 215.001 321.562 215.149 321.906V322H214.013ZM212.214 321.174C212.554 321.174 212.876 321.086 213.181 320.91C213.485 320.734 213.706 320.506 213.843 320.225V318.924H212.993C211.665 318.924 211.001 319.312 211.001 320.09C211.001 320.43 211.114 320.695 211.341 320.887C211.567 321.078 211.858 321.174 212.214 321.174ZM216.368 318.777C216.368 317.789 216.597 317.004 217.054 316.422C217.511 315.836 218.116 315.543 218.87 315.543C219.644 315.543 220.247 315.816 220.681 316.363L220.733 315.66H221.724V321.848C221.724 322.668 221.479 323.314 220.991 323.787C220.507 324.26 219.854 324.496 219.034 324.496C218.577 324.496 218.13 324.398 217.692 324.203C217.255 324.008 216.921 323.74 216.69 323.4L217.253 322.75C217.718 323.324 218.286 323.611 218.958 323.611C219.485 323.611 219.896 323.463 220.188 323.166C220.485 322.869 220.634 322.451 220.634 321.912V321.367C220.2 321.867 219.608 322.117 218.858 322.117C218.116 322.117 217.515 321.818 217.054 321.221C216.597 320.623 216.368 319.809 216.368 318.777ZM217.458 318.9C217.458 319.615 217.604 320.178 217.897 320.588C218.19 320.994 218.601 321.197 219.128 321.197C219.812 321.197 220.313 320.887 220.634 320.266V317.371C220.302 316.766 219.804 316.463 219.14 316.463C218.612 316.463 218.2 316.668 217.903 317.078C217.606 317.488 217.458 318.096 217.458 318.9ZM227.278 322C227.216 321.875 227.165 321.652 227.126 321.332C226.622 321.855 226.021 322.117 225.321 322.117C224.696 322.117 224.183 321.941 223.78 321.59C223.382 321.234 223.183 320.785 223.183 320.242C223.183 319.582 223.433 319.07 223.933 318.707C224.437 318.34 225.144 318.156 226.054 318.156H227.108V317.658C227.108 317.279 226.995 316.979 226.769 316.756C226.542 316.529 226.208 316.416 225.767 316.416C225.38 316.416 225.056 316.514 224.794 316.709C224.532 316.904 224.401 317.141 224.401 317.418H223.312C223.312 317.102 223.423 316.797 223.646 316.504C223.872 316.207 224.177 315.973 224.56 315.801C224.946 315.629 225.37 315.543 225.831 315.543C226.562 315.543 227.134 315.727 227.548 316.094C227.962 316.457 228.177 316.959 228.192 317.6V320.518C228.192 321.1 228.267 321.562 228.415 321.906V322H227.278ZM225.479 321.174C225.819 321.174 226.142 321.086 226.446 320.91C226.751 320.734 226.972 320.506 227.108 320.225V318.924H226.259C224.931 318.924 224.267 319.312 224.267 320.09C224.267 320.43 224.38 320.695 224.606 320.887C224.833 321.078 225.124 321.174 225.479 321.174ZM231.069 322H229.985V315.66H231.069V322ZM229.897 313.979C229.897 313.803 229.95 313.654 230.056 313.533C230.165 313.412 230.325 313.352 230.536 313.352C230.747 313.352 230.907 313.412 231.017 313.533C231.126 313.654 231.181 313.803 231.181 313.979C231.181 314.154 231.126 314.301 231.017 314.418C230.907 314.535 230.747 314.594 230.536 314.594C230.325 314.594 230.165 314.535 230.056 314.418C229.95 314.301 229.897 314.154 229.897 313.979ZM233.835 315.66L233.87 316.457C234.354 315.848 234.987 315.543 235.769 315.543C237.108 315.543 237.784 316.299 237.796 317.811V322H236.712V317.805C236.708 317.348 236.603 317.01 236.396 316.791C236.192 316.572 235.874 316.463 235.44 316.463C235.089 316.463 234.78 316.557 234.515 316.744C234.249 316.932 234.042 317.178 233.894 317.482V322H232.81V315.66H233.835ZM243.122 320.318C243.122 320.025 243.011 319.799 242.788 319.639C242.569 319.475 242.185 319.334 241.634 319.217C241.087 319.1 240.651 318.959 240.327 318.795C240.007 318.631 239.769 318.436 239.612 318.209C239.46 317.982 239.384 317.713 239.384 317.4C239.384 316.881 239.603 316.441 240.04 316.082C240.481 315.723 241.044 315.543 241.728 315.543C242.446 315.543 243.028 315.729 243.474 316.1C243.923 316.471 244.147 316.945 244.147 317.523H243.058C243.058 317.227 242.931 316.971 242.677 316.756C242.427 316.541 242.11 316.434 241.728 316.434C241.333 316.434 241.024 316.52 240.802 316.691C240.579 316.863 240.468 317.088 240.468 317.365C240.468 317.627 240.571 317.824 240.778 317.957C240.985 318.09 241.358 318.217 241.897 318.338C242.44 318.459 242.88 318.604 243.216 318.771C243.552 318.939 243.8 319.143 243.96 319.381C244.124 319.615 244.206 319.902 244.206 320.242C244.206 320.809 243.979 321.264 243.526 321.607C243.073 321.947 242.485 322.117 241.763 322.117C241.255 322.117 240.806 322.027 240.415 321.848C240.024 321.668 239.718 321.418 239.495 321.098C239.276 320.773 239.167 320.424 239.167 320.049H240.251C240.271 320.412 240.415 320.701 240.685 320.916C240.958 321.127 241.317 321.232 241.763 321.232C242.173 321.232 242.501 321.15 242.747 320.986C242.997 320.818 243.122 320.596 243.122 320.318ZM247.089 314.125V315.66H248.272V316.498H247.089V320.43C247.089 320.684 247.142 320.875 247.247 321.004C247.353 321.129 247.532 321.191 247.786 321.191C247.911 321.191 248.083 321.168 248.302 321.121V322C248.017 322.078 247.739 322.117 247.47 322.117C246.985 322.117 246.62 321.971 246.374 321.678C246.128 321.385 246.005 320.969 246.005 320.43V316.498H244.851V315.66H246.005V314.125H247.089ZM253.991 314.125V315.66H255.175V316.498H253.991V320.43C253.991 320.684 254.044 320.875 254.149 321.004C254.255 321.129 254.435 321.191 254.688 321.191C254.813 321.191 254.985 321.168 255.204 321.121V322C254.919 322.078 254.642 322.117 254.372 322.117C253.888 322.117 253.522 321.971 253.276 321.678C253.03 321.385 252.907 320.969 252.907 320.43V316.498H251.753V315.66H252.907V314.125H253.991ZM257.53 316.428C258.011 315.838 258.636 315.543 259.405 315.543C260.745 315.543 261.421 316.299 261.433 317.811V322H260.349V317.805C260.345 317.348 260.239 317.01 260.032 316.791C259.829 316.572 259.511 316.463 259.077 316.463C258.726 316.463 258.417 316.557 258.151 316.744C257.886 316.932 257.679 317.178 257.53 317.482V322H256.446V313H257.53V316.428ZM265.687 322.117C264.827 322.117 264.128 321.836 263.589 321.273C263.05 320.707 262.78 319.951 262.78 319.006V318.807C262.78 318.178 262.899 317.617 263.138 317.125C263.38 316.629 263.716 316.242 264.146 315.965C264.579 315.684 265.048 315.543 265.552 315.543C266.376 315.543 267.017 315.814 267.474 316.357C267.931 316.9 268.159 317.678 268.159 318.689V319.141H263.864C263.88 319.766 264.062 320.271 264.409 320.658C264.761 321.041 265.206 321.232 265.745 321.232C266.128 321.232 266.452 321.154 266.718 320.998C266.983 320.842 267.216 320.635 267.415 320.377L268.077 320.893C267.546 321.709 266.749 322.117 265.687 322.117ZM265.552 316.434C265.114 316.434 264.747 316.594 264.45 316.914C264.153 317.23 263.97 317.676 263.899 318.25H267.075V318.168C267.044 317.617 266.896 317.191 266.63 316.891C266.364 316.586 266.005 316.434 265.552 316.434ZM270.597 322H269.513V315.66H270.597V322ZM269.425 313.979C269.425 313.803 269.478 313.654 269.583 313.533C269.692 313.412 269.853 313.352 270.063 313.352C270.274 313.352 270.435 313.412 270.544 313.533C270.653 313.654 270.708 313.803 270.708 313.979C270.708 314.154 270.653 314.301 270.544 314.418C270.435 314.535 270.274 314.594 270.063 314.594C269.853 314.594 269.692 314.535 269.583 314.418C269.478 314.301 269.425 314.154 269.425 313.979ZM275.401 316.633C275.237 316.605 275.06 316.592 274.868 316.592C274.157 316.592 273.675 316.895 273.421 317.5V322H272.337V315.66H273.392L273.409 316.393C273.765 315.826 274.269 315.543 274.921 315.543C275.132 315.543 275.292 315.57 275.401 315.625V316.633ZM70.1885 336.9C70.1885 337.869 69.9658 338.648 69.5205 339.238C69.0752 339.824 68.4775 340.117 67.7275 340.117C66.9268 340.117 66.3076 339.834 65.8701 339.268L65.8174 340H64.8213V331H65.9053V334.357C66.3428 333.814 66.9463 333.543 67.7158 333.543C68.4854 333.543 69.0889 333.834 69.5264 334.416C69.9678 334.998 70.1885 335.795 70.1885 336.807V336.9ZM69.1045 336.777C69.1045 336.039 68.9619 335.469 68.6768 335.066C68.3916 334.664 67.9814 334.463 67.4463 334.463C66.7314 334.463 66.2178 334.795 65.9053 335.459V338.201C66.2373 338.865 66.7549 339.197 67.458 339.197C67.9775 339.197 68.3818 338.996 68.6709 338.594C68.96 338.191 69.1045 337.586 69.1045 336.777ZM75.4736 340C75.4111 339.875 75.3604 339.652 75.3213 339.332C74.8174 339.855 74.2158 340.117 73.5166 340.117C72.8916 340.117 72.3779 339.941 71.9756 339.59C71.5771 339.234 71.3779 338.785 71.3779 338.242C71.3779 337.582 71.6279 337.07 72.1279 336.707C72.6318 336.34 73.3389 336.156 74.249 336.156H75.3037V335.658C75.3037 335.279 75.1904 334.979 74.9639 334.756C74.7373 334.529 74.4033 334.416 73.9619 334.416C73.5752 334.416 73.251 334.514 72.9893 334.709C72.7275 334.904 72.5967 335.141 72.5967 335.418H71.5068C71.5068 335.102 71.6182 334.797 71.8408 334.504C72.0674 334.207 72.3721 333.973 72.7549 333.801C73.1416 333.629 73.5654 333.543 74.0264 333.543C74.7568 333.543 75.3291 333.727 75.7432 334.094C76.1572 334.457 76.3721 334.959 76.3877 335.6V338.518C76.3877 339.1 76.4619 339.562 76.6104 339.906V340H75.4736ZM73.6748 339.174C74.0146 339.174 74.3369 339.086 74.6416 338.91C74.9463 338.734 75.167 338.506 75.3037 338.225V336.924H74.4541C73.126 336.924 72.4619 337.312 72.4619 338.09C72.4619 338.43 72.5752 338.695 72.8018 338.887C73.0283 339.078 73.3193 339.174 73.6748 339.174ZM80.6299 339.232C81.0166 339.232 81.3545 339.115 81.6436 338.881C81.9326 338.646 82.0928 338.354 82.124 338.002H83.1494C83.1299 338.365 83.0049 338.711 82.7744 339.039C82.5439 339.367 82.2354 339.629 81.8486 339.824C81.4658 340.02 81.0596 340.117 80.6299 340.117C79.7666 340.117 79.0791 339.83 78.5674 339.256C78.0596 338.678 77.8057 337.889 77.8057 336.889V336.707C77.8057 336.09 77.9189 335.541 78.1455 335.061C78.3721 334.58 78.6963 334.207 79.1182 333.941C79.5439 333.676 80.0459 333.543 80.624 333.543C81.335 333.543 81.9248 333.756 82.3936 334.182C82.8662 334.607 83.1182 335.16 83.1494 335.84H82.124C82.0928 335.43 81.9365 335.094 81.6553 334.832C81.3779 334.566 81.0342 334.434 80.624 334.434C80.0732 334.434 79.6455 334.633 79.3408 335.031C79.04 335.426 78.8896 335.998 78.8896 336.748V336.953C78.8896 337.684 79.04 338.246 79.3408 338.641C79.6416 339.035 80.0713 339.232 80.6299 339.232ZM86.1377 337.064L85.458 337.773V340H84.374V331H85.458V336.443L86.0381 335.746L88.0127 333.66H89.3311L86.8643 336.309L89.6182 340H88.3467L86.1377 337.064ZM90.0752 336.777C90.0752 335.789 90.3037 335.004 90.7607 334.422C91.2178 333.836 91.8232 333.543 92.5771 333.543C93.3506 333.543 93.9541 333.816 94.3877 334.363L94.4404 333.66H95.4307V339.848C95.4307 340.668 95.1865 341.314 94.6982 341.787C94.2139 342.26 93.5615 342.496 92.7412 342.496C92.2842 342.496 91.8369 342.398 91.3994 342.203C90.9619 342.008 90.6279 341.74 90.3975 341.4L90.96 340.75C91.4248 341.324 91.9932 341.611 92.665 341.611C93.1924 341.611 93.6025 341.463 93.8955 341.166C94.1924 340.869 94.3408 340.451 94.3408 339.912V339.367C93.9072 339.867 93.3154 340.117 92.5654 340.117C91.8232 340.117 91.2217 339.818 90.7607 339.221C90.3037 338.623 90.0752 337.809 90.0752 336.777ZM91.165 336.9C91.165 337.615 91.3115 338.178 91.6045 338.588C91.8975 338.994 92.3076 339.197 92.835 339.197C93.5186 339.197 94.0205 338.887 94.3408 338.266V335.371C94.0088 334.766 93.5107 334.463 92.8467 334.463C92.3193 334.463 91.9072 334.668 91.6104 335.078C91.3135 335.488 91.165 336.096 91.165 336.9ZM100.136 334.633C99.9717 334.605 99.7939 334.592 99.6025 334.592C98.8916 334.592 98.4092 334.895 98.1553 335.5V340H97.0713V333.66H98.126L98.1436 334.393C98.499 333.826 99.0029 333.543 99.6553 333.543C99.8662 333.543 100.026 333.57 100.136 333.625V334.633ZM100.733 336.771C100.733 336.15 100.854 335.592 101.097 335.096C101.343 334.6 101.683 334.217 102.116 333.947C102.554 333.678 103.052 333.543 103.61 333.543C104.474 333.543 105.171 333.842 105.702 334.439C106.237 335.037 106.505 335.832 106.505 336.824V336.9C106.505 337.518 106.386 338.072 106.147 338.564C105.913 339.053 105.575 339.434 105.134 339.707C104.696 339.98 104.192 340.117 103.622 340.117C102.763 340.117 102.065 339.818 101.53 339.221C100.999 338.623 100.733 337.832 100.733 336.848V336.771ZM101.823 336.9C101.823 337.604 101.985 338.168 102.31 338.594C102.638 339.02 103.075 339.232 103.622 339.232C104.173 339.232 104.61 339.018 104.935 338.588C105.259 338.154 105.421 337.549 105.421 336.771C105.421 336.076 105.255 335.514 104.923 335.084C104.595 334.65 104.157 334.434 103.61 334.434C103.075 334.434 102.644 334.646 102.315 335.072C101.987 335.498 101.823 336.107 101.823 336.9ZM111.778 339.373C111.356 339.869 110.737 340.117 109.921 340.117C109.245 340.117 108.729 339.922 108.374 339.531C108.022 339.137 107.845 338.555 107.841 337.785V333.66H108.925V337.756C108.925 338.717 109.315 339.197 110.097 339.197C110.925 339.197 111.476 338.889 111.749 338.271V333.66H112.833V340H111.802L111.778 339.373ZM115.511 333.66L115.546 334.457C116.03 333.848 116.663 333.543 117.444 333.543C118.784 333.543 119.46 334.299 119.472 335.811V340H118.388V335.805C118.384 335.348 118.278 335.01 118.071 334.791C117.868 334.572 117.55 334.463 117.116 334.463C116.765 334.463 116.456 334.557 116.19 334.744C115.925 334.932 115.718 335.178 115.569 335.482V340H114.485V333.66H115.511ZM120.843 336.777C120.843 335.805 121.073 335.023 121.534 334.434C121.995 333.84 122.599 333.543 123.345 333.543C124.087 333.543 124.675 333.797 125.108 334.305V331H126.192V340H125.196L125.144 339.32C124.71 339.852 124.106 340.117 123.333 340.117C122.599 340.117 121.999 339.816 121.534 339.215C121.073 338.613 120.843 337.828 120.843 336.859V336.777ZM121.927 336.9C121.927 337.619 122.075 338.182 122.372 338.588C122.669 338.994 123.079 339.197 123.603 339.197C124.29 339.197 124.792 338.889 125.108 338.271V335.359C124.784 334.762 124.286 334.463 123.614 334.463C123.083 334.463 122.669 334.668 122.372 335.078C122.075 335.488 121.927 336.096 121.927 336.9ZM133.399 339.232C133.786 339.232 134.124 339.115 134.413 338.881C134.702 338.646 134.862 338.354 134.894 338.002H135.919C135.899 338.365 135.774 338.711 135.544 339.039C135.313 339.367 135.005 339.629 134.618 339.824C134.235 340.02 133.829 340.117 133.399 340.117C132.536 340.117 131.849 339.83 131.337 339.256C130.829 338.678 130.575 337.889 130.575 336.889V336.707C130.575 336.09 130.688 335.541 130.915 335.061C131.142 334.58 131.466 334.207 131.888 333.941C132.313 333.676 132.815 333.543 133.394 333.543C134.104 333.543 134.694 333.756 135.163 334.182C135.636 334.607 135.888 335.16 135.919 335.84H134.894C134.862 335.43 134.706 335.094 134.425 334.832C134.147 334.566 133.804 334.434 133.394 334.434C132.843 334.434 132.415 334.633 132.11 335.031C131.81 335.426 131.659 335.998 131.659 336.748V336.953C131.659 337.684 131.81 338.246 132.11 338.641C132.411 339.035 132.841 339.232 133.399 339.232ZM136.851 336.771C136.851 336.15 136.972 335.592 137.214 335.096C137.46 334.6 137.8 334.217 138.233 333.947C138.671 333.678 139.169 333.543 139.728 333.543C140.591 333.543 141.288 333.842 141.819 334.439C142.354 335.037 142.622 335.832 142.622 336.824V336.9C142.622 337.518 142.503 338.072 142.265 338.564C142.03 339.053 141.692 339.434 141.251 339.707C140.813 339.98 140.31 340.117 139.739 340.117C138.88 340.117 138.183 339.818 137.647 339.221C137.116 338.623 136.851 337.832 136.851 336.848V336.771ZM137.94 336.9C137.94 337.604 138.103 338.168 138.427 338.594C138.755 339.02 139.192 339.232 139.739 339.232C140.29 339.232 140.728 339.018 141.052 338.588C141.376 338.154 141.538 337.549 141.538 336.771C141.538 336.076 141.372 335.514 141.04 335.084C140.712 334.65 140.274 334.434 139.728 334.434C139.192 334.434 138.761 334.646 138.433 335.072C138.104 335.498 137.94 336.107 137.94 336.9ZM145.159 340H144.075V331H145.159V340ZM146.612 336.771C146.612 336.15 146.733 335.592 146.976 335.096C147.222 334.6 147.562 334.217 147.995 333.947C148.433 333.678 148.931 333.543 149.489 333.543C150.353 333.543 151.05 333.842 151.581 334.439C152.116 335.037 152.384 335.832 152.384 336.824V336.9C152.384 337.518 152.265 338.072 152.026 338.564C151.792 339.053 151.454 339.434 151.013 339.707C150.575 339.98 150.071 340.117 149.501 340.117C148.642 340.117 147.944 339.818 147.409 339.221C146.878 338.623 146.612 337.832 146.612 336.848V336.771ZM147.702 336.9C147.702 337.604 147.864 338.168 148.188 338.594C148.517 339.02 148.954 339.232 149.501 339.232C150.052 339.232 150.489 339.018 150.813 338.588C151.138 338.154 151.3 337.549 151.3 336.771C151.3 336.076 151.134 335.514 150.802 335.084C150.474 334.65 150.036 334.434 149.489 334.434C148.954 334.434 148.522 334.646 148.194 335.072C147.866 335.498 147.702 336.107 147.702 336.9ZM156.808 334.633C156.644 334.605 156.466 334.592 156.274 334.592C155.563 334.592 155.081 334.895 154.827 335.5V340H153.743V333.66H154.798L154.815 334.393C155.171 333.826 155.675 333.543 156.327 333.543C156.538 333.543 156.698 333.57 156.808 333.625V334.633ZM161.501 338.318C161.501 338.025 161.39 337.799 161.167 337.639C160.948 337.475 160.563 337.334 160.013 337.217C159.466 337.1 159.03 336.959 158.706 336.795C158.386 336.631 158.147 336.436 157.991 336.209C157.839 335.982 157.763 335.713 157.763 335.4C157.763 334.881 157.981 334.441 158.419 334.082C158.86 333.723 159.423 333.543 160.106 333.543C160.825 333.543 161.407 333.729 161.853 334.1C162.302 334.471 162.526 334.945 162.526 335.523H161.437C161.437 335.227 161.31 334.971 161.056 334.756C160.806 334.541 160.489 334.434 160.106 334.434C159.712 334.434 159.403 334.52 159.181 334.691C158.958 334.863 158.847 335.088 158.847 335.365C158.847 335.627 158.95 335.824 159.157 335.957C159.364 336.09 159.737 336.217 160.276 336.338C160.819 336.459 161.259 336.604 161.595 336.771C161.931 336.939 162.179 337.143 162.339 337.381C162.503 337.615 162.585 337.902 162.585 338.242C162.585 338.809 162.358 339.264 161.905 339.607C161.452 339.947 160.864 340.117 160.142 340.117C159.634 340.117 159.185 340.027 158.794 339.848C158.403 339.668 158.097 339.418 157.874 339.098C157.655 338.773 157.546 338.424 157.546 338.049H158.63C158.649 338.412 158.794 338.701 159.063 338.916C159.337 339.127 159.696 339.232 160.142 339.232C160.552 339.232 160.88 339.15 161.126 338.986C161.376 338.818 161.501 338.596 161.501 338.318ZM164.021 339.432C164.021 339.244 164.075 339.088 164.185 338.963C164.298 338.838 164.466 338.775 164.688 338.775C164.911 338.775 165.079 338.838 165.192 338.963C165.31 339.088 165.368 339.244 165.368 339.432C165.368 339.611 165.31 339.762 165.192 339.883C165.079 340.004 164.911 340.064 164.688 340.064C164.466 340.064 164.298 340.004 164.185 339.883C164.075 339.762 164.021 339.611 164.021 339.432Z" fill="#020E12"/>
<path d="M51.2664 44.293C51.1609 45.1953 50.8269 45.8926 50.2644 46.3848C49.7058 46.873 48.9617 47.1172 48.032 47.1172C47.0242 47.1172 46.2156 46.7559 45.6062 46.0332C45.0007 45.3105 44.698 44.3438 44.698 43.1328V42.3125C44.698 41.5195 44.8386 40.8223 45.1199 40.2207C45.405 39.6191 45.8074 39.1582 46.3269 38.8379C46.8464 38.5137 47.448 38.3516 48.1316 38.3516C49.0378 38.3516 49.7644 38.6055 50.3113 39.1133C50.8582 39.6172 51.1765 40.3164 51.2664 41.2109H50.1355C50.0378 40.5312 49.825 40.0391 49.4968 39.7344C49.1726 39.4297 48.7175 39.2773 48.1316 39.2773C47.4128 39.2773 46.8484 39.543 46.4382 40.0742C46.032 40.6055 45.8289 41.3613 45.8289 42.3418V43.168C45.8289 44.0938 46.0222 44.8301 46.4089 45.377C46.7957 45.9238 47.3367 46.1973 48.032 46.1973C48.657 46.1973 49.1355 46.0566 49.4675 45.7754C49.8035 45.4902 50.0261 44.9961 50.1355 44.293H51.2664ZM52.3503 43.7715C52.3503 43.1504 52.4714 42.5918 52.7136 42.0957C52.9597 41.5996 53.2996 41.2168 53.7332 40.9473C54.1707 40.6777 54.6687 40.543 55.2273 40.543C56.0906 40.543 56.7878 40.8418 57.3191 41.4395C57.8542 42.0371 58.1218 42.832 58.1218 43.8242V43.9004C58.1218 44.5176 58.0027 45.0723 57.7644 45.5645C57.53 46.0527 57.1921 46.4336 56.7507 46.707C56.3132 46.9805 55.8093 47.1172 55.239 47.1172C54.3796 47.1172 53.6824 46.8184 53.1472 46.2207C52.616 45.623 52.3503 44.832 52.3503 43.8477V43.7715ZM53.4402 43.9004C53.4402 44.6035 53.6023 45.168 53.9265 45.5938C54.2546 46.0195 54.6921 46.2324 55.239 46.2324C55.7898 46.2324 56.2273 46.0176 56.5515 45.5879C56.8757 45.1543 57.0378 44.5488 57.0378 43.7715C57.0378 43.0762 56.8718 42.5137 56.5398 42.084C56.2117 41.6504 55.7742 41.4336 55.2273 41.4336C54.6921 41.4336 54.2605 41.6465 53.9324 42.0723C53.6042 42.498 53.4402 43.1074 53.4402 43.9004ZM60.5066 40.6602L60.5417 41.457C61.0261 40.8477 61.6589 40.543 62.4402 40.543C63.78 40.543 64.4558 41.2988 64.4675 42.8105V47H63.3835V42.8047C63.3796 42.3477 63.2742 42.0098 63.0671 41.791C62.864 41.5723 62.5457 41.4629 62.1121 41.4629C61.7605 41.4629 61.4519 41.5566 61.1863 41.7441C60.9207 41.9316 60.7136 42.1777 60.5652 42.4824V47H59.4812V40.6602H60.5066ZM67.573 39.125V40.6602H68.7566V41.498H67.573V45.4297C67.573 45.6836 67.6257 45.875 67.7312 46.0039C67.8367 46.1289 68.0164 46.1914 68.2703 46.1914C68.3953 46.1914 68.5671 46.168 68.7859 46.1211V47C68.5007 47.0781 68.2234 47.1172 67.9539 47.1172C67.4695 47.1172 67.1042 46.9707 66.8582 46.6777C66.6121 46.3848 66.489 45.9688 66.489 45.4297V41.498H65.3347V40.6602H66.489V39.125H67.573ZM73.0925 41.6328C72.9285 41.6055 72.7507 41.5918 72.5593 41.5918C71.8484 41.5918 71.366 41.8945 71.1121 42.5V47H70.0281V40.6602H71.0828L71.1003 41.3926C71.4558 40.8262 71.9597 40.543 72.6121 40.543C72.823 40.543 72.9832 40.5703 73.0925 40.625V41.6328ZM77.7742 47C77.7117 46.875 77.6609 46.6523 77.6218 46.332C77.1179 46.8555 76.5164 47.1172 75.8171 47.1172C75.1921 47.1172 74.6785 46.9414 74.2761 46.5898C73.8777 46.2344 73.6785 45.7852 73.6785 45.2422C73.6785 44.582 73.9285 44.0703 74.4285 43.707C74.9324 43.3398 75.6394 43.1562 76.5496 43.1562H77.6042V42.6582C77.6042 42.2793 77.491 41.9785 77.2644 41.7559C77.0378 41.5293 76.7039 41.416 76.2625 41.416C75.8757 41.416 75.5515 41.5137 75.2898 41.709C75.0281 41.9043 74.8972 42.1406 74.8972 42.418H73.8074C73.8074 42.1016 73.9187 41.7969 74.1414 41.5039C74.3679 41.207 74.6726 40.9727 75.0554 40.8008C75.4421 40.6289 75.866 40.543 76.3269 40.543C77.0574 40.543 77.6296 40.7266 78.0437 41.0938C78.4578 41.457 78.6726 41.959 78.6882 42.5996V45.5176C78.6882 46.0996 78.7625 46.5625 78.9109 46.9062V47H77.7742ZM75.9753 46.1738C76.3152 46.1738 76.6375 46.0859 76.9421 45.9102C77.2468 45.7344 77.4675 45.5059 77.6042 45.2246V43.9238H76.7546C75.4265 43.9238 74.7625 44.3125 74.7625 45.0898C74.7625 45.4297 74.8757 45.6953 75.1023 45.8867C75.3289 46.0781 75.6199 46.1738 75.9753 46.1738ZM84.0789 45.3184C84.0789 45.0254 83.9675 44.7988 83.7449 44.6387C83.5261 44.4746 83.1414 44.334 82.5906 44.2168C82.0437 44.0996 81.6082 43.959 81.2839 43.7949C80.9636 43.6309 80.7253 43.4355 80.5691 43.209C80.4167 42.9824 80.3406 42.7129 80.3406 42.4004C80.3406 41.8809 80.5593 41.4414 80.9968 41.082C81.4382 40.7227 82.0007 40.543 82.6843 40.543C83.4031 40.543 83.9851 40.7285 84.4304 41.0996C84.8796 41.4707 85.1042 41.9453 85.1042 42.5234H84.0144C84.0144 42.2266 83.8875 41.9707 83.6335 41.7559C83.3835 41.541 83.0671 41.4336 82.6843 41.4336C82.2898 41.4336 81.9812 41.5195 81.7585 41.6914C81.5359 41.8633 81.4246 42.0879 81.4246 42.3652C81.4246 42.627 81.5281 42.8242 81.7351 42.957C81.9421 43.0898 82.3152 43.2168 82.8542 43.3379C83.3972 43.459 83.8367 43.6035 84.1726 43.7715C84.5085 43.9395 84.7566 44.1426 84.9167 44.3809C85.0808 44.6152 85.1628 44.9023 85.1628 45.2422C85.1628 45.8086 84.9363 46.2637 84.4832 46.6074C84.03 46.9473 83.4421 47.1172 82.7195 47.1172C82.2117 47.1172 81.7625 47.0273 81.3718 46.8477C80.9812 46.668 80.6746 46.418 80.4519 46.0977C80.2332 45.7734 80.1238 45.4238 80.1238 45.0488H81.2078C81.2273 45.4121 81.3718 45.7012 81.6414 45.916C81.9148 46.127 82.2742 46.2324 82.7195 46.2324C83.1296 46.2324 83.4578 46.1504 83.7039 45.9863C83.9539 45.8184 84.0789 45.5957 84.0789 45.3184ZM88.0457 39.125V40.6602H89.2292V41.498H88.0457V45.4297C88.0457 45.6836 88.0984 45.875 88.2039 46.0039C88.3093 46.1289 88.489 46.1914 88.7429 46.1914C88.8679 46.1914 89.0398 46.168 89.2585 46.1211V47C88.9734 47.0781 88.696 47.1172 88.4265 47.1172C87.9421 47.1172 87.5769 46.9707 87.3308 46.6777C87.0847 46.3848 86.9617 45.9688 86.9617 45.4297V41.498H85.8074V40.6602H86.9617V39.125H88.0457ZM96.7761 43.5488H94.7722V47H93.6414V38.4688H96.4656C97.4265 38.4688 98.1648 38.6875 98.6804 39.125C99.2 39.5625 99.4597 40.1992 99.4597 41.0352C99.4597 41.5664 99.3152 42.0293 99.0261 42.4238C98.741 42.8184 98.3425 43.1133 97.8308 43.3086L99.8347 46.9297V47H98.6277L96.7761 43.5488ZM94.7722 42.6289H96.5007C97.0593 42.6289 97.5027 42.4844 97.8308 42.1953C98.1628 41.9062 98.3289 41.5195 98.3289 41.0352C98.3289 40.5078 98.1707 40.1035 97.8542 39.8223C97.5417 39.541 97.0886 39.3984 96.4949 39.3945H94.7722V42.6289ZM104.786 47C104.723 46.875 104.673 46.6523 104.634 46.332C104.13 46.8555 103.528 47.1172 102.829 47.1172C102.204 47.1172 101.69 46.9414 101.288 46.5898C100.889 46.2344 100.69 45.7852 100.69 45.2422C100.69 44.582 100.94 44.0703 101.44 43.707C101.944 43.3398 102.651 43.1562 103.561 43.1562H104.616V42.6582C104.616 42.2793 104.503 41.9785 104.276 41.7559C104.05 41.5293 103.716 41.416 103.274 41.416C102.887 41.416 102.563 41.5137 102.302 41.709C102.04 41.9043 101.909 42.1406 101.909 42.418H100.819C100.819 42.1016 100.93 41.7969 101.153 41.5039C101.38 41.207 101.684 40.9727 102.067 40.8008C102.454 40.6289 102.878 40.543 103.339 40.543C104.069 40.543 104.641 40.7266 105.055 41.0938C105.469 41.457 105.684 41.959 105.7 42.5996V45.5176C105.7 46.0996 105.774 46.5625 105.923 46.9062V47H104.786ZM102.987 46.1738C103.327 46.1738 103.649 46.0859 103.954 45.9102C104.259 45.7344 104.479 45.5059 104.616 45.2246V43.9238H103.766C102.438 43.9238 101.774 44.3125 101.774 45.0898C101.774 45.4297 101.887 45.6953 102.114 45.8867C102.341 46.0781 102.632 46.1738 102.987 46.1738ZM108.87 39.125V40.6602H110.053V41.498H108.87V45.4297C108.87 45.6836 108.923 45.875 109.028 46.0039C109.134 46.1289 109.313 46.1914 109.567 46.1914C109.692 46.1914 109.864 46.168 110.083 46.1211V47C109.798 47.0781 109.52 47.1172 109.251 47.1172C108.766 47.1172 108.401 46.9707 108.155 46.6777C107.909 46.3848 107.786 45.9688 107.786 45.4297V41.498H106.632V40.6602H107.786V39.125H108.87ZM112.503 47H111.419V40.6602H112.503V47ZM111.331 38.9785C111.331 38.8027 111.384 38.6543 111.489 38.5332C111.598 38.4121 111.759 38.3516 111.969 38.3516C112.18 38.3516 112.341 38.4121 112.45 38.5332C112.559 38.6543 112.614 38.8027 112.614 38.9785C112.614 39.1543 112.559 39.3008 112.45 39.418C112.341 39.5352 112.18 39.5938 111.969 39.5938C111.759 39.5938 111.598 39.5352 111.489 39.418C111.384 39.3008 111.331 39.1543 111.331 38.9785ZM113.956 43.7715C113.956 43.1504 114.077 42.5918 114.319 42.0957C114.565 41.5996 114.905 41.2168 115.339 40.9473C115.776 40.6777 116.274 40.543 116.833 40.543C117.696 40.543 118.393 40.8418 118.925 41.4395C119.46 42.0371 119.727 42.832 119.727 43.8242V43.9004C119.727 44.5176 119.608 45.0723 119.37 45.5645C119.135 46.0527 118.798 46.4336 118.356 46.707C117.919 46.9805 117.415 47.1172 116.844 47.1172C115.985 47.1172 115.288 46.8184 114.753 46.2207C114.221 45.623 113.956 44.832 113.956 43.8477V43.7715ZM115.046 43.9004C115.046 44.6035 115.208 45.168 115.532 45.5938C115.86 46.0195 116.298 46.2324 116.844 46.2324C117.395 46.2324 117.833 46.0176 118.157 45.5879C118.481 45.1543 118.643 44.5488 118.643 43.7715C118.643 43.0762 118.477 42.5137 118.145 42.084C117.817 41.6504 117.38 41.4336 116.833 41.4336C116.298 41.4336 115.866 41.6465 115.538 42.0723C115.21 42.498 115.046 43.1074 115.046 43.9004ZM48.2722 65H47.1824V57.7754L44.9968 58.5781V57.5938L48.1023 56.4277H48.2722V65ZM51.5828 64.4316C51.5828 64.2441 51.6375 64.0879 51.7468 63.9629C51.8601 63.8379 52.0281 63.7754 52.2507 63.7754C52.4734 63.7754 52.6414 63.8379 52.7546 63.9629C52.8718 64.0879 52.9304 64.2441 52.9304 64.4316C52.9304 64.6113 52.8718 64.7617 52.7546 64.8828C52.6414 65.0039 52.4734 65.0645 52.2507 65.0645C52.0281 65.0645 51.8601 65.0039 51.7468 64.8828C51.6375 64.7617 51.5828 64.6113 51.5828 64.4316ZM60.2019 65H54.6121V64.2207L57.5652 60.9395C58.0027 60.4434 58.3035 60.041 58.4675 59.7324C58.6355 59.4199 58.7195 59.0977 58.7195 58.7656C58.7195 58.3203 58.5847 57.9551 58.3152 57.6699C58.0457 57.3848 57.6863 57.2422 57.2371 57.2422C56.698 57.2422 56.2781 57.3965 55.9773 57.7051C55.6804 58.0098 55.532 58.4355 55.532 58.9824H54.448C54.448 58.1973 54.7 57.5625 55.2039 57.0781C55.7117 56.5938 56.3894 56.3516 57.2371 56.3516C58.03 56.3516 58.657 56.5605 59.1179 56.9785C59.5789 57.3926 59.8093 57.9453 59.8093 58.6367C59.8093 59.4766 59.2742 60.4766 58.2039 61.6367L55.9187 64.1152H60.2019V65ZM65.9265 62.1348H67.1101V63.0195H65.9265V65H64.8367V63.0195H60.9519V62.3809L64.7722 56.4688H65.9265V62.1348ZM62.1824 62.1348H64.8367V57.9512L64.7078 58.1855L62.1824 62.1348ZM68.1648 64.4316C68.1648 64.2441 68.2195 64.0879 68.3289 63.9629C68.4421 63.8379 68.6101 63.7754 68.8328 63.7754C69.0554 63.7754 69.2234 63.8379 69.3367 63.9629C69.4539 64.0879 69.5125 64.2441 69.5125 64.4316C69.5125 64.6113 69.4539 64.7617 69.3367 64.8828C69.2234 65.0039 69.0554 65.0645 68.8328 65.0645C68.6101 65.0645 68.4421 65.0039 68.3289 64.8828C68.2195 64.7617 68.1648 64.6113 68.1648 64.4316ZM68.1707 59.2578C68.1707 59.0703 68.2253 58.9141 68.3347 58.7891C68.448 58.6641 68.616 58.6016 68.8386 58.6016C69.0613 58.6016 69.2292 58.6641 69.3425 58.7891C69.4597 58.9141 69.5183 59.0703 69.5183 59.2578C69.5183 59.4375 69.4597 59.5879 69.3425 59.709C69.2292 59.8301 69.0613 59.8906 68.8386 59.8906C68.616 59.8906 68.448 59.8301 68.3347 59.709C68.2253 59.5879 68.1707 59.4375 68.1707 59.2578ZM74.5574 65H73.4675V57.7754L71.282 58.5781V57.5938L74.3875 56.4277H74.5574V65Z" fill="#020E12"/>
<defs>
<filter id="filter0_ddd" x="0.000488281" y="0" width="349" height="399" filterUnits="userSpaceOnUse" color-interpolation-filters="sRGB">
<feFlood flood-opacity="0" result="BackgroundImageFix"/>
<feColorMatrix in="SourceAlpha" type="matrix" values="0 0 0 0 0 0 0 0 0 0 0 0 0 0 0 0 0 0 127 0"/>
<feOffset/>
<feGaussianBlur stdDeviation="0.5"/>
<feColorMatrix type="matrix" values="0 0 0 0 0 0 0 0 0 0 0 0 0 0 0 0 0 0 0.04 0"/>
<feBlend mode="normal" in2="BackgroundImageFix" result="effect1_dropShadow"/>
<feColorMatrix in="SourceAlpha" type="matrix" values="0 0 0 0 0 0 0 0 0 0 0 0 0 0 0 0 0 0 127 0"/>
<feOffset dy="2"/>
<feGaussianBlur stdDeviation="3"/>
<feColorMatrix type="matrix" values="0 0 0 0 0 0 0 0 0 0 0 0 0 0 0 0 0 0 0.04 0"/>
<feBlend mode="normal" in2="effect1_dropShadow" result="effect2_dropShadow"/>
<feColorMatrix in="SourceAlpha" type="matrix" values="0 0 0 0 0 0 0 0 0 0 0 0 0 0 0 0 0 0 127 0"/>
<feOffset dy="10"/>
<feGaussianBlur stdDeviation="10"/>
<feColorMatrix type="matrix" values="0 0 0 0 0 0 0 0 0 0 0 0 0 0 0 0 0 0 0.04 0"/>
<feBlend mode="normal" in2="effect2_dropShadow" result="effect3_dropShadow"/>
<feBlend mode="normal" in="SourceGraphic" in2="effect3_dropShadow" result="shape"/>
</filter>
</defs>
</svg>
