<svg width="349" height="399" viewBox="0 0 349 399" fill="none" xmlns="http://www.w3.org/2000/svg">
<g filter="url(#filter0_ddd)">
<rect x="20" y="10" width="309" height="359" rx="4" fill="white"/>
<rect x="20.5" y="10.5" width="308" height="358" rx="3.5" stroke="#E2E7E9"/>
</g>
<path fill-rule="evenodd" clip-rule="evenodd" d="M174.178 117.23C172.192 117.23 170.288 118.015 168.883 119.412L119.098 168.922C118.395 169.621 118 170.57 118 171.559C118 172.548 118.395 173.496 119.098 174.196C119.802 174.895 120.755 175.288 121.75 175.288C122.744 175.288 123.698 174.895 124.401 174.196L129.241 169.381V208.807C129.241 211.771 130.425 214.613 132.532 216.708C134.638 218.804 137.496 219.981 140.476 219.981H207.884C210.863 219.981 213.721 218.804 215.828 216.708C217.935 214.613 219.118 211.771 219.118 208.807V169.384L223.955 174.196C224.659 174.895 225.612 175.288 226.607 175.288C227.601 175.288 228.555 174.895 229.258 174.196C229.961 173.496 230.356 172.548 230.356 171.559C230.356 170.57 229.961 169.621 229.258 168.922L211.629 151.389V126.862C211.629 125.874 211.234 124.926 210.532 124.228C209.829 123.529 208.877 123.137 207.884 123.137H200.394C199.401 123.137 198.448 123.529 197.746 124.228C197.043 124.926 196.649 125.874 196.649 126.862V136.492L179.474 119.412C178.069 118.015 176.164 117.23 174.178 117.23ZM211.629 161.933L174.178 124.678L136.731 161.931V208.807C136.731 209.795 137.125 210.742 137.828 211.441C138.53 212.139 139.482 212.532 140.476 212.532H207.884C208.877 212.532 209.829 212.139 210.532 211.441C211.234 210.742 211.629 209.795 211.629 208.807V161.933Z" fill="#020E12"/>
<path d="M50.8845 278.395H48.1423V286H47.0232V278.395H44.2869V277.469H50.8845V278.395ZM53.0642 280.428C53.5447 279.838 54.1697 279.543 54.9392 279.543C56.2791 279.543 56.9548 280.299 56.9666 281.811V286H55.8826V281.805C55.8787 281.348 55.7732 281.01 55.5662 280.791C55.363 280.572 55.0447 280.463 54.6111 280.463C54.2595 280.463 53.9509 280.557 53.6853 280.744C53.4197 280.932 53.2126 281.178 53.0642 281.482V286H51.9802V277H53.0642V280.428ZM61.2205 286.117C60.3611 286.117 59.6619 285.836 59.1228 285.273C58.5837 284.707 58.3142 283.951 58.3142 283.006V282.807C58.3142 282.178 58.4333 281.617 58.6716 281.125C58.9138 280.629 59.2498 280.242 59.6794 279.965C60.113 279.684 60.5818 279.543 61.0857 279.543C61.9099 279.543 62.5505 279.814 63.0076 280.357C63.4646 280.9 63.6931 281.678 63.6931 282.689V283.141H59.3982C59.4138 283.766 59.5955 284.271 59.9431 284.658C60.2947 285.041 60.74 285.232 61.2791 285.232C61.6619 285.232 61.9861 285.154 62.2517 284.998C62.5173 284.842 62.7498 284.635 62.949 284.377L63.6111 284.893C63.0798 285.709 62.283 286.117 61.2205 286.117ZM61.0857 280.434C60.6482 280.434 60.281 280.594 59.9841 280.914C59.6873 281.23 59.5037 281.676 59.4333 282.25H62.6091V282.168C62.5779 281.617 62.4294 281.191 62.1638 280.891C61.8982 280.586 61.5388 280.434 61.0857 280.434ZM68.6443 284.318C68.6443 284.025 68.533 283.799 68.3103 283.639C68.0916 283.475 67.7068 283.334 67.156 283.217C66.6091 283.1 66.1736 282.959 65.8494 282.795C65.5291 282.631 65.2908 282.436 65.1345 282.209C64.9822 281.982 64.906 281.713 64.906 281.4C64.906 280.881 65.1248 280.441 65.5623 280.082C66.0037 279.723 66.5662 279.543 67.2498 279.543C67.9685 279.543 68.5505 279.729 68.9958 280.1C69.4451 280.471 69.6697 280.945 69.6697 281.523H68.5798C68.5798 281.227 68.4529 280.971 68.199 280.756C67.949 280.541 67.6326 280.434 67.2498 280.434C66.8552 280.434 66.5466 280.52 66.324 280.691C66.1013 280.863 65.99 281.088 65.99 281.365C65.99 281.627 66.0935 281.824 66.3005 281.957C66.5076 282.09 66.8806 282.217 67.4197 282.338C67.9626 282.459 68.4021 282.604 68.738 282.771C69.074 282.939 69.322 283.143 69.4822 283.381C69.6462 283.615 69.7283 283.902 69.7283 284.242C69.7283 284.809 69.5017 285.264 69.0486 285.607C68.5955 285.947 68.0076 286.117 67.2849 286.117C66.7771 286.117 66.3279 286.027 65.9373 285.848C65.5466 285.668 65.24 285.418 65.0173 285.098C64.7986 284.773 64.6892 284.424 64.6892 284.049H65.7732C65.7927 284.412 65.9373 284.701 66.2068 284.916C66.4802 285.127 66.8396 285.232 67.2849 285.232C67.6951 285.232 68.0232 285.15 68.2693 284.986C68.5193 284.818 68.6443 284.596 68.6443 284.318ZM73.7712 286.117C72.9119 286.117 72.2126 285.836 71.6736 285.273C71.1345 284.707 70.865 283.951 70.865 283.006V282.807C70.865 282.178 70.9841 281.617 71.2224 281.125C71.4646 280.629 71.8005 280.242 72.2302 279.965C72.6638 279.684 73.1326 279.543 73.6365 279.543C74.4607 279.543 75.1013 279.814 75.5583 280.357C76.0154 280.9 76.2439 281.678 76.2439 282.689V283.141H71.949C71.9646 283.766 72.1462 284.271 72.4939 284.658C72.8455 285.041 73.2908 285.232 73.8298 285.232C74.2126 285.232 74.5369 285.154 74.8025 284.998C75.0681 284.842 75.3005 284.635 75.4998 284.377L76.1619 284.893C75.6306 285.709 74.8337 286.117 73.7712 286.117ZM73.6365 280.434C73.199 280.434 72.8318 280.594 72.5349 280.914C72.238 281.23 72.0544 281.676 71.9841 282.25H75.1599V282.168C75.1287 281.617 74.9802 281.191 74.7146 280.891C74.449 280.586 74.0896 280.434 73.6365 280.434ZM81.9509 278.125V279.66H83.1345V280.498H81.9509V284.43C81.9509 284.684 82.0037 284.875 82.1091 285.004C82.2146 285.129 82.3943 285.191 82.6482 285.191C82.7732 285.191 82.9451 285.168 83.1638 285.121V286C82.8787 286.078 82.6013 286.117 82.3318 286.117C81.8474 286.117 81.4822 285.971 81.2361 285.678C80.99 285.385 80.8669 284.969 80.8669 284.43V280.498H79.7126V279.66H80.8669V278.125H81.9509ZM87.0369 286.117C86.1775 286.117 85.4783 285.836 84.9392 285.273C84.4001 284.707 84.1306 283.951 84.1306 283.006V282.807C84.1306 282.178 84.2498 281.617 84.488 281.125C84.7302 280.629 85.0662 280.242 85.4958 279.965C85.9294 279.684 86.3982 279.543 86.9021 279.543C87.7263 279.543 88.3669 279.814 88.824 280.357C89.281 280.9 89.5095 281.678 89.5095 282.689V283.141H85.2146C85.2302 283.766 85.4119 284.271 85.7595 284.658C86.1111 285.041 86.5564 285.232 87.0955 285.232C87.4783 285.232 87.8025 285.154 88.0681 284.998C88.3337 284.842 88.5662 284.635 88.7654 284.377L89.4275 284.893C88.8962 285.709 88.0994 286.117 87.0369 286.117ZM86.9021 280.434C86.4646 280.434 86.0974 280.594 85.8005 280.914C85.5037 281.23 85.3201 281.676 85.2498 282.25H88.4255V282.168C88.3943 281.617 88.2458 281.191 87.9802 280.891C87.7146 280.586 87.3552 280.434 86.9021 280.434ZM92.8962 281.975L94.3025 279.66H95.5681L93.4939 282.795L95.6326 286H94.3787L92.9138 283.627L91.449 286H90.1892L92.3279 282.795L90.2537 279.66H91.5076L92.8962 281.975ZM98.1931 278.125V279.66H99.3767V280.498H98.1931V284.43C98.1931 284.684 98.2458 284.875 98.3513 285.004C98.4568 285.129 98.6365 285.191 98.8904 285.191C99.0154 285.191 99.1873 285.168 99.406 285.121V286C99.1208 286.078 98.8435 286.117 98.574 286.117C98.0896 286.117 97.7244 285.971 97.4783 285.678C97.2322 285.385 97.1091 284.969 97.1091 284.43V280.498H95.9548V279.66H97.1091V278.125H98.1931ZM107.539 286C107.476 285.875 107.426 285.652 107.386 285.332C106.883 285.855 106.281 286.117 105.582 286.117C104.957 286.117 104.443 285.941 104.041 285.59C103.642 285.234 103.443 284.785 103.443 284.242C103.443 283.582 103.693 283.07 104.193 282.707C104.697 282.34 105.404 282.156 106.314 282.156H107.369V281.658C107.369 281.279 107.256 280.979 107.029 280.756C106.802 280.529 106.469 280.416 106.027 280.416C105.64 280.416 105.316 280.514 105.054 280.709C104.793 280.904 104.662 281.141 104.662 281.418H103.572C103.572 281.102 103.683 280.797 103.906 280.504C104.133 280.207 104.437 279.973 104.82 279.801C105.207 279.629 105.631 279.543 106.092 279.543C106.822 279.543 107.394 279.727 107.808 280.094C108.222 280.457 108.437 280.959 108.453 281.6V284.518C108.453 285.1 108.527 285.562 108.676 285.906V286H107.539ZM105.74 285.174C106.08 285.174 106.402 285.086 106.707 284.91C107.011 284.734 107.232 284.506 107.369 284.225V282.924H106.519C105.191 282.924 104.527 283.312 104.527 284.09C104.527 284.43 104.64 284.695 104.867 284.887C105.094 285.078 105.385 285.174 105.74 285.174ZM111.177 279.66L111.213 280.457C111.697 279.848 112.33 279.543 113.111 279.543C114.451 279.543 115.127 280.299 115.138 281.811V286H114.054V281.805C114.051 281.348 113.945 281.01 113.738 280.791C113.535 280.572 113.217 280.463 112.783 280.463C112.431 280.463 112.123 280.557 111.857 280.744C111.592 280.932 111.385 281.178 111.236 281.482V286H110.152V279.66H111.177ZM116.51 282.777C116.51 281.805 116.74 281.023 117.201 280.434C117.662 279.84 118.265 279.543 119.011 279.543C119.754 279.543 120.342 279.797 120.775 280.305V277H121.859V286H120.863L120.81 285.32C120.377 285.852 119.773 286.117 119 286.117C118.265 286.117 117.666 285.816 117.201 285.215C116.74 284.613 116.51 283.828 116.51 282.859V282.777ZM117.594 282.9C117.594 283.619 117.742 284.182 118.039 284.588C118.336 284.994 118.746 285.197 119.269 285.197C119.957 285.197 120.459 284.889 120.775 284.271V281.359C120.451 280.762 119.953 280.463 119.281 280.463C118.75 280.463 118.336 280.668 118.039 281.078C117.742 281.488 117.594 282.096 117.594 282.9ZM127.701 286H126.617V279.66H127.701V286ZM126.529 277.979C126.529 277.803 126.582 277.654 126.687 277.533C126.797 277.412 126.957 277.352 127.168 277.352C127.379 277.352 127.539 277.412 127.648 277.533C127.758 277.654 127.812 277.803 127.812 277.979C127.812 278.154 127.758 278.301 127.648 278.418C127.539 278.535 127.379 278.594 127.168 278.594C126.957 278.594 126.797 278.535 126.687 278.418C126.582 278.301 126.529 278.154 126.529 277.979ZM131.984 285.232C132.371 285.232 132.709 285.115 132.998 284.881C133.287 284.646 133.447 284.354 133.478 284.002H134.504C134.484 284.365 134.359 284.711 134.129 285.039C133.898 285.367 133.59 285.629 133.203 285.824C132.82 286.02 132.414 286.117 131.984 286.117C131.121 286.117 130.433 285.83 129.922 285.256C129.414 284.678 129.16 283.889 129.16 282.889V282.707C129.16 282.09 129.273 281.541 129.5 281.061C129.726 280.58 130.051 280.207 130.472 279.941C130.898 279.676 131.4 279.543 131.978 279.543C132.689 279.543 133.279 279.756 133.748 280.182C134.22 280.607 134.472 281.16 134.504 281.84H133.478C133.447 281.43 133.291 281.094 133.01 280.832C132.732 280.566 132.388 280.434 131.978 280.434C131.427 280.434 131 280.633 130.695 281.031C130.394 281.426 130.244 281.998 130.244 282.748V282.953C130.244 283.684 130.394 284.246 130.695 284.641C130.996 285.035 131.426 285.232 131.984 285.232ZM135.435 282.771C135.435 282.15 135.556 281.592 135.799 281.096C136.045 280.6 136.385 280.217 136.818 279.947C137.256 279.678 137.754 279.543 138.312 279.543C139.176 279.543 139.873 279.842 140.404 280.439C140.939 281.037 141.207 281.832 141.207 282.824V282.9C141.207 283.518 141.088 284.072 140.849 284.564C140.615 285.053 140.277 285.434 139.836 285.707C139.398 285.98 138.894 286.117 138.324 286.117C137.465 286.117 136.767 285.818 136.232 285.221C135.701 284.623 135.435 283.832 135.435 282.848V282.771ZM136.525 282.9C136.525 283.604 136.687 284.168 137.011 284.594C137.34 285.02 137.777 285.232 138.324 285.232C138.875 285.232 139.312 285.018 139.636 284.588C139.961 284.154 140.123 283.549 140.123 282.771C140.123 282.076 139.957 281.514 139.625 281.084C139.297 280.65 138.859 280.434 138.312 280.434C137.777 280.434 137.345 280.646 137.017 281.072C136.689 281.498 136.525 282.107 136.525 282.9ZM143.592 279.66L143.627 280.457C144.111 279.848 144.744 279.543 145.525 279.543C146.865 279.543 147.541 280.299 147.552 281.811V286H146.469V281.805C146.465 281.348 146.359 281.01 146.152 280.791C145.949 280.572 145.631 280.463 145.197 280.463C144.845 280.463 144.537 280.557 144.271 280.744C144.006 280.932 143.799 281.178 143.65 281.482V286H142.566V279.66H143.592ZM154.707 285.232C155.094 285.232 155.431 285.115 155.72 284.881C156.01 284.646 156.17 284.354 156.201 284.002H157.226C157.207 284.365 157.082 284.711 156.851 285.039C156.621 285.367 156.312 285.629 155.926 285.824C155.543 286.02 155.136 286.117 154.707 286.117C153.844 286.117 153.156 285.83 152.644 285.256C152.136 284.678 151.883 283.889 151.883 282.889V282.707C151.883 282.09 151.996 281.541 152.222 281.061C152.449 280.58 152.773 280.207 153.195 279.941C153.621 279.676 154.123 279.543 154.701 279.543C155.412 279.543 156.002 279.756 156.47 280.182C156.943 280.607 157.195 281.16 157.226 281.84H156.201C156.17 281.43 156.013 281.094 155.732 280.832C155.455 280.566 155.111 280.434 154.701 280.434C154.15 280.434 153.722 280.633 153.418 281.031C153.117 281.426 152.967 281.998 152.967 282.748V282.953C152.967 283.684 153.117 284.246 153.418 284.641C153.719 285.035 154.148 285.232 154.707 285.232ZM158.158 282.771C158.158 282.15 158.279 281.592 158.521 281.096C158.767 280.6 159.107 280.217 159.541 279.947C159.978 279.678 160.476 279.543 161.035 279.543C161.898 279.543 162.595 279.842 163.127 280.439C163.662 281.037 163.929 281.832 163.929 282.824V282.9C163.929 283.518 163.81 284.072 163.572 284.564C163.338 285.053 163 285.434 162.558 285.707C162.121 285.98 161.617 286.117 161.047 286.117C160.187 286.117 159.49 285.818 158.955 285.221C158.424 284.623 158.158 283.832 158.158 282.848V282.771ZM159.248 282.9C159.248 283.604 159.41 284.168 159.734 284.594C160.062 285.02 160.5 285.232 161.047 285.232C161.597 285.232 162.035 285.018 162.359 284.588C162.683 284.154 162.845 283.549 162.845 282.771C162.845 282.076 162.679 281.514 162.347 281.084C162.019 280.65 161.582 280.434 161.035 280.434C160.5 280.434 160.068 280.646 159.74 281.072C159.412 281.498 159.248 282.107 159.248 282.9ZM166.467 286H165.383V277H166.467V286ZM167.92 282.771C167.92 282.15 168.041 281.592 168.283 281.096C168.529 280.6 168.869 280.217 169.302 279.947C169.74 279.678 170.238 279.543 170.797 279.543C171.66 279.543 172.357 279.842 172.888 280.439C173.424 281.037 173.691 281.832 173.691 282.824V282.9C173.691 283.518 173.572 284.072 173.334 284.564C173.099 285.053 172.761 285.434 172.32 285.707C171.883 285.98 171.379 286.117 170.808 286.117C169.949 286.117 169.252 285.818 168.717 285.221C168.185 284.623 167.92 283.832 167.92 282.848V282.771ZM169.01 282.9C169.01 283.604 169.172 284.168 169.496 284.594C169.824 285.02 170.261 285.232 170.808 285.232C171.359 285.232 171.797 285.018 172.121 284.588C172.445 284.154 172.607 283.549 172.607 282.771C172.607 282.076 172.441 281.514 172.109 281.084C171.781 280.65 171.344 280.434 170.797 280.434C170.261 280.434 169.83 280.646 169.502 281.072C169.174 281.498 169.01 282.107 169.01 282.9ZM178.115 280.633C177.951 280.605 177.773 280.592 177.582 280.592C176.871 280.592 176.388 280.895 176.135 281.5V286H175.051V279.66H176.105L176.123 280.393C176.478 279.826 176.982 279.543 177.635 279.543C177.845 279.543 178.006 279.57 178.115 279.625V280.633ZM182.627 286V280.498H181.625V279.66H182.627V279.01C182.627 278.33 182.808 277.805 183.172 277.434C183.535 277.062 184.049 276.877 184.713 276.877C184.963 276.877 185.211 276.91 185.457 276.977L185.398 277.855C185.215 277.82 185.019 277.803 184.812 277.803C184.461 277.803 184.189 277.906 183.998 278.113C183.806 278.316 183.711 278.609 183.711 278.992V279.66H185.064V280.498H183.711V286H182.627ZM185.978 282.771C185.978 282.15 186.099 281.592 186.342 281.096C186.588 280.6 186.927 280.217 187.361 279.947C187.799 279.678 188.297 279.543 188.855 279.543C189.719 279.543 190.416 279.842 190.947 280.439C191.482 281.037 191.75 281.832 191.75 282.824V282.9C191.75 283.518 191.631 284.072 191.392 284.564C191.158 285.053 190.82 285.434 190.379 285.707C189.941 285.98 189.437 286.117 188.867 286.117C188.008 286.117 187.31 285.818 186.775 285.221C186.244 284.623 185.978 283.832 185.978 282.848V282.771ZM187.068 282.9C187.068 283.604 187.23 284.168 187.554 284.594C187.883 285.02 188.32 285.232 188.867 285.232C189.418 285.232 189.855 285.018 190.179 284.588C190.504 284.154 190.666 283.549 190.666 282.771C190.666 282.076 190.5 281.514 190.168 281.084C189.84 280.65 189.402 280.434 188.855 280.434C188.32 280.434 187.888 280.646 187.56 281.072C187.232 281.498 187.068 282.107 187.068 282.9ZM194.287 286H193.203V277H194.287V286ZM197.205 286H196.121V277H197.205V286ZM198.658 282.771C198.658 282.15 198.779 281.592 199.021 281.096C199.267 280.6 199.607 280.217 200.041 279.947C200.478 279.678 200.976 279.543 201.535 279.543C202.398 279.543 203.095 279.842 203.627 280.439C204.162 281.037 204.429 281.832 204.429 282.824V282.9C204.429 283.518 204.31 284.072 204.072 284.564C203.838 285.053 203.5 285.434 203.058 285.707C202.621 285.98 202.117 286.117 201.547 286.117C200.687 286.117 199.99 285.818 199.455 285.221C198.924 284.623 198.658 283.832 198.658 282.848V282.771ZM199.748 282.9C199.748 283.604 199.91 284.168 200.234 284.594C200.562 285.02 201 285.232 201.547 285.232C202.097 285.232 202.535 285.018 202.859 284.588C203.183 284.154 203.345 283.549 203.345 282.771C203.345 282.076 203.179 281.514 202.847 281.084C202.519 280.65 202.082 280.434 201.535 280.434C201 280.434 200.568 280.646 200.24 281.072C199.912 281.498 199.748 282.107 199.748 282.9ZM211.402 284.506L212.621 279.66H213.705L211.859 286H210.98L209.439 281.195L207.939 286H207.06L205.22 279.66H206.299L207.547 284.406L209.023 279.66H209.896L211.402 284.506ZM219.26 278.125V279.66H220.443V280.498H219.26V284.43C219.26 284.684 219.312 284.875 219.418 285.004C219.523 285.129 219.703 285.191 219.957 285.191C220.082 285.191 220.254 285.168 220.472 285.121V286C220.187 286.078 219.91 286.117 219.64 286.117C219.156 286.117 218.791 285.971 218.545 285.678C218.299 285.385 218.176 284.969 218.176 284.43V280.498H217.021V279.66H218.176V278.125H219.26ZM222.799 280.428C223.279 279.838 223.904 279.543 224.674 279.543C226.013 279.543 226.689 280.299 226.701 281.811V286H225.617V281.805C225.613 281.348 225.508 281.01 225.301 280.791C225.097 280.572 224.779 280.463 224.345 280.463C223.994 280.463 223.685 280.557 223.42 280.744C223.154 280.932 222.947 281.178 222.799 281.482V286H221.715V277H222.799V280.428ZM230.955 286.117C230.095 286.117 229.396 285.836 228.857 285.273C228.318 284.707 228.049 283.951 228.049 283.006V282.807C228.049 282.178 228.168 281.617 228.406 281.125C228.648 280.629 228.984 280.242 229.414 279.965C229.847 279.684 230.316 279.543 230.82 279.543C231.644 279.543 232.285 279.814 232.742 280.357C233.199 280.9 233.427 281.678 233.427 282.689V283.141H229.133C229.148 283.766 229.33 284.271 229.677 284.658C230.029 285.041 230.474 285.232 231.013 285.232C231.396 285.232 231.72 285.154 231.986 284.998C232.252 284.842 232.484 284.635 232.683 284.377L233.345 284.893C232.814 285.709 232.017 286.117 230.955 286.117ZM230.82 280.434C230.383 280.434 230.015 280.594 229.719 280.914C229.422 281.23 229.238 281.676 229.168 282.25H232.344V282.168C232.312 281.617 232.164 281.191 231.898 280.891C231.633 280.586 231.273 280.434 230.82 280.434ZM240.207 285.232C240.594 285.232 240.931 285.115 241.22 284.881C241.51 284.646 241.67 284.354 241.701 284.002H242.726C242.707 284.365 242.582 284.711 242.351 285.039C242.121 285.367 241.812 285.629 241.426 285.824C241.043 286.02 240.636 286.117 240.207 286.117C239.344 286.117 238.656 285.83 238.144 285.256C237.636 284.678 237.383 283.889 237.383 282.889V282.707C237.383 282.09 237.496 281.541 237.722 281.061C237.949 280.58 238.273 280.207 238.695 279.941C239.121 279.676 239.623 279.543 240.201 279.543C240.912 279.543 241.502 279.756 241.97 280.182C242.443 280.607 242.695 281.16 242.726 281.84H241.701C241.67 281.43 241.513 281.094 241.232 280.832C240.955 280.566 240.611 280.434 240.201 280.434C239.65 280.434 239.222 280.633 238.918 281.031C238.617 281.426 238.467 281.998 238.467 282.748V282.953C238.467 283.684 238.617 284.246 238.918 284.641C239.219 285.035 239.648 285.232 240.207 285.232ZM243.658 282.771C243.658 282.15 243.779 281.592 244.021 281.096C244.267 280.6 244.607 280.217 245.041 279.947C245.478 279.678 245.976 279.543 246.535 279.543C247.398 279.543 248.095 279.842 248.627 280.439C249.162 281.037 249.429 281.832 249.429 282.824V282.9C249.429 283.518 249.31 284.072 249.072 284.564C248.838 285.053 248.5 285.434 248.058 285.707C247.621 285.98 247.117 286.117 246.547 286.117C245.687 286.117 244.99 285.818 244.455 285.221C243.924 284.623 243.658 283.832 243.658 282.848V282.771ZM244.748 282.9C244.748 283.604 244.91 284.168 245.234 284.594C245.562 285.02 246 285.232 246.547 285.232C247.097 285.232 247.535 285.018 247.859 284.588C248.183 284.154 248.345 283.549 248.345 282.771C248.345 282.076 248.179 281.514 247.847 281.084C247.519 280.65 247.082 280.434 246.535 280.434C246 280.434 245.568 280.646 245.24 281.072C244.912 281.498 244.748 282.107 244.748 282.9ZM251.967 286H250.883V277H251.967V286ZM253.42 282.771C253.42 282.15 253.541 281.592 253.783 281.096C254.029 280.6 254.369 280.217 254.802 279.947C255.24 279.678 255.738 279.543 256.297 279.543C257.16 279.543 257.857 279.842 258.388 280.439C258.924 281.037 259.191 281.832 259.191 282.824V282.9C259.191 283.518 259.072 284.072 258.834 284.564C258.599 285.053 258.261 285.434 257.82 285.707C257.383 285.98 256.879 286.117 256.308 286.117C255.449 286.117 254.752 285.818 254.217 285.221C253.685 284.623 253.42 283.832 253.42 282.848V282.771ZM254.51 282.9C254.51 283.604 254.672 284.168 254.996 284.594C255.324 285.02 255.761 285.232 256.308 285.232C256.859 285.232 257.297 285.018 257.621 284.588C257.945 284.154 258.107 283.549 258.107 282.771C258.107 282.076 257.941 281.514 257.609 281.084C257.281 280.65 256.844 280.434 256.297 280.434C255.761 280.434 255.33 280.646 255.002 281.072C254.674 281.498 254.51 282.107 254.51 282.9ZM263.615 280.633C263.451 280.605 263.273 280.592 263.082 280.592C262.371 280.592 261.888 280.895 261.635 281.5V286H260.551V279.66H261.605L261.623 280.393C261.978 279.826 262.482 279.543 263.135 279.543C263.345 279.543 263.506 279.57 263.615 279.625V280.633ZM47.363 303.232C47.7498 303.232 48.0876 303.115 48.3767 302.881C48.6658 302.646 48.8259 302.354 48.8572 302.002H49.8826C49.863 302.365 49.738 302.711 49.5076 303.039C49.2771 303.367 48.9685 303.629 48.5818 303.824C48.199 304.02 47.7927 304.117 47.363 304.117C46.4998 304.117 45.8123 303.83 45.3005 303.256C44.7927 302.678 44.5388 301.889 44.5388 300.889V300.707C44.5388 300.09 44.6521 299.541 44.8787 299.061C45.1052 298.58 45.4294 298.207 45.8513 297.941C46.2771 297.676 46.7791 297.543 47.3572 297.543C48.0681 297.543 48.658 297.756 49.1267 298.182C49.5994 298.607 49.8513 299.16 49.8826 299.84H48.8572C48.8259 299.43 48.6697 299.094 48.3884 298.832C48.1111 298.566 47.7673 298.434 47.3572 298.434C46.8064 298.434 46.3787 298.633 46.074 299.031C45.7732 299.426 45.6228 299.998 45.6228 300.748V300.953C45.6228 301.684 45.7732 302.246 46.074 302.641C46.3748 303.035 46.8044 303.232 47.363 303.232ZM50.8142 300.771C50.8142 300.15 50.9353 299.592 51.1775 299.096C51.4236 298.6 51.7634 298.217 52.197 297.947C52.6345 297.678 53.1326 297.543 53.6912 297.543C54.5544 297.543 55.2517 297.842 55.783 298.439C56.3181 299.037 56.5857 299.832 56.5857 300.824V300.9C56.5857 301.518 56.4666 302.072 56.2283 302.564C55.9939 303.053 55.656 303.434 55.2146 303.707C54.7771 303.98 54.2732 304.117 53.7029 304.117C52.8435 304.117 52.1462 303.818 51.6111 303.221C51.0798 302.623 50.8142 301.832 50.8142 300.848V300.771ZM51.9041 300.9C51.9041 301.604 52.0662 302.168 52.3904 302.594C52.7185 303.02 53.156 303.232 53.7029 303.232C54.2537 303.232 54.6912 303.018 55.0154 302.588C55.3396 302.154 55.5017 301.549 55.5017 300.771C55.5017 300.076 55.3357 299.514 55.0037 299.084C54.6755 298.65 54.238 298.434 53.6912 298.434C53.156 298.434 52.7244 298.646 52.3962 299.072C52.0681 299.498 51.9041 300.107 51.9041 300.9ZM58.9705 297.66L59.0056 298.457C59.49 297.848 60.1228 297.543 60.9041 297.543C62.2439 297.543 62.9197 298.299 62.9314 299.811V304H61.8474V299.805C61.8435 299.348 61.738 299.01 61.531 298.791C61.3279 298.572 61.0095 298.463 60.5759 298.463C60.2244 298.463 59.9158 298.557 59.6501 298.744C59.3845 298.932 59.1775 299.178 59.0291 299.482V304H57.9451V297.66H58.9705ZM66.0369 296.125V297.66H67.2205V298.498H66.0369V302.43C66.0369 302.684 66.0896 302.875 66.1951 303.004C66.3005 303.129 66.4802 303.191 66.7341 303.191C66.8591 303.191 67.031 303.168 67.2498 303.121V304C66.9646 304.078 66.6873 304.117 66.4177 304.117C65.9333 304.117 65.5681 303.971 65.322 303.678C65.0759 303.385 64.9529 302.969 64.9529 302.43V298.498H63.7986V297.66H64.9529V296.125H66.0369ZM71.5564 298.633C71.3923 298.605 71.2146 298.592 71.0232 298.592C70.3123 298.592 69.8298 298.895 69.5759 299.5V304H68.4919V297.66H69.5466L69.5642 298.393C69.9197 297.826 70.4236 297.543 71.0759 297.543C71.2869 297.543 71.447 297.57 71.5564 297.625V298.633ZM76.238 304C76.1755 303.875 76.1248 303.652 76.0857 303.332C75.5818 303.855 74.9802 304.117 74.281 304.117C73.656 304.117 73.1423 303.941 72.74 303.59C72.3416 303.234 72.1423 302.785 72.1423 302.242C72.1423 301.582 72.3923 301.07 72.8923 300.707C73.3962 300.34 74.1033 300.156 75.0134 300.156H76.0681V299.658C76.0681 299.279 75.9548 298.979 75.7283 298.756C75.5017 298.529 75.1677 298.416 74.7263 298.416C74.3396 298.416 74.0154 298.514 73.7537 298.709C73.4919 298.904 73.3611 299.141 73.3611 299.418H72.2712C72.2712 299.102 72.3826 298.797 72.6052 298.504C72.8318 298.207 73.1365 297.973 73.5193 297.801C73.906 297.629 74.3298 297.543 74.7908 297.543C75.5212 297.543 76.0935 297.727 76.5076 298.094C76.9216 298.457 77.1365 298.959 77.1521 299.6V302.518C77.1521 303.1 77.2263 303.562 77.3748 303.906V304H76.238ZM74.4392 303.174C74.7791 303.174 75.1013 303.086 75.406 302.91C75.7107 302.734 75.9314 302.506 76.0681 302.225V300.924H75.2185C73.8904 300.924 73.2263 301.312 73.2263 302.09C73.2263 302.43 73.3396 302.695 73.5662 302.887C73.7927 303.078 74.0837 303.174 74.4392 303.174ZM82.5427 302.318C82.5427 302.025 82.4314 301.799 82.2087 301.639C81.99 301.475 81.6052 301.334 81.0544 301.217C80.5076 301.1 80.072 300.959 79.7478 300.795C79.4275 300.631 79.1892 300.436 79.033 300.209C78.8806 299.982 78.8044 299.713 78.8044 299.4C78.8044 298.881 79.0232 298.441 79.4607 298.082C79.9021 297.723 80.4646 297.543 81.1482 297.543C81.8669 297.543 82.449 297.729 82.8943 298.1C83.3435 298.471 83.5681 298.945 83.5681 299.523H82.4783C82.4783 299.227 82.3513 298.971 82.0974 298.756C81.8474 298.541 81.531 298.434 81.1482 298.434C80.7537 298.434 80.4451 298.52 80.2224 298.691C79.9998 298.863 79.8884 299.088 79.8884 299.365C79.8884 299.627 79.9919 299.824 80.199 299.957C80.406 300.09 80.7791 300.217 81.3181 300.338C81.8611 300.459 82.3005 300.604 82.6365 300.771C82.9724 300.939 83.2205 301.143 83.3806 301.381C83.5447 301.615 83.6267 301.902 83.6267 302.242C83.6267 302.809 83.4001 303.264 82.947 303.607C82.4939 303.947 81.906 304.117 81.1833 304.117C80.6755 304.117 80.2263 304.027 79.8357 303.848C79.4451 303.668 79.1384 303.418 78.9158 303.098C78.697 302.773 78.5876 302.424 78.5876 302.049H79.6716C79.6912 302.412 79.8357 302.701 80.1052 302.916C80.3787 303.127 80.738 303.232 81.1833 303.232C81.5935 303.232 81.9216 303.15 82.1677 302.986C82.4177 302.818 82.5427 302.596 82.5427 302.318ZM86.5095 296.125V297.66H87.6931V298.498H86.5095V302.43C86.5095 302.684 86.5623 302.875 86.6677 303.004C86.7732 303.129 86.9529 303.191 87.2068 303.191C87.3318 303.191 87.5037 303.168 87.7224 303.121V304C87.4373 304.078 87.1599 304.117 86.8904 304.117C86.406 304.117 86.0408 303.971 85.7947 303.678C85.5486 303.385 85.4255 302.969 85.4255 302.43V298.498H84.2712V297.66H85.4255V296.125H86.5095ZM95.0056 298.633C94.8416 298.605 94.6638 298.592 94.4724 298.592C93.7615 298.592 93.2791 298.895 93.0251 299.5V304H91.9412V297.66H92.9958L93.0134 298.393C93.3689 297.826 93.8728 297.543 94.5251 297.543C94.7361 297.543 94.8962 297.57 95.0056 297.625V298.633ZM99.6873 304C99.6248 303.875 99.574 303.652 99.5349 303.332C99.031 303.855 98.4294 304.117 97.7302 304.117C97.1052 304.117 96.5916 303.941 96.1892 303.59C95.7908 303.234 95.5916 302.785 95.5916 302.242C95.5916 301.582 95.8416 301.07 96.3416 300.707C96.8455 300.34 97.5525 300.156 98.4626 300.156H99.5173V299.658C99.5173 299.279 99.4041 298.979 99.1775 298.756C98.9509 298.529 98.6169 298.416 98.1755 298.416C97.7888 298.416 97.4646 298.514 97.2029 298.709C96.9412 298.904 96.8103 299.141 96.8103 299.418H95.7205C95.7205 299.102 95.8318 298.797 96.0544 298.504C96.281 298.207 96.5857 297.973 96.9685 297.801C97.3552 297.629 97.7791 297.543 98.24 297.543C98.9705 297.543 99.5427 297.727 99.9568 298.094C100.371 298.457 100.586 298.959 100.601 299.6V302.518C100.601 303.1 100.676 303.562 100.824 303.906V304H99.6873ZM97.8884 303.174C98.2283 303.174 98.5505 303.086 98.8552 302.91C99.1599 302.734 99.3806 302.506 99.5173 302.225V300.924H98.6677C97.3396 300.924 96.6755 301.312 96.6755 302.09C96.6755 302.43 96.7888 302.695 97.0154 302.887C97.2419 303.078 97.533 303.174 97.8884 303.174ZM103.771 296.125V297.66H104.955V298.498H103.771V302.43C103.771 302.684 103.824 302.875 103.929 303.004C104.035 303.129 104.215 303.191 104.469 303.191C104.594 303.191 104.765 303.168 104.984 303.121V304C104.699 304.078 104.422 304.117 104.152 304.117C103.668 304.117 103.302 303.971 103.056 303.678C102.81 303.385 102.687 302.969 102.687 302.43V298.498H101.533V297.66H102.687V296.125H103.771ZM107.404 304H106.32V297.66H107.404V304ZM106.232 295.979C106.232 295.803 106.285 295.654 106.39 295.533C106.5 295.412 106.66 295.352 106.871 295.352C107.082 295.352 107.242 295.412 107.351 295.533C107.461 295.654 107.515 295.803 107.515 295.979C107.515 296.154 107.461 296.301 107.351 296.418C107.242 296.535 107.082 296.594 106.871 296.594C106.66 296.594 106.5 296.535 106.39 296.418C106.285 296.301 106.232 296.154 106.232 295.979ZM108.857 300.771C108.857 300.15 108.978 299.592 109.22 299.096C109.467 298.6 109.806 298.217 110.24 297.947C110.677 297.678 111.176 297.543 111.734 297.543C112.597 297.543 113.295 297.842 113.826 298.439C114.361 299.037 114.629 299.832 114.629 300.824V300.9C114.629 301.518 114.51 302.072 114.271 302.564C114.037 303.053 113.699 303.434 113.258 303.707C112.82 303.98 112.316 304.117 111.746 304.117C110.886 304.117 110.189 303.818 109.654 303.221C109.123 302.623 108.857 301.832 108.857 300.848V300.771ZM109.947 300.9C109.947 301.604 110.109 302.168 110.433 302.594C110.761 303.02 111.199 303.232 111.746 303.232C112.297 303.232 112.734 303.018 113.058 302.588C113.383 302.154 113.545 301.549 113.545 300.771C113.545 300.076 113.379 299.514 113.047 299.084C112.719 298.65 112.281 298.434 111.734 298.434C111.199 298.434 110.767 298.646 110.439 299.072C110.111 299.498 109.947 300.107 109.947 300.9ZM122.029 298.633C121.865 298.605 121.687 298.592 121.496 298.592C120.785 298.592 120.302 298.895 120.049 299.5V304H118.965V297.66H120.019L120.037 298.393C120.392 297.826 120.896 297.543 121.549 297.543C121.76 297.543 121.92 297.57 122.029 297.625V298.633ZM125.545 304.117C124.685 304.117 123.986 303.836 123.447 303.273C122.908 302.707 122.638 301.951 122.638 301.006V300.807C122.638 300.178 122.758 299.617 122.996 299.125C123.238 298.629 123.574 298.242 124.004 297.965C124.437 297.684 124.906 297.543 125.41 297.543C126.234 297.543 126.875 297.814 127.332 298.357C127.789 298.9 128.017 299.678 128.017 300.689V301.141H123.722C123.738 301.766 123.92 302.271 124.267 302.658C124.619 303.041 125.064 303.232 125.603 303.232C125.986 303.232 126.31 303.154 126.576 302.998C126.842 302.842 127.074 302.635 127.273 302.377L127.935 302.893C127.404 303.709 126.607 304.117 125.545 304.117ZM125.41 298.434C124.972 298.434 124.605 298.594 124.308 298.914C124.011 299.23 123.828 299.676 123.758 300.25H126.933V300.168C126.902 299.617 126.754 299.191 126.488 298.891C126.222 298.586 125.863 298.434 125.41 298.434ZM131.82 303.232C132.207 303.232 132.545 303.115 132.834 302.881C133.123 302.646 133.283 302.354 133.314 302.002H134.34C134.32 302.365 134.195 302.711 133.965 303.039C133.734 303.367 133.426 303.629 133.039 303.824C132.656 304.02 132.25 304.117 131.82 304.117C130.957 304.117 130.269 303.83 129.758 303.256C129.25 302.678 128.996 301.889 128.996 300.889V300.707C128.996 300.09 129.109 299.541 129.336 299.061C129.562 298.58 129.886 298.207 130.308 297.941C130.734 297.676 131.236 297.543 131.814 297.543C132.525 297.543 133.115 297.756 133.584 298.182C134.056 298.607 134.308 299.16 134.34 299.84H133.314C133.283 299.43 133.127 299.094 132.845 298.832C132.568 298.566 132.224 298.434 131.814 298.434C131.263 298.434 130.836 298.633 130.531 299.031C130.23 299.426 130.08 299.998 130.08 300.748V300.953C130.08 301.684 130.23 302.246 130.531 302.641C130.832 303.035 131.261 303.232 131.82 303.232ZM135.271 300.771C135.271 300.15 135.392 299.592 135.635 299.096C135.881 298.6 136.22 298.217 136.654 297.947C137.092 297.678 137.59 297.543 138.148 297.543C139.011 297.543 139.709 297.842 140.24 298.439C140.775 299.037 141.043 299.832 141.043 300.824V300.9C141.043 301.518 140.924 302.072 140.685 302.564C140.451 303.053 140.113 303.434 139.672 303.707C139.234 303.98 138.73 304.117 138.16 304.117C137.301 304.117 136.603 303.818 136.068 303.221C135.537 302.623 135.271 301.832 135.271 300.848V300.771ZM136.361 300.9C136.361 301.604 136.523 302.168 136.847 302.594C137.176 303.02 137.613 303.232 138.16 303.232C138.711 303.232 139.148 303.018 139.472 302.588C139.797 302.154 139.959 301.549 139.959 300.771C139.959 300.076 139.793 299.514 139.461 299.084C139.133 298.65 138.695 298.434 138.148 298.434C137.613 298.434 137.181 298.646 136.853 299.072C136.525 299.498 136.361 300.107 136.361 300.9ZM143.422 297.66L143.451 298.363C143.916 297.816 144.543 297.543 145.332 297.543C146.219 297.543 146.822 297.883 147.142 298.562C147.353 298.258 147.627 298.012 147.963 297.824C148.302 297.637 148.703 297.543 149.164 297.543C150.554 297.543 151.261 298.279 151.285 299.752V304H150.201V299.816C150.201 299.363 150.097 299.025 149.89 298.803C149.683 298.576 149.336 298.463 148.847 298.463C148.445 298.463 148.111 298.584 147.845 298.826C147.58 299.064 147.426 299.387 147.383 299.793V304H146.293V299.846C146.293 298.924 145.842 298.463 144.939 298.463C144.228 298.463 143.742 298.766 143.48 299.371V304H142.396V297.66H143.422ZM153.945 297.66L153.974 298.363C154.439 297.816 155.066 297.543 155.855 297.543C156.742 297.543 157.345 297.883 157.666 298.562C157.877 298.258 158.15 298.012 158.486 297.824C158.826 297.637 159.226 297.543 159.687 297.543C161.078 297.543 161.785 298.279 161.808 299.752V304H160.724V299.816C160.724 299.363 160.621 299.025 160.414 298.803C160.207 298.576 159.859 298.463 159.371 298.463C158.969 298.463 158.635 298.584 158.369 298.826C158.103 299.064 157.949 299.387 157.906 299.793V304H156.816V299.846C156.816 298.924 156.365 298.463 155.463 298.463C154.752 298.463 154.265 298.766 154.004 299.371V304H152.92V297.66H153.945ZM166.08 304.117C165.22 304.117 164.521 303.836 163.982 303.273C163.443 302.707 163.174 301.951 163.174 301.006V300.807C163.174 300.178 163.293 299.617 163.531 299.125C163.773 298.629 164.109 298.242 164.539 297.965C164.972 297.684 165.441 297.543 165.945 297.543C166.769 297.543 167.41 297.814 167.867 298.357C168.324 298.9 168.552 299.678 168.552 300.689V301.141H164.258C164.273 301.766 164.455 302.271 164.802 302.658C165.154 303.041 165.599 303.232 166.138 303.232C166.521 303.232 166.845 303.154 167.111 302.998C167.377 302.842 167.609 302.635 167.808 302.377L168.47 302.893C167.939 303.709 167.142 304.117 166.08 304.117ZM165.945 298.434C165.508 298.434 165.14 298.594 164.844 298.914C164.547 299.23 164.363 299.676 164.293 300.25H167.469V300.168C167.437 299.617 167.289 299.191 167.023 298.891C166.758 298.586 166.398 298.434 165.945 298.434ZM170.838 297.66L170.873 298.457C171.357 297.848 171.99 297.543 172.771 297.543C174.111 297.543 174.787 298.299 174.799 299.811V304H173.715V299.805C173.711 299.348 173.605 299.01 173.398 298.791C173.195 298.572 172.877 298.463 172.443 298.463C172.092 298.463 171.783 298.557 171.517 298.744C171.252 298.932 171.045 299.178 170.896 299.482V304H169.812V297.66H170.838ZM176.17 300.777C176.17 299.805 176.4 299.023 176.861 298.434C177.322 297.84 177.926 297.543 178.672 297.543C179.414 297.543 180.002 297.797 180.435 298.305V295H181.519V304H180.523L180.47 303.32C180.037 303.852 179.433 304.117 178.66 304.117C177.926 304.117 177.326 303.816 176.861 303.215C176.4 302.613 176.17 301.828 176.17 300.859V300.777ZM177.254 300.9C177.254 301.619 177.402 302.182 177.699 302.588C177.996 302.994 178.406 303.197 178.929 303.197C179.617 303.197 180.119 302.889 180.435 302.271V299.359C180.111 298.762 179.613 298.463 178.941 298.463C178.41 298.463 177.996 298.668 177.699 299.078C177.402 299.488 177.254 300.096 177.254 300.9ZM187.121 304C187.058 303.875 187.008 303.652 186.969 303.332C186.465 303.855 185.863 304.117 185.164 304.117C184.539 304.117 184.025 303.941 183.623 303.59C183.224 303.234 183.025 302.785 183.025 302.242C183.025 301.582 183.275 301.07 183.775 300.707C184.279 300.34 184.986 300.156 185.896 300.156H186.951V299.658C186.951 299.279 186.838 298.979 186.611 298.756C186.385 298.529 186.051 298.416 185.609 298.416C185.222 298.416 184.898 298.514 184.636 298.709C184.375 298.904 184.244 299.141 184.244 299.418H183.154C183.154 299.102 183.265 298.797 183.488 298.504C183.715 298.207 184.019 297.973 184.402 297.801C184.789 297.629 185.213 297.543 185.674 297.543C186.404 297.543 186.976 297.727 187.39 298.094C187.804 298.457 188.019 298.959 188.035 299.6V302.518C188.035 303.1 188.109 303.562 188.258 303.906V304H187.121ZM185.322 303.174C185.662 303.174 185.984 303.086 186.289 302.91C186.594 302.734 186.814 302.506 186.951 302.225V300.924H186.101C184.773 300.924 184.109 301.312 184.109 302.09C184.109 302.43 184.222 302.695 184.449 302.887C184.676 303.078 184.967 303.174 185.322 303.174ZM191.205 296.125V297.66H192.388V298.498H191.205V302.43C191.205 302.684 191.258 302.875 191.363 303.004C191.469 303.129 191.648 303.191 191.902 303.191C192.027 303.191 192.199 303.168 192.418 303.121V304C192.133 304.078 191.855 304.117 191.586 304.117C191.101 304.117 190.736 303.971 190.49 303.678C190.244 303.385 190.121 302.969 190.121 302.43V298.498H188.967V297.66H190.121V296.125H191.205ZM194.838 304H193.754V297.66H194.838V304ZM193.666 295.979C193.666 295.803 193.719 295.654 193.824 295.533C193.933 295.412 194.094 295.352 194.304 295.352C194.515 295.352 194.676 295.412 194.785 295.533C194.894 295.654 194.949 295.803 194.949 295.979C194.949 296.154 194.894 296.301 194.785 296.418C194.676 296.535 194.515 296.594 194.304 296.594C194.094 296.594 193.933 296.535 193.824 296.418C193.719 296.301 193.666 296.154 193.666 295.979ZM196.291 300.771C196.291 300.15 196.412 299.592 196.654 299.096C196.9 298.6 197.24 298.217 197.674 297.947C198.111 297.678 198.609 297.543 199.168 297.543C200.031 297.543 200.728 297.842 201.26 298.439C201.795 299.037 202.062 299.832 202.062 300.824V300.9C202.062 301.518 201.943 302.072 201.705 302.564C201.47 303.053 201.133 303.434 200.691 303.707C200.254 303.98 199.75 304.117 199.179 304.117C198.32 304.117 197.623 303.818 197.088 303.221C196.556 302.623 196.291 301.832 196.291 300.848V300.771ZM197.381 300.9C197.381 301.604 197.543 302.168 197.867 302.594C198.195 303.02 198.633 303.232 199.179 303.232C199.73 303.232 200.168 303.018 200.492 302.588C200.816 302.154 200.978 301.549 200.978 300.771C200.978 300.076 200.812 299.514 200.48 299.084C200.152 298.65 199.715 298.434 199.168 298.434C198.633 298.434 198.201 298.646 197.873 299.072C197.545 299.498 197.381 300.107 197.381 300.9ZM204.447 297.66L204.482 298.457C204.967 297.848 205.599 297.543 206.381 297.543C207.72 297.543 208.396 298.299 208.408 299.811V304H207.324V299.805C207.32 299.348 207.215 299.01 207.008 298.791C206.804 298.572 206.486 298.463 206.052 298.463C205.701 298.463 205.392 298.557 205.127 298.744C204.861 298.932 204.654 299.178 204.506 299.482V304H203.422V297.66H204.447ZM213.734 302.318C213.734 302.025 213.623 301.799 213.4 301.639C213.181 301.475 212.797 301.334 212.246 301.217C211.699 301.1 211.263 300.959 210.939 300.795C210.619 300.631 210.381 300.436 210.224 300.209C210.072 299.982 209.996 299.713 209.996 299.4C209.996 298.881 210.215 298.441 210.652 298.082C211.094 297.723 211.656 297.543 212.34 297.543C213.058 297.543 213.64 297.729 214.086 298.1C214.535 298.471 214.76 298.945 214.76 299.523H213.67C213.67 299.227 213.543 298.971 213.289 298.756C213.039 298.541 212.722 298.434 212.34 298.434C211.945 298.434 211.636 298.52 211.414 298.691C211.191 298.863 211.08 299.088 211.08 299.365C211.08 299.627 211.183 299.824 211.39 299.957C211.597 300.09 211.97 300.217 212.51 300.338C213.052 300.459 213.492 300.604 213.828 300.771C214.164 300.939 214.412 301.143 214.572 301.381C214.736 301.615 214.818 301.902 214.818 302.242C214.818 302.809 214.592 303.264 214.138 303.607C213.685 303.947 213.097 304.117 212.375 304.117C211.867 304.117 211.418 304.027 211.027 303.848C210.636 303.668 210.33 303.418 210.107 303.098C209.888 302.773 209.779 302.424 209.779 302.049H210.863C210.883 302.412 211.027 302.701 211.297 302.916C211.57 303.127 211.929 303.232 212.375 303.232C212.785 303.232 213.113 303.15 213.359 302.986C213.609 302.818 213.734 302.596 213.734 302.318ZM223.121 304C223.058 303.875 223.008 303.652 222.969 303.332C222.465 303.855 221.863 304.117 221.164 304.117C220.539 304.117 220.025 303.941 219.623 303.59C219.224 303.234 219.025 302.785 219.025 302.242C219.025 301.582 219.275 301.07 219.775 300.707C220.279 300.34 220.986 300.156 221.896 300.156H222.951V299.658C222.951 299.279 222.838 298.979 222.611 298.756C222.385 298.529 222.051 298.416 221.609 298.416C221.222 298.416 220.898 298.514 220.636 298.709C220.375 298.904 220.244 299.141 220.244 299.418H219.154C219.154 299.102 219.265 298.797 219.488 298.504C219.715 298.207 220.019 297.973 220.402 297.801C220.789 297.629 221.213 297.543 221.674 297.543C222.404 297.543 222.976 297.727 223.39 298.094C223.804 298.457 224.019 298.959 224.035 299.6V302.518C224.035 303.1 224.109 303.562 224.258 303.906V304H223.121ZM221.322 303.174C221.662 303.174 221.984 303.086 222.289 302.91C222.594 302.734 222.814 302.506 222.951 302.225V300.924H222.101C220.773 300.924 220.109 301.312 220.109 302.09C220.109 302.43 220.222 302.695 220.449 302.887C220.676 303.078 220.967 303.174 221.322 303.174ZM226.76 297.66L226.795 298.457C227.279 297.848 227.912 297.543 228.693 297.543C230.033 297.543 230.709 298.299 230.72 299.811V304H229.636V299.805C229.633 299.348 229.527 299.01 229.32 298.791C229.117 298.572 228.799 298.463 228.365 298.463C228.013 298.463 227.705 298.557 227.439 298.744C227.174 298.932 226.967 299.178 226.818 299.482V304H225.734V297.66H226.76ZM232.092 300.777C232.092 299.805 232.322 299.023 232.783 298.434C233.244 297.84 233.847 297.543 234.594 297.543C235.336 297.543 235.924 297.797 236.357 298.305V295H237.441V304H236.445L236.392 303.32C235.959 303.852 235.355 304.117 234.582 304.117C233.847 304.117 233.248 303.816 232.783 303.215C232.322 302.613 232.092 301.828 232.092 300.859V300.777ZM233.176 300.9C233.176 301.619 233.324 302.182 233.621 302.588C233.918 302.994 234.328 303.197 234.851 303.197C235.539 303.197 236.041 302.889 236.357 302.271V299.359C236.033 298.762 235.535 298.463 234.863 298.463C234.332 298.463 233.918 298.668 233.621 299.078C233.324 299.488 233.176 300.096 233.176 300.9ZM246.019 304C245.957 303.875 245.906 303.652 245.867 303.332C245.363 303.855 244.761 304.117 244.062 304.117C243.437 304.117 242.924 303.941 242.521 303.59C242.123 303.234 241.924 302.785 241.924 302.242C241.924 301.582 242.174 301.07 242.674 300.707C243.177 300.34 243.885 300.156 244.795 300.156H245.849V299.658C245.849 299.279 245.736 298.979 245.51 298.756C245.283 298.529 244.949 298.416 244.508 298.416C244.121 298.416 243.797 298.514 243.535 298.709C243.273 298.904 243.142 299.141 243.142 299.418H242.052C242.052 299.102 242.164 298.797 242.386 298.504C242.613 298.207 242.918 297.973 243.301 297.801C243.687 297.629 244.111 297.543 244.572 297.543C245.302 297.543 245.875 297.727 246.289 298.094C246.703 298.457 246.918 298.959 246.933 299.6V302.518C246.933 303.1 247.008 303.562 247.156 303.906V304H246.019ZM244.22 303.174C244.56 303.174 244.883 303.086 245.187 302.91C245.492 302.734 245.713 302.506 245.849 302.225V300.924H245C243.672 300.924 243.008 301.312 243.008 302.09C243.008 302.43 243.121 302.695 243.347 302.887C243.574 303.078 243.865 303.174 244.22 303.174ZM251.697 298.633C251.533 298.605 251.355 298.592 251.164 298.592C250.453 298.592 249.97 298.895 249.717 299.5V304H248.633V297.66H249.687L249.705 298.393C250.06 297.826 250.564 297.543 251.217 297.543C251.427 297.543 251.588 297.57 251.697 297.625V298.633ZM255.213 304.117C254.353 304.117 253.654 303.836 253.115 303.273C252.576 302.707 252.306 301.951 252.306 301.006V300.807C252.306 300.178 252.426 299.617 252.664 299.125C252.906 298.629 253.242 298.242 253.672 297.965C254.105 297.684 254.574 297.543 255.078 297.543C255.902 297.543 256.543 297.814 257 298.357C257.457 298.9 257.685 299.678 257.685 300.689V301.141H253.39C253.406 301.766 253.588 302.271 253.935 302.658C254.287 303.041 254.732 303.232 255.271 303.232C255.654 303.232 255.978 303.154 256.244 302.998C256.51 302.842 256.742 302.635 256.941 302.377L257.603 302.893C257.072 303.709 256.275 304.117 255.213 304.117ZM255.078 298.434C254.64 298.434 254.273 298.594 253.976 298.914C253.679 299.23 253.496 299.676 253.426 300.25H256.601V300.168C256.57 299.617 256.422 299.191 256.156 298.891C255.89 298.586 255.531 298.434 255.078 298.434ZM263.099 304H262.015V295H263.099V304ZM267.47 304.117C266.611 304.117 265.912 303.836 265.373 303.273C264.834 302.707 264.564 301.951 264.564 301.006V300.807C264.564 300.178 264.683 299.617 264.922 299.125C265.164 298.629 265.5 298.242 265.929 297.965C266.363 297.684 266.832 297.543 267.336 297.543C268.16 297.543 268.801 297.814 269.258 298.357C269.715 298.9 269.943 299.678 269.943 300.689V301.141H265.648C265.664 301.766 265.845 302.271 266.193 302.658C266.545 303.041 266.99 303.232 267.529 303.232C267.912 303.232 268.236 303.154 268.502 302.998C268.767 302.842 269 302.635 269.199 302.377L269.861 302.893C269.33 303.709 268.533 304.117 267.47 304.117ZM267.336 298.434C266.898 298.434 266.531 298.594 266.234 298.914C265.937 299.23 265.754 299.676 265.683 300.25H268.859V300.168C268.828 299.617 268.679 299.191 268.414 298.891C268.148 298.586 267.789 298.434 267.336 298.434ZM270.945 300.777C270.945 299.789 271.174 299.004 271.631 298.422C272.088 297.836 272.693 297.543 273.447 297.543C274.22 297.543 274.824 297.816 275.258 298.363L275.31 297.66H276.301V303.848C276.301 304.668 276.056 305.314 275.568 305.787C275.084 306.26 274.431 306.496 273.611 306.496C273.154 306.496 272.707 306.398 272.269 306.203C271.832 306.008 271.498 305.74 271.267 305.4L271.83 304.75C272.295 305.324 272.863 305.611 273.535 305.611C274.062 305.611 274.472 305.463 274.765 305.166C275.062 304.869 275.211 304.451 275.211 303.912V303.367C274.777 303.867 274.185 304.117 273.435 304.117C272.693 304.117 272.092 303.818 271.631 303.221C271.174 302.623 270.945 301.809 270.945 300.777ZM272.035 300.9C272.035 301.615 272.181 302.178 272.474 302.588C272.767 302.994 273.177 303.197 273.705 303.197C274.388 303.197 274.89 302.887 275.211 302.266V299.371C274.879 298.766 274.381 298.463 273.717 298.463C273.189 298.463 272.777 298.668 272.48 299.078C272.183 299.488 272.035 300.096 272.035 300.9ZM279.119 304H278.035V297.66H279.119V304ZM277.947 295.979C277.947 295.803 278 295.654 278.105 295.533C278.215 295.412 278.375 295.352 278.586 295.352C278.797 295.352 278.957 295.412 279.066 295.533C279.176 295.654 279.23 295.803 279.23 295.979C279.23 296.154 279.176 296.301 279.066 296.418C278.957 296.535 278.797 296.594 278.586 296.594C278.375 296.594 278.215 296.535 278.105 296.418C278 296.301 277.947 296.154 277.947 295.979ZM286.226 300.9C286.226 301.869 286.004 302.648 285.558 303.238C285.113 303.824 284.515 304.117 283.765 304.117C282.965 304.117 282.345 303.834 281.908 303.268L281.855 304H280.859V295H281.943V298.357C282.381 297.814 282.984 297.543 283.754 297.543C284.523 297.543 285.127 297.834 285.564 298.416C286.006 298.998 286.226 299.795 286.226 300.807V300.9ZM285.142 300.777C285.142 300.039 285 299.469 284.715 299.066C284.429 298.664 284.019 298.463 283.484 298.463C282.769 298.463 282.256 298.795 281.943 299.459V302.201C282.275 302.865 282.793 303.197 283.496 303.197C284.015 303.197 284.42 302.996 284.709 302.594C284.998 302.191 285.142 301.586 285.142 300.777ZM288.775 304H287.691V295H288.775V304ZM293.146 304.117C292.287 304.117 291.588 303.836 291.049 303.273C290.51 302.707 290.24 301.951 290.24 301.006V300.807C290.24 300.178 290.359 299.617 290.597 299.125C290.84 298.629 291.176 298.242 291.605 297.965C292.039 297.684 292.508 297.543 293.011 297.543C293.836 297.543 294.476 297.814 294.933 298.357C295.39 298.9 295.619 299.678 295.619 300.689V301.141H291.324C291.34 301.766 291.521 302.271 291.869 302.658C292.22 303.041 292.666 303.232 293.205 303.232C293.588 303.232 293.912 303.154 294.177 302.998C294.443 302.842 294.676 302.635 294.875 302.377L295.537 302.893C295.006 303.709 294.209 304.117 293.146 304.117ZM293.011 298.434C292.574 298.434 292.207 298.594 291.91 298.914C291.613 299.23 291.429 299.676 291.359 300.25H294.535V300.168C294.504 299.617 294.355 299.191 294.09 298.891C293.824 298.586 293.465 298.434 293.011 298.434ZM48.7341 322C48.6716 321.875 48.6208 321.652 48.5818 321.332C48.0779 321.855 47.4763 322.117 46.7771 322.117C46.1521 322.117 45.6384 321.941 45.2361 321.59C44.8376 321.234 44.6384 320.785 44.6384 320.242C44.6384 319.582 44.8884 319.07 45.3884 318.707C45.8923 318.34 46.5994 318.156 47.5095 318.156H48.5642V317.658C48.5642 317.279 48.4509 316.979 48.2244 316.756C47.9978 316.529 47.6638 316.416 47.2224 316.416C46.8357 316.416 46.5115 316.514 46.2498 316.709C45.988 316.904 45.8572 317.141 45.8572 317.418H44.7673C44.7673 317.102 44.8787 316.797 45.1013 316.504C45.3279 316.207 45.6326 315.973 46.0154 315.801C46.4021 315.629 46.8259 315.543 47.2869 315.543C48.0173 315.543 48.5896 315.727 49.0037 316.094C49.4177 316.457 49.6326 316.959 49.6482 317.6V320.518C49.6482 321.1 49.7224 321.562 49.8708 321.906V322H48.7341ZM46.9353 321.174C47.2751 321.174 47.5974 321.086 47.9021 320.91C48.2068 320.734 48.4275 320.506 48.5642 320.225V318.924H47.7146C46.3865 318.924 45.7224 319.312 45.7224 320.09C45.7224 320.43 45.8357 320.695 46.0623 320.887C46.2888 321.078 46.5798 321.174 46.9353 321.174ZM51.0896 318.777C51.0896 317.789 51.3181 317.004 51.7751 316.422C52.2322 315.836 52.8376 315.543 53.5916 315.543C54.365 315.543 54.9685 315.816 55.4021 316.363L55.4548 315.66H56.4451V321.848C56.4451 322.668 56.2009 323.314 55.7126 323.787C55.2283 324.26 54.5759 324.496 53.7556 324.496C53.2986 324.496 52.8513 324.398 52.4138 324.203C51.9763 324.008 51.6423 323.74 51.4119 323.4L51.9744 322.75C52.4392 323.324 53.0076 323.611 53.6794 323.611C54.2068 323.611 54.6169 323.463 54.9099 323.166C55.2068 322.869 55.3552 322.451 55.3552 321.912V321.367C54.9216 321.867 54.3298 322.117 53.5798 322.117C52.8376 322.117 52.2361 321.818 51.7751 321.221C51.3181 320.623 51.0896 319.809 51.0896 318.777ZM52.1794 318.9C52.1794 319.615 52.3259 320.178 52.6189 320.588C52.9119 320.994 53.322 321.197 53.8494 321.197C54.533 321.197 55.0349 320.887 55.3552 320.266V317.371C55.0232 316.766 54.5251 316.463 53.8611 316.463C53.3337 316.463 52.9216 316.668 52.6248 317.078C52.3279 317.488 52.1794 318.096 52.1794 318.9ZM61.9998 322C61.9373 321.875 61.8865 321.652 61.8474 321.332C61.3435 321.855 60.7419 322.117 60.0427 322.117C59.4177 322.117 58.9041 321.941 58.5017 321.59C58.1033 321.234 57.9041 320.785 57.9041 320.242C57.9041 319.582 58.1541 319.07 58.6541 318.707C59.158 318.34 59.865 318.156 60.7751 318.156H61.8298V317.658C61.8298 317.279 61.7166 316.979 61.49 316.756C61.2634 316.529 60.9294 316.416 60.488 316.416C60.1013 316.416 59.7771 316.514 59.5154 316.709C59.2537 316.904 59.1228 317.141 59.1228 317.418H58.033C58.033 317.102 58.1443 316.797 58.3669 316.504C58.5935 316.207 58.8982 315.973 59.281 315.801C59.6677 315.629 60.0916 315.543 60.5525 315.543C61.283 315.543 61.8552 315.727 62.2693 316.094C62.6833 316.457 62.8982 316.959 62.9138 317.6V320.518C62.9138 321.1 62.988 321.562 63.1365 321.906V322H61.9998ZM60.2009 321.174C60.5408 321.174 60.863 321.086 61.1677 320.91C61.4724 320.734 61.6931 320.506 61.8298 320.225V318.924H60.9802C59.6521 318.924 58.988 319.312 58.988 320.09C58.988 320.43 59.1013 320.695 59.3279 320.887C59.5544 321.078 59.8455 321.174 60.2009 321.174ZM65.7908 322H64.7068V315.66H65.7908V322ZM64.6189 313.979C64.6189 313.803 64.6716 313.654 64.7771 313.533C64.8865 313.412 65.0466 313.352 65.2576 313.352C65.4685 313.352 65.6287 313.412 65.738 313.533C65.8474 313.654 65.9021 313.803 65.9021 313.979C65.9021 314.154 65.8474 314.301 65.738 314.418C65.6287 314.535 65.4685 314.594 65.2576 314.594C65.0466 314.594 64.8865 314.535 64.7771 314.418C64.6716 314.301 64.6189 314.154 64.6189 313.979ZM68.5564 315.66L68.5916 316.457C69.0759 315.848 69.7087 315.543 70.49 315.543C71.8298 315.543 72.5056 316.299 72.5173 317.811V322H71.4333V317.805C71.4294 317.348 71.324 317.01 71.1169 316.791C70.9138 316.572 70.5955 316.463 70.1619 316.463C69.8103 316.463 69.5017 316.557 69.2361 316.744C68.9705 316.932 68.7634 317.178 68.615 317.482V322H67.531V315.66H68.5564ZM77.8435 320.318C77.8435 320.025 77.7322 319.799 77.5095 319.639C77.2908 319.475 76.906 319.334 76.3552 319.217C75.8083 319.1 75.3728 318.959 75.0486 318.795C74.7283 318.631 74.49 318.436 74.3337 318.209C74.1814 317.982 74.1052 317.713 74.1052 317.4C74.1052 316.881 74.324 316.441 74.7615 316.082C75.2029 315.723 75.7654 315.543 76.449 315.543C77.1677 315.543 77.7498 315.729 78.1951 316.1C78.6443 316.471 78.8689 316.945 78.8689 317.523H77.7791C77.7791 317.227 77.6521 316.971 77.3982 316.756C77.1482 316.541 76.8318 316.434 76.449 316.434C76.0544 316.434 75.7458 316.52 75.5232 316.691C75.3005 316.863 75.1892 317.088 75.1892 317.365C75.1892 317.627 75.2927 317.824 75.4998 317.957C75.7068 318.09 76.0798 318.217 76.6189 318.338C77.1619 318.459 77.6013 318.604 77.9373 318.771C78.2732 318.939 78.5212 319.143 78.6814 319.381C78.8455 319.615 78.9275 319.902 78.9275 320.242C78.9275 320.809 78.7009 321.264 78.2478 321.607C77.7947 321.947 77.2068 322.117 76.4841 322.117C75.9763 322.117 75.5271 322.027 75.1365 321.848C74.7458 321.668 74.4392 321.418 74.2166 321.098C73.9978 320.773 73.8884 320.424 73.8884 320.049H74.9724C74.9919 320.412 75.1365 320.701 75.406 320.916C75.6794 321.127 76.0388 321.232 76.4841 321.232C76.8943 321.232 77.2224 321.15 77.4685 320.986C77.7185 320.818 77.8435 320.596 77.8435 320.318ZM81.8103 314.125V315.66H82.9939V316.498H81.8103V320.43C81.8103 320.684 81.863 320.875 81.9685 321.004C82.074 321.129 82.2537 321.191 82.5076 321.191C82.6326 321.191 82.8044 321.168 83.0232 321.121V322C82.738 322.078 82.4607 322.117 82.1912 322.117C81.7068 322.117 81.3416 321.971 81.0955 321.678C80.8494 321.385 80.7263 320.969 80.7263 320.43V316.498H79.572V315.66H80.7263V314.125H81.8103ZM88.7126 314.125V315.66H89.8962V316.498H88.7126V320.43C88.7126 320.684 88.7654 320.875 88.8708 321.004C88.9763 321.129 89.156 321.191 89.4099 321.191C89.5349 321.191 89.7068 321.168 89.9255 321.121V322C89.6404 322.078 89.363 322.117 89.0935 322.117C88.6091 322.117 88.2439 321.971 87.9978 321.678C87.7517 321.385 87.6287 320.969 87.6287 320.43V316.498H86.4744V315.66H87.6287V314.125H88.7126ZM92.2517 316.428C92.7322 315.838 93.3572 315.543 94.1267 315.543C95.4666 315.543 96.1423 316.299 96.1541 317.811V322H95.0701V317.805C95.0662 317.348 94.9607 317.01 94.7537 316.791C94.5505 316.572 94.2322 316.463 93.7986 316.463C93.447 316.463 93.1384 316.557 92.8728 316.744C92.6072 316.932 92.4001 317.178 92.2517 317.482V322H91.1677V313H92.2517V316.428ZM100.408 322.117C99.5486 322.117 98.8494 321.836 98.3103 321.273C97.7712 320.707 97.5017 319.951 97.5017 319.006V318.807C97.5017 318.178 97.6208 317.617 97.8591 317.125C98.1013 316.629 98.4373 316.242 98.8669 315.965C99.3005 315.684 99.7693 315.543 100.273 315.543C101.097 315.543 101.738 315.814 102.195 316.357C102.652 316.9 102.881 317.678 102.881 318.689V319.141H98.5857C98.6013 319.766 98.783 320.271 99.1306 320.658C99.4822 321.041 99.9275 321.232 100.467 321.232C100.849 321.232 101.174 321.154 101.439 320.998C101.705 320.842 101.937 320.635 102.136 320.377L102.799 320.893C102.267 321.709 101.47 322.117 100.408 322.117ZM100.273 316.434C99.8357 316.434 99.4685 316.594 99.1716 316.914C98.8748 317.23 98.6912 317.676 98.6208 318.25H101.797V318.168C101.765 317.617 101.617 317.191 101.351 316.891C101.086 316.586 100.726 316.434 100.273 316.434ZM105.318 322H104.234V315.66H105.318V322ZM104.146 313.979C104.146 313.803 104.199 313.654 104.304 313.533C104.414 313.412 104.574 313.352 104.785 313.352C104.996 313.352 105.156 313.412 105.265 313.533C105.375 313.654 105.429 313.803 105.429 313.979C105.429 314.154 105.375 314.301 105.265 314.418C105.156 314.535 104.996 314.594 104.785 314.594C104.574 314.594 104.414 314.535 104.304 314.418C104.199 314.301 104.146 314.154 104.146 313.979ZM110.123 316.633C109.959 316.605 109.781 316.592 109.59 316.592C108.879 316.592 108.396 316.895 108.142 317.5V322H107.058V315.66H108.113L108.131 316.393C108.486 315.826 108.99 315.543 109.642 315.543C109.853 315.543 110.013 315.57 110.123 315.625V316.633ZM119.469 318.9C119.469 319.869 119.246 320.648 118.801 321.238C118.355 321.824 117.758 322.117 117.008 322.117C116.207 322.117 115.588 321.834 115.15 321.268L115.097 322H114.101V313H115.185V316.357C115.623 315.814 116.226 315.543 116.996 315.543C117.765 315.543 118.369 315.834 118.806 316.416C119.248 316.998 119.469 317.795 119.469 318.807V318.9ZM118.385 318.777C118.385 318.039 118.242 317.469 117.957 317.066C117.672 316.664 117.261 316.463 116.726 316.463C116.011 316.463 115.498 316.795 115.185 317.459V320.201C115.517 320.865 116.035 321.197 116.738 321.197C117.258 321.197 117.662 320.996 117.951 320.594C118.24 320.191 118.385 319.586 118.385 318.777ZM124.754 322C124.691 321.875 124.64 321.652 124.601 321.332C124.097 321.855 123.496 322.117 122.797 322.117C122.172 322.117 121.658 321.941 121.256 321.59C120.857 321.234 120.658 320.785 120.658 320.242C120.658 319.582 120.908 319.07 121.408 318.707C121.912 318.34 122.619 318.156 123.529 318.156H124.584V317.658C124.584 317.279 124.47 316.979 124.244 316.756C124.017 316.529 123.683 316.416 123.242 316.416C122.855 316.416 122.531 316.514 122.269 316.709C122.008 316.904 121.877 317.141 121.877 317.418H120.787C120.787 317.102 120.898 316.797 121.121 316.504C121.347 316.207 121.652 315.973 122.035 315.801C122.422 315.629 122.845 315.543 123.306 315.543C124.037 315.543 124.609 315.727 125.023 316.094C125.437 316.457 125.652 316.959 125.668 317.6V320.518C125.668 321.1 125.742 321.562 125.89 321.906V322H124.754ZM122.955 321.174C123.295 321.174 123.617 321.086 123.922 320.91C124.226 320.734 124.447 320.506 124.584 320.225V318.924H123.734C122.406 318.924 121.742 319.312 121.742 320.09C121.742 320.43 121.855 320.695 122.082 320.887C122.308 321.078 122.599 321.174 122.955 321.174ZM129.91 321.232C130.297 321.232 130.635 321.115 130.924 320.881C131.213 320.646 131.373 320.354 131.404 320.002H132.429C132.41 320.365 132.285 320.711 132.054 321.039C131.824 321.367 131.515 321.629 131.129 321.824C130.746 322.02 130.34 322.117 129.91 322.117C129.047 322.117 128.359 321.83 127.847 321.256C127.34 320.678 127.086 319.889 127.086 318.889V318.707C127.086 318.09 127.199 317.541 127.426 317.061C127.652 316.58 127.976 316.207 128.398 315.941C128.824 315.676 129.326 315.543 129.904 315.543C130.615 315.543 131.205 315.756 131.674 316.182C132.146 316.607 132.398 317.16 132.429 317.84H131.404C131.373 317.43 131.217 317.094 130.935 316.832C130.658 316.566 130.314 316.434 129.904 316.434C129.353 316.434 128.926 316.633 128.621 317.031C128.32 317.426 128.17 317.998 128.17 318.748V318.953C128.17 319.684 128.32 320.246 128.621 320.641C128.922 321.035 129.351 321.232 129.91 321.232ZM135.418 319.064L134.738 319.773V322H133.654V313H134.738V318.443L135.318 317.746L137.293 315.66H138.611L136.144 318.309L138.898 322H137.627L135.418 319.064ZM139.355 318.777C139.355 317.789 139.584 317.004 140.041 316.422C140.498 315.836 141.103 315.543 141.857 315.543C142.631 315.543 143.234 315.816 143.668 316.363L143.72 315.66H144.711V321.848C144.711 322.668 144.467 323.314 143.978 323.787C143.494 324.26 142.842 324.496 142.021 324.496C141.564 324.496 141.117 324.398 140.679 324.203C140.242 324.008 139.908 323.74 139.677 323.4L140.24 322.75C140.705 323.324 141.273 323.611 141.945 323.611C142.472 323.611 142.883 323.463 143.176 323.166C143.472 322.869 143.621 322.451 143.621 321.912V321.367C143.187 321.867 142.595 322.117 141.845 322.117C141.103 322.117 140.502 321.818 140.041 321.221C139.584 320.623 139.355 319.809 139.355 318.777ZM140.445 318.9C140.445 319.615 140.592 320.178 140.885 320.588C141.177 320.994 141.588 321.197 142.115 321.197C142.799 321.197 143.301 320.887 143.621 320.266V317.371C143.289 316.766 142.791 316.463 142.127 316.463C141.599 316.463 141.187 316.668 140.89 317.078C140.594 317.488 140.445 318.096 140.445 318.9ZM149.416 316.633C149.252 316.605 149.074 316.592 148.883 316.592C148.172 316.592 147.689 316.895 147.435 317.5V322H146.351V315.66H147.406L147.424 316.393C147.779 315.826 148.283 315.543 148.935 315.543C149.146 315.543 149.306 315.57 149.416 315.625V316.633ZM150.013 318.771C150.013 318.15 150.135 317.592 150.377 317.096C150.623 316.6 150.963 316.217 151.396 315.947C151.834 315.678 152.332 315.543 152.89 315.543C153.754 315.543 154.451 315.842 154.982 316.439C155.517 317.037 155.785 317.832 155.785 318.824V318.9C155.785 319.518 155.666 320.072 155.427 320.564C155.193 321.053 154.855 321.434 154.414 321.707C153.976 321.98 153.472 322.117 152.902 322.117C152.043 322.117 151.345 321.818 150.81 321.221C150.279 320.623 150.013 319.832 150.013 318.848V318.771ZM151.103 318.9C151.103 319.604 151.265 320.168 151.59 320.594C151.918 321.02 152.355 321.232 152.902 321.232C153.453 321.232 153.89 321.018 154.215 320.588C154.539 320.154 154.701 319.549 154.701 318.771C154.701 318.076 154.535 317.514 154.203 317.084C153.875 316.65 153.437 316.434 152.89 316.434C152.355 316.434 151.924 316.646 151.595 317.072C151.267 317.498 151.103 318.107 151.103 318.9ZM161.058 321.373C160.636 321.869 160.017 322.117 159.201 322.117C158.525 322.117 158.01 321.922 157.654 321.531C157.302 321.137 157.125 320.555 157.121 319.785V315.66H158.205V319.756C158.205 320.717 158.595 321.197 159.377 321.197C160.205 321.197 160.756 320.889 161.029 320.271V315.66H162.113V322H161.082L161.058 321.373ZM164.791 315.66L164.826 316.457C165.31 315.848 165.943 315.543 166.724 315.543C168.064 315.543 168.74 316.299 168.752 317.811V322H167.668V317.805C167.664 317.348 167.558 317.01 167.351 316.791C167.148 316.572 166.83 316.463 166.396 316.463C166.045 316.463 165.736 316.557 165.47 316.744C165.205 316.932 164.998 317.178 164.849 317.482V322H163.765V315.66H164.791ZM170.123 318.777C170.123 317.805 170.353 317.023 170.814 316.434C171.275 315.84 171.879 315.543 172.625 315.543C173.367 315.543 173.955 315.797 174.388 316.305V313H175.472V322H174.476L174.424 321.32C173.99 321.852 173.386 322.117 172.613 322.117C171.879 322.117 171.279 321.816 170.814 321.215C170.353 320.613 170.123 319.828 170.123 318.859V318.777ZM171.207 318.9C171.207 319.619 171.355 320.182 171.652 320.588C171.949 320.994 172.359 321.197 172.883 321.197C173.57 321.197 174.072 320.889 174.388 320.271V317.359C174.064 316.762 173.566 316.463 172.894 316.463C172.363 316.463 171.949 316.668 171.652 317.078C171.355 317.488 171.207 318.096 171.207 318.9ZM182.679 321.232C183.066 321.232 183.404 321.115 183.693 320.881C183.982 320.646 184.142 320.354 184.174 320.002H185.199C185.179 320.365 185.054 320.711 184.824 321.039C184.594 321.367 184.285 321.629 183.898 321.824C183.515 322.02 183.109 322.117 182.679 322.117C181.816 322.117 181.129 321.83 180.617 321.256C180.109 320.678 179.855 319.889 179.855 318.889V318.707C179.855 318.09 179.969 317.541 180.195 317.061C180.422 316.58 180.746 316.207 181.168 315.941C181.594 315.676 182.095 315.543 182.674 315.543C183.385 315.543 183.974 315.756 184.443 316.182C184.916 316.607 185.168 317.16 185.199 317.84H184.174C184.142 317.43 183.986 317.094 183.705 316.832C183.427 316.566 183.084 316.434 182.674 316.434C182.123 316.434 181.695 316.633 181.39 317.031C181.09 317.426 180.939 317.998 180.939 318.748V318.953C180.939 319.684 181.09 320.246 181.39 320.641C181.691 321.035 182.121 321.232 182.679 321.232ZM186.131 318.771C186.131 318.15 186.252 317.592 186.494 317.096C186.74 316.6 187.08 316.217 187.513 315.947C187.951 315.678 188.449 315.543 189.008 315.543C189.871 315.543 190.568 315.842 191.099 316.439C191.635 317.037 191.902 317.832 191.902 318.824V318.9C191.902 319.518 191.783 320.072 191.545 320.564C191.31 321.053 190.972 321.434 190.531 321.707C190.094 321.98 189.59 322.117 189.019 322.117C188.16 322.117 187.463 321.818 186.927 321.221C186.396 320.623 186.131 319.832 186.131 318.848V318.771ZM187.22 318.9C187.22 319.604 187.383 320.168 187.707 320.594C188.035 321.02 188.472 321.232 189.019 321.232C189.57 321.232 190.008 321.018 190.332 320.588C190.656 320.154 190.818 319.549 190.818 318.771C190.818 318.076 190.652 317.514 190.32 317.084C189.992 316.65 189.554 316.434 189.008 316.434C188.472 316.434 188.041 316.646 187.713 317.072C187.385 317.498 187.22 318.107 187.22 318.9ZM194.439 322H193.355V313H194.439V322ZM195.892 318.771C195.892 318.15 196.013 317.592 196.256 317.096C196.502 316.6 196.842 316.217 197.275 315.947C197.713 315.678 198.211 315.543 198.769 315.543C199.633 315.543 200.33 315.842 200.861 316.439C201.396 317.037 201.664 317.832 201.664 318.824V318.9C201.664 319.518 201.545 320.072 201.306 320.564C201.072 321.053 200.734 321.434 200.293 321.707C199.855 321.98 199.351 322.117 198.781 322.117C197.922 322.117 197.224 321.818 196.689 321.221C196.158 320.623 195.892 319.832 195.892 318.848V318.771ZM196.982 318.9C196.982 319.604 197.144 320.168 197.469 320.594C197.797 321.02 198.234 321.232 198.781 321.232C199.332 321.232 199.769 321.018 200.094 320.588C200.418 320.154 200.58 319.549 200.58 318.771C200.58 318.076 200.414 317.514 200.082 317.084C199.754 316.65 199.316 316.434 198.769 316.434C198.234 316.434 197.802 316.646 197.474 317.072C197.146 317.498 196.982 318.107 196.982 318.9ZM206.088 316.633C205.924 316.605 205.746 316.592 205.554 316.592C204.844 316.592 204.361 316.895 204.107 317.5V322H203.023V315.66H204.078L204.095 316.393C204.451 315.826 204.955 315.543 205.607 315.543C205.818 315.543 205.978 315.57 206.088 315.625V316.633ZM210.781 320.318C210.781 320.025 210.67 319.799 210.447 319.639C210.228 319.475 209.844 319.334 209.293 319.217C208.746 319.1 208.31 318.959 207.986 318.795C207.666 318.631 207.427 318.436 207.271 318.209C207.119 317.982 207.043 317.713 207.043 317.4C207.043 316.881 207.261 316.441 207.699 316.082C208.14 315.723 208.703 315.543 209.386 315.543C210.105 315.543 210.687 315.729 211.133 316.1C211.582 316.471 211.806 316.945 211.806 317.523H210.717C210.717 317.227 210.59 316.971 210.336 316.756C210.086 316.541 209.769 316.434 209.386 316.434C208.992 316.434 208.683 316.52 208.461 316.691C208.238 316.863 208.127 317.088 208.127 317.365C208.127 317.627 208.23 317.824 208.437 317.957C208.644 318.09 209.017 318.217 209.556 318.338C210.099 318.459 210.539 318.604 210.875 318.771C211.211 318.939 211.459 319.143 211.619 319.381C211.783 319.615 211.865 319.902 211.865 320.242C211.865 320.809 211.638 321.264 211.185 321.607C210.732 321.947 210.144 322.117 209.422 322.117C208.914 322.117 208.465 322.027 208.074 321.848C207.683 321.668 207.377 321.418 207.154 321.098C206.935 320.773 206.826 320.424 206.826 320.049H207.91C207.929 320.412 208.074 320.701 208.344 320.916C208.617 321.127 208.976 321.232 209.422 321.232C209.832 321.232 210.16 321.15 210.406 320.986C210.656 320.818 210.781 320.596 210.781 320.318ZM213.301 321.432C213.301 321.244 213.355 321.088 213.465 320.963C213.578 320.838 213.746 320.775 213.969 320.775C214.191 320.775 214.359 320.838 214.472 320.963C214.59 321.088 214.648 321.244 214.648 321.432C214.648 321.611 214.59 321.762 214.472 321.883C214.359 322.004 214.191 322.064 213.969 322.064C213.746 322.064 213.578 322.004 213.465 321.883C213.355 321.762 213.301 321.611 213.301 321.432Z" fill="#020E12"/>
<path d="M161.062 250H159.554V244.742H153.82V250H152.32V238.625H153.82V243.516H159.554V238.625H161.062V250ZM172.476 244.68C172.476 245.794 172.289 246.768 171.914 247.602C171.539 248.43 171.007 249.062 170.32 249.5C169.632 249.938 168.83 250.156 167.914 250.156C167.018 250.156 166.223 249.938 165.531 249.5C164.838 249.057 164.299 248.43 163.914 247.617C163.533 246.799 163.338 245.854 163.328 244.781V243.961C163.328 242.867 163.518 241.901 163.898 241.062C164.278 240.224 164.815 239.583 165.507 239.141C166.205 238.693 167.002 238.469 167.898 238.469C168.809 238.469 169.611 238.69 170.304 239.133C171.002 239.57 171.539 240.208 171.914 241.047C172.289 241.88 172.476 242.852 172.476 243.961V244.68ZM170.984 243.945C170.984 242.596 170.713 241.562 170.171 240.844C169.63 240.12 168.872 239.758 167.898 239.758C166.95 239.758 166.203 240.12 165.656 240.844C165.114 241.562 164.835 242.562 164.82 243.844V244.68C164.82 245.987 165.093 247.016 165.64 247.766C166.192 248.51 166.95 248.883 167.914 248.883C168.882 248.883 169.632 248.531 170.164 247.828C170.695 247.12 170.968 246.107 170.984 244.789V243.945ZM176.664 238.625L180.382 247.906L184.101 238.625H186.046V250H184.546V245.57L184.687 240.789L180.953 250H179.804L176.078 240.812L176.226 245.57V250H174.726V238.625H176.664ZM195.125 244.742H190.195V248.773H195.921V250H188.695V238.625H195.843V239.859H190.195V243.516H195.125V244.742Z" fill="#020E12"/>
<path d="M51.2654 44.293C51.1599 45.1953 50.8259 45.8926 50.2634 46.3848C49.7048 46.873 48.9607 47.1172 48.031 47.1172C47.0232 47.1172 46.2146 46.7559 45.6052 46.0332C44.9998 45.3105 44.697 44.3438 44.697 43.1328V42.3125C44.697 41.5195 44.8376 40.8223 45.1189 40.2207C45.4041 39.6191 45.8064 39.1582 46.3259 38.8379C46.8455 38.5137 47.447 38.3516 48.1306 38.3516C49.0369 38.3516 49.7634 38.6055 50.3103 39.1133C50.8572 39.6172 51.1755 40.3164 51.2654 41.2109H50.1345C50.0369 40.5312 49.824 40.0391 49.4958 39.7344C49.1716 39.4297 48.7166 39.2773 48.1306 39.2773C47.4119 39.2773 46.8474 39.543 46.4373 40.0742C46.031 40.6055 45.8279 41.3613 45.8279 42.3418V43.168C45.8279 44.0938 46.0212 44.8301 46.408 45.377C46.7947 45.9238 47.3357 46.1973 48.031 46.1973C48.656 46.1973 49.1345 46.0566 49.4666 45.7754C49.8025 45.4902 50.0251 44.9961 50.1345 44.293H51.2654ZM52.3494 43.7715C52.3494 43.1504 52.4705 42.5918 52.7126 42.0957C52.9587 41.5996 53.2986 41.2168 53.7322 40.9473C54.1697 40.6777 54.6677 40.543 55.2263 40.543C56.0896 40.543 56.7869 40.8418 57.3181 41.4395C57.8533 42.0371 58.1208 42.832 58.1208 43.8242V43.9004C58.1208 44.5176 58.0017 45.0723 57.7634 45.5645C57.5291 46.0527 57.1912 46.4336 56.7498 46.707C56.3123 46.9805 55.8083 47.1172 55.238 47.1172C54.3787 47.1172 53.6814 46.8184 53.1462 46.2207C52.615 45.623 52.3494 44.832 52.3494 43.8477V43.7715ZM53.4392 43.9004C53.4392 44.6035 53.6013 45.168 53.9255 45.5938C54.2537 46.0195 54.6912 46.2324 55.238 46.2324C55.7888 46.2324 56.2263 46.0176 56.5505 45.5879C56.8748 45.1543 57.0369 44.5488 57.0369 43.7715C57.0369 43.0762 56.8708 42.5137 56.5388 42.084C56.2107 41.6504 55.7732 41.4336 55.2263 41.4336C54.6912 41.4336 54.2595 41.6465 53.9314 42.0723C53.6033 42.498 53.4392 43.1074 53.4392 43.9004ZM60.5056 40.6602L60.5408 41.457C61.0251 40.8477 61.658 40.543 62.4392 40.543C63.7791 40.543 64.4548 41.2988 64.4666 42.8105V47H63.3826V42.8047C63.3787 42.3477 63.2732 42.0098 63.0662 41.791C62.863 41.5723 62.5447 41.4629 62.1111 41.4629C61.7595 41.4629 61.4509 41.5566 61.1853 41.7441C60.9197 41.9316 60.7126 42.1777 60.5642 42.4824V47H59.4802V40.6602H60.5056ZM67.572 39.125V40.6602H68.7556V41.498H67.572V45.4297C67.572 45.6836 67.6248 45.875 67.7302 46.0039C67.8357 46.1289 68.0154 46.1914 68.2693 46.1914C68.3943 46.1914 68.5662 46.168 68.7849 46.1211V47C68.4998 47.0781 68.2224 47.1172 67.9529 47.1172C67.4685 47.1172 67.1033 46.9707 66.8572 46.6777C66.6111 46.3848 66.488 45.9688 66.488 45.4297V41.498H65.3337V40.6602H66.488V39.125H67.572ZM73.0916 41.6328C72.9275 41.6055 72.7498 41.5918 72.5583 41.5918C71.8474 41.5918 71.365 41.8945 71.1111 42.5V47H70.0271V40.6602H71.0818L71.0994 41.3926C71.4548 40.8262 71.9587 40.543 72.6111 40.543C72.822 40.543 72.9822 40.5703 73.0916 40.625V41.6328ZM77.7732 47C77.7107 46.875 77.6599 46.6523 77.6208 46.332C77.1169 46.8555 76.5154 47.1172 75.8162 47.1172C75.1912 47.1172 74.6775 46.9414 74.2751 46.5898C73.8767 46.2344 73.6775 45.7852 73.6775 45.2422C73.6775 44.582 73.9275 44.0703 74.4275 43.707C74.9314 43.3398 75.6384 43.1562 76.5486 43.1562H77.6033V42.6582C77.6033 42.2793 77.49 41.9785 77.2634 41.7559C77.0369 41.5293 76.7029 41.416 76.2615 41.416C75.8748 41.416 75.5505 41.5137 75.2888 41.709C75.0271 41.9043 74.8962 42.1406 74.8962 42.418H73.8064C73.8064 42.1016 73.9177 41.7969 74.1404 41.5039C74.3669 41.207 74.6716 40.9727 75.0544 40.8008C75.4412 40.6289 75.865 40.543 76.3259 40.543C77.0564 40.543 77.6287 40.7266 78.0427 41.0938C78.4568 41.457 78.6716 41.959 78.6873 42.5996V45.5176C78.6873 46.0996 78.7615 46.5625 78.9099 46.9062V47H77.7732ZM75.9744 46.1738C76.3142 46.1738 76.6365 46.0859 76.9412 45.9102C77.2458 45.7344 77.4666 45.5059 77.6033 45.2246V43.9238H76.7537C75.4255 43.9238 74.7615 44.3125 74.7615 45.0898C74.7615 45.4297 74.8748 45.6953 75.1013 45.8867C75.3279 46.0781 75.6189 46.1738 75.9744 46.1738ZM84.0779 45.3184C84.0779 45.0254 83.9666 44.7988 83.7439 44.6387C83.5251 44.4746 83.1404 44.334 82.5896 44.2168C82.0427 44.0996 81.6072 43.959 81.283 43.7949C80.9626 43.6309 80.7244 43.4355 80.5681 43.209C80.4158 42.9824 80.3396 42.7129 80.3396 42.4004C80.3396 41.8809 80.5583 41.4414 80.9958 41.082C81.4373 40.7227 81.9998 40.543 82.6833 40.543C83.4021 40.543 83.9841 40.7285 84.4294 41.0996C84.8787 41.4707 85.1033 41.9453 85.1033 42.5234H84.0134C84.0134 42.2266 83.8865 41.9707 83.6326 41.7559C83.3826 41.541 83.0662 41.4336 82.6833 41.4336C82.2888 41.4336 81.9802 41.5195 81.7576 41.6914C81.5349 41.8633 81.4236 42.0879 81.4236 42.3652C81.4236 42.627 81.5271 42.8242 81.7341 42.957C81.9412 43.0898 82.3142 43.2168 82.8533 43.3379C83.3962 43.459 83.8357 43.6035 84.1716 43.7715C84.5076 43.9395 84.7556 44.1426 84.9158 44.3809C85.0798 44.6152 85.1619 44.9023 85.1619 45.2422C85.1619 45.8086 84.9353 46.2637 84.4822 46.6074C84.0291 46.9473 83.4412 47.1172 82.7185 47.1172C82.2107 47.1172 81.7615 47.0273 81.3708 46.8477C80.9802 46.668 80.6736 46.418 80.4509 46.0977C80.2322 45.7734 80.1228 45.4238 80.1228 45.0488H81.2068C81.2263 45.4121 81.3708 45.7012 81.6404 45.916C81.9138 46.127 82.2732 46.2324 82.7185 46.2324C83.1287 46.2324 83.4568 46.1504 83.7029 45.9863C83.9529 45.8184 84.0779 45.5957 84.0779 45.3184ZM88.0447 39.125V40.6602H89.2283V41.498H88.0447V45.4297C88.0447 45.6836 88.0974 45.875 88.2029 46.0039C88.3083 46.1289 88.488 46.1914 88.7419 46.1914C88.8669 46.1914 89.0388 46.168 89.2576 46.1211V47C88.9724 47.0781 88.6951 47.1172 88.4255 47.1172C87.9412 47.1172 87.5759 46.9707 87.3298 46.6777C87.0837 46.3848 86.9607 45.9688 86.9607 45.4297V41.498H85.8064V40.6602H86.9607V39.125H88.0447ZM96.7751 43.5488H94.7712V47H93.6404V38.4688H96.4646C97.4255 38.4688 98.1638 38.6875 98.6794 39.125C99.199 39.5625 99.4587 40.1992 99.4587 41.0352C99.4587 41.5664 99.3142 42.0293 99.0251 42.4238C98.74 42.8184 98.3416 43.1133 97.8298 43.3086L99.8337 46.9297V47H98.6267L96.7751 43.5488ZM94.7712 42.6289H96.4998C97.0583 42.6289 97.5017 42.4844 97.8298 42.1953C98.1619 41.9062 98.3279 41.5195 98.3279 41.0352C98.3279 40.5078 98.1697 40.1035 97.8533 39.8223C97.5408 39.541 97.0876 39.3984 96.4939 39.3945H94.7712V42.6289ZM104.785 47C104.722 46.875 104.672 46.6523 104.633 46.332C104.129 46.8555 103.527 47.1172 102.828 47.1172C102.203 47.1172 101.689 46.9414 101.287 46.5898C100.888 46.2344 100.689 45.7852 100.689 45.2422C100.689 44.582 100.939 44.0703 101.439 43.707C101.943 43.3398 102.65 43.1562 103.56 43.1562H104.615V42.6582C104.615 42.2793 104.502 41.9785 104.275 41.7559C104.049 41.5293 103.715 41.416 103.273 41.416C102.886 41.416 102.562 41.5137 102.301 41.709C102.039 41.9043 101.908 42.1406 101.908 42.418H100.818C100.818 42.1016 100.929 41.7969 101.152 41.5039C101.379 41.207 101.683 40.9727 102.066 40.8008C102.453 40.6289 102.877 40.543 103.338 40.543C104.068 40.543 104.64 40.7266 105.054 41.0938C105.469 41.457 105.683 41.959 105.699 42.5996V45.5176C105.699 46.0996 105.773 46.5625 105.922 46.9062V47H104.785ZM102.986 46.1738C103.326 46.1738 103.648 46.0859 103.953 45.9102C104.258 45.7344 104.478 45.5059 104.615 45.2246V43.9238H103.765C102.437 43.9238 101.773 44.3125 101.773 45.0898C101.773 45.4297 101.886 45.6953 102.113 45.8867C102.34 46.0781 102.631 46.1738 102.986 46.1738ZM108.869 39.125V40.6602H110.052V41.498H108.869V45.4297C108.869 45.6836 108.922 45.875 109.027 46.0039C109.133 46.1289 109.312 46.1914 109.566 46.1914C109.691 46.1914 109.863 46.168 110.082 46.1211V47C109.797 47.0781 109.519 47.1172 109.25 47.1172C108.765 47.1172 108.4 46.9707 108.154 46.6777C107.908 46.3848 107.785 45.9688 107.785 45.4297V41.498H106.631V40.6602H107.785V39.125H108.869ZM112.502 47H111.418V40.6602H112.502V47ZM111.33 38.9785C111.33 38.8027 111.383 38.6543 111.488 38.5332C111.597 38.4121 111.758 38.3516 111.969 38.3516C112.179 38.3516 112.34 38.4121 112.449 38.5332C112.558 38.6543 112.613 38.8027 112.613 38.9785C112.613 39.1543 112.558 39.3008 112.449 39.418C112.34 39.5352 112.179 39.5938 111.969 39.5938C111.758 39.5938 111.597 39.5352 111.488 39.418C111.383 39.3008 111.33 39.1543 111.33 38.9785ZM113.955 43.7715C113.955 43.1504 114.076 42.5918 114.318 42.0957C114.564 41.5996 114.904 41.2168 115.338 40.9473C115.775 40.6777 116.273 40.543 116.832 40.543C117.695 40.543 118.392 40.8418 118.924 41.4395C119.459 42.0371 119.726 42.832 119.726 43.8242V43.9004C119.726 44.5176 119.607 45.0723 119.369 45.5645C119.135 46.0527 118.797 46.4336 118.355 46.707C117.918 46.9805 117.414 47.1172 116.844 47.1172C115.984 47.1172 115.287 46.8184 114.752 46.2207C114.22 45.623 113.955 44.832 113.955 43.8477V43.7715ZM115.045 43.9004C115.045 44.6035 115.207 45.168 115.531 45.5938C115.859 46.0195 116.297 46.2324 116.844 46.2324C117.394 46.2324 117.832 46.0176 118.156 45.5879C118.48 45.1543 118.642 44.5488 118.642 43.7715C118.642 43.0762 118.476 42.5137 118.144 42.084C117.816 41.6504 117.379 41.4336 116.832 41.4336C116.297 41.4336 115.865 41.6465 115.537 42.0723C115.209 42.498 115.045 43.1074 115.045 43.9004ZM48.2712 65H47.1814V57.7754L44.9958 58.5781V57.5938L48.1013 56.4277H48.2712V65ZM55.6013 61.25C55.3748 61.5195 55.1033 61.7363 54.7869 61.9004C54.4744 62.0645 54.1306 62.1465 53.7556 62.1465C53.2634 62.1465 52.8337 62.0254 52.4666 61.7832C52.1033 61.541 51.822 61.2012 51.6228 60.7637C51.4236 60.3223 51.324 59.8359 51.324 59.3047C51.324 58.7344 51.4314 58.2207 51.6462 57.7637C51.865 57.3066 52.1736 56.957 52.572 56.7148C52.9705 56.4727 53.4353 56.3516 53.9666 56.3516C54.8103 56.3516 55.4744 56.668 55.9587 57.3008C56.447 57.9297 56.6912 58.7891 56.6912 59.8789V60.1953C56.6912 61.8555 56.363 63.0684 55.7068 63.834C55.0505 64.5957 54.0603 64.9863 52.7361 65.0059H52.5251V64.0918H52.7537C53.6482 64.0762 54.3357 63.8438 54.8162 63.3945C55.2966 62.9414 55.5583 62.2266 55.6013 61.25ZM53.9314 61.25C54.2947 61.25 54.6287 61.1387 54.9333 60.916C55.2419 60.6934 55.4666 60.418 55.6072 60.0898V59.6562C55.6072 58.9453 55.4529 58.3672 55.1443 57.9219C54.8357 57.4766 54.4451 57.2539 53.9724 57.2539C53.4958 57.2539 53.113 57.4375 52.824 57.8047C52.5349 58.168 52.3904 58.6484 52.3904 59.2461C52.3904 59.8281 52.5291 60.3086 52.8064 60.6875C53.0876 61.0625 53.4626 61.25 53.9314 61.25ZM58.3201 64.4316C58.3201 64.2441 58.3748 64.0879 58.4841 63.9629C58.5974 63.8379 58.7654 63.7754 58.988 63.7754C59.2107 63.7754 59.3787 63.8379 59.4919 63.9629C59.6091 64.0879 59.6677 64.2441 59.6677 64.4316C59.6677 64.6113 59.6091 64.7617 59.4919 64.8828C59.3787 65.0039 59.2107 65.0645 58.988 65.0645C58.7654 65.0645 58.5974 65.0039 58.4841 64.8828C58.3748 64.7617 58.3201 64.6113 58.3201 64.4316ZM61.8474 60.7227L62.281 56.4688H66.6521V57.4707H63.2009L62.9431 59.7969C63.3611 59.5508 63.8357 59.4277 64.3669 59.4277C65.1443 59.4277 65.7615 59.6855 66.2185 60.2012C66.6755 60.7129 66.9041 61.4062 66.9041 62.2812C66.9041 63.1602 66.6658 63.8535 66.1892 64.3613C65.7166 64.8652 65.0544 65.1172 64.2029 65.1172C63.449 65.1172 62.8337 64.9082 62.3572 64.4902C61.8806 64.0723 61.6091 63.4941 61.5427 62.7559H62.5681C62.6345 63.2441 62.8083 63.6133 63.0896 63.8633C63.3708 64.1094 63.7419 64.2324 64.2029 64.2324C64.7068 64.2324 65.1013 64.0605 65.3865 63.7168C65.6755 63.373 65.8201 62.8984 65.8201 62.293C65.8201 61.7227 65.6638 61.2656 65.3513 60.9219C65.0427 60.5742 64.6306 60.4004 64.115 60.4004C63.6423 60.4004 63.2712 60.5039 63.0017 60.7109L62.7146 60.9453L61.8474 60.7227ZM68.5857 60.7227L69.0193 56.4688H73.3904V57.4707H69.9392L69.6814 59.7969C70.0994 59.5508 70.574 59.4277 71.1052 59.4277C71.8826 59.4277 72.4998 59.6855 72.9568 60.2012C73.4138 60.7129 73.6423 61.4062 73.6423 62.2812C73.6423 63.1602 73.4041 63.8535 72.9275 64.3613C72.4548 64.8652 71.7927 65.1172 70.9412 65.1172C70.1873 65.1172 69.572 64.9082 69.0955 64.4902C68.6189 64.0723 68.3474 63.4941 68.281 62.7559H69.3064C69.3728 63.2441 69.5466 63.6133 69.8279 63.8633C70.1091 64.1094 70.4802 64.2324 70.9412 64.2324C71.4451 64.2324 71.8396 64.0605 72.1248 63.7168C72.4138 63.373 72.5583 62.8984 72.5583 62.293C72.5583 61.7227 72.4021 61.2656 72.0896 60.9219C71.781 60.5742 71.3689 60.4004 70.8533 60.4004C70.3806 60.4004 70.0095 60.5039 69.74 60.7109L69.4529 60.9453L68.5857 60.7227ZM74.9021 64.4316C74.9021 64.2441 74.9568 64.0879 75.0662 63.9629C75.1794 63.8379 75.3474 63.7754 75.5701 63.7754C75.7927 63.7754 75.9607 63.8379 76.074 63.9629C76.1912 64.0879 76.2498 64.2441 76.2498 64.4316C76.2498 64.6113 76.1912 64.7617 76.074 64.8828C75.9607 65.0039 75.7927 65.0645 75.5701 65.0645C75.3474 65.0645 75.1794 65.0039 75.0662 64.8828C74.9568 64.7617 74.9021 64.6113 74.9021 64.4316ZM74.908 59.2578C74.908 59.0703 74.9626 58.9141 75.072 58.7891C75.1853 58.6641 75.3533 58.6016 75.5759 58.6016C75.7986 58.6016 75.9666 58.6641 76.0798 58.7891C76.197 58.9141 76.2556 59.0703 76.2556 59.2578C76.2556 59.4375 76.197 59.5879 76.0798 59.709C75.9666 59.8301 75.7986 59.8906 75.5759 59.8906C75.3533 59.8906 75.1853 59.8301 75.072 59.709C74.9626 59.5879 74.908 59.4375 74.908 59.2578ZM81.2947 65H80.2048V57.7754L78.0193 58.5781V57.5938L81.1248 56.4277H81.2947V65Z" fill="#020E12"/>
<rect x="277" y="36" width="28" height="13" rx="6.5" fill="#1D781D"/>
<path d="M281.587 43.0107V45.5156H280.743V39.1172H283.103C283.803 39.1172 284.351 39.2959 284.747 39.6533C285.145 40.0107 285.344 40.4839 285.344 41.0728C285.344 41.6938 285.149 42.1729 284.76 42.5098C284.373 42.8438 283.818 43.0107 283.094 43.0107H281.587ZM281.587 42.3208H283.103C283.554 42.3208 283.9 42.2153 284.14 42.0044C284.38 41.7905 284.5 41.4829 284.5 41.0815C284.5 40.7007 284.38 40.396 284.14 40.1675C283.9 39.939 283.57 39.8203 283.151 39.8115H281.587V42.3208ZM289.348 43.8457H286.667L286.065 45.5156H285.195L287.638 39.1172H288.376L290.824 45.5156H289.958L289.348 43.8457ZM286.922 43.1514H289.097L288.007 40.1587L286.922 43.1514ZM293.571 42.6636C292.847 42.4556 292.32 42.2007 291.989 41.8989C291.661 41.5942 291.497 41.2192 291.497 40.7739C291.497 40.27 291.697 39.854 292.099 39.5259C292.503 39.1948 293.027 39.0293 293.672 39.0293C294.111 39.0293 294.502 39.1143 294.845 39.2842C295.191 39.4541 295.458 39.6885 295.645 39.9873C295.835 40.2861 295.931 40.6128 295.931 40.9673H295.083C295.083 40.5806 294.959 40.2773 294.713 40.0576C294.467 39.835 294.12 39.7236 293.672 39.7236C293.256 39.7236 292.931 39.8159 292.696 40.0005C292.465 40.1821 292.349 40.4355 292.349 40.7607C292.349 41.0215 292.459 41.2427 292.679 41.4243C292.901 41.603 293.278 41.7671 293.808 41.9165C294.341 42.0659 294.757 42.2314 295.056 42.4131C295.358 42.5918 295.581 42.8013 295.724 43.0415C295.871 43.2817 295.944 43.5645 295.944 43.8896C295.944 44.4082 295.742 44.8242 295.337 45.1377C294.933 45.4482 294.393 45.6035 293.716 45.6035C293.276 45.6035 292.866 45.52 292.485 45.353C292.104 45.1831 291.81 44.9517 291.602 44.6587C291.397 44.3657 291.294 44.0332 291.294 43.6611H292.143C292.143 44.0479 292.285 44.354 292.569 44.5796C292.856 44.8022 293.238 44.9136 293.716 44.9136C294.161 44.9136 294.502 44.8228 294.74 44.6411C294.977 44.4595 295.096 44.2119 295.096 43.8984C295.096 43.585 294.986 43.3433 294.766 43.1733C294.546 43.0005 294.148 42.8306 293.571 42.6636ZM298.915 42.6636C298.191 42.4556 297.664 42.2007 297.333 41.8989C297.004 41.5942 296.84 41.2192 296.84 40.7739C296.84 40.27 297.041 39.854 297.442 39.5259C297.847 39.1948 298.371 39.0293 299.016 39.0293C299.455 39.0293 299.846 39.1143 300.189 39.2842C300.535 39.4541 300.801 39.6885 300.989 39.9873C301.179 40.2861 301.274 40.6128 301.274 40.9673H300.426C300.426 40.5806 300.303 40.2773 300.057 40.0576C299.811 39.835 299.464 39.7236 299.016 39.7236C298.6 39.7236 298.274 39.8159 298.04 40.0005C297.809 40.1821 297.693 40.4355 297.693 40.7607C297.693 41.0215 297.803 41.2427 298.022 41.4243C298.245 41.603 298.622 41.7671 299.152 41.9165C299.685 42.0659 300.101 42.2314 300.4 42.4131C300.702 42.5918 300.924 42.8013 301.068 43.0415C301.214 43.2817 301.288 43.5645 301.288 43.8896C301.288 44.4082 301.085 44.8242 300.681 45.1377C300.277 45.4482 299.736 45.6035 299.06 45.6035C298.62 45.6035 298.21 45.52 297.829 45.353C297.448 45.1831 297.154 44.9517 296.946 44.6587C296.741 44.3657 296.638 44.0332 296.638 43.6611H297.486C297.486 44.0479 297.628 44.354 297.913 44.5796C298.2 44.8022 298.582 44.9136 299.06 44.9136C299.505 44.9136 299.846 44.8228 300.083 44.6411C300.321 44.4595 300.439 44.2119 300.439 43.8984C300.439 43.585 300.33 43.3433 300.11 43.1733C299.89 43.0005 299.492 42.8306 298.915 42.6636Z" fill="white"/>
<rect x="277" y="53" width="28" height="13" rx="6.5" fill="#1D781D"/>
<path d="M281.587 60.0107V62.5156H280.743V56.1172H283.103C283.803 56.1172 284.351 56.2959 284.747 56.6533C285.145 57.0107 285.344 57.4839 285.344 58.0728C285.344 58.6938 285.149 59.1729 284.76 59.5098C284.373 59.8438 283.818 60.0107 283.094 60.0107H281.587ZM281.587 59.3208H283.103C283.554 59.3208 283.9 59.2153 284.14 59.0044C284.38 58.7905 284.5 58.4829 284.5 58.0815C284.5 57.7007 284.38 57.396 284.14 57.1675C283.9 56.939 283.57 56.8203 283.151 56.8115H281.587V59.3208ZM289.348 60.8457H286.667L286.065 62.5156H285.195L287.638 56.1172H288.376L290.824 62.5156H289.958L289.348 60.8457ZM286.922 60.1514H289.097L288.007 57.1587L286.922 60.1514ZM293.571 59.6636C292.847 59.4556 292.32 59.2007 291.989 58.8989C291.661 58.5942 291.497 58.2192 291.497 57.7739C291.497 57.27 291.697 56.854 292.099 56.5259C292.503 56.1948 293.027 56.0293 293.672 56.0293C294.111 56.0293 294.502 56.1143 294.845 56.2842C295.191 56.4541 295.458 56.6885 295.645 56.9873C295.835 57.2861 295.931 57.6128 295.931 57.9673H295.083C295.083 57.5806 294.959 57.2773 294.713 57.0576C294.467 56.835 294.12 56.7236 293.672 56.7236C293.256 56.7236 292.931 56.8159 292.696 57.0005C292.465 57.1821 292.349 57.4355 292.349 57.7607C292.349 58.0215 292.459 58.2427 292.679 58.4243C292.901 58.603 293.278 58.7671 293.808 58.9165C294.341 59.0659 294.757 59.2314 295.056 59.4131C295.358 59.5918 295.581 59.8013 295.724 60.0415C295.871 60.2817 295.944 60.5645 295.944 60.8896C295.944 61.4082 295.742 61.8242 295.337 62.1377C294.933 62.4482 294.393 62.6035 293.716 62.6035C293.276 62.6035 292.866 62.52 292.485 62.353C292.104 62.1831 291.81 61.9517 291.602 61.6587C291.397 61.3657 291.294 61.0332 291.294 60.6611H292.143C292.143 61.0479 292.285 61.354 292.569 61.5796C292.856 61.8022 293.238 61.9136 293.716 61.9136C294.161 61.9136 294.502 61.8228 294.74 61.6411C294.977 61.4595 295.096 61.2119 295.096 60.8984C295.096 60.585 294.986 60.3433 294.766 60.1733C294.546 60.0005 294.148 59.8306 293.571 59.6636ZM298.915 59.6636C298.191 59.4556 297.664 59.2007 297.333 58.8989C297.004 58.5942 296.84 58.2192 296.84 57.7739C296.84 57.27 297.041 56.854 297.442 56.5259C297.847 56.1948 298.371 56.0293 299.016 56.0293C299.455 56.0293 299.846 56.1143 300.189 56.2842C300.535 56.4541 300.801 56.6885 300.989 56.9873C301.179 57.2861 301.274 57.6128 301.274 57.9673H300.426C300.426 57.5806 300.303 57.2773 300.057 57.0576C299.811 56.835 299.464 56.7236 299.016 56.7236C298.6 56.7236 298.274 56.8159 298.04 57.0005C297.809 57.1821 297.693 57.4355 297.693 57.7607C297.693 58.0215 297.803 58.2427 298.022 58.4243C298.245 58.603 298.622 58.7671 299.152 58.9165C299.685 59.0659 300.101 59.2314 300.4 59.4131C300.702 59.5918 300.924 59.8013 301.068 60.0415C301.214 60.2817 301.288 60.5645 301.288 60.8896C301.288 61.4082 301.085 61.8242 300.681 62.1377C300.277 62.4482 299.736 62.6035 299.06 62.6035C298.62 62.6035 298.21 62.52 297.829 62.353C297.448 62.1831 297.154 61.9517 296.946 61.6587C296.741 61.3657 296.638 61.0332 296.638 60.6611H297.486C297.486 61.0479 297.628 61.354 297.913 61.5796C298.2 61.8022 298.582 61.9136 299.06 61.9136C299.505 61.9136 299.846 61.8228 300.083 61.6411C300.321 61.4595 300.439 61.2119 300.439 60.8984C300.439 60.585 300.33 60.3433 300.11 60.1733C299.89 60.0005 299.492 59.8306 298.915 59.6636Z" fill="white"/>
<path d="M213.831 44.3105L213.995 45.4355L214.235 44.4219L215.922 38.4688H216.872L218.518 44.4219L218.752 45.4531L218.934 44.3047L220.258 38.4688H221.389L219.321 47H218.295L216.538 40.7832L216.403 40.1328L216.268 40.7832L214.446 47H213.42L211.358 38.4688H212.483L213.831 44.3105ZM228.918 44.293C228.813 45.1953 228.479 45.8926 227.917 46.3848C227.358 46.873 226.614 47.1172 225.684 47.1172C224.676 47.1172 223.868 46.7559 223.258 46.0332C222.653 45.3105 222.35 44.3438 222.35 43.1328V42.3125C222.35 41.5195 222.491 40.8223 222.772 40.2207C223.057 39.6191 223.459 39.1582 223.979 38.8379C224.499 38.5137 225.1 38.3516 225.784 38.3516C226.69 38.3516 227.417 38.6055 227.963 39.1133C228.51 39.6172 228.829 40.3164 228.918 41.2109H227.788C227.69 40.5312 227.477 40.0391 227.149 39.7344C226.825 39.4297 226.37 39.2773 225.784 39.2773C225.065 39.2773 224.5 39.543 224.09 40.0742C223.684 40.6055 223.481 41.3613 223.481 42.3418V43.168C223.481 44.0938 223.674 44.8301 224.061 45.377C224.448 45.9238 224.989 46.1973 225.684 46.1973C226.309 46.1973 226.788 46.0566 227.12 45.7754C227.456 45.4902 227.678 44.9961 227.788 44.293H228.918ZM235.17 44.7734H231.596L230.793 47H229.633L232.891 38.4688H233.875L237.139 47H235.985L235.17 44.7734ZM231.936 43.8477H234.836L233.383 39.8574L231.936 43.8477ZM244.516 45.8809C244.227 46.2949 243.823 46.6055 243.303 46.8125C242.788 47.0156 242.186 47.1172 241.499 47.1172C240.803 47.1172 240.186 46.9551 239.647 46.6309C239.108 46.3027 238.69 45.8379 238.393 45.2363C238.1 44.6348 237.95 43.9375 237.942 43.1445V42.4004C237.942 41.1152 238.241 40.1191 238.838 39.4121C239.44 38.7051 240.284 38.3516 241.37 38.3516C242.26 38.3516 242.977 38.5801 243.52 39.0371C244.063 39.4902 244.395 40.1348 244.516 40.9707H243.391C243.18 39.8418 242.508 39.2773 241.375 39.2773C240.622 39.2773 240.049 39.543 239.659 40.0742C239.272 40.6016 239.077 41.3672 239.073 42.3711V43.0684C239.073 44.0254 239.292 44.7871 239.729 45.3535C240.167 45.916 240.758 46.1973 241.504 46.1973C241.926 46.1973 242.295 46.1504 242.612 46.0566C242.928 45.9629 243.19 45.8047 243.397 45.582V43.666H241.422V42.752H244.516V45.8809ZM254.084 44.7734H250.51L249.708 47H248.547L251.805 38.4688H252.79L256.053 47H254.899L254.084 44.7734ZM250.85 43.8477H253.75L252.297 39.8574L250.85 43.8477ZM261.913 44.7734H258.338L257.536 47H256.375L259.633 38.4688H260.618L263.881 47H262.727L261.913 44.7734ZM258.678 43.8477H261.579L260.125 39.8574L258.678 43.8477ZM213.831 62.3105L213.995 63.4355L214.235 62.4219L215.922 56.4688H216.872L218.518 62.4219L218.752 63.4531L218.934 62.3047L220.258 56.4688H221.389L219.321 65H218.295L216.538 58.7832L216.403 58.1328L216.268 58.7832L214.446 65H213.42L211.358 56.4688H212.483L213.831 62.3105ZM228.918 62.293C228.813 63.1953 228.479 63.8926 227.917 64.3848C227.358 64.873 226.614 65.1172 225.684 65.1172C224.676 65.1172 223.868 64.7559 223.258 64.0332C222.653 63.3105 222.35 62.3438 222.35 61.1328V60.3125C222.35 59.5195 222.491 58.8223 222.772 58.2207C223.057 57.6191 223.459 57.1582 223.979 56.8379C224.499 56.5137 225.1 56.3516 225.784 56.3516C226.69 56.3516 227.417 56.6055 227.963 57.1133C228.51 57.6172 228.829 58.3164 228.918 59.2109H227.788C227.69 58.5312 227.477 58.0391 227.149 57.7344C226.825 57.4297 226.37 57.2773 225.784 57.2773C225.065 57.2773 224.5 57.543 224.09 58.0742C223.684 58.6055 223.481 59.3613 223.481 60.3418V61.168C223.481 62.0938 223.674 62.8301 224.061 63.377C224.448 63.9238 224.989 64.1973 225.684 64.1973C226.309 64.1973 226.788 64.0566 227.12 63.7754C227.456 63.4902 227.678 62.9961 227.788 62.293H228.918ZM235.17 62.7734H231.596L230.793 65H229.633L232.891 56.4688H233.875L237.139 65H235.985L235.17 62.7734ZM231.936 61.8477H234.836L233.383 57.8574L231.936 61.8477ZM244.516 63.8809C244.227 64.2949 243.823 64.6055 243.303 64.8125C242.788 65.0156 242.186 65.1172 241.499 65.1172C240.803 65.1172 240.186 64.9551 239.647 64.6309C239.108 64.3027 238.69 63.8379 238.393 63.2363C238.1 62.6348 237.95 61.9375 237.942 61.1445V60.4004C237.942 59.1152 238.241 58.1191 238.838 57.4121C239.44 56.7051 240.284 56.3516 241.37 56.3516C242.26 56.3516 242.977 56.5801 243.52 57.0371C244.063 57.4902 244.395 58.1348 244.516 58.9707H243.391C243.18 57.8418 242.508 57.2773 241.375 57.2773C240.622 57.2773 240.049 57.543 239.659 58.0742C239.272 58.6016 239.077 59.3672 239.073 60.3711V61.0684C239.073 62.0254 239.292 62.7871 239.729 63.3535C240.167 63.916 240.758 64.1973 241.504 64.1973C241.926 64.1973 242.295 64.1504 242.612 64.0566C242.928 63.9629 243.19 63.8047 243.397 63.582V61.666H241.422V60.752H244.516V63.8809ZM254.084 62.7734H250.51L249.708 65H248.547L251.805 56.4688H252.79L256.053 65H254.899L254.084 62.7734ZM250.85 61.8477H253.75L252.297 57.8574L250.85 61.8477ZM261.913 62.7734H258.338L257.536 65H256.375L259.633 56.4688H260.618L263.881 65H262.727L261.913 62.7734ZM258.678 61.8477H261.579L260.125 57.8574L258.678 61.8477ZM269.741 62.7734H266.167L265.364 65H264.204L267.461 56.4688H268.446L271.709 65H270.555L269.741 62.7734ZM266.506 61.8477H269.407L267.954 57.8574L266.506 61.8477Z" fill="#020E12"/>
<defs>
<filter id="filter0_ddd" x="0" y="0" width="349" height="399" filterUnits="userSpaceOnUse" color-interpolation-filters="sRGB">
<feFlood flood-opacity="0" result="BackgroundImageFix"/>
<feColorMatrix in="SourceAlpha" type="matrix" values="0 0 0 0 0 0 0 0 0 0 0 0 0 0 0 0 0 0 127 0"/>
<feOffset/>
<feGaussianBlur stdDeviation="0.5"/>
<feColorMatrix type="matrix" values="0 0 0 0 0 0 0 0 0 0 0 0 0 0 0 0 0 0 0.04 0"/>
<feBlend mode="normal" in2="BackgroundImageFix" result="effect1_dropShadow"/>
<feColorMatrix in="SourceAlpha" type="matrix" values="0 0 0 0 0 0 0 0 0 0 0 0 0 0 0 0 0 0 127 0"/>
<feOffset dy="2"/>
<feGaussianBlur stdDeviation="3"/>
<feColorMatrix type="matrix" values="0 0 0 0 0 0 0 0 0 0 0 0 0 0 0 0 0 0 0.04 0"/>
<feBlend mode="normal" in2="effect1_dropShadow" result="effect2_dropShadow"/>
<feColorMatrix in="SourceAlpha" type="matrix" values="0 0 0 0 0 0 0 0 0 0 0 0 0 0 0 0 0 0 127 0"/>
<feOffset dy="10"/>
<feGaussianBlur stdDeviation="10"/>
<feColorMatrix type="matrix" values="0 0 0 0 0 0 0 0 0 0 0 0 0 0 0 0 0 0 0.04 0"/>
<feBlend mode="normal" in2="effect2_dropShadow" result="effect3_dropShadow"/>
<feBlend mode="normal" in="SourceGraphic" in2="effect3_dropShadow" result="shape"/>
</filter>
</defs>
</svg>
