<svg width="356" height="356" viewBox="0 0 356 356" fill="none" xmlns="http://www.w3.org/2000/svg">
<circle cx="178" cy="178" r="178" fill="white"/>
<path fill-rule="evenodd" clip-rule="evenodd" d="M47.1049 179.629C46.554 179 46.0841 178.454 45.6977 178C46.0841 177.546 46.554 177 47.1049 176.371C48.9042 174.315 51.5658 171.369 54.998 167.829C61.8652 160.747 71.8027 151.304 84.0768 141.866C108.685 122.942 142.386 104.267 179.402 104.267C216.418 104.267 250.118 122.942 274.726 141.866C287 151.304 296.938 160.747 303.805 167.829C307.237 171.369 309.899 174.315 311.698 176.371C312.249 177 312.719 177.546 313.105 178C312.719 178.454 312.249 179 311.698 179.629C309.899 181.685 307.237 184.631 303.805 188.171C296.938 195.253 287 204.696 274.726 214.134C250.118 233.058 216.418 251.733 179.402 251.733C142.386 251.733 108.685 233.058 84.0768 214.134C71.8027 204.696 61.8652 195.253 54.998 188.171C51.5658 184.631 48.9042 181.685 47.1049 179.629ZM318.308 176.431C318.309 176.432 318.31 176.433 316.362 178C318.31 179.567 318.309 179.568 318.308 179.569L318.305 179.573L318.295 179.585L318.258 179.631C318.225 179.671 318.178 179.729 318.116 179.804C318.068 179.863 318.011 179.933 317.945 180.012C317.891 180.077 317.832 180.149 317.766 180.228C317.706 180.3 317.641 180.378 317.571 180.461C317.093 181.033 316.385 181.865 315.461 182.922C313.612 185.035 310.892 188.045 307.395 191.652C300.402 198.863 290.284 208.478 277.774 218.098C252.815 237.291 218.035 256.733 179.402 256.733C140.768 256.733 105.988 237.291 81.0289 218.098C68.5192 208.478 58.401 198.863 51.4084 191.652C47.9107 188.045 45.1914 185.035 43.3423 182.922C42.4176 181.865 41.7102 181.033 41.2316 180.461C40.9923 180.175 40.8102 179.955 40.6867 179.804C40.6249 179.729 40.5778 179.671 40.5455 179.631L40.5082 179.585L40.4979 179.573L40.4949 179.569C40.494 179.568 40.4933 179.567 42.4414 178C40.4933 176.433 40.494 176.432 40.4949 176.431L40.4979 176.427L40.5082 176.415L40.5455 176.369C40.5778 176.329 40.6249 176.271 40.6867 176.196C40.8102 176.045 40.9923 175.825 41.2316 175.539C41.7102 174.967 42.4176 174.135 43.3423 173.078C45.1914 170.965 47.9107 167.955 51.4084 164.348C58.401 157.137 68.5192 147.522 81.0289 137.902C105.988 118.709 140.768 99.2675 179.402 99.2675C218.035 99.2675 252.815 118.709 277.774 137.902C290.284 147.522 300.402 157.137 307.395 164.348C310.892 167.955 313.612 170.965 315.461 173.078C316.385 174.135 317.093 174.967 317.571 175.539C317.72 175.717 317.847 175.869 317.951 175.995C318.015 176.072 318.07 176.139 318.116 176.196C318.178 176.271 318.225 176.329 318.258 176.369L318.295 176.415L318.305 176.427L318.308 176.431ZM316.362 178L318.31 176.433C319.046 177.348 319.046 178.652 318.31 179.567L316.362 178ZM40.4933 176.433L42.4414 178L40.4933 179.567C39.7574 178.652 39.7574 177.348 40.4933 176.433ZM135.387 178C135.387 152.903 155.158 132.693 179.402 132.693C203.645 132.693 223.416 152.903 223.416 178C223.416 203.097 203.645 223.307 179.402 223.307C155.158 223.307 135.387 203.097 135.387 178ZM179.402 127.693C152.269 127.693 130.387 150.271 130.387 178C130.387 205.729 152.269 228.307 179.402 228.307C206.534 228.307 228.416 205.729 228.416 178C228.416 150.271 206.534 127.693 179.402 127.693Z" fill="black"/>
<path d="M179.401 153.451C192.239 153.451 202.659 164.449 202.659 178C202.659 191.551 192.239 202.549 179.401 202.549C166.563 202.549 156.144 191.551 156.144 178" stroke="#D43900" stroke-width="5" stroke-linecap="round" stroke-linejoin="round"/>
</svg>
