<svg width="172" height="172" viewBox="0 0 172 172" fill="none" xmlns="http://www.w3.org/2000/svg">
<rect width="172" height="172" rx="86" fill="#E2E7E9"/>
<path fill-rule="evenodd" clip-rule="evenodd" d="M82.3457 29.2119H104.137C115.916 29.2119 125.465 38.7256 125.465 50.4613C125.465 62.1971 115.916 71.7108 104.137 71.7108H82.3457V29.2119ZM89.3318 36.1724V64.7503H104.137C112.058 64.7503 118.478 58.3529 118.478 50.4613C118.478 42.5698 112.058 36.1724 104.137 36.1724H89.3318Z" fill="black"/>
<path fill-rule="evenodd" clip-rule="evenodd" d="M46.2139 50.4623C46.2139 38.7266 55.7627 29.2129 67.5417 29.2129H89.3328V71.7118H67.5417C55.7626 71.7118 46.2139 62.1981 46.2139 50.4623ZM67.5417 36.1734C59.621 36.1734 53.2 42.5707 53.2 50.4623C53.2 58.3539 59.621 64.7513 67.5417 64.7513H82.3467V36.1734H67.5417Z" fill="black"/>
<path fill-rule="evenodd" clip-rule="evenodd" d="M46.2129 86.0004C46.2129 74.2646 55.7617 64.751 67.5407 64.751H89.3318V107.25H67.5407C55.7617 107.25 46.2129 97.7361 46.2129 86.0004ZM67.5407 71.7114C59.62 71.7114 53.199 78.1088 53.199 86.0004C53.199 93.892 59.62 100.289 67.5407 100.289H82.3457V71.7114H67.5407Z" fill="black"/>
<path fill-rule="evenodd" clip-rule="evenodd" d="M46.2129 121.539C46.2129 109.803 55.7617 100.289 67.5407 100.289H89.3318V121.308C89.3318 133.2 79.5335 142.788 67.6558 142.788C55.906 142.788 46.2129 133.303 46.2129 121.539ZM67.5407 107.25C59.62 107.25 53.199 113.647 53.199 121.539C53.199 129.401 59.7058 135.828 67.6558 135.828C75.7337 135.828 82.3457 129.298 82.3457 121.308V107.25H67.5407Z" fill="black"/>
<path fill-rule="evenodd" clip-rule="evenodd" d="M82.3457 86.0004C82.3457 74.2646 91.8945 64.751 103.674 64.751H104.137C115.916 64.751 125.465 74.2646 125.465 86.0004C125.465 97.7361 115.916 107.25 104.137 107.25H103.674C91.8945 107.25 82.3457 97.7361 82.3457 86.0004ZM103.674 71.7114C95.7528 71.7114 89.3318 78.1088 89.3318 86.0004C89.3318 93.892 95.7528 100.289 103.674 100.289H104.137C112.058 100.289 118.478 93.892 118.478 86.0004C118.478 78.1088 112.058 71.7114 104.137 71.7114H103.674Z" fill="black"/>
</svg>
