<svg width="349" height="370" viewBox="0 0 349 370" fill="none" xmlns="http://www.w3.org/2000/svg">
<g filter="url(#filter0_ddd)">
<rect x="20" y="10" width="309" height="330" rx="4" fill="white"/>
<rect x="20.5" y="10.5" width="308" height="329" rx="3.5" stroke="#E2E7E9"/>
</g>
<path d="M123.711 46.1797H119.133V51H117.156V39.625H124.383V41.2188H119.133V44.6016H123.711V46.1797ZM127.789 51H125.891V42.5469H127.789V51ZM125.773 40.3516C125.773 40.0599 125.865 39.8177 126.047 39.625C126.234 39.4323 126.5 39.3359 126.844 39.3359C127.188 39.3359 127.453 39.4323 127.641 39.625C127.828 39.8177 127.922 40.0599 127.922 40.3516C127.922 40.638 127.828 40.8776 127.641 41.0703C127.453 41.2578 127.188 41.3516 126.844 41.3516C126.5 41.3516 126.234 41.2578 126.047 41.0703C125.865 40.8776 125.773 40.638 125.773 40.3516ZM129.531 46.7109C129.531 45.3984 129.839 44.3516 130.453 43.5703C131.073 42.7839 131.893 42.3906 132.914 42.3906C133.878 42.3906 134.635 42.7266 135.188 43.3984L135.273 42.5469H136.984V50.7422C136.984 51.8516 136.638 52.7266 135.945 53.3672C135.258 54.0078 134.328 54.3281 133.156 54.3281C132.536 54.3281 131.93 54.1979 131.336 53.9375C130.747 53.6823 130.299 53.3464 129.992 52.9297L130.891 51.7891C131.474 52.4818 132.193 52.8281 133.047 52.8281C133.677 52.8281 134.174 52.6562 134.539 52.3125C134.904 51.974 135.086 51.474 135.086 50.8125V50.2422C134.539 50.8516 133.81 51.1562 132.898 51.1562C131.909 51.1562 131.099 50.763 130.469 49.9766C129.844 49.1901 129.531 48.1016 129.531 46.7109ZM131.422 46.875C131.422 47.724 131.594 48.3932 131.938 48.8828C132.286 49.3672 132.768 49.6094 133.383 49.6094C134.148 49.6094 134.716 49.2812 135.086 48.625V44.9062C134.727 44.2656 134.164 43.9453 133.398 43.9453C132.773 43.9453 132.286 44.1927 131.938 44.6875C131.594 45.1823 131.422 45.9115 131.422 46.875ZM144.062 50.1719C143.505 50.8281 142.714 51.1562 141.688 51.1562C140.771 51.1562 140.076 50.888 139.602 50.3516C139.133 49.8151 138.898 49.0391 138.898 48.0234V42.5469H140.797V48C140.797 49.0729 141.242 49.6094 142.133 49.6094C143.055 49.6094 143.677 49.2786 144 48.6172V42.5469H145.898V51H144.109L144.062 50.1719ZM152.258 44.2812C152.008 44.2396 151.75 44.2188 151.484 44.2188C150.615 44.2188 150.029 44.5521 149.727 45.2188V51H147.828V42.5469H149.641L149.688 43.4922C150.146 42.7578 150.781 42.3906 151.594 42.3906C151.865 42.3906 152.089 42.4271 152.266 42.5L152.258 44.2812ZM157.023 51.1562C155.82 51.1562 154.844 50.7786 154.094 50.0234C153.349 49.263 152.977 48.2526 152.977 46.9922V46.7578C152.977 45.9141 153.138 45.1615 153.461 44.5C153.789 43.8333 154.247 43.3151 154.836 42.9453C155.424 42.5755 156.081 42.3906 156.805 42.3906C157.956 42.3906 158.844 42.7578 159.469 43.4922C160.099 44.2266 160.414 45.2656 160.414 46.6094V47.375H154.891C154.948 48.0729 155.18 48.625 155.586 49.0312C155.997 49.4375 156.513 49.6406 157.133 49.6406C158.003 49.6406 158.711 49.2891 159.258 48.5859L160.281 49.5625C159.943 50.0677 159.49 50.4609 158.922 50.7422C158.359 51.0182 157.727 51.1562 157.023 51.1562ZM156.797 43.9141C156.276 43.9141 155.854 44.0964 155.531 44.4609C155.214 44.8255 155.01 45.3333 154.922 45.9844H158.539V45.8438C158.497 45.2083 158.328 44.7292 158.031 44.4062C157.734 44.0781 157.323 43.9141 156.797 43.9141ZM165.578 47.9297C165.578 47.4036 165.721 46.9219 166.008 46.4844C166.294 46.0417 166.859 45.5182 167.703 44.9141C167.26 44.3568 166.951 43.8828 166.773 43.4922C166.602 43.1016 166.516 42.724 166.516 42.3594C166.516 41.4688 166.786 40.7656 167.328 40.25C167.87 39.7292 168.599 39.4688 169.516 39.4688C170.344 39.4688 171.021 39.7135 171.547 40.2031C172.078 40.6875 172.344 41.2891 172.344 42.0078C172.344 42.4818 172.224 42.9193 171.984 43.3203C171.745 43.7161 171.352 44.112 170.805 44.5078L170.031 45.0703L172.227 47.6641C172.544 47.0391 172.703 46.3438 172.703 45.5781H174.352C174.352 46.9792 174.023 48.1276 173.367 49.0234L175.039 51H172.836L172.195 50.2422C171.383 50.8516 170.414 51.1562 169.289 51.1562C168.164 51.1562 167.263 50.8594 166.586 50.2656C165.914 49.6667 165.578 48.888 165.578 47.9297ZM169.344 49.6406C169.984 49.6406 170.583 49.4271 171.141 49L168.656 46.0703L168.414 46.2422C167.789 46.7161 167.477 47.2578 167.477 47.8672C167.477 48.3932 167.646 48.8203 167.984 49.1484C168.323 49.4766 168.776 49.6406 169.344 49.6406ZM168.297 42.3125C168.297 42.75 168.565 43.2995 169.102 43.9609L169.969 43.3672L170.211 43.1719C170.534 42.8854 170.695 42.5182 170.695 42.0703C170.695 41.7734 170.583 41.5208 170.359 41.3125C170.135 41.099 169.852 40.9922 169.508 40.9922C169.138 40.9922 168.844 41.1172 168.625 41.3672C168.406 41.6172 168.297 41.9323 168.297 42.3125ZM189 49.5234C188.589 50.0599 188.018 50.4661 187.289 50.7422C186.56 51.0182 185.732 51.1562 184.805 51.1562C183.852 51.1562 183.008 50.9401 182.273 50.5078C181.539 50.0755 180.971 49.4583 180.57 48.6562C180.174 47.849 179.969 46.9089 179.953 45.8359V44.9453C179.953 43.2266 180.365 41.8854 181.188 40.9219C182.01 39.9531 183.159 39.4688 184.633 39.4688C185.898 39.4688 186.904 39.7812 187.648 40.4062C188.393 41.0312 188.841 41.9323 188.992 43.1094H187.055C186.836 41.7396 186.042 41.0547 184.672 41.0547C183.786 41.0547 183.112 41.375 182.648 42.0156C182.19 42.651 181.953 43.5859 181.938 44.8203V45.6953C181.938 46.9245 182.195 47.8802 182.711 48.5625C183.232 49.2396 183.953 49.5781 184.875 49.5781C185.885 49.5781 186.604 49.349 187.031 48.8906V46.6641H184.688V45.1641H189V49.5234ZM195.414 44.2812C195.164 44.2396 194.906 44.2188 194.641 44.2188C193.771 44.2188 193.185 44.5521 192.883 45.2188V51H190.984V42.5469H192.797L192.844 43.4922C193.302 42.7578 193.938 42.3906 194.75 42.3906C195.021 42.3906 195.245 42.4271 195.422 42.5L195.414 44.2812ZM195.977 46.6953C195.977 45.8672 196.141 45.1224 196.469 44.4609C196.797 43.7943 197.258 43.2839 197.852 42.9297C198.445 42.5703 199.128 42.3906 199.898 42.3906C201.039 42.3906 201.964 42.7578 202.672 43.4922C203.385 44.2266 203.771 45.2005 203.828 46.4141L203.836 46.8594C203.836 47.6927 203.674 48.4375 203.352 49.0938C203.034 49.75 202.576 50.2578 201.977 50.6172C201.383 50.9766 200.695 51.1562 199.914 51.1562C198.721 51.1562 197.766 50.7604 197.047 49.9688C196.333 49.1719 195.977 48.112 195.977 46.7891V46.6953ZM197.875 46.8594C197.875 47.7292 198.055 48.4115 198.414 48.9062C198.773 49.3958 199.273 49.6406 199.914 49.6406C200.555 49.6406 201.052 49.3906 201.406 48.8906C201.766 48.3906 201.945 47.6589 201.945 46.6953C201.945 45.8411 201.76 45.1641 201.391 44.6641C201.026 44.1641 200.529 43.9141 199.898 43.9141C199.279 43.9141 198.786 44.1615 198.422 44.6562C198.057 45.1458 197.875 45.8802 197.875 46.8594ZM210.562 50.1719C210.005 50.8281 209.214 51.1562 208.188 51.1562C207.271 51.1562 206.576 50.888 206.102 50.3516C205.633 49.8151 205.398 49.0391 205.398 48.0234V42.5469H207.297V48C207.297 49.0729 207.742 49.6094 208.633 49.6094C209.555 49.6094 210.177 49.2786 210.5 48.6172V42.5469H212.398V51H210.609L210.562 50.1719ZM216.094 42.5469L216.148 43.5234C216.773 42.7682 217.594 42.3906 218.609 42.3906C220.37 42.3906 221.266 43.3984 221.297 45.4141V51H219.398V45.5234C219.398 44.987 219.281 44.5911 219.047 44.3359C218.818 44.0755 218.44 43.9453 217.914 43.9453C217.148 43.9453 216.578 44.2917 216.203 44.9844V51H214.305V42.5469H216.094ZM222.883 46.7109C222.883 45.4089 223.185 44.3646 223.789 43.5781C224.393 42.7865 225.203 42.3906 226.219 42.3906C227.115 42.3906 227.839 42.7031 228.391 43.3281V39H230.289V51H228.57L228.477 50.125C227.909 50.8125 227.151 51.1562 226.203 51.1562C225.214 51.1562 224.411 50.7578 223.797 49.9609C223.188 49.1641 222.883 48.0807 222.883 46.7109ZM224.781 46.875C224.781 47.7344 224.945 48.4062 225.273 48.8906C225.607 49.3698 226.078 49.6094 226.688 49.6094C227.464 49.6094 228.031 49.263 228.391 48.5703V44.9609C228.042 44.2839 227.479 43.9453 226.703 43.9453C226.089 43.9453 225.615 44.1901 225.281 44.6797C224.948 45.1641 224.781 45.8958 224.781 46.875Z" fill="#020E12"/>
<path d="M280 81H68C63.5817 81 60 84.5817 60 89V301C60 305.418 63.5817 309 68 309H280C284.418 309 288 305.418 288 301V89C288 84.5817 284.418 81 280 81Z" fill="#E2E7E9"/>
<g filter="url(#filter1_ddd)">
<path d="M270.267 92.8223H78.5777C73.914 92.8223 70.1333 96.603 70.1333 101.267V288.733C70.1333 293.397 73.914 297.178 78.5777 297.178H270.267C274.93 297.178 278.711 293.397 278.711 288.733V101.267C278.711 96.603 274.93 92.8223 270.267 92.8223Z" fill="white"/>
</g>
<path d="M256.756 267.622H204.4C199.736 267.622 195.956 271.403 195.956 276.067C195.956 280.73 199.736 284.511 204.4 284.511H256.756C261.419 284.511 265.2 280.73 265.2 276.067C265.2 271.403 261.419 267.622 256.756 267.622Z" fill="#D43900"/>
<path d="M264.355 206.822H85.3333V259.178H264.355V206.822Z" stroke="#E2E7E9" stroke-width="2"/>
<path d="M264.355 181.489H85.3333V196.689H264.355V181.489Z" stroke="#E2E7E9" stroke-width="2"/>
<path d="M264.355 156.156H85.3333V171.356H264.355V156.156Z" stroke="#E2E7E9" stroke-width="2"/>
<path fill-rule="evenodd" clip-rule="evenodd" d="M149.511 134.2H198.489V138.422H149.511V134.2Z" fill="#E2E7E9"/>
<path fill-rule="evenodd" clip-rule="evenodd" d="M149.511 121.533H198.489V125.756H149.511V121.533Z" fill="#E2E7E9"/>
<path d="M211.156 106.333H137.689V113.089H211.156V106.333Z" fill="#020E12"/>
<defs>
<filter id="filter0_ddd" x="0" y="0" width="349" height="370" filterUnits="userSpaceOnUse" color-interpolation-filters="sRGB">
<feFlood flood-opacity="0" result="BackgroundImageFix"/>
<feColorMatrix in="SourceAlpha" type="matrix" values="0 0 0 0 0 0 0 0 0 0 0 0 0 0 0 0 0 0 127 0"/>
<feOffset/>
<feGaussianBlur stdDeviation="0.5"/>
<feColorMatrix type="matrix" values="0 0 0 0 0 0 0 0 0 0 0 0 0 0 0 0 0 0 0.04 0"/>
<feBlend mode="normal" in2="BackgroundImageFix" result="effect1_dropShadow"/>
<feColorMatrix in="SourceAlpha" type="matrix" values="0 0 0 0 0 0 0 0 0 0 0 0 0 0 0 0 0 0 127 0"/>
<feOffset dy="2"/>
<feGaussianBlur stdDeviation="3"/>
<feColorMatrix type="matrix" values="0 0 0 0 0 0 0 0 0 0 0 0 0 0 0 0 0 0 0.04 0"/>
<feBlend mode="normal" in2="effect1_dropShadow" result="effect2_dropShadow"/>
<feColorMatrix in="SourceAlpha" type="matrix" values="0 0 0 0 0 0 0 0 0 0 0 0 0 0 0 0 0 0 127 0"/>
<feOffset dy="10"/>
<feGaussianBlur stdDeviation="10"/>
<feColorMatrix type="matrix" values="0 0 0 0 0 0 0 0 0 0 0 0 0 0 0 0 0 0 0.04 0"/>
<feBlend mode="normal" in2="effect2_dropShadow" result="effect3_dropShadow"/>
<feBlend mode="normal" in="SourceGraphic" in2="effect3_dropShadow" result="shape"/>
</filter>
<filter id="filter1_ddd" x="50.1333" y="82.8223" width="248.578" height="244.356" filterUnits="userSpaceOnUse" color-interpolation-filters="sRGB">
<feFlood flood-opacity="0" result="BackgroundImageFix"/>
<feColorMatrix in="SourceAlpha" type="matrix" values="0 0 0 0 0 0 0 0 0 0 0 0 0 0 0 0 0 0 127 0"/>
<feOffset/>
<feGaussianBlur stdDeviation="0.5"/>
<feColorMatrix type="matrix" values="0 0 0 0 0 0 0 0 0 0 0 0 0 0 0 0 0 0 0.04 0"/>
<feBlend mode="normal" in2="BackgroundImageFix" result="effect1_dropShadow"/>
<feColorMatrix in="SourceAlpha" type="matrix" values="0 0 0 0 0 0 0 0 0 0 0 0 0 0 0 0 0 0 127 0"/>
<feOffset dy="2"/>
<feGaussianBlur stdDeviation="3"/>
<feColorMatrix type="matrix" values="0 0 0 0 0 0 0 0 0 0 0 0 0 0 0 0 0 0 0.04 0"/>
<feBlend mode="normal" in2="effect1_dropShadow" result="effect2_dropShadow"/>
<feColorMatrix in="SourceAlpha" type="matrix" values="0 0 0 0 0 0 0 0 0 0 0 0 0 0 0 0 0 0 127 0"/>
<feOffset dy="10"/>
<feGaussianBlur stdDeviation="10"/>
<feColorMatrix type="matrix" values="0 0 0 0 0 0 0 0 0 0 0 0 0 0 0 0 0 0 0.04 0"/>
<feBlend mode="normal" in2="effect2_dropShadow" result="effect3_dropShadow"/>
<feBlend mode="normal" in="SourceGraphic" in2="effect3_dropShadow" result="shape"/>
</filter>
</defs>
</svg>
