<svg width="681" height="369" viewBox="0 0 681 369" fill="none" xmlns="http://www.w3.org/2000/svg">
<g filter="url(#filter0_ddd)">
<rect x="20" y="10" width="641" height="329" rx="4" fill="white"/>
<rect x="20.5" y="10.5" width="640" height="328" rx="3.5" stroke="#E2E7E9"/>
</g>
<path d="M211.546 159.502H216.263V160.576H210.227V150.623H211.546V159.502ZM222.128 160.576C222.055 160.43 221.996 160.17 221.95 159.796C221.362 160.407 220.66 160.712 219.845 160.712C219.116 160.712 218.516 160.507 218.047 160.097C217.582 159.682 217.35 159.158 217.35 158.525C217.35 157.755 217.641 157.158 218.225 156.734C218.812 156.306 219.637 156.091 220.699 156.091H221.93V155.51C221.93 155.068 221.798 154.717 221.533 154.458C221.269 154.193 220.879 154.061 220.364 154.061C219.913 154.061 219.535 154.175 219.229 154.403C218.924 154.631 218.771 154.906 218.771 155.23H217.5C217.5 154.861 217.63 154.505 217.89 154.164C218.154 153.817 218.509 153.544 218.956 153.343C219.407 153.143 219.902 153.042 220.439 153.042C221.292 153.042 221.959 153.257 222.442 153.685C222.925 154.109 223.176 154.694 223.194 155.442V158.846C223.194 159.525 223.281 160.065 223.454 160.466V160.576H222.128ZM220.029 159.612C220.426 159.612 220.802 159.509 221.157 159.304C221.513 159.099 221.77 158.833 221.93 158.504V156.987H220.938C219.389 156.987 218.614 157.44 218.614 158.347C218.614 158.744 218.746 159.054 219.011 159.277C219.275 159.5 219.615 159.612 220.029 159.612ZM231.438 156.959C231.438 158.09 231.179 158.999 230.659 159.687C230.14 160.371 229.442 160.712 228.567 160.712C227.633 160.712 226.911 160.382 226.4 159.721L226.339 160.576H225.177V150.076H226.441V153.993C226.952 153.359 227.656 153.042 228.554 153.042C229.451 153.042 230.156 153.382 230.666 154.061C231.181 154.74 231.438 155.67 231.438 156.85V156.959ZM230.174 156.816C230.174 155.955 230.007 155.289 229.675 154.82C229.342 154.35 228.864 154.116 228.239 154.116C227.405 154.116 226.806 154.503 226.441 155.278V158.477C226.829 159.252 227.433 159.639 228.253 159.639C228.859 159.639 229.331 159.404 229.668 158.935C230.005 158.466 230.174 157.759 230.174 156.816ZM236.107 160.712C235.105 160.712 234.289 160.384 233.66 159.728C233.031 159.067 232.717 158.185 232.717 157.083V156.85C232.717 156.116 232.856 155.462 233.134 154.888C233.416 154.309 233.808 153.858 234.31 153.535C234.815 153.207 235.362 153.042 235.95 153.042C236.912 153.042 237.659 153.359 238.192 153.993C238.726 154.626 238.992 155.533 238.992 156.713V157.24H233.981C234 157.969 234.212 158.559 234.617 159.01C235.027 159.457 235.547 159.68 236.176 159.68C236.622 159.68 237.001 159.589 237.311 159.407C237.62 159.224 237.892 158.983 238.124 158.682L238.896 159.284C238.277 160.236 237.347 160.712 236.107 160.712ZM235.95 154.082C235.44 154.082 235.011 154.268 234.665 154.642C234.319 155.011 234.104 155.531 234.022 156.201H237.728V156.105C237.691 155.462 237.518 154.966 237.208 154.615C236.898 154.259 236.479 154.082 235.95 154.082ZM241.836 160.576H240.571V150.076H241.836V160.576Z" fill="#202528"/>
<mask id="mask0" mask-type="alpha" maskUnits="userSpaceOnUse" x="204" y="170" width="273" height="31">
<path fill-rule="evenodd" clip-rule="evenodd" d="M219.071 170.512C210.787 170.512 204.071 177.228 204.071 185.512C204.071 193.796 210.787 200.512 219.071 200.512H461.071C469.356 200.512 476.071 193.796 476.071 185.512C476.071 177.228 469.356 170.512 461.071 170.512H219.071ZM219.071 171.512C211.339 171.512 205.071 177.78 205.071 185.512C205.071 193.244 211.339 199.512 219.071 199.512H461.071C468.803 199.512 475.071 193.244 475.071 185.512C475.071 177.78 468.803 171.512 461.071 171.512H219.071Z" fill="white"/>
</mask>
<g mask="url(#mask0)">
<rect x="204.071" y="170.512" width="272" height="29.9091" fill="#477385"/>
</g>
<path d="M216.892 185.041V189.494H215.392V178.119H219.587C220.832 178.119 221.806 178.437 222.509 179.072C223.217 179.708 223.571 180.549 223.571 181.596C223.571 182.7 223.225 183.551 222.532 184.15C221.845 184.744 220.858 185.041 219.571 185.041H216.892ZM216.892 183.814H219.587C220.389 183.814 221.004 183.627 221.431 183.252C221.858 182.872 222.071 182.325 222.071 181.611C222.071 180.934 221.858 180.393 221.431 179.986C221.004 179.58 220.418 179.369 219.673 179.354H216.892V183.814ZM226.829 189.494H225.384V177.494H226.829V189.494ZM234.368 189.494C234.285 189.327 234.217 189.031 234.165 188.604C233.493 189.301 232.691 189.65 231.759 189.65C230.925 189.65 230.241 189.416 229.704 188.947C229.173 188.473 228.907 187.874 228.907 187.15C228.907 186.27 229.241 185.588 229.907 185.104C230.579 184.614 231.522 184.369 232.735 184.369H234.142V183.705C234.142 183.2 233.991 182.799 233.688 182.502C233.386 182.2 232.941 182.049 232.353 182.049C231.837 182.049 231.405 182.179 231.056 182.439C230.707 182.7 230.532 183.015 230.532 183.385H229.079C229.079 182.963 229.228 182.557 229.524 182.166C229.826 181.77 230.233 181.458 230.743 181.229C231.259 180.999 231.824 180.885 232.438 180.885C233.412 180.885 234.175 181.13 234.728 181.619C235.28 182.104 235.566 182.773 235.587 183.627V187.518C235.587 188.294 235.686 188.911 235.884 189.369V189.494H234.368ZM231.97 188.393C232.423 188.393 232.853 188.275 233.259 188.041C233.665 187.807 233.959 187.502 234.142 187.127V185.393H233.009C231.238 185.393 230.353 185.911 230.353 186.947C230.353 187.4 230.504 187.755 230.806 188.01C231.108 188.265 231.496 188.393 231.97 188.393ZM241.243 188.471C241.759 188.471 242.209 188.314 242.595 188.002C242.98 187.689 243.194 187.299 243.235 186.83H244.603C244.576 187.314 244.41 187.775 244.103 188.213C243.795 188.65 243.384 188.999 242.868 189.26C242.358 189.52 241.816 189.65 241.243 189.65C240.092 189.65 239.175 189.268 238.493 188.502C237.816 187.731 237.478 186.679 237.478 185.346V185.104C237.478 184.281 237.629 183.549 237.931 182.908C238.233 182.268 238.665 181.77 239.228 181.416C239.795 181.062 240.465 180.885 241.235 180.885C242.183 180.885 242.97 181.169 243.595 181.736C244.225 182.304 244.561 183.041 244.603 183.947H243.235C243.194 183.4 242.985 182.952 242.61 182.604C242.241 182.249 241.782 182.072 241.235 182.072C240.501 182.072 239.931 182.338 239.524 182.869C239.123 183.395 238.923 184.158 238.923 185.158V185.432C238.923 186.406 239.123 187.156 239.524 187.682C239.925 188.208 240.498 188.471 241.243 188.471ZM249.735 189.65C248.59 189.65 247.657 189.275 246.938 188.525C246.22 187.77 245.86 186.762 245.86 185.502V185.236C245.86 184.398 246.019 183.65 246.337 182.994C246.66 182.333 247.108 181.817 247.681 181.447C248.259 181.072 248.884 180.885 249.556 180.885C250.655 180.885 251.509 181.247 252.118 181.971C252.728 182.695 253.032 183.731 253.032 185.08V185.682H247.306C247.326 186.515 247.569 187.189 248.032 187.705C248.501 188.215 249.095 188.471 249.813 188.471C250.324 188.471 250.756 188.367 251.11 188.158C251.465 187.95 251.774 187.674 252.04 187.33L252.923 188.018C252.215 189.106 251.152 189.65 249.735 189.65ZM249.556 182.072C248.972 182.072 248.483 182.286 248.087 182.713C247.691 183.135 247.446 183.729 247.353 184.494H251.587V184.385C251.545 183.65 251.347 183.083 250.993 182.682C250.639 182.275 250.16 182.072 249.556 182.072ZM256.157 182.064C256.798 181.278 257.631 180.885 258.657 180.885C260.444 180.885 261.345 181.893 261.36 183.908V189.494H259.915V183.9C259.91 183.291 259.769 182.84 259.493 182.549C259.222 182.257 258.798 182.111 258.22 182.111C257.751 182.111 257.34 182.236 256.985 182.486C256.631 182.736 256.355 183.064 256.157 183.471V189.494H254.712V177.494H256.157V182.064ZM263.142 185.189C263.142 184.361 263.303 183.617 263.626 182.955C263.954 182.294 264.407 181.783 264.985 181.424C265.569 181.064 266.233 180.885 266.978 180.885C268.129 180.885 269.058 181.283 269.767 182.08C270.48 182.877 270.837 183.937 270.837 185.26V185.361C270.837 186.184 270.678 186.924 270.36 187.58C270.048 188.231 269.597 188.739 269.009 189.104C268.425 189.468 267.754 189.65 266.993 189.65C265.847 189.65 264.918 189.252 264.204 188.455C263.496 187.658 263.142 186.604 263.142 185.291V185.189ZM264.595 185.361C264.595 186.299 264.811 187.051 265.243 187.619C265.681 188.187 266.264 188.471 266.993 188.471C267.728 188.471 268.311 188.184 268.743 187.611C269.175 187.033 269.392 186.226 269.392 185.189C269.392 184.262 269.17 183.512 268.728 182.939C268.29 182.361 267.707 182.072 266.978 182.072C266.264 182.072 265.688 182.356 265.251 182.924C264.813 183.492 264.595 184.304 264.595 185.361ZM274.22 189.494H272.774V177.494H274.22V189.494ZM276.188 185.197C276.188 183.9 276.496 182.859 277.11 182.072C277.725 181.281 278.53 180.885 279.524 180.885C280.514 180.885 281.298 181.223 281.876 181.9V177.494H283.321V189.494H281.993L281.923 188.588C281.345 189.296 280.54 189.65 279.509 189.65C278.53 189.65 277.73 189.249 277.11 188.447C276.496 187.645 276.188 186.598 276.188 185.307V185.197ZM277.634 185.361C277.634 186.32 277.832 187.07 278.228 187.611C278.623 188.153 279.17 188.424 279.868 188.424C280.785 188.424 281.454 188.012 281.876 187.189V183.307C281.444 182.51 280.78 182.111 279.884 182.111C279.175 182.111 278.623 182.385 278.228 182.932C277.832 183.479 277.634 184.288 277.634 185.361ZM289.079 189.65C287.933 189.65 287.001 189.275 286.282 188.525C285.563 187.77 285.204 186.762 285.204 185.502V185.236C285.204 184.398 285.363 183.65 285.681 182.994C286.004 182.333 286.451 181.817 287.024 181.447C287.603 181.072 288.228 180.885 288.899 180.885C289.998 180.885 290.853 181.247 291.462 181.971C292.071 182.695 292.376 183.731 292.376 185.08V185.682H286.649C286.67 186.515 286.912 187.189 287.376 187.705C287.845 188.215 288.438 188.471 289.157 188.471C289.668 188.471 290.1 188.367 290.454 188.158C290.808 187.95 291.118 187.674 291.384 187.33L292.267 188.018C291.558 189.106 290.496 189.65 289.079 189.65ZM288.899 182.072C288.316 182.072 287.826 182.286 287.431 182.713C287.035 183.135 286.79 183.729 286.696 184.494H290.931V184.385C290.889 183.65 290.691 183.083 290.337 182.682C289.983 182.275 289.504 182.072 288.899 182.072ZM298.142 182.338C297.923 182.301 297.686 182.283 297.431 182.283C296.483 182.283 295.84 182.687 295.501 183.494V189.494H294.056V181.041H295.462L295.485 182.018C295.959 181.262 296.631 180.885 297.501 180.885C297.782 180.885 297.996 180.921 298.142 180.994V182.338Z" fill="#1C272B"/>
<line x1="233.071" y1="164.012" x2="248.071" y2="164.012" stroke="#EA0028"/>
<line x1="240.571" y1="171.512" x2="240.571" y2="163.512" stroke="#EA0028"/>
<line x1="233.071" y1="171.012" x2="248.071" y2="171.012" stroke="#EA0028"/>
<rect x="245.571" y="156.012" width="29" height="23" rx="2.5" fill="#EA0028" stroke="#EA0028"/>
<path d="M254.3 166.231C254.3 166.649 254.192 167.022 253.978 167.35C253.763 167.674 253.47 167.93 253.099 168.118C253.31 168.215 253.499 168.334 253.667 168.475C253.839 168.616 253.985 168.774 254.106 168.95C254.228 169.125 254.319 169.319 254.382 169.53C254.448 169.737 254.481 169.958 254.481 170.192C254.481 170.586 254.409 170.936 254.265 171.241C254.12 171.545 253.923 171.801 253.673 172.008C253.423 172.211 253.128 172.366 252.788 172.471C252.452 172.577 252.091 172.629 251.704 172.629C251.31 172.629 250.94 172.577 250.597 172.471C250.257 172.366 249.962 172.211 249.712 172.008C249.462 171.801 249.265 171.545 249.12 171.241C248.979 170.936 248.909 170.586 248.909 170.192C248.909 169.958 248.94 169.735 249.003 169.524C249.069 169.313 249.161 169.12 249.278 168.944C249.399 168.768 249.544 168.61 249.712 168.469C249.884 168.329 250.075 168.211 250.286 168.118C249.919 167.93 249.63 167.674 249.419 167.35C249.208 167.022 249.103 166.649 249.103 166.231C249.103 165.852 249.167 165.516 249.296 165.223C249.425 164.926 249.603 164.678 249.829 164.479C250.06 164.276 250.333 164.124 250.649 164.022C250.966 163.917 251.312 163.864 251.687 163.864C252.062 163.864 252.407 163.917 252.724 164.022C253.044 164.124 253.321 164.276 253.556 164.479C253.79 164.678 253.972 164.926 254.101 165.223C254.233 165.516 254.3 165.852 254.3 166.231ZM253.081 170.122C253.081 169.907 253.048 169.711 252.981 169.536C252.915 169.36 252.821 169.209 252.7 169.084C252.579 168.959 252.433 168.864 252.261 168.797C252.093 168.727 251.903 168.692 251.692 168.692C251.481 168.692 251.29 168.727 251.118 168.797C250.95 168.864 250.806 168.959 250.685 169.084C250.567 169.209 250.476 169.36 250.409 169.536C250.347 169.711 250.315 169.907 250.315 170.122C250.315 170.559 250.438 170.901 250.685 171.147C250.931 171.389 251.271 171.51 251.704 171.51C251.907 171.51 252.093 171.479 252.261 171.417C252.433 171.354 252.579 171.262 252.7 171.141C252.821 171.02 252.915 170.875 252.981 170.708C253.048 170.536 253.081 170.34 253.081 170.122ZM252.899 166.278C252.899 166.09 252.87 165.918 252.812 165.762C252.753 165.602 252.671 165.465 252.565 165.352C252.46 165.239 252.331 165.151 252.179 165.088C252.03 165.026 251.866 164.995 251.687 164.995C251.503 164.995 251.337 165.024 251.188 165.083C251.044 165.141 250.921 165.227 250.819 165.34C250.718 165.45 250.64 165.584 250.585 165.745C250.53 165.901 250.503 166.079 250.503 166.278C250.503 166.473 250.53 166.651 250.585 166.811C250.644 166.967 250.724 167.102 250.825 167.215C250.931 167.325 251.058 167.411 251.206 167.473C251.354 167.536 251.521 167.567 251.704 167.567C251.884 167.567 252.048 167.536 252.196 167.473C252.345 167.411 252.47 167.325 252.571 167.215C252.677 167.102 252.757 166.967 252.812 166.811C252.87 166.651 252.899 166.473 252.899 166.278ZM261.735 169.407C261.735 169.868 261.681 170.295 261.571 170.69C261.462 171.084 261.302 171.426 261.091 171.715C260.88 172 260.62 172.225 260.312 172.389C260.007 172.549 259.655 172.629 259.257 172.629C258.897 172.629 258.579 172.571 258.302 172.454C258.028 172.336 257.792 172.168 257.593 171.95V174.95H256.192V166.172H257.481L257.54 166.811C257.743 166.569 257.983 166.383 258.261 166.254C258.542 166.122 258.868 166.055 259.239 166.055C259.642 166.055 259.997 166.133 260.306 166.29C260.618 166.446 260.88 166.667 261.091 166.952C261.302 167.233 261.462 167.573 261.571 167.971C261.681 168.366 261.735 168.803 261.735 169.284V169.407ZM260.335 169.284C260.335 168.999 260.306 168.731 260.247 168.481C260.188 168.227 260.099 168.006 259.978 167.819C259.856 167.627 259.702 167.477 259.515 167.368C259.327 167.258 259.104 167.204 258.847 167.204C258.534 167.204 258.276 167.27 258.073 167.403C257.87 167.536 257.71 167.713 257.593 167.936V170.772C257.71 170.991 257.868 171.168 258.067 171.305C258.271 171.442 258.534 171.51 258.858 171.51C259.116 171.51 259.339 171.454 259.526 171.34C259.714 171.227 259.866 171.075 259.983 170.883C260.104 170.692 260.192 170.469 260.247 170.215C260.306 169.961 260.335 169.692 260.335 169.407V169.284ZM266.165 168.317L267.677 166.172H269.235L266.997 169.295L269.306 172.512H267.753L266.183 170.292L264.618 172.512H263.054L265.362 169.295L263.124 166.172H264.677L266.165 168.317Z" fill="white"/>
<defs>
<filter id="filter0_ddd" x="0" y="0" width="681" height="369" filterUnits="userSpaceOnUse" color-interpolation-filters="sRGB">
<feFlood flood-opacity="0" result="BackgroundImageFix"/>
<feColorMatrix in="SourceAlpha" type="matrix" values="0 0 0 0 0 0 0 0 0 0 0 0 0 0 0 0 0 0 127 0"/>
<feOffset/>
<feGaussianBlur stdDeviation="0.5"/>
<feColorMatrix type="matrix" values="0 0 0 0 0 0 0 0 0 0 0 0 0 0 0 0 0 0 0.04 0"/>
<feBlend mode="normal" in2="BackgroundImageFix" result="effect1_dropShadow"/>
<feColorMatrix in="SourceAlpha" type="matrix" values="0 0 0 0 0 0 0 0 0 0 0 0 0 0 0 0 0 0 127 0"/>
<feOffset dy="2"/>
<feGaussianBlur stdDeviation="3"/>
<feColorMatrix type="matrix" values="0 0 0 0 0 0 0 0 0 0 0 0 0 0 0 0 0 0 0.04 0"/>
<feBlend mode="normal" in2="effect1_dropShadow" result="effect2_dropShadow"/>
<feColorMatrix in="SourceAlpha" type="matrix" values="0 0 0 0 0 0 0 0 0 0 0 0 0 0 0 0 0 0 127 0"/>
<feOffset dy="10"/>
<feGaussianBlur stdDeviation="10"/>
<feColorMatrix type="matrix" values="0 0 0 0 0 0 0 0 0 0 0 0 0 0 0 0 0 0 0.04 0"/>
<feBlend mode="normal" in2="effect2_dropShadow" result="effect3_dropShadow"/>
<feBlend mode="normal" in="SourceGraphic" in2="effect3_dropShadow" result="shape"/>
</filter>
</defs>
</svg>
