<svg width="472" height="472" viewBox="0 0 472 472" fill="none" xmlns="http://www.w3.org/2000/svg">
<circle cx="236" cy="236" r="236" fill="#E2E7E9"/>
<path fill-rule="evenodd" clip-rule="evenodd" d="M92.9041 45.9417C93.6851 46.7228 93.6851 47.9891 92.9041 48.7702L62.7189 78.9554C61.9379 79.7364 60.6715 79.7364 59.8905 78.9554C59.1094 78.1743 59.1094 76.908 59.8905 76.1269L90.0757 45.9417C90.8567 45.1607 92.123 45.1607 92.9041 45.9417ZM324.87 196.853C325.651 197.634 325.651 198.9 324.87 199.681L324.868 199.683L324.863 199.688L324.845 199.706L324.777 199.774L324.526 200.026L323.641 200.911L320.977 203.579L318.319 206.238L317.445 207.114L317.2 207.359L317.135 207.424L317.118 207.441L317.114 207.445L317.113 207.446L317.113 207.446C317.113 207.446 317.113 207.446 315.698 206.033C314.283 204.619 314.283 204.619 314.283 204.619L314.283 204.619L314.284 204.618L314.289 204.614L314.305 204.597L314.37 204.532L314.615 204.287L315.489 203.412L318.147 200.752L322.041 196.853C322.822 196.072 324.089 196.072 324.87 196.853ZM315.698 206.033L317.113 207.446C316.332 208.228 315.066 208.228 314.284 207.448C313.503 206.667 313.502 205.401 314.283 204.619L315.698 206.033ZM345.021 231.305C346.04 230.878 347.212 231.358 347.639 232.376L353.575 246.542C353.834 247.159 353.767 247.865 353.396 248.423C353.025 248.98 352.4 249.315 351.731 249.315H344.525V271.491C344.525 272.3 344.038 273.029 343.291 273.338C342.543 273.648 341.683 273.477 341.111 272.905L329.515 261.309C328.734 260.528 328.734 259.262 329.515 258.48C330.296 257.699 331.563 257.699 332.344 258.48L340.525 266.662V247.315C340.525 246.21 341.421 245.315 342.525 245.315H348.724L343.95 233.922C343.523 232.904 344.003 231.732 345.021 231.305ZM316.504 276.796L322.44 290.962C322.699 291.579 322.632 292.285 322.261 292.843C321.89 293.4 321.265 293.735 320.596 293.735H313.39V315.911C313.39 317.015 312.495 317.911 311.39 317.911H293.28V325.116C293.28 325.756 292.974 326.358 292.456 326.734C291.937 327.11 291.27 327.216 290.661 327.018L272.43 321.081C271.379 320.739 270.805 319.611 271.147 318.56C271.489 317.51 272.618 316.936 273.668 317.278L289.28 322.361V315.911C289.28 314.806 290.176 313.911 291.28 313.911H309.39V291.735C309.39 290.63 310.286 289.735 311.39 289.735H317.589L312.815 278.342C312.388 277.324 312.868 276.152 313.886 275.725C314.905 275.298 316.077 275.778 316.504 276.796ZM218.413 352.612C217.346 352.327 216.712 351.23 216.998 350.163C217.284 349.096 218.38 348.463 219.447 348.748L231.38 351.942L230.544 345.8C230.395 344.706 231.161 343.698 232.255 343.549L251.426 340.939L242.215 333.936C241.336 333.267 241.165 332.012 241.834 331.133C242.503 330.254 243.757 330.083 244.637 330.752L257.691 340.677C258.335 341.167 258.62 341.996 258.414 342.779C258.208 343.561 257.551 344.142 256.75 344.251L234.777 347.242L235.749 354.382C235.839 355.045 235.591 355.71 235.089 356.152C234.587 356.595 233.896 356.757 233.25 356.584L218.413 352.612ZM278.541 259.299C279.322 258.518 279.322 257.252 278.541 256.471C277.76 255.69 276.494 255.69 275.713 256.471L251.952 280.232C251.171 281.013 251.171 282.279 251.952 283.06C252.733 283.841 253.999 283.841 254.78 283.06L278.541 259.299ZM202.786 204.481C202.005 203.7 200.738 203.7 199.957 204.481C199.176 205.262 199.176 206.528 199.957 207.309L203.348 210.7C204.129 211.481 205.396 211.481 206.177 210.7C206.958 209.919 206.958 208.653 206.177 207.872L202.786 204.481Z" fill="#020E12"/>
<path d="M143.767 247.912L132.74 236.885C74.3132 178.458 38.4358 105.833 24.9614 29.5C101.295 42.9744 173.919 78.8518 232.346 137.279L243.373 148.305" stroke="#020E12" stroke-width="4" stroke-linecap="round" stroke-linejoin="round"/>
<path d="M167.793 244.246L165.337 241.929" stroke="#020E12" stroke-width="4" stroke-linecap="round" stroke-linejoin="round"/>
<path d="M239.708 172.331L237.391 169.876" stroke="#020E12" stroke-width="4" stroke-linecap="round" stroke-linejoin="round"/>
<path d="M247.962 305.664L255.932 313.633L309.113 260.459L302.161 253.506" stroke="#020E12" stroke-width="4" stroke-linecap="round" stroke-linejoin="round"/>
<path d="M288.65 239.998C266.946 218.286 236.314 206.609 204.762 209.284C202.079 240.836 213.764 271.468 235.476 293.172" stroke="#020E12" stroke-width="4" stroke-linecap="round" stroke-linejoin="round"/>
<path d="M303.841 233.462L258.441 163.375C281.535 166.887 302.938 177.743 319.381 194.186L340.743 215.548L313.33 242.952" stroke="#020E12" stroke-width="4" stroke-linecap="round" stroke-linejoin="round"/>
<path d="M228.923 308.38L158.835 262.98C162.348 286.074 173.204 307.477 189.647 323.92L211.009 345.274L238.413 317.87" stroke="#020E12" stroke-width="4" stroke-linecap="round" stroke-linejoin="round"/>
<path fill-rule="evenodd" clip-rule="evenodd" d="M121.757 106.582C127.197 112.022 127.197 120.853 121.757 126.293C116.317 131.741 107.486 131.741 102.046 126.293C96.5974 120.853 96.5974 112.022 102.046 106.582C107.486 101.141 116.317 101.141 121.757 106.582Z" fill="#D43900" stroke="#020E12" stroke-width="4" stroke-linecap="round" stroke-linejoin="round"/>
<path d="M141.908 174.047C134.288 166.427 134.288 154.067 141.908 146.447C149.527 138.82 161.888 138.82 169.507 146.447C177.135 154.067 177.135 166.427 169.507 174.047C167.141 176.413 164.319 178.047 161.319 178.942" stroke="#020E12" stroke-width="4" stroke-linecap="round" stroke-linejoin="round"/>
</svg>
