<svg width="1188" height="229" viewBox="0 0 1188 229" fill="none" xmlns="http://www.w3.org/2000/svg">
<g clip-path="url(#clip0)">
<g opacity="0.35">
<g opacity="0.4">
<path d="M1023.44 173.165C955.97 173.959 902.284 187.271 902.284 203.57C902.284 213.886 923.793 223.013 956.697 228.518" stroke="#477385" stroke-width="4" stroke-linecap="round" stroke-linejoin="round"/>
<path d="M1077.05 182.795C1098.03 139.742 1105.55 104.745 1093.52 98.1181C1084 92.8704 1064.45 106.669 1042.53 131.985" stroke="#477385" stroke-width="4" stroke-linecap="round" stroke-linejoin="round"/>
<path d="M996.26 110.855C983.235 99.5963 972.392 94.6065 966.036 98.1182C956.169 103.554 959.462 128.086 972.548 160.515" stroke="#477385" stroke-width="4" stroke-linecap="round" stroke-linejoin="round"/>
<path d="M1044.12 276.975C1065.39 301.14 1084.23 314.155 1093.53 309.027C1108.78 300.624 1092.59 246.59 1057.39 188.35C1044.49 167.023 1030.84 148.085 1017.95 133.057" stroke="#477385" stroke-width="4" stroke-linecap="round" stroke-linejoin="round"/>
<path fill-rule="evenodd" clip-rule="evenodd" d="M1007.49 136.866C1016.3 136.866 1023.44 130.051 1023.44 121.649C1023.44 113.237 1016.3 106.432 1007.49 106.432C998.686 106.432 991.551 113.237 991.551 121.649C991.551 130.051 998.686 136.866 1007.49 136.866Z" stroke="#477385" stroke-width="4" stroke-linecap="round" stroke-linejoin="round"/>
<path fill-rule="evenodd" clip-rule="evenodd" d="M1123.04 239.341C1131.84 239.341 1138.98 232.526 1138.98 224.123C1138.98 215.711 1131.84 208.906 1123.04 208.906C1114.24 208.906 1107.1 215.711 1107.1 224.123C1107.1 232.526 1114.24 239.341 1123.04 239.341Z" stroke="#477385" stroke-width="4" stroke-linecap="round" stroke-linejoin="round"/>
<path fill-rule="evenodd" clip-rule="evenodd" d="M1142.08 136.866C1147.16 136.866 1151.28 132.938 1151.28 128.067C1151.28 123.216 1147.16 119.278 1142.08 119.278C1136.99 119.278 1132.87 123.216 1132.87 128.067C1132.87 132.938 1136.99 136.866 1142.08 136.866Z" stroke="#477385" stroke-width="4" stroke-linecap="round" stroke-linejoin="round"/>
<path fill-rule="evenodd" clip-rule="evenodd" d="M1029.78 73.9274C1034.87 73.9274 1038.98 69.9892 1038.98 65.1284C1038.98 60.2677 1034.87 56.3394 1029.78 56.3394C1024.69 56.3394 1020.57 60.2677 1020.57 65.1284C1020.57 69.9892 1024.69 73.9274 1029.78 73.9274Z" stroke="#477385" stroke-width="4" stroke-linecap="round" stroke-linejoin="round"/>
<path fill-rule="evenodd" clip-rule="evenodd" d="M903.981 145.662C909.071 145.662 913.194 141.734 913.194 136.863C913.194 132.012 909.071 128.074 903.981 128.074C898.903 128.074 894.779 132.012 894.779 136.863C894.779 141.734 898.903 145.662 903.981 145.662Z" stroke="#477385" stroke-width="4" stroke-linecap="round" stroke-linejoin="round"/>
<path d="M960.455 290.354C959.666 300.086 961.421 306.494 966.033 309.034C980.802 317.178 1019.68 279.482 1054.12 224.129" stroke="#477385" stroke-width="4" stroke-linecap="round" stroke-linejoin="round"/>
<path d="M998.785 194.051C983.798 219.615 972.602 244.097 966.256 263.927" stroke="#477385" stroke-width="4" stroke-linecap="round" stroke-linejoin="round"/>
<path d="M1138.26 219.578C1150.32 214.925 1157.28 209.45 1157.28 203.577C1157.28 192.883 1134.19 183.469 1099.27 178.043" stroke="#477385" stroke-width="4" stroke-linecap="round" stroke-linejoin="round"/>
<path d="M1096.32 229.546C1100.21 228.971 1103.96 228.366 1107.55 227.691" stroke="#477385" stroke-width="4" stroke-linecap="round" stroke-linejoin="round"/>
</g>
<g opacity="0.4">
<path d="M390.82 138.196C345.012 138.735 308.562 147.774 308.562 158.84C308.562 165.844 323.166 172.041 345.506 175.779" stroke="#477385" stroke-width="4" stroke-linecap="round" stroke-linejoin="round"/>
<path d="M427.221 144.734C441.465 115.503 446.571 91.7415 438.405 87.2424C431.939 83.6795 418.667 93.0481 403.781 110.236" stroke="#477385" stroke-width="4" stroke-linecap="round" stroke-linejoin="round"/>
<path d="M372.367 95.8903C363.525 88.2459 356.163 84.8581 351.847 87.2423C345.148 90.9332 347.383 107.589 356.268 129.607" stroke="#477385" stroke-width="4" stroke-linecap="round" stroke-linejoin="round"/>
<path d="M404.864 208.678C419.306 225.085 432.098 233.922 438.409 230.44C448.761 224.735 437.774 188.049 413.869 148.506C405.111 134.026 395.845 121.168 387.094 110.964" stroke="#477385" stroke-width="4" stroke-linecap="round" stroke-linejoin="round"/>
<path fill-rule="evenodd" clip-rule="evenodd" d="M349.508 217.868C354.818 217.868 359.126 213.759 359.126 208.688C359.126 203.609 354.818 199.494 349.508 199.494C344.198 199.494 339.889 203.609 339.889 208.688C339.889 213.759 344.198 217.868 349.508 217.868Z" stroke="#477385" stroke-width="4" stroke-linecap="round" stroke-linejoin="round"/>
<path fill-rule="evenodd" clip-rule="evenodd" d="M379.994 113.551C385.974 113.551 390.819 108.924 390.819 103.219C390.819 97.5075 385.974 92.8872 379.994 92.8872C374.014 92.8872 369.17 97.5075 369.17 103.219C369.17 108.924 374.014 113.551 379.994 113.551Z" stroke="#477385" stroke-width="4" stroke-linecap="round" stroke-linejoin="round"/>
<path fill-rule="evenodd" clip-rule="evenodd" d="M458.448 183.126C464.421 183.126 469.265 178.499 469.265 172.794C469.265 167.083 464.421 162.462 458.448 162.462C452.468 162.462 447.624 167.083 447.624 172.794C447.624 178.499 452.468 183.126 458.448 183.126Z" stroke="#477385" stroke-width="4" stroke-linecap="round" stroke-linejoin="round"/>
<path fill-rule="evenodd" clip-rule="evenodd" d="M471.374 113.551C474.822 113.551 477.621 110.884 477.621 107.577C477.621 104.283 474.822 101.609 471.374 101.609C467.918 101.609 465.119 104.283 465.119 107.577C465.119 110.884 467.918 113.551 471.374 113.551Z" stroke="#477385" stroke-width="4" stroke-linecap="round" stroke-linejoin="round"/>
<path fill-rule="evenodd" clip-rule="evenodd" d="M395.127 70.8185C398.582 70.8185 401.375 68.1446 401.375 64.8443C401.375 61.5441 398.582 58.877 395.127 58.877C391.672 58.877 388.872 61.5441 388.872 64.8443C388.872 68.1446 391.672 70.8185 395.127 70.8185Z" stroke="#477385" stroke-width="4" stroke-linecap="round" stroke-linejoin="round"/>
<path fill-rule="evenodd" clip-rule="evenodd" d="M466.908 225.681C470.363 225.681 473.163 223.014 473.163 219.707C473.163 216.414 470.363 213.747 466.908 213.747C463.452 213.747 460.653 216.414 460.653 219.707C460.653 223.014 463.452 225.681 466.908 225.681Z" stroke="#477385" stroke-width="4" stroke-linecap="round" stroke-linejoin="round"/>
<path fill-rule="evenodd" clip-rule="evenodd" d="M303.465 195.07C306.914 195.07 309.713 192.403 309.713 189.096C309.713 185.803 306.914 183.129 303.465 183.129C300.01 183.129 297.21 185.803 297.21 189.096C297.21 192.403 300.01 195.07 303.465 195.07Z" stroke="#477385" stroke-width="4" stroke-linecap="round" stroke-linejoin="round"/>
<path fill-rule="evenodd" clip-rule="evenodd" d="M309.715 119.523C313.17 119.523 315.969 116.856 315.969 113.549C315.969 110.255 313.17 107.582 309.715 107.582C306.266 107.582 303.467 110.255 303.467 113.549C303.467 116.856 306.266 119.523 309.715 119.523Z" stroke="#477385" stroke-width="4" stroke-linecap="round" stroke-linejoin="round"/>
<path d="M348.058 217.762C347.522 224.37 348.714 228.721 351.845 230.445C361.872 235.974 388.267 210.381 411.65 172.798" stroke="#477385" stroke-width="4" stroke-linecap="round" stroke-linejoin="round"/>
<path d="M374.082 152.376C363.906 169.733 356.305 186.355 351.996 199.819" stroke="#477385" stroke-width="4" stroke-linecap="round" stroke-linejoin="round"/>
<path d="M468.778 169.708C476.965 166.549 481.689 162.831 481.689 158.844C481.689 151.584 466.013 145.192 442.306 141.508" stroke="#477385" stroke-width="4" stroke-linecap="round" stroke-linejoin="round"/>
<path d="M440.305 176.476C442.943 176.086 445.488 175.675 447.928 175.217" stroke="#477385" stroke-width="4" stroke-linecap="round" stroke-linejoin="round"/>
</g>
<g opacity="0.4">
<path d="M132.011 274.786C146.256 245.555 151.361 221.793 143.195 217.294C136.729 213.731 123.457 223.1 108.571 240.288" stroke="#477385" stroke-width="4" stroke-linecap="round" stroke-linejoin="round"/>
<path d="M77.1572 225.942C68.3144 218.298 60.9524 214.91 56.6367 217.294C49.9376 220.985 52.173 237.641 61.0582 259.658" stroke="#477385" stroke-width="4" stroke-linecap="round" stroke-linejoin="round"/>
<path fill-rule="evenodd" clip-rule="evenodd" d="M84.7842 243.603C90.764 243.603 95.6085 238.975 95.6085 233.271C95.6085 227.559 90.764 222.939 84.7842 222.939C78.8044 222.939 73.96 227.559 73.96 233.271C73.96 238.975 78.8044 243.603 84.7842 243.603Z" stroke="#477385" stroke-width="4" stroke-linecap="round" stroke-linejoin="round"/>
<path fill-rule="evenodd" clip-rule="evenodd" d="M99.917 200.87C103.372 200.87 106.165 198.196 106.165 194.896C106.165 191.595 103.372 188.928 99.917 188.928C96.4616 188.928 93.6621 191.595 93.6621 194.896C93.6621 198.196 96.4616 200.87 99.917 200.87Z" stroke="#477385" stroke-width="4" stroke-linecap="round" stroke-linejoin="round"/>
</g>
<g opacity="0.4">
<path d="M784.394 102.138L828.547 139.955" stroke="#477385" stroke-width="4" stroke-linecap="round" stroke-linejoin="round"/>
<path d="M737.365 109.808L727.265 93.0359L755.198 63.2849L773.75 71.0542L839.979 127.78L857.385 177.654L803.593 166.534L737.365 109.808" stroke="#477385" stroke-width="4" stroke-linecap="round" stroke-linejoin="round"/>
<path d="M752.451 12.1242L736.045 5.13335L709.288 34.9706L717.945 50.6018L752.451 12.1242Z" stroke="#477385"/>
<line y1="-2" x2="53.6432" y2="-2" transform="matrix(-0.667633 0.74449 0.74449 0.667633 753.29 11.938)" stroke="#477385" stroke-width="4"/>
<path d="M839.977 127.779L803.591 166.533" stroke="#477385" stroke-width="4" stroke-linecap="round" stroke-linejoin="round"/>
<path d="M838.232 173.691L851.188 159.893" stroke="#477385" stroke-width="4" stroke-linecap="round" stroke-linejoin="round"/>
</g>
<g opacity="0.4">
<path d="M191.958 143.426L109.601 143.426" stroke="#477385" stroke-width="4" stroke-linecap="round" stroke-linejoin="round"/>
<path d="M233.136 93.8501L259.858 102.246L259.858 157.74L233.136 166.136L109.6 166.136L43.192 129.986L109.6 93.8501L233.136 93.8501" stroke="#477385" stroke-width="4" stroke-linecap="round" stroke-linejoin="round"/>
<path d="M189.935 110.584L213.767 102.469L213.767 46.5363L189.935 38.2673L189.935 110.584Z" stroke="#477385"/>
<line y1="-2" x2="74.4936" y2="-2" transform="matrix(1.31134e-07 -1 -1 -1.31134e-07 189.436 111.282)" stroke="#477385" stroke-width="4"/>
<path d="M109.604 166.135L109.604 93.8486" stroke="#477385" stroke-width="4" stroke-linecap="round" stroke-linejoin="round"/>
<path d="M66.8398 117.124L66.8398 142.862" stroke="#477385" stroke-width="4" stroke-linecap="round" stroke-linejoin="round"/>
</g>
<g opacity="0.4">
<path d="M246.319 453.244L223.812 475.615L163.332 447.877L167.539 417.113L229.287 294.294L301.877 246.34L308.067 330.425L246.319 453.244" stroke="#477385" stroke-width="4" stroke-linecap="round" stroke-linejoin="round"/>
</g>
<g opacity="0.4">
<path fill-rule="evenodd" clip-rule="evenodd" d="M521.54 118.74C522.221 119.603 523.479 119.746 524.349 119.059L557.411 92.9661C558.282 92.2789 558.436 91.0217 557.755 90.1581C557.074 89.2945 555.816 89.1516 554.945 89.8388L521.883 115.932C521.012 116.619 520.859 117.876 521.54 118.74ZM650.411 354.041C651.092 354.905 652.35 355.048 653.221 354.36L653.223 354.359L653.228 354.354L653.248 354.339L653.323 354.28L653.598 354.063L654.567 353.298L657.489 350.995L660.402 348.699L661.361 347.942L661.63 347.731L661.701 347.675L661.719 347.661L661.723 347.657L661.724 347.656L661.725 347.656C661.725 347.656 661.725 347.656 660.493 346.092L661.725 347.656C662.596 346.969 662.75 345.712 662.07 344.848C661.389 343.984 660.131 343.84 659.26 344.527L659.473 344.797C659.26 344.527 659.26 344.527 659.26 344.527L659.26 344.528L659.259 344.528L659.254 344.532L659.236 344.546L659.165 344.602L658.897 344.814L657.938 345.57L655.025 347.867L650.754 351.233C649.884 351.92 649.73 353.178 650.411 354.041ZM682.976 376.397C682.465 377.38 682.846 378.584 683.826 379.085L697.429 386.043C698.019 386.344 698.722 386.333 699.306 386.013C699.891 385.692 700.28 385.104 700.346 384.444L701.023 377.641L723.211 379.656C724.025 379.73 724.806 379.302 725.184 378.575C725.562 377.847 725.461 376.968 724.929 376.352L714.434 364.221C713.715 363.39 712.451 363.304 711.612 364.029C710.773 364.755 710.676 366.017 711.395 366.849L718.641 375.225L699.428 373.479C698.328 373.379 697.347 374.189 697.238 375.289L696.655 381.141L685.675 375.525C684.695 375.024 683.486 375.414 682.976 376.397ZM730.365 350.69C729.854 351.674 730.235 352.877 731.215 353.379L744.819 360.336C745.408 360.638 746.111 360.626 746.695 360.306C747.28 359.985 747.669 359.398 747.735 358.737L748.412 351.934L770.6 353.949C771.701 354.049 772.681 353.239 772.79 352.14L774.505 334.92L781.72 335.575C782.363 335.633 782.997 335.378 783.423 334.89C783.849 334.402 784.014 333.741 783.868 333.114L779.665 315.159C779.413 314.086 778.337 313.427 777.261 313.687C776.184 313.947 775.515 315.027 775.766 316.1L779.334 331.342L772.91 330.758C771.81 330.658 770.829 331.468 770.72 332.568L769.005 349.788L746.817 347.772C745.717 347.673 744.736 348.483 744.627 349.582L744.044 355.434L733.065 349.818C732.084 349.317 730.875 349.707 730.365 350.69ZM816.348 266.416C816.158 265.336 815.118 264.63 814.025 264.838C812.932 265.046 812.2 266.09 812.39 267.17L814.424 278.717L808.402 277.37C807.324 277.129 806.237 277.803 805.973 278.875L801.551 296.906L795.394 287.428C794.799 286.511 793.557 286.26 792.621 286.867C791.685 287.474 791.409 288.71 792.004 289.626L800.69 302.998C801.122 303.664 801.918 304.002 802.712 303.857C803.506 303.713 804.146 303.114 804.337 302.336L809.4 281.691L816.453 283.269C817.112 283.417 817.807 283.224 818.302 282.756C818.797 282.288 819.025 281.609 818.909 280.95L816.348 266.416ZM717.256 315.52C716.385 316.207 715.127 316.065 714.446 315.201C713.765 314.337 713.919 313.08 714.79 312.393L740.815 291.853C741.686 291.166 742.944 291.309 743.625 292.173C744.306 293.036 744.152 294.293 743.281 294.981L717.256 315.52ZM669.71 238.179C668.991 237.348 669.088 236.085 669.927 235.36C670.766 234.634 672.03 234.72 672.749 235.552L675.818 239.099C676.538 239.931 676.441 241.194 675.602 241.919C674.762 242.645 673.499 242.558 672.779 241.727L669.71 238.179Z" fill="#477385"/>
<path d="M718.734 185.655L708.754 174.119C655.875 112.998 586.651 72.1266 511.586 52.3198C517.802 126.463 546.777 199.099 599.656 260.221L609.636 271.757" stroke="#477385" stroke-width="4" stroke-linecap="round" stroke-linejoin="round"/>
<path d="M712.782 208.273L710.698 205.716" stroke="#477385" stroke-width="4" stroke-linecap="round" stroke-linejoin="round"/>
<path d="M771.112 272.496L732.371 201.418C755.135 206.872 775.509 219.187 790.39 236.388L809.716 258.735L779.7 282.424" stroke="#477385" stroke-width="4" stroke-linecap="round" stroke-linejoin="round"/>
<path fill-rule="evenodd" clip-rule="evenodd" d="M579.473 151.789C584.397 157.481 593.23 158.283 599.188 153.58C605.155 148.878 605.995 140.442 601.063 134.751C596.14 129.052 587.308 128.249 581.348 132.96C575.39 137.662 574.55 146.098 579.473 151.789Z" stroke="#477385" stroke-width="4" stroke-linecap="round" stroke-linejoin="round"/>
<path d="M645.032 177.168C638.136 169.197 625.774 168.074 617.429 174.661C609.075 181.247 607.899 193.054 614.803 201.026C621.698 209.004 634.061 210.127 642.407 203.533C644.999 201.488 646.902 198.941 648.082 196.155" stroke="#477385" stroke-width="4" stroke-linecap="round" stroke-linejoin="round"/>
</g>
<path opacity="0.4" fill-rule="evenodd" clip-rule="evenodd" d="M815.761 218.853C808.125 216.898 803.611 209.41 805.657 202.116C807.703 194.823 815.528 190.508 823.165 192.462C830.801 194.416 835.334 201.894 833.288 209.187C831.242 216.481 823.397 220.807 815.761 218.853Z" stroke="#477385" stroke-width="4" stroke-linecap="round" stroke-linejoin="round"/>
<path opacity="0.4" fill-rule="evenodd" clip-rule="evenodd" d="M766.561 180.758C761.674 179.507 758.785 174.714 760.095 170.046C761.404 165.379 766.412 162.617 771.3 163.868C776.187 165.118 779.088 169.904 777.779 174.572C776.469 179.24 771.448 182.009 766.561 180.758Z" stroke="#477385" stroke-width="4" stroke-linecap="round" stroke-linejoin="round"/>
</g>
</g>
<defs>
<clipPath id="clip0">
<rect width="1188" height="229" fill="white"/>
</clipPath>
</defs>
</svg>
