<svg width="681" height="370" viewBox="0 0 681 370" fill="none" xmlns="http://www.w3.org/2000/svg">
<g filter="url(#filter0_ddd)">
<rect x="20" y="10" width="641" height="330" rx="4" fill="white"/>
<rect x="20.5" y="10.5" width="640" height="329" rx="3.5" stroke="#E2E7E9"/>
</g>
<mask id="mask0" mask-type="alpha" maskUnits="userSpaceOnUse" x="180" y="77" width="120" height="37">
<path fill-rule="evenodd" clip-rule="evenodd" d="M198.5 77C188.283 77 180 85.2827 180 95.5C180 105.717 188.283 114 198.5 114H281.5C291.717 114 300 105.717 300 95.5C300 85.2827 291.717 77 281.5 77H198.5ZM198.5 78C188.835 78 181 85.835 181 95.5C181 105.165 188.835 113 198.5 113H281.5C291.165 113 299 105.165 299 95.5C299 85.835 291.165 78 281.5 78H198.5Z" fill="white"/>
</mask>
<g mask="url(#mask0)">
<rect x="180" y="77" width="120" height="37" fill="#DE411B"/>
</g>
<path d="M210.545 101V89.625H214.264C215.498 89.625 216.426 89.8802 217.045 90.3906C217.67 90.901 217.983 91.6562 217.983 92.6562C217.983 93.1875 217.832 93.6589 217.53 94.0703C217.228 94.4766 216.816 94.7917 216.295 95.0156C216.91 95.1875 217.394 95.5156 217.748 96C218.108 96.4792 218.288 97.0521 218.288 97.7188C218.288 98.7396 217.957 99.5417 217.295 100.125C216.634 100.708 215.699 101 214.491 101H210.545ZM212.045 95.6797V99.7734H214.522C215.22 99.7734 215.769 99.5938 216.17 99.2344C216.577 98.8698 216.78 98.3698 216.78 97.7344C216.78 96.3646 216.035 95.6797 214.545 95.6797H212.045ZM212.045 94.4766H214.311C214.967 94.4766 215.491 94.3125 215.881 93.9844C216.277 93.6562 216.475 93.2109 216.475 92.6484C216.475 92.0234 216.293 91.5703 215.928 91.2891C215.564 91.0026 215.009 90.8594 214.264 90.8594H212.045V94.4766ZM228.682 89.625V97.3594C228.677 98.4323 228.338 99.3099 227.666 99.9922C227 100.674 226.093 101.057 224.948 101.141L224.549 101.156C223.304 101.156 222.312 100.82 221.573 100.148C220.833 99.4766 220.458 98.5521 220.448 97.375V89.625H221.932V97.3281C221.932 98.151 222.158 98.7917 222.612 99.25C223.065 99.7031 223.711 99.9297 224.549 99.9297C225.398 99.9297 226.046 99.7031 226.494 99.25C226.948 98.7969 227.174 98.1589 227.174 97.3359V89.625H228.682ZM239.068 90.8594H235.412V101H233.92V90.8594H230.272V89.625H239.068V90.8594ZM248.9 90.8594H245.244V101H243.752V90.8594H240.103V89.625H248.9V90.8594ZM259.279 95.6797C259.279 96.7943 259.092 97.7682 258.717 98.6016C258.342 99.4297 257.81 100.062 257.123 100.5C256.435 100.938 255.633 101.156 254.717 101.156C253.821 101.156 253.026 100.938 252.334 100.5C251.641 100.057 251.102 99.4297 250.717 98.6172C250.336 97.7995 250.141 96.8542 250.131 95.7812V94.9609C250.131 93.8672 250.321 92.901 250.701 92.0625C251.081 91.224 251.618 90.5833 252.31 90.1406C253.008 89.6927 253.805 89.4688 254.701 89.4688C255.612 89.4688 256.414 89.6901 257.107 90.1328C257.805 90.5703 258.342 91.2083 258.717 92.0469C259.092 92.8802 259.279 93.8516 259.279 94.9609V95.6797ZM257.787 94.9453C257.787 93.5964 257.516 92.5625 256.974 91.8438C256.433 91.1198 255.675 90.7578 254.701 90.7578C253.753 90.7578 253.006 91.1198 252.459 91.8438C251.917 92.5625 251.638 93.5625 251.623 94.8438V95.6797C251.623 96.987 251.896 98.0156 252.443 98.7656C252.995 99.5104 253.753 99.8828 254.717 99.8828C255.685 99.8828 256.435 99.5312 256.967 98.8281C257.498 98.1198 257.771 97.1068 257.787 95.7891V94.9453ZM270.431 101H268.923L263.197 92.2344V101H261.689V89.625H263.197L268.939 98.4297V89.625H270.431V101Z" fill="#DE411B"/>
<path d="M216.99 133V124.469H219.398C220.141 124.469 220.797 124.633 221.367 124.961C221.938 125.289 222.377 125.756 222.686 126.361C222.998 126.967 223.156 127.662 223.16 128.447V128.992C223.16 129.797 223.004 130.502 222.691 131.107C222.383 131.713 221.939 132.178 221.361 132.502C220.787 132.826 220.117 132.992 219.352 133H216.99ZM218.115 125.395V132.08H219.299C220.166 132.08 220.84 131.811 221.32 131.271C221.805 130.732 222.047 129.965 222.047 128.969V128.471C222.047 127.502 221.818 126.75 221.361 126.215C220.908 125.676 220.264 125.402 219.428 125.395H218.115ZM229.688 129.057H225.99V132.08H230.285V133H224.865V124.469H230.227V125.395H225.99V128.137H229.688V129.057ZM236.391 129.232H232.811V133H231.686V124.469H236.971V125.395H232.811V128.312H236.391V129.232ZM242.033 130.773H238.459L237.656 133H236.496L239.754 124.469H240.738L244.002 133H242.848L242.033 130.773ZM238.799 129.848H241.699L240.246 125.857L238.799 129.848ZM251.051 124.469V130.27C251.047 131.074 250.793 131.732 250.289 132.244C249.789 132.756 249.109 133.043 248.25 133.105L247.951 133.117C247.018 133.117 246.273 132.865 245.719 132.361C245.164 131.857 244.883 131.164 244.875 130.281V124.469H245.988V130.246C245.988 130.863 246.158 131.344 246.498 131.688C246.838 132.027 247.322 132.197 247.951 132.197C248.588 132.197 249.074 132.027 249.41 131.688C249.75 131.348 249.92 130.869 249.92 130.252V124.469H251.051ZM253.957 132.08H258V133H252.826V124.469H253.957V132.08ZM263.561 125.395H260.818V133H259.699V125.395H256.963V124.469H263.561V125.395Z" fill="#020E12"/>
<path d="M428.547 133H427.416V129.057H423.115V133H421.99V124.469H423.115V128.137H427.416V124.469H428.547V133ZM437.107 129.01C437.107 129.846 436.967 130.576 436.686 131.201C436.404 131.822 436.006 132.297 435.49 132.625C434.975 132.953 434.373 133.117 433.686 133.117C433.014 133.117 432.418 132.953 431.898 132.625C431.379 132.293 430.975 131.822 430.686 131.213C430.4 130.6 430.254 129.891 430.246 129.086V128.471C430.246 127.65 430.389 126.926 430.674 126.297C430.959 125.668 431.361 125.188 431.881 124.855C432.404 124.52 433.002 124.352 433.674 124.352C434.357 124.352 434.959 124.518 435.479 124.85C436.002 125.178 436.404 125.656 436.686 126.285C436.967 126.91 437.107 127.639 437.107 128.471V129.01ZM435.988 128.459C435.988 127.447 435.785 126.672 435.379 126.133C434.973 125.59 434.404 125.318 433.674 125.318C432.963 125.318 432.402 125.59 431.992 126.133C431.586 126.672 431.377 127.422 431.365 128.383V129.01C431.365 129.99 431.57 130.762 431.98 131.324C432.395 131.883 432.963 132.162 433.686 132.162C434.412 132.162 434.975 131.898 435.373 131.371C435.771 130.84 435.977 130.08 435.988 129.092V128.459ZM441.49 131.506L443.928 124.469H445.158L441.994 133H440.998L437.84 124.469H439.064L441.49 131.506ZM451.129 129.057H447.432V132.08H451.727V133H446.307V124.469H451.668V125.395H447.432V128.137H451.129V129.057ZM456.256 129.549H454.252V133H453.121V124.469H455.945C456.906 124.469 457.645 124.688 458.16 125.125C458.68 125.562 458.939 126.199 458.939 127.035C458.939 127.566 458.795 128.029 458.506 128.424C458.221 128.818 457.822 129.113 457.311 129.309L459.314 132.93V133H458.107L456.256 129.549ZM454.252 128.629H455.98C456.539 128.629 456.982 128.484 457.311 128.195C457.643 127.906 457.809 127.52 457.809 127.035C457.809 126.508 457.65 126.104 457.334 125.822C457.021 125.541 456.568 125.398 455.975 125.395H454.252V128.629Z" fill="#020E12"/>
<mask id="mask1" mask-type="alpha" maskUnits="userSpaceOnUse" x="380" y="77" width="120" height="37">
<rect x="380" y="77" width="120" height="37" rx="18.5" fill="white"/>
</mask>
<g mask="url(#mask1)">
<rect x="380" y="77" width="120" height="37" fill="#401308"/>
</g>
<path d="M410.545 101V89.625H414.264C415.498 89.625 416.426 89.8802 417.045 90.3906C417.67 90.901 417.983 91.6562 417.983 92.6562C417.983 93.1875 417.832 93.6589 417.53 94.0703C417.228 94.4766 416.816 94.7917 416.295 95.0156C416.91 95.1875 417.394 95.5156 417.748 96C418.108 96.4792 418.288 97.0521 418.288 97.7188C418.288 98.7396 417.957 99.5417 417.295 100.125C416.634 100.708 415.699 101 414.491 101H410.545ZM412.045 95.6797V99.7734H414.522C415.22 99.7734 415.769 99.5938 416.17 99.2344C416.577 98.8698 416.78 98.3698 416.78 97.7344C416.78 96.3646 416.035 95.6797 414.545 95.6797H412.045ZM412.045 94.4766H414.311C414.967 94.4766 415.491 94.3125 415.881 93.9844C416.277 93.6562 416.475 93.2109 416.475 92.6484C416.475 92.0234 416.293 91.5703 415.928 91.2891C415.564 91.0026 415.009 90.8594 414.264 90.8594H412.045V94.4766ZM428.682 89.625V97.3594C428.677 98.4323 428.338 99.3099 427.666 99.9922C427 100.674 426.093 101.057 424.948 101.141L424.549 101.156C423.304 101.156 422.312 100.82 421.573 100.148C420.833 99.4766 420.458 98.5521 420.448 97.375V89.625H421.932V97.3281C421.932 98.151 422.158 98.7917 422.612 99.25C423.065 99.7031 423.711 99.9297 424.549 99.9297C425.398 99.9297 426.046 99.7031 426.494 99.25C426.948 98.7969 427.174 98.1589 427.174 97.3359V89.625H428.682ZM439.068 90.8594H435.412V101H433.92V90.8594H430.272V89.625H439.068V90.8594ZM448.9 90.8594H445.244V101H443.752V90.8594H440.103V89.625H448.9V90.8594ZM459.279 95.6797C459.279 96.7943 459.092 97.7682 458.717 98.6016C458.342 99.4297 457.81 100.062 457.123 100.5C456.435 100.938 455.633 101.156 454.717 101.156C453.821 101.156 453.026 100.938 452.334 100.5C451.641 100.057 451.102 99.4297 450.717 98.6172C450.336 97.7995 450.141 96.8542 450.131 95.7812V94.9609C450.131 93.8672 450.321 92.901 450.701 92.0625C451.081 91.224 451.618 90.5833 452.31 90.1406C453.008 89.6927 453.805 89.4688 454.701 89.4688C455.612 89.4688 456.414 89.6901 457.107 90.1328C457.805 90.5703 458.342 91.2083 458.717 92.0469C459.092 92.8802 459.279 93.8516 459.279 94.9609V95.6797ZM457.787 94.9453C457.787 93.5964 457.516 92.5625 456.974 91.8438C456.433 91.1198 455.675 90.7578 454.701 90.7578C453.753 90.7578 453.006 91.1198 452.459 91.8438C451.917 92.5625 451.638 93.5625 451.623 94.8438V95.6797C451.623 96.987 451.896 98.0156 452.443 98.7656C452.995 99.5104 453.753 99.8828 454.717 99.8828C455.685 99.8828 456.435 99.5312 456.967 98.8281C457.498 98.1198 457.771 97.1068 457.787 95.7891V94.9453ZM470.431 101H468.923L463.197 92.2344V101H461.689V89.625H463.197L468.939 98.4297V89.625H470.431V101Z" fill="white"/>
<path d="M226.695 267.232H223.115V271H221.99V262.469H227.275V263.395H223.115V266.312H226.695V267.232ZM235.186 267.01C235.186 267.846 235.045 268.576 234.764 269.201C234.482 269.822 234.084 270.297 233.568 270.625C233.053 270.953 232.451 271.117 231.764 271.117C231.092 271.117 230.496 270.953 229.977 270.625C229.457 270.293 229.053 269.822 228.764 269.213C228.479 268.6 228.332 267.891 228.324 267.086V266.471C228.324 265.65 228.467 264.926 228.752 264.297C229.037 263.668 229.439 263.188 229.959 262.855C230.482 262.52 231.08 262.352 231.752 262.352C232.436 262.352 233.037 262.518 233.557 262.85C234.08 263.178 234.482 263.656 234.764 264.285C235.045 264.91 235.186 265.639 235.186 266.471V267.01ZM234.066 266.459C234.066 265.447 233.863 264.672 233.457 264.133C233.051 263.59 232.482 263.318 231.752 263.318C231.041 263.318 230.48 263.59 230.07 264.133C229.664 264.672 229.455 265.422 229.443 266.383V267.01C229.443 267.99 229.648 268.762 230.059 269.324C230.473 269.883 231.041 270.162 231.764 270.162C232.49 270.162 233.053 269.898 233.451 269.371C233.85 268.84 234.055 268.08 234.066 267.092V266.459ZM243.148 268.293C243.043 269.195 242.709 269.893 242.146 270.385C241.588 270.873 240.844 271.117 239.914 271.117C238.906 271.117 238.098 270.756 237.488 270.033C236.883 269.311 236.58 268.344 236.58 267.133V266.312C236.58 265.52 236.721 264.822 237.002 264.221C237.287 263.619 237.689 263.158 238.209 262.838C238.729 262.514 239.33 262.352 240.014 262.352C240.92 262.352 241.646 262.605 242.193 263.113C242.74 263.617 243.059 264.316 243.148 265.211H242.018C241.92 264.531 241.707 264.039 241.379 263.734C241.055 263.43 240.6 263.277 240.014 263.277C239.295 263.277 238.73 263.543 238.32 264.074C237.914 264.605 237.711 265.361 237.711 266.342V267.168C237.711 268.094 237.904 268.83 238.291 269.377C238.678 269.924 239.219 270.197 239.914 270.197C240.539 270.197 241.018 270.057 241.35 269.775C241.686 269.49 241.908 268.996 242.018 268.293H243.148ZM250.695 262.469V268.27C250.691 269.074 250.438 269.732 249.934 270.244C249.434 270.756 248.754 271.043 247.895 271.105L247.596 271.117C246.662 271.117 245.918 270.865 245.363 270.361C244.809 269.857 244.527 269.164 244.52 268.281V262.469H245.633V268.246C245.633 268.863 245.803 269.344 246.143 269.688C246.482 270.027 246.967 270.197 247.596 270.197C248.232 270.197 248.719 270.027 249.055 269.688C249.395 269.348 249.564 268.869 249.564 268.252V262.469H250.695ZM254.984 267.197C254.02 266.92 253.316 266.58 252.875 266.178C252.438 265.771 252.219 265.271 252.219 264.678C252.219 264.006 252.486 263.451 253.021 263.014C253.561 262.572 254.26 262.352 255.119 262.352C255.705 262.352 256.227 262.465 256.684 262.691C257.145 262.918 257.5 263.23 257.75 263.629C258.004 264.027 258.131 264.463 258.131 264.936H257C257 264.42 256.836 264.016 256.508 263.723C256.18 263.426 255.717 263.277 255.119 263.277C254.564 263.277 254.131 263.4 253.818 263.646C253.51 263.889 253.355 264.227 253.355 264.66C253.355 265.008 253.502 265.303 253.795 265.545C254.092 265.783 254.594 266.002 255.301 266.201C256.012 266.4 256.566 266.621 256.965 266.863C257.367 267.102 257.664 267.381 257.855 267.701C258.051 268.021 258.148 268.398 258.148 268.832C258.148 269.523 257.879 270.078 257.34 270.496C256.801 270.91 256.08 271.117 255.178 271.117C254.592 271.117 254.045 271.006 253.537 270.783C253.029 270.557 252.637 270.248 252.359 269.857C252.086 269.467 251.949 269.023 251.949 268.527H253.08C253.08 269.043 253.27 269.451 253.648 269.752C254.031 270.049 254.541 270.197 255.178 270.197C255.771 270.197 256.227 270.076 256.543 269.834C256.859 269.592 257.018 269.262 257.018 268.844C257.018 268.426 256.871 268.104 256.578 267.877C256.285 267.646 255.754 267.42 254.984 267.197Z" fill="#020E12"/>
<mask id="mask2" mask-type="alpha" maskUnits="userSpaceOnUse" x="180" y="215" width="120" height="37">
<path fill-rule="evenodd" clip-rule="evenodd" d="M198.5 215C188.283 215 180 223.283 180 233.5C180 243.717 188.283 252 198.5 252H281.5C291.717 252 300 243.717 300 233.5C300 223.283 291.717 215 281.5 215H198.5ZM198.5 216C188.835 216 181 223.835 181 233.5C181 243.165 188.835 251 198.5 251H281.5C291.165 251 299 243.165 299 233.5C299 223.835 291.165 216 281.5 216H198.5Z" fill="white"/>
</mask>
<g mask="url(#mask2)">
<rect x="180" y="215" width="120" height="37" fill="#DE411B"/>
</g>
<path d="M210.545 239V227.625H214.264C215.498 227.625 216.426 227.88 217.045 228.391C217.67 228.901 217.983 229.656 217.983 230.656C217.983 231.188 217.832 231.659 217.53 232.07C217.228 232.477 216.816 232.792 216.295 233.016C216.91 233.188 217.394 233.516 217.748 234C218.108 234.479 218.288 235.052 218.288 235.719C218.288 236.74 217.957 237.542 217.295 238.125C216.634 238.708 215.699 239 214.491 239H210.545ZM212.045 233.68V237.773H214.522C215.22 237.773 215.769 237.594 216.17 237.234C216.577 236.87 216.78 236.37 216.78 235.734C216.78 234.365 216.035 233.68 214.545 233.68H212.045ZM212.045 232.477H214.311C214.967 232.477 215.491 232.312 215.881 231.984C216.277 231.656 216.475 231.211 216.475 230.648C216.475 230.023 216.293 229.57 215.928 229.289C215.564 229.003 215.009 228.859 214.264 228.859H212.045V232.477ZM228.682 227.625V235.359C228.677 236.432 228.338 237.31 227.666 237.992C227 238.674 226.093 239.057 224.948 239.141L224.549 239.156C223.304 239.156 222.312 238.82 221.573 238.148C220.833 237.477 220.458 236.552 220.448 235.375V227.625H221.932V235.328C221.932 236.151 222.158 236.792 222.612 237.25C223.065 237.703 223.711 237.93 224.549 237.93C225.398 237.93 226.046 237.703 226.494 237.25C226.948 236.797 227.174 236.159 227.174 235.336V227.625H228.682ZM239.068 228.859H235.412V239H233.92V228.859H230.272V227.625H239.068V228.859ZM248.9 228.859H245.244V239H243.752V228.859H240.103V227.625H248.9V228.859ZM259.279 233.68C259.279 234.794 259.092 235.768 258.717 236.602C258.342 237.43 257.81 238.062 257.123 238.5C256.435 238.938 255.633 239.156 254.717 239.156C253.821 239.156 253.026 238.938 252.334 238.5C251.641 238.057 251.102 237.43 250.717 236.617C250.336 235.799 250.141 234.854 250.131 233.781V232.961C250.131 231.867 250.321 230.901 250.701 230.062C251.081 229.224 251.618 228.583 252.31 228.141C253.008 227.693 253.805 227.469 254.701 227.469C255.612 227.469 256.414 227.69 257.107 228.133C257.805 228.57 258.342 229.208 258.717 230.047C259.092 230.88 259.279 231.852 259.279 232.961V233.68ZM257.787 232.945C257.787 231.596 257.516 230.562 256.974 229.844C256.433 229.12 255.675 228.758 254.701 228.758C253.753 228.758 253.006 229.12 252.459 229.844C251.917 230.562 251.638 231.562 251.623 232.844V233.68C251.623 234.987 251.896 236.016 252.443 236.766C252.995 237.51 253.753 237.883 254.717 237.883C255.685 237.883 256.435 237.531 256.967 236.828C257.498 236.12 257.771 235.107 257.787 233.789V232.945ZM270.431 239H268.923L263.197 230.234V239H261.689V227.625H263.197L268.939 236.43V227.625H270.431V239Z" fill="#DE411B"/>
<mask id="mask3" mask-type="alpha" maskUnits="userSpaceOnUse" x="184" y="218" width="112" height="31">
<rect x="184" y="218" width="112" height="31" rx="15.5" fill="white"/>
</mask>
<g mask="url(#mask3)">
<rect x="184" y="218" width="112" height="31" fill="#DE411B"/>
</g>
<path d="M210.545 239V227.625H214.264C215.498 227.625 216.426 227.88 217.045 228.391C217.67 228.901 217.983 229.656 217.983 230.656C217.983 231.188 217.832 231.659 217.53 232.07C217.228 232.477 216.816 232.792 216.295 233.016C216.91 233.188 217.394 233.516 217.748 234C218.108 234.479 218.288 235.052 218.288 235.719C218.288 236.74 217.957 237.542 217.295 238.125C216.634 238.708 215.699 239 214.491 239H210.545ZM212.045 233.68V237.773H214.522C215.22 237.773 215.769 237.594 216.17 237.234C216.577 236.87 216.78 236.37 216.78 235.734C216.78 234.365 216.035 233.68 214.545 233.68H212.045ZM212.045 232.477H214.311C214.967 232.477 215.491 232.312 215.881 231.984C216.277 231.656 216.475 231.211 216.475 230.648C216.475 230.023 216.293 229.57 215.928 229.289C215.564 229.003 215.009 228.859 214.264 228.859H212.045V232.477ZM228.682 227.625V235.359C228.677 236.432 228.338 237.31 227.666 237.992C227 238.674 226.093 239.057 224.948 239.141L224.549 239.156C223.304 239.156 222.312 238.82 221.573 238.148C220.833 237.477 220.458 236.552 220.448 235.375V227.625H221.932V235.328C221.932 236.151 222.158 236.792 222.612 237.25C223.065 237.703 223.711 237.93 224.549 237.93C225.398 237.93 226.046 237.703 226.494 237.25C226.948 236.797 227.174 236.159 227.174 235.336V227.625H228.682ZM239.068 228.859H235.412V239H233.92V228.859H230.272V227.625H239.068V228.859ZM248.9 228.859H245.244V239H243.752V228.859H240.103V227.625H248.9V228.859ZM259.279 233.68C259.279 234.794 259.092 235.768 258.717 236.602C258.342 237.43 257.81 238.062 257.123 238.5C256.435 238.938 255.633 239.156 254.717 239.156C253.821 239.156 253.026 238.938 252.334 238.5C251.641 238.057 251.102 237.43 250.717 236.617C250.336 235.799 250.141 234.854 250.131 233.781V232.961C250.131 231.867 250.321 230.901 250.701 230.062C251.081 229.224 251.618 228.583 252.31 228.141C253.008 227.693 253.805 227.469 254.701 227.469C255.612 227.469 256.414 227.69 257.107 228.133C257.805 228.57 258.342 229.208 258.717 230.047C259.092 230.88 259.279 231.852 259.279 232.961V233.68ZM257.787 232.945C257.787 231.596 257.516 230.562 256.974 229.844C256.433 229.12 255.675 228.758 254.701 228.758C253.753 228.758 253.006 229.12 252.459 229.844C251.917 230.562 251.638 231.562 251.623 232.844V233.68C251.623 234.987 251.896 236.016 252.443 236.766C252.995 237.51 253.753 237.883 254.717 237.883C255.685 237.883 256.435 237.531 256.967 236.828C257.498 236.12 257.771 235.107 257.787 233.789V232.945ZM270.431 239H268.923L263.197 230.234V239H261.689V227.625H263.197L268.939 236.43V227.625H270.431V239Z" fill="white"/>
<path d="M413.99 271V262.469H416.398C417.141 262.469 417.797 262.633 418.367 262.961C418.938 263.289 419.377 263.756 419.686 264.361C419.998 264.967 420.156 265.662 420.16 266.447V266.992C420.16 267.797 420.004 268.502 419.691 269.107C419.383 269.713 418.939 270.178 418.361 270.502C417.787 270.826 417.117 270.992 416.352 271H413.99ZM415.115 263.395V270.08H416.299C417.166 270.08 417.84 269.811 418.32 269.271C418.805 268.732 419.047 267.965 419.047 266.969V266.471C419.047 265.502 418.818 264.75 418.361 264.215C417.908 263.676 417.264 263.402 416.428 263.395H415.115ZM423.072 271H421.947V262.469H423.072V271ZM427.648 267.197C426.684 266.92 425.98 266.58 425.539 266.178C425.102 265.771 424.883 265.271 424.883 264.678C424.883 264.006 425.15 263.451 425.686 263.014C426.225 262.572 426.924 262.352 427.783 262.352C428.369 262.352 428.891 262.465 429.348 262.691C429.809 262.918 430.164 263.23 430.414 263.629C430.668 264.027 430.795 264.463 430.795 264.936H429.664C429.664 264.42 429.5 264.016 429.172 263.723C428.844 263.426 428.381 263.277 427.783 263.277C427.229 263.277 426.795 263.4 426.482 263.646C426.174 263.889 426.02 264.227 426.02 264.66C426.02 265.008 426.166 265.303 426.459 265.545C426.756 265.783 427.258 266.002 427.965 266.201C428.676 266.4 429.23 266.621 429.629 266.863C430.031 267.102 430.328 267.381 430.52 267.701C430.715 268.021 430.812 268.398 430.812 268.832C430.812 269.523 430.543 270.078 430.004 270.496C429.465 270.91 428.744 271.117 427.842 271.117C427.256 271.117 426.709 271.006 426.201 270.783C425.693 270.557 425.301 270.248 425.023 269.857C424.75 269.467 424.613 269.023 424.613 268.527H425.744C425.744 269.043 425.934 269.451 426.312 269.752C426.695 270.049 427.205 270.197 427.842 270.197C428.436 270.197 428.891 270.076 429.207 269.834C429.523 269.592 429.682 269.262 429.682 268.844C429.682 268.426 429.535 268.104 429.242 267.877C428.949 267.646 428.418 267.42 427.648 267.197ZM436.971 268.773H433.396L432.594 271H431.434L434.691 262.469H435.676L438.939 271H437.785L436.971 268.773ZM433.736 267.848H436.637L435.184 263.857L433.736 267.848ZM440.088 271V262.469H442.877C443.803 262.469 444.498 262.66 444.963 263.043C445.432 263.426 445.666 263.992 445.666 264.742C445.666 265.141 445.553 265.494 445.326 265.803C445.1 266.107 444.791 266.344 444.4 266.512C444.861 266.641 445.225 266.887 445.49 267.25C445.76 267.609 445.895 268.039 445.895 268.539C445.895 269.305 445.646 269.906 445.15 270.344C444.654 270.781 443.953 271 443.047 271H440.088ZM441.213 267.01V270.08H443.07C443.594 270.08 444.006 269.945 444.307 269.676C444.611 269.402 444.764 269.027 444.764 268.551C444.764 267.523 444.205 267.01 443.088 267.01H441.213ZM441.213 266.107H442.912C443.404 266.107 443.797 265.984 444.09 265.738C444.387 265.492 444.535 265.158 444.535 264.736C444.535 264.268 444.398 263.928 444.125 263.717C443.852 263.502 443.436 263.395 442.877 263.395H441.213V266.107ZM448.695 270.08H452.738V271H447.564V262.469H448.695V270.08ZM458.844 267.057H455.146V270.08H459.441V271H454.021V262.469H459.383V263.395H455.146V266.137H458.844V267.057ZM460.842 271V262.469H463.25C463.992 262.469 464.648 262.633 465.219 262.961C465.789 263.289 466.229 263.756 466.537 264.361C466.85 264.967 467.008 265.662 467.012 266.447V266.992C467.012 267.797 466.855 268.502 466.543 269.107C466.234 269.713 465.791 270.178 465.213 270.502C464.639 270.826 463.969 270.992 463.203 271H460.842ZM461.967 263.395V270.08H463.15C464.018 270.08 464.691 269.811 465.172 269.271C465.656 268.732 465.898 267.965 465.898 266.969V266.471C465.898 265.502 465.67 264.75 465.213 264.215C464.76 263.676 464.115 263.402 463.279 263.395H461.967Z" fill="#020E12"/>
<mask id="mask4" mask-type="alpha" maskUnits="userSpaceOnUse" x="380" y="215" width="120" height="37">
<rect x="380" y="215" width="120" height="37" rx="18.5" fill="white"/>
</mask>
<g mask="url(#mask4)">
<rect x="380" y="215" width="120" height="37" fill="#D9D9D9"/>
</g>
<path d="M410.545 239V227.625H414.264C415.498 227.625 416.426 227.88 417.045 228.391C417.67 228.901 417.983 229.656 417.983 230.656C417.983 231.188 417.832 231.659 417.53 232.07C417.228 232.477 416.816 232.792 416.295 233.016C416.91 233.188 417.394 233.516 417.748 234C418.108 234.479 418.288 235.052 418.288 235.719C418.288 236.74 417.957 237.542 417.295 238.125C416.634 238.708 415.699 239 414.491 239H410.545ZM412.045 233.68V237.773H414.522C415.22 237.773 415.769 237.594 416.17 237.234C416.577 236.87 416.78 236.37 416.78 235.734C416.78 234.365 416.035 233.68 414.545 233.68H412.045ZM412.045 232.477H414.311C414.967 232.477 415.491 232.312 415.881 231.984C416.277 231.656 416.475 231.211 416.475 230.648C416.475 230.023 416.293 229.57 415.928 229.289C415.564 229.003 415.009 228.859 414.264 228.859H412.045V232.477ZM428.682 227.625V235.359C428.677 236.432 428.338 237.31 427.666 237.992C427 238.674 426.093 239.057 424.948 239.141L424.549 239.156C423.304 239.156 422.312 238.82 421.573 238.148C420.833 237.477 420.458 236.552 420.448 235.375V227.625H421.932V235.328C421.932 236.151 422.158 236.792 422.612 237.25C423.065 237.703 423.711 237.93 424.549 237.93C425.398 237.93 426.046 237.703 426.494 237.25C426.948 236.797 427.174 236.159 427.174 235.336V227.625H428.682ZM439.068 228.859H435.412V239H433.92V228.859H430.272V227.625H439.068V228.859ZM448.9 228.859H445.244V239H443.752V228.859H440.103V227.625H448.9V228.859ZM459.279 233.68C459.279 234.794 459.092 235.768 458.717 236.602C458.342 237.43 457.81 238.062 457.123 238.5C456.435 238.938 455.633 239.156 454.717 239.156C453.821 239.156 453.026 238.938 452.334 238.5C451.641 238.057 451.102 237.43 450.717 236.617C450.336 235.799 450.141 234.854 450.131 233.781V232.961C450.131 231.867 450.321 230.901 450.701 230.062C451.081 229.224 451.618 228.583 452.31 228.141C453.008 227.693 453.805 227.469 454.701 227.469C455.612 227.469 456.414 227.69 457.107 228.133C457.805 228.57 458.342 229.208 458.717 230.047C459.092 230.88 459.279 231.852 459.279 232.961V233.68ZM457.787 232.945C457.787 231.596 457.516 230.562 456.974 229.844C456.433 229.12 455.675 228.758 454.701 228.758C453.753 228.758 453.006 229.12 452.459 229.844C451.917 230.562 451.638 231.562 451.623 232.844V233.68C451.623 234.987 451.896 236.016 452.443 236.766C452.995 237.51 453.753 237.883 454.717 237.883C455.685 237.883 456.435 237.531 456.967 236.828C457.498 236.12 457.771 235.107 457.787 233.789V232.945ZM470.431 239H468.923L463.197 230.234V239H461.689V227.625H463.197L468.939 236.43V227.625H470.431V239Z" fill="white"/>
<defs>
<filter id="filter0_ddd" x="0" y="0" width="681" height="370" filterUnits="userSpaceOnUse" color-interpolation-filters="sRGB">
<feFlood flood-opacity="0" result="BackgroundImageFix"/>
<feColorMatrix in="SourceAlpha" type="matrix" values="0 0 0 0 0 0 0 0 0 0 0 0 0 0 0 0 0 0 127 0"/>
<feOffset/>
<feGaussianBlur stdDeviation="0.5"/>
<feColorMatrix type="matrix" values="0 0 0 0 0 0 0 0 0 0 0 0 0 0 0 0 0 0 0.04 0"/>
<feBlend mode="normal" in2="BackgroundImageFix" result="effect1_dropShadow"/>
<feColorMatrix in="SourceAlpha" type="matrix" values="0 0 0 0 0 0 0 0 0 0 0 0 0 0 0 0 0 0 127 0"/>
<feOffset dy="2"/>
<feGaussianBlur stdDeviation="3"/>
<feColorMatrix type="matrix" values="0 0 0 0 0 0 0 0 0 0 0 0 0 0 0 0 0 0 0.04 0"/>
<feBlend mode="normal" in2="effect1_dropShadow" result="effect2_dropShadow"/>
<feColorMatrix in="SourceAlpha" type="matrix" values="0 0 0 0 0 0 0 0 0 0 0 0 0 0 0 0 0 0 127 0"/>
<feOffset dy="10"/>
<feGaussianBlur stdDeviation="10"/>
<feColorMatrix type="matrix" values="0 0 0 0 0 0 0 0 0 0 0 0 0 0 0 0 0 0 0.04 0"/>
<feBlend mode="normal" in2="effect2_dropShadow" result="effect3_dropShadow"/>
<feBlend mode="normal" in="SourceGraphic" in2="effect3_dropShadow" result="shape"/>
</filter>
</defs>
</svg>
