<svg width="65" height="83" viewBox="0 0 65 83" fill="none" xmlns="http://www.w3.org/2000/svg">
<path fill-rule="evenodd" clip-rule="evenodd" d="M2.14342 69.1942H61.5737V62.7775C61.5737 61.5163 62.2767 60.6251 63.2774 60.6251C64.2962 60.6251 64.9992 61.5163 64.9992 62.7775V80.3302C64.9992 81.6141 64.2962 82.4619 63.2774 82.4619C62.2586 82.4619 61.5737 81.6141 61.5737 80.3302V73.8927H2.14342C0.825157 73.8927 0 72.9825 0 71.5331C0 70.0845 0.807966 69.1942 2.14342 69.1942Z" fill="#F05C22"/>
<path fill-rule="evenodd" clip-rule="evenodd" d="M6.32618 27.3398C6.32618 33.4163 8.97536 37.0481 13.3219 37.0481C17.6477 37.0481 20.3176 33.4163 20.3176 27.3398V22.9399C20.3176 16.7702 17.6477 12.9982 13.3219 12.9982C8.97536 12.9982 6.32618 16.7702 6.32618 22.9399V27.3398ZM1.62775 22.9634C1.62775 13.9763 6.05754 8.48248 13.322 8.48248C20.6073 8.48248 24.9954 13.9998 24.9954 22.9634V27.3398C24.9954 36.2103 20.6073 41.5648 13.322 41.5648C5.95349 41.5648 1.62775 36.1868 1.62775 27.3398V22.9634Z" fill="#F05C22"/>
<path fill-rule="evenodd" clip-rule="evenodd" d="M51.869 22.9569L38.4358 26.8276V27.0556L51.869 30.947V22.9569ZM62.7869 38.6666C62.2287 38.6666 61.6234 38.5426 60.7385 38.2739L36.0381 30.5118C33.7101 29.7871 32.685 28.7737 32.685 26.89C32.685 25.0062 33.6866 23.9929 36.0381 23.289L60.7385 15.5269C61.5067 15.2989 62.1355 15.1749 62.7173 15.1749C64.1142 15.1749 65 16.0643 65 17.4106C65 18.6728 64.2771 19.4174 62.4847 19.8933L55.9197 21.8395V32.0644L62.4847 34.0097C64.3006 34.5064 65 35.2103 65 36.4725C65 37.7763 64.1387 38.6666 62.7869 38.6666Z" fill="#F05C22"/>
<path fill-rule="evenodd" clip-rule="evenodd" d="M33.0321 55.2779L33.9822 52.0207C34.6888 49.5443 35.8089 49.2104 36.8123 49.2104C39.1493 49.2104 39.4986 51.3973 39.4986 52.7011C39.4986 54.4735 38.7784 55.8198 37.2837 56.8232C36.4893 57.3851 35.7546 58.0555 35.7546 59.1467C35.7546 60.3256 36.7779 61.2141 38.1342 61.2141C39.295 61.2141 40.5174 60.6179 41.6682 59.4941C43.1729 58.042 44.0351 55.6316 44.0351 52.882C44.0351 47.8017 41.034 44.5201 36.3889 44.5201C32.7408 44.5201 30.5123 46.4029 29.3759 50.4455L28.4612 53.6828C28.0061 55.2887 27.1339 56.1012 25.869 56.1012C24.2115 56.1012 23.1827 54.8563 23.1827 52.8513C23.1827 51.201 24.0079 49.8963 25.5062 49.1761L25.5406 49.158C26.4155 48.6721 26.8579 47.9845 26.8579 47.1141C26.8579 45.9162 25.9152 45.0467 24.615 45.0467C23.3691 45.0467 22.0699 45.6474 20.9579 46.7386C19.4777 48.1871 18.6625 50.3794 18.6625 52.9119C18.6625 57.6882 21.6736 60.8975 26.1567 60.8975C29.689 60.8975 32.0025 59.0038 33.0321 55.2779Z" fill="#010202"/>
<path fill-rule="evenodd" clip-rule="evenodd" d="M15.1762 19.9223V4.30131H18.7772C19.9905 4.30131 20.8365 3.42006 20.8365 2.15789C20.8365 0.907491 19.9706 0 18.7772 0H7.18246C5.98092 0 5.10962 0.907491 5.10962 2.15789C5.10962 3.40015 5.98092 4.30131 7.18246 4.30131H10.7708V19.9223C10.7708 21.4577 11.6322 22.4493 12.9667 22.4493C14.2886 22.4493 15.1762 21.4342 15.1762 19.9223Z" fill="#010202"/>
</svg>
