<svg width="175" height="42" viewBox="0 0 175 42" fill="none" xmlns="http://www.w3.org/2000/svg">
<path fill-rule="evenodd" clip-rule="evenodd" d="M21 42C32.598 42 42 32.598 42 21C42 9.40202 32.598 0 21 0C9.40202 0 0 9.40202 0 21C0 32.598 9.40202 42 21 42Z" fill="#9BB4BE" fill-opacity="0.301218"/>
<mask id="mask0" mask-type="alpha" maskUnits="userSpaceOnUse" x="0" y="0" width="175" height="42">
<path fill-rule="evenodd" clip-rule="evenodd" d="M21 0C9.40202 0 0 9.40202 0 21C0 32.598 9.40202 42 21 42H154C165.598 42 175 32.598 175 21C175 9.40202 165.598 0 154 0H21ZM21 1C9.9543 1 1 9.95431 1 21C1 32.0457 9.95431 41 21 41H154C165.046 41 174 32.0457 174 21C174 9.95431 165.046 1 154 1H21Z" fill="white"/>
</mask>
<g mask="url(#mask0)">
<rect width="175" height="42" fill="#D43900"/>
</g>
</svg>
