<svg width="175" height="42" viewBox="0 0 175 42" fill="none" xmlns="http://www.w3.org/2000/svg">
<rect x="1" width="42" height="42" rx="4" fill="#9BB4BE" fill-opacity="0.279119"/>
<mask id="mask0" mask-type="alpha" maskUnits="userSpaceOnUse" x="0" y="0" width="175" height="42">
<path fill-rule="evenodd" clip-rule="evenodd" d="M0.435974 2.18404C0 3.03969 0 4.15979 0 6.4V35.6C0 37.8402 0 38.9603 0.435974 39.816C0.819467 40.5686 1.43139 41.1805 2.18404 41.564C3.03969 42 4.15979 42 6.39999 42H168.6C170.84 42 171.96 42 172.816 41.564C173.569 41.1805 174.181 40.5686 174.564 39.816C175 38.9603 175 37.8402 175 35.6V6.4C175 4.15979 175 3.03969 174.564 2.18404C174.181 1.43139 173.569 0.819467 172.816 0.435974C171.96 0 170.84 0 168.6 0H6.4C4.15979 0 3.03969 0 2.18404 0.435974C1.43139 0.819467 0.819467 1.43139 0.435974 2.18404ZM1.43597 3.18404C1 4.03968 1 5.15979 1 7.4V34.6C1 36.8402 1 37.9603 1.43597 38.816C1.81947 39.5686 2.43139 40.1805 3.18404 40.564C4.03968 41 5.15979 41 7.39999 41H167.6C169.84 41 170.96 41 171.816 40.564C172.569 40.1805 173.181 39.5686 173.564 38.816C174 37.9603 174 36.8402 174 34.6V7.4C174 5.15979 174 4.03968 173.564 3.18404C173.181 2.43139 172.569 1.81947 171.816 1.43597C170.96 1 169.84 1 167.6 1H7.4C5.15979 1 4.03968 1 3.18404 1.43597C2.43139 1.81947 1.81947 2.43139 1.43597 3.18404Z" fill="white"/>
</mask>
<g mask="url(#mask0)">
<rect width="175.676" height="42" fill="#D43900"/>
</g>
</svg>
