<svg width="356" height="356" viewBox="0 0 356 356" fill="none" xmlns="http://www.w3.org/2000/svg">
<circle cx="178" cy="178" r="178" fill="white"/>
<path fill-rule="evenodd" clip-rule="evenodd" d="M87.402 274.096C38.142 225.501 38.142 146.706 87.402 98.1C136.662 49.5266 216.525 49.5266 265.796 98.1C315.056 146.706 315.056 225.501 265.796 274.096C242.235 297.339 204.042 297.339 180.471 274.096L133.942 228.185C129.664 223.954 122.71 223.954 118.432 228.185C114.144 232.416 114.144 239.265 118.432 243.485C126.988 251.925 126.988 265.624 118.432 274.096C109.866 282.547 95.9685 282.547 87.402 274.096Z" stroke="black" stroke-width="5" stroke-linecap="round" stroke-linejoin="round"/>
<path fill-rule="evenodd" clip-rule="evenodd" d="M233.751 144.048C227.738 150.073 217.974 150.073 211.951 144.048C205.928 138.044 205.928 128.256 211.951 122.251C217.974 116.226 227.738 116.226 233.751 122.251C239.774 128.256 239.774 138.044 233.751 144.048Z" stroke="black" stroke-width="5" stroke-linecap="round" stroke-linejoin="round"/>
<path fill-rule="evenodd" clip-rule="evenodd" d="M244.358 193.344C239.975 189.508 239.975 183.306 244.358 179.47C248.741 175.643 255.825 175.643 260.208 179.47C264.591 183.306 264.591 189.508 260.208 193.344C255.825 197.181 248.741 197.181 244.358 193.344Z" stroke="black" stroke-width="5" stroke-linecap="round" stroke-linejoin="round"/>
<path fill-rule="evenodd" clip-rule="evenodd" d="M207.978 254.544C199.776 246.335 199.776 233.006 207.978 224.796C216.179 216.597 229.512 216.597 237.714 224.796C245.926 233.006 245.926 246.335 237.714 254.544C229.512 262.744 216.179 262.744 207.978 254.544Z" stroke="black" stroke-width="5" stroke-linecap="round" stroke-linejoin="round"/>
<path fill-rule="evenodd" clip-rule="evenodd" d="M168.864 108.645C175.434 115.215 175.446 125.867 168.864 132.427C162.305 138.997 151.653 138.997 145.094 132.427C138.513 125.867 138.513 115.215 145.094 108.645C151.665 102.074 162.305 102.074 168.864 108.645Z" fill="#D43900" stroke="black" stroke-width="5" stroke-linecap="round" stroke-linejoin="round"/>
</svg>
