<svg width="335" height="305" viewBox="0 0 335 305" fill="none" xmlns="http://www.w3.org/2000/svg">
<path fill-rule="evenodd" clip-rule="evenodd" d="M50.9168 279.344C-13.2872 216.167 -13.2872 113.727 50.9168 50.5361C115.121 -12.6128 219.211 -12.6128 283.43 50.5361C347.634 113.727 347.634 216.167 283.43 279.344C252.721 309.561 202.942 309.561 172.22 279.344L111.575 219.655C106 214.155 96.9362 214.155 91.3607 219.655C85.7709 225.156 85.7709 234.061 91.3607 239.547C102.512 250.52 102.512 268.329 91.3607 279.344C80.1954 290.331 62.0821 290.331 50.9168 279.344Z" stroke="black" stroke-width="5" stroke-linecap="round" stroke-linejoin="round"/>
<path fill-rule="evenodd" clip-rule="evenodd" d="M241.663 110.273C233.826 118.106 221.1 118.106 213.25 110.273C205.399 102.467 205.399 89.7414 213.25 81.9351C221.1 74.1021 233.826 74.1021 241.663 81.9351C249.514 89.7414 249.514 102.467 241.663 110.273Z" stroke="black" stroke-width="5" stroke-linecap="round" stroke-linejoin="round"/>
<path fill-rule="evenodd" clip-rule="evenodd" d="M255.489 174.36C249.776 169.372 249.776 161.31 255.489 156.322C261.202 151.347 270.436 151.347 276.148 156.322C281.861 161.31 281.861 169.372 276.148 174.36C270.436 179.348 261.202 179.348 255.489 174.36Z" stroke="black" stroke-width="5" stroke-linecap="round" stroke-linejoin="round"/>
<path fill-rule="evenodd" clip-rule="evenodd" d="M208.073 253.925C197.383 243.251 197.383 225.923 208.073 215.25C218.763 204.59 236.141 204.59 246.831 215.25C257.534 225.923 257.534 243.251 246.831 253.925C236.141 264.584 218.763 264.584 208.073 253.925Z" stroke="black" stroke-width="5" stroke-linecap="round" stroke-linejoin="round"/>
<path fill-rule="evenodd" clip-rule="evenodd" d="M157.092 64.2456C165.655 72.7878 165.67 86.6361 157.092 95.1638C148.543 103.706 134.66 103.706 126.111 95.1638C117.533 86.6361 117.533 72.7878 126.111 64.2456C134.674 55.7033 148.543 55.7033 157.092 64.2456Z" fill="#D43900" stroke="black" stroke-width="5" stroke-linecap="round" stroke-linejoin="round"/>
</svg>
