<svg width="251" height="382" viewBox="0 0 251 382" fill="none" xmlns="http://www.w3.org/2000/svg">
<path fill-rule="evenodd" clip-rule="evenodd" d="M25.738 1.855C26.1785 1.06012 27.0158 0.566925 27.9246 0.566925H215.693C216.56 0.566925 217.365 1.01556 217.82 1.7526C218.276 2.48964 218.317 3.40999 217.929 4.18496L185.896 68.2519L250.478 173.198C250.924 173.922 250.971 174.823 250.603 175.59L152.636 379.686C152.22 380.553 151.344 381.105 150.383 381.105H125.891H101.399C100.438 381.105 99.5617 380.553 99.1456 379.686L1.17927 175.59C0.811273 174.823 0.858236 173.922 1.30393 173.198L65.8022 68.3881L25.8046 4.39192C25.3229 3.62125 25.2974 2.64989 25.738 1.855ZM128.391 376.105V199C128.391 197.619 127.272 196.5 125.891 196.5C124.51 196.5 123.391 197.619 123.391 199V376.105H102.972L6.27731 174.656L70.141 70.8778H181.641L245.505 174.656L148.81 376.105H128.391ZM211.648 5.56693L181.493 65.8778H70.1295L32.4352 5.56693H211.648Z" fill="black"/>
<path fill-rule="evenodd" clip-rule="evenodd" d="M158.547 166.344C158.547 184.37 143.917 199 125.891 199C107.865 199 93.2357 184.37 93.2357 166.344C93.2357 148.302 107.865 133.689 125.891 133.689C143.917 133.689 158.547 148.302 158.547 166.344Z" fill="#D43900" stroke="black" stroke-width="5" stroke-linecap="round" stroke-linejoin="round"/>
</svg>
