<svg width="356" height="356" viewBox="0 0 356 356" fill="none" xmlns="http://www.w3.org/2000/svg">
<circle cx="176.763" cy="199.013" r="156.986" fill="white"/>
<path fill-rule="evenodd" clip-rule="evenodd" d="M109.566 4.96777C110.006 4.17288 110.844 3.67969 111.752 3.67969H238.809C239.675 3.67969 240.48 4.12832 240.935 4.86536C241.391 5.6024 241.432 6.52275 241.045 7.29772L219.57 50.2474L263.035 120.877C263.48 121.602 263.527 122.503 263.159 123.269L196.869 261.374C196.453 262.241 195.577 262.793 194.615 262.793H161.47C160.509 262.793 159.632 262.241 159.216 261.374L92.9259 123.269C92.5579 122.503 92.6048 121.602 93.0505 120.877L136.432 50.3833L109.632 7.50468C109.151 6.73401 109.125 5.76265 109.566 4.96777ZM215.315 52.8732H140.77L98.0239 122.336L163.043 257.793H175.543V138.76C175.543 137.379 176.662 136.26 178.043 136.26C179.424 136.26 180.543 137.379 180.543 138.76V257.793H193.042L258.061 122.336L215.315 52.8732ZM234.764 8.67969L215.167 47.8731H140.759L116.263 8.67969H234.764Z" fill="black"/>
<path fill-rule="evenodd" clip-rule="evenodd" d="M200.139 116.663C200.139 128.861 190.24 138.76 178.042 138.76C165.845 138.76 155.945 128.861 155.945 116.663C155.945 104.455 165.845 94.5664 178.042 94.5664C190.24 94.5664 200.139 104.455 200.139 116.663Z" fill="#D43900" stroke="black" stroke-width="5" stroke-linecap="round" stroke-linejoin="round"/>
</svg>
