<svg width="349" height="370" viewBox="0 0 349 370" fill="none" xmlns="http://www.w3.org/2000/svg">
<g filter="url(#filter0_ddd)">
<rect x="20" y="10" width="309" height="330" rx="4" fill="white"/>
<rect x="20.5" y="10.5" width="308" height="329" rx="3.5" stroke="#E2E7E9"/>
</g>
<path d="M144.133 44.7734V49H142.156V37.625H146.508C147.779 37.625 148.786 37.9557 149.531 38.6172C150.281 39.2786 150.656 40.1536 150.656 41.2422C150.656 42.3568 150.289 43.224 149.555 43.8438C148.826 44.4635 147.802 44.7734 146.484 44.7734H144.133ZM144.133 43.1875H146.508C147.211 43.1875 147.747 43.0234 148.117 42.6953C148.487 42.362 148.672 41.8828 148.672 41.2578C148.672 40.6432 148.484 40.1536 148.109 39.7891C147.734 39.4193 147.219 39.2292 146.562 39.2188H144.133V43.1875ZM156.633 42.2812C156.383 42.2396 156.125 42.2188 155.859 42.2188C154.99 42.2188 154.404 42.5521 154.102 43.2188V49H152.203V40.5469H154.016L154.062 41.4922C154.521 40.7578 155.156 40.3906 155.969 40.3906C156.24 40.3906 156.464 40.4271 156.641 40.5L156.633 42.2812ZM157.195 44.6953C157.195 43.8672 157.359 43.1224 157.688 42.4609C158.016 41.7943 158.477 41.2839 159.07 40.9297C159.664 40.5703 160.346 40.3906 161.117 40.3906C162.258 40.3906 163.182 40.7578 163.891 41.4922C164.604 42.2266 164.99 43.2005 165.047 44.4141L165.055 44.8594C165.055 45.6927 164.893 46.4375 164.57 47.0938C164.253 47.75 163.794 48.2578 163.195 48.6172C162.602 48.9766 161.914 49.1562 161.133 49.1562C159.94 49.1562 158.984 48.7604 158.266 47.9688C157.552 47.1719 157.195 46.112 157.195 44.7891V44.6953ZM159.094 44.8594C159.094 45.7292 159.273 46.4115 159.633 46.9062C159.992 47.3958 160.492 47.6406 161.133 47.6406C161.773 47.6406 162.271 47.3906 162.625 46.8906C162.984 46.3906 163.164 45.6589 163.164 44.6953C163.164 43.8411 162.979 43.1641 162.609 42.6641C162.245 42.1641 161.747 41.9141 161.117 41.9141C160.497 41.9141 160.005 42.1615 159.641 42.6562C159.276 43.1458 159.094 43.8802 159.094 44.8594ZM169.523 43.3281L171.133 40.5469H173.242L170.656 44.7109L173.328 49H171.234L169.547 46.1094L167.867 49H165.758L168.43 44.7109L165.852 40.5469H167.945L169.523 43.3281ZM176.555 49H174.656V40.5469H176.555V49ZM174.539 38.3516C174.539 38.0599 174.63 37.8177 174.812 37.625C175 37.4323 175.266 37.3359 175.609 37.3359C175.953 37.3359 176.219 37.4323 176.406 37.625C176.594 37.8177 176.688 38.0599 176.688 38.3516C176.688 38.638 176.594 38.8776 176.406 39.0703C176.219 39.2578 175.953 39.3516 175.609 39.3516C175.266 39.3516 175 39.2578 174.812 39.0703C174.63 38.8776 174.539 38.638 174.539 38.3516ZM180.414 40.5469L180.469 41.4297C181.062 40.737 181.875 40.3906 182.906 40.3906C184.036 40.3906 184.81 40.8229 185.227 41.6875C185.841 40.8229 186.706 40.3906 187.82 40.3906C188.753 40.3906 189.445 40.6484 189.898 41.1641C190.357 41.6797 190.591 42.4401 190.602 43.4453V49H188.703V43.5C188.703 42.9635 188.586 42.5703 188.352 42.3203C188.117 42.0703 187.729 41.9453 187.188 41.9453C186.755 41.9453 186.401 42.0625 186.125 42.2969C185.854 42.526 185.664 42.8281 185.555 43.2031L185.562 49H183.664V43.4375C183.638 42.4427 183.13 41.9453 182.141 41.9453C181.38 41.9453 180.841 42.2552 180.523 42.875V49H178.625V40.5469H180.414ZM194.57 49H192.672V40.5469H194.57V49ZM192.555 38.3516C192.555 38.0599 192.646 37.8177 192.828 37.625C193.016 37.4323 193.281 37.3359 193.625 37.3359C193.969 37.3359 194.234 37.4323 194.422 37.625C194.609 37.8177 194.703 38.0599 194.703 38.3516C194.703 38.638 194.609 38.8776 194.422 39.0703C194.234 39.2578 193.969 39.3516 193.625 39.3516C193.281 39.3516 193.016 39.2578 192.828 39.0703C192.646 38.8776 192.555 38.638 192.555 38.3516ZM199.023 38.4922V40.5469H200.516V41.9531H199.023V46.6719C199.023 46.9948 199.086 47.2292 199.211 47.375C199.341 47.5156 199.57 47.5859 199.898 47.5859C200.117 47.5859 200.339 47.5599 200.562 47.5078V48.9766C200.13 49.0964 199.714 49.1562 199.312 49.1562C197.854 49.1562 197.125 48.3516 197.125 46.7422V41.9531H195.734V40.5469H197.125V38.4922H199.023ZM204.93 46.2812L206.648 40.5469H208.672L205.312 50.2812C204.797 51.7031 203.922 52.4141 202.688 52.4141C202.411 52.4141 202.107 52.3672 201.773 52.2734V50.8047L202.133 50.8281C202.612 50.8281 202.971 50.7396 203.211 50.5625C203.456 50.3906 203.648 50.099 203.789 49.6875L204.062 48.9609L201.094 40.5469H203.141L204.93 46.2812Z" fill="#020E12"/>
<path d="M261.667 73.5H84.3333C80.8355 73.5 78 76.3355 78 79.8333V304.667C78 308.164 80.8355 311 84.3333 311H261.667C265.164 311 268 308.164 268 304.667V79.8333C268 76.3355 265.164 73.5 261.667 73.5Z" fill="#E2E7E9"/>
<path fill-rule="evenodd" clip-rule="evenodd" d="M90.6668 98.8333H255.333C258.831 98.8333 261.667 101.669 261.667 105.167V298.333C261.667 301.831 258.831 304.667 255.333 304.667H90.6668C87.169 304.667 84.3335 301.831 84.3335 298.333V105.167C84.3335 101.669 87.169 98.8333 90.6668 98.8333ZM87.5002 83C89.2491 83 90.6668 84.4177 90.6668 86.1667C90.6668 87.9156 89.2491 89.3333 87.5002 89.3333C85.7513 89.3333 84.3335 87.9156 84.3335 86.1667C84.3335 84.4177 85.7513 83 87.5002 83ZM97.0002 83C98.7491 83 100.167 84.4177 100.167 86.1667C100.167 87.9156 98.7491 89.3333 97.0002 89.3333C95.2512 89.3333 93.8335 87.9156 93.8335 86.1667C93.8335 84.4177 95.2512 83 97.0002 83ZM106.5 83C108.249 83 109.667 84.4177 109.667 86.1667C109.667 87.9156 108.249 89.3333 106.5 89.3333C104.751 89.3333 103.333 87.9156 103.333 86.1667C103.333 84.4177 104.751 83 106.5 83Z" fill="#F6F8F9"/>
<path d="M123.125 157.417C134.056 157.417 142.917 148.556 142.917 137.625C142.917 126.694 134.056 117.833 123.125 117.833C112.194 117.833 103.333 126.694 103.333 137.625C103.333 148.556 112.194 157.417 123.125 157.417Z" fill="#020E12"/>
<path d="M226.833 124.167H154C153.125 124.167 152.417 124.876 152.417 125.75V127.333C152.417 128.208 153.125 128.917 154 128.917H226.833C227.708 128.917 228.417 128.208 228.417 127.333V125.75C228.417 124.876 227.708 124.167 226.833 124.167Z" fill="#333333"/>
<path d="M250.583 138.417H154C153.125 138.417 152.417 139.126 152.417 140V141.583C152.417 142.458 153.125 143.167 154 143.167H250.583C251.458 143.167 252.167 142.458 252.167 141.583V140C252.167 139.126 251.458 138.417 250.583 138.417Z" fill="#E2E7E9"/>
<path d="M212.583 146.333H154C153.125 146.333 152.417 147.042 152.417 147.917V149.5C152.417 150.374 153.125 151.083 154 151.083H212.583C213.458 151.083 214.167 150.374 214.167 149.5V147.917C214.167 147.042 213.458 146.333 212.583 146.333Z" fill="#E2E7E9"/>
<path d="M123.125 200.167C134.056 200.167 142.917 191.306 142.917 180.375C142.917 169.444 134.056 160.583 123.125 160.583C112.194 160.583 103.333 169.444 103.333 180.375C103.333 191.306 112.194 200.167 123.125 200.167Z" fill="#020E12"/>
<path d="M211 166.917H154C153.125 166.917 152.417 167.626 152.417 168.5V170.083C152.417 170.958 153.125 171.667 154 171.667H211C211.874 171.667 212.583 170.958 212.583 170.083V168.5C212.583 167.626 211.874 166.917 211 166.917Z" fill="#333333"/>
<path d="M234.75 181.167H154C153.125 181.167 152.417 181.876 152.417 182.75V184.333C152.417 185.208 153.125 185.917 154 185.917H234.75C235.624 185.917 236.333 185.208 236.333 184.333V182.75C236.333 181.876 235.624 181.167 234.75 181.167Z" fill="#E2E7E9"/>
<path d="M228.417 189.083H154C153.125 189.083 152.417 189.792 152.417 190.667V192.25C152.417 193.124 153.125 193.833 154 193.833H228.417C229.291 193.833 230 193.124 230 192.25V190.667C230 189.792 229.291 189.083 228.417 189.083Z" fill="#E2E7E9"/>
<path d="M123.125 242.917C134.056 242.917 142.917 234.056 142.917 223.125C142.917 212.194 134.056 203.333 123.125 203.333C112.194 203.333 103.333 212.194 103.333 223.125C103.333 234.056 112.194 242.917 123.125 242.917Z" fill="#020E12"/>
<path d="M242.666 209.667H154C153.125 209.667 152.417 210.375 152.417 211.25V212.833C152.417 213.708 153.125 214.417 154 214.417H242.666C243.541 214.417 244.25 213.708 244.25 212.833V211.25C244.25 210.375 243.541 209.667 242.666 209.667Z" fill="#333333"/>
<path d="M203.083 223.917H154C153.125 223.917 152.417 224.626 152.417 225.5V227.083C152.417 227.958 153.125 228.667 154 228.667H203.083C203.958 228.667 204.667 227.958 204.667 227.083V225.5C204.667 224.626 203.958 223.917 203.083 223.917Z" fill="#E2E7E9"/>
<path d="M247.416 231.833H154C153.125 231.833 152.417 232.542 152.417 233.417V235C152.417 235.874 153.125 236.583 154 236.583H247.416C248.291 236.583 249 235.874 249 235V233.417C249 232.542 248.291 231.833 247.416 231.833Z" fill="#E2E7E9"/>
<path d="M123.125 285.667C134.056 285.667 142.917 276.806 142.917 265.875C142.917 254.944 134.056 246.083 123.125 246.083C112.194 246.083 103.333 254.944 103.333 265.875C103.333 276.806 112.194 285.667 123.125 285.667Z" fill="#020E12"/>
<path d="M188.833 252.417H154C153.125 252.417 152.417 253.126 152.417 254V255.583C152.417 256.458 153.125 257.167 154 257.167H188.833C189.708 257.167 190.417 256.458 190.417 255.583V254C190.417 253.126 189.708 252.417 188.833 252.417Z" fill="#333333"/>
<path d="M234.75 266.667H154C153.125 266.667 152.417 267.376 152.417 268.25V269.833C152.417 270.708 153.125 271.417 154 271.417H234.75C235.624 271.417 236.333 270.708 236.333 269.833V268.25C236.333 267.376 235.624 266.667 234.75 266.667Z" fill="#E2E7E9"/>
<path d="M201.5 274.583H154C153.125 274.583 152.417 275.292 152.417 276.167V277.75C152.417 278.624 153.125 279.333 154 279.333H201.5C202.374 279.333 203.083 278.624 203.083 277.75V276.167C203.083 275.292 202.374 274.583 201.5 274.583Z" fill="#E2E7E9"/>
<defs>
<filter id="filter0_ddd" x="0" y="0" width="349" height="370" filterUnits="userSpaceOnUse" color-interpolation-filters="sRGB">
<feFlood flood-opacity="0" result="BackgroundImageFix"/>
<feColorMatrix in="SourceAlpha" type="matrix" values="0 0 0 0 0 0 0 0 0 0 0 0 0 0 0 0 0 0 127 0"/>
<feOffset/>
<feGaussianBlur stdDeviation="0.5"/>
<feColorMatrix type="matrix" values="0 0 0 0 0 0 0 0 0 0 0 0 0 0 0 0 0 0 0.04 0"/>
<feBlend mode="normal" in2="BackgroundImageFix" result="effect1_dropShadow"/>
<feColorMatrix in="SourceAlpha" type="matrix" values="0 0 0 0 0 0 0 0 0 0 0 0 0 0 0 0 0 0 127 0"/>
<feOffset dy="2"/>
<feGaussianBlur stdDeviation="3"/>
<feColorMatrix type="matrix" values="0 0 0 0 0 0 0 0 0 0 0 0 0 0 0 0 0 0 0.04 0"/>
<feBlend mode="normal" in2="effect1_dropShadow" result="effect2_dropShadow"/>
<feColorMatrix in="SourceAlpha" type="matrix" values="0 0 0 0 0 0 0 0 0 0 0 0 0 0 0 0 0 0 127 0"/>
<feOffset dy="10"/>
<feGaussianBlur stdDeviation="10"/>
<feColorMatrix type="matrix" values="0 0 0 0 0 0 0 0 0 0 0 0 0 0 0 0 0 0 0.04 0"/>
<feBlend mode="normal" in2="effect2_dropShadow" result="effect3_dropShadow"/>
<feBlend mode="normal" in="SourceGraphic" in2="effect3_dropShadow" result="shape"/>
</filter>
</defs>
</svg>
