<svg width="148" height="148" viewBox="0 0 148 148" fill="none" xmlns="http://www.w3.org/2000/svg">
<path fill-rule="evenodd" clip-rule="evenodd" d="M32.7318 8.45444C33.5128 9.23549 33.5128 10.5018 32.7318 11.2829L19.4298 24.5848C18.6488 25.3659 17.3825 25.3659 16.6014 24.5848C15.8204 23.8038 15.8204 22.5374 16.6014 21.7564L29.9034 8.45444C30.6844 7.67339 31.9507 7.67339 32.7318 8.45444ZM134.954 74.9576C135.735 75.7386 135.735 77.0049 134.954 77.786L134.951 77.7886L134.943 77.7967L134.913 77.8267L134.803 77.9374L134.413 78.3275L133.239 79.5031L132.068 80.6753L131.682 81.0612L131.574 81.1692L131.546 81.1977L131.539 81.205L131.537 81.2069L131.536 81.2073L131.536 81.2074L130.121 79.794L128.706 78.3805L128.706 78.3804L128.707 78.3799L128.709 78.3781L128.716 78.3708L128.744 78.3423L128.852 78.2342L129.238 77.8483L130.409 76.6761L132.126 74.9576C132.907 74.1765 134.173 74.1765 134.954 74.9576ZM130.121 79.794L131.536 81.2075C130.755 81.9889 129.489 81.9896 128.708 81.209C127.926 80.4283 127.926 79.162 128.706 78.3805L130.121 79.794ZM142.611 89.8991C143.63 89.4722 144.802 89.9519 145.229 90.9707L147.844 97.2131C148.103 97.8305 148.036 98.5364 147.665 99.0938C147.294 99.6512 146.669 99.9861 146 99.9861H143.943V108.64C143.943 109.449 143.456 110.178 142.709 110.488C141.961 110.797 141.101 110.626 140.529 110.054L135.419 104.944C134.638 104.163 134.638 102.897 135.419 102.116C136.2 101.335 137.466 101.335 138.248 102.116L139.943 103.811V97.9861C139.943 96.8815 140.839 95.9861 141.943 95.9861H142.993L141.539 92.5166C141.112 91.4979 141.592 90.326 142.611 89.8991ZM131.508 110.546L134.124 116.788C134.383 117.405 134.315 118.111 133.945 118.669C133.574 119.226 132.949 119.561 132.279 119.561H130.223V128.215C130.223 129.319 129.327 130.215 128.223 130.215H121.361V132.271C121.361 132.912 121.054 133.513 120.536 133.89C120.018 134.266 119.351 134.371 118.742 134.173L110.707 131.557C109.657 131.215 109.083 130.086 109.425 129.036C109.767 127.986 110.896 127.412 111.946 127.754L117.361 129.517V128.215C117.361 127.11 118.256 126.215 119.361 126.215H126.223V117.561C126.223 116.456 127.118 115.561 128.223 115.561H129.273L127.819 112.092C127.392 111.073 127.872 109.901 128.89 109.474C129.909 109.047 131.081 109.527 131.508 110.546ZM86.9605 145.469C85.8935 145.183 85.2601 144.087 85.5457 143.02C85.8313 141.953 86.9278 141.319 87.9948 141.605L91.6286 142.578L91.487 141.537C91.338 140.443 92.1045 139.435 93.199 139.286L98.971 138.5L97.0619 137.049C96.1827 136.38 96.0119 135.125 96.6804 134.246C97.349 133.367 98.6037 133.196 99.483 133.864L105.236 138.239C105.88 138.728 106.165 139.557 105.959 140.34C105.753 141.122 105.096 141.703 104.295 141.812L95.7202 142.98L95.9976 145.017C96.0879 145.681 95.8404 146.345 95.3381 146.788C94.8358 147.23 94.1455 147.392 93.4988 147.219L86.9605 145.469ZM114.538 104.058C115.319 103.277 115.319 102.011 114.538 101.23C113.757 100.449 112.491 100.449 111.71 101.23L101.239 111.701C100.458 112.482 100.458 113.748 101.239 114.529C102.02 115.31 103.286 115.31 104.067 114.529L114.538 104.058ZM81.1542 78.3191C80.3731 77.538 79.1068 77.538 78.3257 78.3191C77.5447 79.1001 77.5447 80.3665 78.3257 81.1475L79.8201 82.6418C80.6011 83.4229 81.8674 83.4229 82.6485 82.6418C83.4295 81.8608 83.4295 80.5945 82.6485 79.8134L81.1542 78.3191Z" fill="#020E12"/>
<path d="M54.3549 98.2492L49.4957 93.39C23.7483 67.6425 7.93786 35.6383 2 2C35.6383 7.93786 67.6425 23.7483 93.39 49.4957L98.2492 54.3549" stroke="#020E12" stroke-width="4" stroke-linecap="round" stroke-linejoin="round"/>
<path d="M64.9427 96.6339L63.8605 95.6126" stroke="#020E12" stroke-width="4" stroke-linecap="round" stroke-linejoin="round"/>
<path d="M96.6342 64.9427L95.6129 63.8605" stroke="#020E12" stroke-width="4" stroke-linecap="round" stroke-linejoin="round"/>
<path d="M100.272 123.699L103.784 127.211L127.22 103.779L124.156 100.715" stroke="#020E12" stroke-width="4" stroke-linecap="round" stroke-linejoin="round"/>
<path d="M118.202 94.7618C108.637 85.1939 95.1383 80.048 81.2344 81.2269C80.0518 95.1309 85.2013 108.63 94.7692 118.194" stroke="#020E12" stroke-width="4" stroke-linecap="round" stroke-linejoin="round"/>
<path d="M124.896 91.8818L104.889 60.9956C115.067 62.5437 124.498 67.3276 131.744 74.5735L141.158 83.9873L129.078 96.0637" stroke="#020E12" stroke-width="4" stroke-linecap="round" stroke-linejoin="round"/>
<path d="M91.8815 124.896L60.9954 104.89C62.5434 115.067 67.3274 124.499 74.5732 131.744L83.9871 141.155L96.0635 129.078" stroke="#020E12" stroke-width="4" stroke-linecap="round" stroke-linejoin="round"/>
<path fill-rule="evenodd" clip-rule="evenodd" d="M44.6558 35.9679C47.0532 38.3653 47.0532 42.257 44.6558 44.6543C42.2585 47.0553 38.3668 47.0553 35.9694 44.6543C33.5685 42.257 33.5685 38.3653 35.9694 35.9679C38.3668 33.5706 42.2585 33.5706 44.6558 35.9679Z" fill="#D43900" stroke="#020E12" stroke-width="4" stroke-linecap="round" stroke-linejoin="round"/>
<path d="M53.5359 65.6985C50.1781 62.3408 50.1781 56.8939 53.5359 53.5361C56.8936 50.1748 62.3405 50.1748 65.6983 53.5361C69.0596 56.8939 69.0596 62.3408 65.6983 65.6985C64.6555 66.7413 63.412 67.4616 62.0897 67.8558" stroke="#020E12" stroke-width="4" stroke-linecap="round" stroke-linejoin="round"/>
</svg>
