<svg width="73" height="108" viewBox="0 0 73 108" fill="none" xmlns="http://www.w3.org/2000/svg">
<path fill-rule="evenodd" clip-rule="evenodd" d="M7.01689 1.28808C7.45745 0.493192 8.29468 0 9.20349 0H60.5971C61.4636 0 62.2682 0.448631 62.7237 1.18567C63.1793 1.92271 63.2207 2.84306 62.8332 3.61803L54.5171 20.2502L71.6643 48.1144C72.11 48.8386 72.157 49.7398 71.789 50.5064L44.9749 106.369C44.5588 107.236 43.6826 107.787 42.7211 107.787H29.3141C28.3526 107.787 27.4763 107.236 27.0603 106.369L0.246196 50.5064C-0.121802 49.7398 -0.0748388 48.8386 0.370858 48.1144L17.4343 20.3863L7.0835 3.825C6.60183 3.05433 6.57632 2.08297 7.01689 1.28808ZM21.773 22.876H50.2621L66.6909 49.5728L41.148 102.787H38.5176V56.1281C38.5176 54.7474 37.3983 53.6281 36.0176 53.6281C34.6369 53.6281 33.5176 54.7474 33.5176 56.1281V102.787H30.8872L5.34424 49.5728L21.773 22.876ZM56.552 5L50.114 17.876H21.7616L13.7141 5H56.552Z" fill="black"/>
<path fill-rule="evenodd" clip-rule="evenodd" d="M44.9556 47.1901C44.9556 52.1239 40.9514 56.1281 36.0176 56.1281C31.0838 56.1281 27.0796 52.1239 27.0796 47.1901C27.0796 42.2518 31.0838 38.2521 36.0176 38.2521C40.9514 38.2521 44.9556 42.2518 44.9556 47.1901Z" fill="#D43900" stroke="black" stroke-width="5" stroke-linecap="round" stroke-linejoin="round"/>
</svg>
