<svg width="349" height="370" viewBox="0 0 349 370" fill="none" xmlns="http://www.w3.org/2000/svg">
<g filter="url(#filter0_ddd)">
<rect x="20.0002" y="10" width="309" height="330" rx="4" fill="white"/>
<rect x="20.5002" y="10.5" width="308" height="329" rx="3.5" stroke="#E2E7E9"/>
</g>
<path d="M298.959 77H52.6429C47.7845 77 43.8459 79.352 43.8459 82.2533V268.747C43.8459 271.648 47.7845 274 52.6429 274H298.959C303.817 274 307.756 271.648 307.756 268.747V82.2533C307.756 79.352 303.817 77 298.959 77Z" fill="#E2E7E9"/>
<path d="M284.59 96.9219H67.0112C62.7195 96.9219 59.2405 98.7982 59.2405 101.113V249.888C59.2405 252.203 62.7195 254.079 67.0112 254.079H284.59C288.882 254.079 292.361 252.203 292.361 249.888V101.113C292.361 98.7982 288.882 96.9219 284.59 96.9219Z" fill="white"/>
<path d="M98.8273 187.674C113.403 187.674 125.218 175.781 125.218 161.113C125.218 146.444 113.403 134.551 98.8273 134.551C84.252 134.551 72.4363 146.444 72.4363 161.113C72.4363 175.781 84.252 187.674 98.8273 187.674Z" fill="#E2E7E9"/>
<path d="M109.823 198.742H85.6316C84.417 198.742 83.4324 199.733 83.4324 200.956V203.169C83.4324 204.392 84.417 205.383 85.6316 205.383H109.823C111.038 205.383 112.023 204.392 112.023 203.169V200.956C112.023 199.733 111.038 198.742 109.823 198.742Z" fill="#020E12"/>
<path d="M118.62 212.023H79.0337C77.8191 212.023 76.8345 213.014 76.8345 214.237V216.45C76.8345 217.673 77.8191 218.664 79.0337 218.664H118.62C119.835 218.664 120.819 217.673 120.819 216.45V214.237C120.819 213.014 119.835 212.023 118.62 212.023Z" fill="#E2E7E9"/>
<path d="M118.62 225.303H79.0337C77.8191 225.303 76.8345 226.294 76.8345 227.516V229.73C76.8345 230.952 77.8191 231.943 79.0337 231.943H118.62C119.835 231.943 120.819 230.952 120.819 229.73V227.516C120.819 226.294 119.835 225.303 118.62 225.303Z" fill="#E2E7E9"/>
<path d="M175.801 187.674C190.376 187.674 202.192 175.781 202.192 161.113C202.192 146.444 190.376 134.551 175.801 134.551C161.225 134.551 149.41 146.444 149.41 161.113C149.41 175.781 161.225 187.674 175.801 187.674Z" fill="#E2E7E9"/>
<path d="M188.996 198.742H164.805C163.59 198.742 162.605 199.733 162.605 200.956V203.169C162.605 204.392 163.59 205.383 164.805 205.383H188.996C190.211 205.383 191.196 204.392 191.196 203.169V200.956C191.196 199.733 190.211 198.742 188.996 198.742Z" fill="#020E12"/>
<path d="M197.793 212.023H158.207C156.992 212.023 156.008 213.014 156.008 214.237V216.45C156.008 217.673 156.992 218.664 158.207 218.664H197.793C199.008 218.664 199.993 217.673 199.993 216.45V214.237C199.993 213.014 199.008 212.023 197.793 212.023Z" fill="#E2E7E9"/>
<path d="M197.793 225.303H158.207C156.992 225.303 156.008 226.294 156.008 227.516V229.73C156.008 230.952 156.992 231.943 158.207 231.943H197.793C199.008 231.943 199.993 230.952 199.993 229.73V227.516C199.993 226.294 199.008 225.303 197.793 225.303Z" fill="#E2E7E9"/>
<path d="M252.775 187.674C267.349 187.674 279.166 175.781 279.166 161.113C279.166 146.444 267.349 134.551 252.775 134.551C238.199 134.551 226.384 146.444 226.384 161.113C226.384 175.781 238.199 187.674 252.775 187.674Z" fill="#E2E7E9"/>
<path fill-rule="evenodd" clip-rule="evenodd" d="M98.8273 185.461C112.188 185.461 123.019 174.56 123.019 161.112C123.019 147.665 112.188 136.764 98.8273 136.764C85.4666 136.764 74.6356 147.665 74.6356 161.112C74.6356 174.56 85.4666 185.461 98.8273 185.461ZM111.562 158.042C112.232 157.174 112.171 155.918 111.379 155.12L111.171 154.936C110.309 154.261 109.061 154.322 108.268 155.12L98.8273 164.621L89.3862 155.12L89.179 154.936C88.3162 154.261 87.0688 154.322 86.276 155.12C85.4171 155.985 85.4171 157.386 86.276 158.251L97.2722 169.318L97.4794 169.502C98.3421 170.177 99.5896 170.116 100.382 169.318L111.379 158.251L111.562 158.042Z" fill="#979797"/>
<mask id="mask0" mask-type="alpha" maskUnits="userSpaceOnUse" x="74" y="136" width="50" height="50">
<path fill-rule="evenodd" clip-rule="evenodd" d="M98.8273 185.461C112.188 185.461 123.019 174.56 123.019 161.112C123.019 147.665 112.188 136.764 98.8273 136.764C85.4666 136.764 74.6356 147.665 74.6356 161.112C74.6356 174.56 85.4666 185.461 98.8273 185.461ZM111.562 158.042C112.232 157.174 112.171 155.918 111.379 155.12L111.171 154.936C110.309 154.261 109.061 154.322 108.268 155.12L98.8273 164.621L89.3862 155.12L89.179 154.936C88.3162 154.261 87.0688 154.322 86.276 155.12C85.4171 155.985 85.4171 157.386 86.276 158.251L97.2722 169.318L97.4794 169.502C98.3421 170.177 99.5896 170.116 100.382 169.318L111.379 158.251L111.562 158.042Z" fill="white"/>
</mask>
<g mask="url(#mask0)">
<rect x="72.4363" y="134.551" width="52.782" height="53.1236" fill="#020E12"/>
</g>
<path fill-rule="evenodd" clip-rule="evenodd" d="M175.801 185.461C189.161 185.461 199.992 174.56 199.992 161.112C199.992 147.665 189.161 136.764 175.801 136.764C162.44 136.764 151.609 147.665 151.609 161.112C151.609 174.56 162.44 185.461 175.801 185.461ZM188.535 158.042C189.206 157.174 189.145 155.918 188.352 155.12L188.145 154.936C187.282 154.261 186.035 154.322 185.242 155.12L175.801 164.621L166.36 155.12L166.152 154.936C165.29 154.261 164.042 154.322 163.249 155.12C162.39 155.985 162.39 157.386 163.249 158.251L174.246 169.318L174.453 169.502C175.316 170.177 176.563 170.116 177.356 169.318L188.352 158.251L188.535 158.042Z" fill="#979797"/>
<mask id="mask1" mask-type="alpha" maskUnits="userSpaceOnUse" x="151" y="136" width="49" height="50">
<path fill-rule="evenodd" clip-rule="evenodd" d="M175.801 185.461C189.161 185.461 199.992 174.56 199.992 161.112C199.992 147.665 189.161 136.764 175.801 136.764C162.44 136.764 151.609 147.665 151.609 161.112C151.609 174.56 162.44 185.461 175.801 185.461ZM188.535 158.042C189.206 157.174 189.145 155.918 188.352 155.12L188.145 154.936C187.282 154.261 186.035 154.322 185.242 155.12L175.801 164.621L166.36 155.12L166.152 154.936C165.29 154.261 164.042 154.322 163.249 155.12C162.39 155.985 162.39 157.386 163.249 158.251L174.246 169.318L174.453 169.502C175.316 170.177 176.563 170.116 177.356 169.318L188.352 158.251L188.535 158.042Z" fill="white"/>
</mask>
<g mask="url(#mask1)">
<rect x="149.41" y="134.551" width="52.782" height="53.1236" fill="#020E12"/>
</g>
<path fill-rule="evenodd" clip-rule="evenodd" d="M252.775 185.461C266.136 185.461 276.967 174.56 276.967 161.112C276.967 147.665 266.136 136.764 252.775 136.764C239.414 136.764 228.583 147.665 228.583 161.112C228.583 174.56 239.414 185.461 252.775 185.461ZM265.509 158.042C266.18 157.174 266.119 155.918 265.326 155.12L265.119 154.936C264.256 154.261 263.009 154.322 262.216 155.12L252.775 164.621L243.334 155.12L243.126 154.936C242.264 154.261 241.016 154.322 240.223 155.12C239.365 155.985 239.365 157.386 240.223 158.251L251.22 169.318L251.427 169.502C252.29 170.177 253.537 170.116 254.33 169.318L265.326 158.251L265.509 158.042Z" fill="#979797"/>
<mask id="mask2" mask-type="alpha" maskUnits="userSpaceOnUse" x="228" y="136" width="49" height="50">
<path fill-rule="evenodd" clip-rule="evenodd" d="M252.775 185.461C266.136 185.461 276.967 174.56 276.967 161.112C276.967 147.665 266.136 136.764 252.775 136.764C239.414 136.764 228.583 147.665 228.583 161.112C228.583 174.56 239.414 185.461 252.775 185.461ZM265.509 158.042C266.18 157.174 266.119 155.918 265.326 155.12L265.119 154.936C264.256 154.261 263.009 154.322 262.216 155.12L252.775 164.621L243.334 155.12L243.126 154.936C242.264 154.261 241.016 154.322 240.223 155.12C239.365 155.985 239.365 157.386 240.223 158.251L251.22 169.318L251.427 169.502C252.29 170.177 253.537 170.116 254.33 169.318L265.326 158.251L265.509 158.042Z" fill="white"/>
</mask>
<g mask="url(#mask2)">
<rect x="226.384" y="134.551" width="52.782" height="53.1236" fill="#020E12"/>
</g>
<path d="M263.771 198.742H239.579C238.365 198.742 237.38 199.733 237.38 200.956V203.169C237.38 204.392 238.365 205.383 239.579 205.383H263.771C264.985 205.383 265.97 204.392 265.97 203.169V200.956C265.97 199.733 264.985 198.742 263.771 198.742Z" fill="#020E12"/>
<path d="M272.568 212.023H232.981C231.767 212.023 230.782 213.014 230.782 214.237V216.45C230.782 217.673 231.767 218.664 232.981 218.664H272.568C273.782 218.664 274.767 217.673 274.767 216.45V214.237C274.767 213.014 273.782 212.023 272.568 212.023Z" fill="#E2E7E9"/>
<path d="M272.568 225.303H232.981C231.767 225.303 230.782 226.294 230.782 227.516V229.73C230.782 230.952 231.767 231.943 232.981 231.943H272.568C273.782 231.943 274.767 230.952 274.767 229.73V227.516C274.767 226.294 273.782 225.303 272.568 225.303Z" fill="#E2E7E9"/>
<path d="M148.102 48.0703C148.102 47.5703 147.925 47.1849 147.571 46.9141C147.222 46.6432 146.589 46.3698 145.672 46.0938C144.755 45.8177 144.026 45.5104 143.485 45.1719C142.448 44.5208 141.93 43.6719 141.93 42.625C141.93 41.7083 142.302 40.9531 143.047 40.3594C143.797 39.7656 144.768 39.4688 145.961 39.4688C146.753 39.4688 147.459 39.6146 148.078 39.9062C148.698 40.1979 149.185 40.6146 149.539 41.1562C149.893 41.6927 150.071 42.2891 150.071 42.9453H148.102C148.102 42.3516 147.914 41.888 147.539 41.5547C147.17 41.2161 146.638 41.0469 145.946 41.0469C145.3 41.0469 144.797 41.1849 144.438 41.4609C144.084 41.737 143.906 42.1224 143.906 42.6172C143.906 43.0339 144.099 43.3828 144.485 43.6641C144.87 43.9401 145.505 44.2109 146.391 44.4766C147.276 44.737 147.987 45.0365 148.524 45.375C149.06 45.7083 149.453 46.0938 149.703 46.5312C149.953 46.9635 150.078 47.4714 150.078 48.0547C150.078 49.0026 149.714 49.7578 148.985 50.3203C148.261 50.8776 147.276 51.1562 146.031 51.1562C145.209 51.1562 144.451 51.0052 143.758 50.7031C143.071 50.3958 142.534 49.974 142.149 49.4375C141.768 48.901 141.578 48.276 141.578 47.5625H143.555C143.555 48.2083 143.768 48.7083 144.196 49.0625C144.623 49.4167 145.235 49.5938 146.031 49.5938C146.719 49.5938 147.235 49.4557 147.578 49.1797C147.927 48.8984 148.102 48.5286 148.102 48.0703ZM153.649 51H151.75V42.5469H153.649V51ZM151.633 40.3516C151.633 40.0599 151.724 39.8177 151.906 39.625C152.094 39.4323 152.36 39.3359 152.703 39.3359C153.047 39.3359 153.313 39.4323 153.5 39.625C153.688 39.8177 153.781 40.0599 153.781 40.3516C153.781 40.638 153.688 40.8776 153.5 41.0703C153.313 41.2578 153.047 41.3516 152.703 41.3516C152.36 41.3516 152.094 41.2578 151.906 41.0703C151.724 40.8776 151.633 40.638 151.633 40.3516ZM157.508 42.5469L157.563 43.4297C158.156 42.737 158.969 42.3906 160 42.3906C161.13 42.3906 161.904 42.8229 162.321 43.6875C162.935 42.8229 163.8 42.3906 164.914 42.3906C165.847 42.3906 166.539 42.6484 166.992 43.1641C167.451 43.6797 167.685 44.4401 167.696 45.4453V51H165.797V45.5C165.797 44.9635 165.68 44.5703 165.446 44.3203C165.211 44.0703 164.823 43.9453 164.281 43.9453C163.849 43.9453 163.495 44.0625 163.219 44.2969C162.948 44.526 162.758 44.8281 162.649 45.2031L162.656 51H160.758V45.4375C160.732 44.4427 160.224 43.9453 159.235 43.9453C158.474 43.9453 157.935 44.2552 157.617 44.875V51H155.719V42.5469H157.508ZM171.664 51H169.766V42.5469H171.664V51ZM169.649 40.3516C169.649 40.0599 169.74 39.8177 169.922 39.625C170.11 39.4323 170.375 39.3359 170.719 39.3359C171.063 39.3359 171.328 39.4323 171.516 39.625C171.703 39.8177 171.797 40.0599 171.797 40.3516C171.797 40.638 171.703 40.8776 171.516 41.0703C171.328 41.2578 171.063 41.3516 170.719 41.3516C170.375 41.3516 170.11 41.2578 169.922 41.0703C169.74 40.8776 169.649 40.638 169.649 40.3516ZM175.758 51H173.86V39H175.758V51ZM182.883 51C182.8 50.8385 182.727 50.5755 182.664 50.2109C182.06 50.8411 181.321 51.1562 180.446 51.1562C179.597 51.1562 178.904 50.9141 178.367 50.4297C177.831 49.9453 177.563 49.3464 177.563 48.6328C177.563 47.7318 177.896 47.0417 178.563 46.5625C179.235 46.0781 180.193 45.8359 181.438 45.8359H182.602V45.2812C182.602 44.8438 182.479 44.4948 182.235 44.2344C181.99 43.9688 181.617 43.8359 181.117 43.8359C180.685 43.8359 180.331 43.9453 180.055 44.1641C179.779 44.3776 179.641 44.651 179.641 44.9844H177.742C177.742 44.5208 177.896 44.0885 178.203 43.6875C178.511 43.2812 178.927 42.9635 179.453 42.7344C179.985 42.5052 180.576 42.3906 181.227 42.3906C182.216 42.3906 183.005 42.6406 183.594 43.1406C184.183 43.6354 184.485 44.3333 184.5 45.2344V49.0469C184.5 49.8073 184.607 50.4141 184.821 50.8672V51H182.883ZM180.797 49.6328C181.172 49.6328 181.524 49.5417 181.852 49.3594C182.185 49.1771 182.435 48.9323 182.602 48.625V47.0312H181.578C180.875 47.0312 180.347 47.1536 179.992 47.3984C179.638 47.6432 179.461 47.9896 179.461 48.4375C179.461 48.8021 179.581 49.0938 179.821 49.3125C180.065 49.526 180.391 49.6328 180.797 49.6328ZM190.914 44.2812C190.664 44.2396 190.406 44.2188 190.141 44.2188C189.271 44.2188 188.685 44.5521 188.383 45.2188V51H186.485V42.5469H188.297L188.344 43.4922C188.802 42.7578 189.438 42.3906 190.25 42.3906C190.521 42.3906 190.745 42.4271 190.922 42.5L190.914 44.2812ZM194.133 51H192.235V42.5469H194.133V51ZM192.117 40.3516C192.117 40.0599 192.209 39.8177 192.391 39.625C192.578 39.4323 192.844 39.3359 193.188 39.3359C193.531 39.3359 193.797 39.4323 193.985 39.625C194.172 39.8177 194.266 40.0599 194.266 40.3516C194.266 40.638 194.172 40.8776 193.985 41.0703C193.797 41.2578 193.531 41.3516 193.188 41.3516C192.844 41.3516 192.578 41.2578 192.391 41.0703C192.209 40.8776 192.117 40.638 192.117 40.3516ZM198.586 40.4922V42.5469H200.078V43.9531H198.586V48.6719C198.586 48.9948 198.649 49.2292 198.774 49.375C198.904 49.5156 199.133 49.5859 199.461 49.5859C199.68 49.5859 199.901 49.5599 200.125 49.5078V50.9766C199.693 51.0964 199.276 51.1562 198.875 51.1562C197.417 51.1562 196.688 50.3516 196.688 48.7422V43.9531H195.297V42.5469H196.688V40.4922H198.586ZM204.492 48.2812L206.211 42.5469H208.235L204.875 52.2812C204.36 53.7031 203.485 54.4141 202.25 54.4141C201.974 54.4141 201.67 54.3672 201.336 54.2734V52.8047L201.696 52.8281C202.175 52.8281 202.534 52.7396 202.774 52.5625C203.018 52.3906 203.211 52.099 203.352 51.6875L203.625 50.9609L200.656 42.5469H202.703L204.492 48.2812Z" fill="#020E12"/>
<defs>
<filter id="filter0_ddd" x="0.000244141" y="0" width="349" height="370" filterUnits="userSpaceOnUse" color-interpolation-filters="sRGB">
<feFlood flood-opacity="0" result="BackgroundImageFix"/>
<feColorMatrix in="SourceAlpha" type="matrix" values="0 0 0 0 0 0 0 0 0 0 0 0 0 0 0 0 0 0 127 0"/>
<feOffset/>
<feGaussianBlur stdDeviation="0.5"/>
<feColorMatrix type="matrix" values="0 0 0 0 0 0 0 0 0 0 0 0 0 0 0 0 0 0 0.04 0"/>
<feBlend mode="normal" in2="BackgroundImageFix" result="effect1_dropShadow"/>
<feColorMatrix in="SourceAlpha" type="matrix" values="0 0 0 0 0 0 0 0 0 0 0 0 0 0 0 0 0 0 127 0"/>
<feOffset dy="2"/>
<feGaussianBlur stdDeviation="3"/>
<feColorMatrix type="matrix" values="0 0 0 0 0 0 0 0 0 0 0 0 0 0 0 0 0 0 0.04 0"/>
<feBlend mode="normal" in2="effect1_dropShadow" result="effect2_dropShadow"/>
<feColorMatrix in="SourceAlpha" type="matrix" values="0 0 0 0 0 0 0 0 0 0 0 0 0 0 0 0 0 0 127 0"/>
<feOffset dy="10"/>
<feGaussianBlur stdDeviation="10"/>
<feColorMatrix type="matrix" values="0 0 0 0 0 0 0 0 0 0 0 0 0 0 0 0 0 0 0.04 0"/>
<feBlend mode="normal" in2="effect2_dropShadow" result="effect3_dropShadow"/>
<feBlend mode="normal" in="SourceGraphic" in2="effect3_dropShadow" result="shape"/>
</filter>
</defs>
</svg>
