<svg width="172" height="172" viewBox="0 0 172 172" fill="none" xmlns="http://www.w3.org/2000/svg">
<rect width="172" height="172" rx="86" fill="#E2E7E9"/>
<path d="M53.6138 43.9006L52.9599 43.9699L52.5678 44.4977L27.7959 77.8449L27.0821 78.8058L27.8607 79.715L84.6297 146.007L85.769 147.337L86.9083 146.007L143.677 79.715L144.456 78.8058L143.742 77.8449L118.97 44.4977L118.578 43.9699L117.924 43.9006L85.9271 40.5084L85.769 40.4916L85.6109 40.5084L53.6138 43.9006Z" stroke="black" stroke-width="3"/>
<path d="M32.2594 80.2393H51.0751L78.7121 134.484L32.2594 80.2393Z" stroke="black" stroke-width="3"/>
<path d="M139.279 80.2393H120.463L92.826 134.484L139.279 80.2393Z" stroke="black" stroke-width="3"/>
<path d="M85.7694 141.727L54.4423 80.2393H117.096L85.7694 141.727Z" stroke="black" stroke-width="3"/>
<path d="M53.7146 74.652L55.202 46.749L81.9754 43.9106L53.7146 74.652Z" stroke="black" stroke-width="3"/>
<path d="M117.823 74.652L116.336 46.749L89.5627 43.9106L117.823 74.652Z" stroke="black" stroke-width="3"/>
<path d="M120.966 77.2393H139.555L119.529 50.2804L120.966 77.2393Z" stroke="black" stroke-width="3"/>
<path d="M50.5721 77.2393H31.9829L52.0091 50.2804L50.5721 77.2393Z" stroke="black" stroke-width="3"/>
<path d="M116.128 77.2394H55.4111L85.7694 44.2164L116.128 77.2394Z" stroke="black" stroke-width="3"/>
</svg>
