<svg width="404" height="404" viewBox="0 0 404 404" fill="none" xmlns="http://www.w3.org/2000/svg">
<circle cx="202" cy="202" r="202" fill="white"/>
<path fill-rule="evenodd" clip-rule="evenodd" d="M87.4805 56.3496C86.0998 56.3496 84.9805 57.4689 84.9805 58.8496V96.5431C84.9805 97.9238 86.0998 99.0431 87.4805 99.0431C88.8612 99.0431 89.9805 97.9238 89.9805 96.5431V61.3496H198.061V347.833C198.061 349.214 199.18 350.333 200.561 350.333C201.942 350.333 203.061 349.214 203.061 347.833V61.3496H311.142V96.5431C311.142 97.9238 312.261 99.0431 313.642 99.0431C315.022 99.0431 316.142 97.9238 316.142 96.5431V58.8496C316.142 57.4689 315.022 56.3496 313.642 56.3496H200.561H87.4805Z" fill="black"/>
<path d="M156.585 347.833H244.537" stroke="#D43900" stroke-width="5" stroke-linecap="round" stroke-linejoin="round"/>
</svg>
