<svg width="174" height="222" viewBox="0 0 174 222" fill="none" xmlns="http://www.w3.org/2000/svg">
<path fill-rule="evenodd" clip-rule="evenodd" d="M2.96045 0.20079C1.57974 0.20079 0.460449 1.32008 0.460449 2.70079V30.691C0.460449 32.0717 1.57974 33.191 2.96045 33.191C4.34116 33.191 5.46045 32.0717 5.46045 30.691V5.20079H84.4305V217.293C84.4305 218.673 85.5498 219.793 86.9305 219.793C88.3113 219.793 89.4305 218.673 89.4305 217.293V5.20079H168.402V30.691C168.402 32.0717 169.521 33.191 170.902 33.191C172.283 33.191 173.402 32.0717 173.402 30.691V2.70079C173.402 1.32008 172.283 0.20079 170.902 0.20079H86.9305H2.96045Z" fill="black"/>
<path d="M54.2749 217.293H119.585" stroke="#D43900" stroke-width="5" stroke-linecap="round" stroke-linejoin="round"/>
</svg>
