<svg width="77" height="96" viewBox="0 0 77 96" fill="none" xmlns="http://www.w3.org/2000/svg">
<path fill-rule="evenodd" clip-rule="evenodd" d="M2.5 0C1.11929 0 0 1.11929 0 2.5V14.3492C0 15.7299 1.11929 16.8492 2.5 16.8492C3.88071 16.8492 5 15.7299 5 14.3492V5H35.5476V93.3438C35.5476 94.7246 36.6669 95.8438 38.0476 95.8438C39.4283 95.8438 40.5476 94.7246 40.5476 93.3438V5H71.0952V14.3492C71.0952 15.7299 72.2145 16.8492 73.5952 16.8492C74.9759 16.8492 76.0952 15.7299 76.0952 14.3492V2.5C76.0952 1.11929 74.9759 0 73.5952 0H38.0476H2.5Z" fill="black"/>
<path d="M24.2235 93.3438H51.8716" stroke="#D43900" stroke-width="5" stroke-linecap="round" stroke-linejoin="round"/>
</svg>
